<svg width="965.59375" height="780" xmlns="http://www.w3.org/2000/svg" xmlns:xlink="http://www.w3.org/1999/xlink" viewBox="0,0,1065.59375,780"><rect width="1065.59375" height="780" fill="#ffffff"></rect><g transform="translate(50 0)"><g transform="translate(0)"><g id="header"><text x="0" y="0" dominant-baseline="hanging" font-size="13" fill="#000000">GCA_945859605.1 </text><g transform="translate(0 13)"><line x1="0" x2="965.5937499999966" y1="10" y2="10" stroke="#000000"></line><line x1="0" x2="0" y1="5" y2="15" stroke="#000000"></line><line x1="965.5937499999966" x2="965.5937499999966" y1="5" y2="15" stroke="#000000"></line><text x="482.7968749999983" y="13" text-anchor="middle" dominant-baseline="hanging" font-size="13" fill="#000000">20.8Kbp</text></g><g transform="translate(0 50)"><g><defs><clipPath id="clip-{GCA_945859605.1 }OX457036.1:2300666.3902792316..2321479.475425018-0"><rect x="0" y="0" width="965.5937499999966" height="100"></rect></clipPath></defs><g transform="translate(1.4551915228366852e-11 0)"><g clip-path="url(#clip-{GCA_945859605.1 }OX457036.1:2300666.3902792316..2321479.475425018-0)"><text x="4" y="13" font-size="13" fill="#000000">OX457036.1</text><g transform="translate(0 20)"><line x1="-30.91475239866793" x2="-30.91475239866793" y1="0" y2="6" stroke-width="1" stroke="#000000"></line><line x1="-12.358207765804812" x2="-12.358207765804812" y1="0" y2="4" stroke-width="1" stroke="#000000"></line><line x1="6.198336867058306" x2="6.198336867058306" y1="0" y2="4" stroke-width="1" stroke="#000000"></line><line x1="24.754881499921424" x2="24.754881499921424" y1="0" y2="4" stroke-width="1" stroke="#000000"></line><line x1="43.31142613278454" x2="43.31142613278454" y1="0" y2="4" stroke-width="1" stroke="#000000"></line><line x1="61.867970765647655" x2="61.867970765647655" y1="0" y2="4" stroke-width="1" stroke="#000000"></line><line x1="80.42451539851078" x2="80.42451539851078" y1="0" y2="4" stroke-width="1" stroke="#000000"></line><line x1="98.98106003137389" x2="98.98106003137389" y1="0" y2="4" stroke-width="1" stroke="#000000"></line><line x1="117.53760466423701" x2="117.53760466423701" y1="0" y2="4" stroke-width="1" stroke="#000000"></line><line x1="136.09414929710013" x2="136.09414929710013" y1="0" y2="4" stroke-width="1" stroke="#000000"></line><line x1="154.65069392996324" x2="154.65069392996324" y1="0" y2="6" stroke-width="1" stroke="#000000"></line><line x1="173.20723856282638" x2="173.20723856282638" y1="0" y2="4" stroke-width="1" stroke="#000000"></line><line x1="191.76378319568948" x2="191.76378319568948" y1="0" y2="4" stroke-width="1" stroke="#000000"></line><line x1="210.3203278285526" x2="210.3203278285526" y1="0" y2="4" stroke-width="1" stroke="#000000"></line><line x1="228.8768724614157" x2="228.8768724614157" y1="0" y2="4" stroke-width="1" stroke="#000000"></line><line x1="247.43341709427884" x2="247.43341709427884" y1="0" y2="4" stroke-width="1" stroke="#000000"></line><line x1="265.989961727142" x2="265.989961727142" y1="0" y2="4" stroke-width="1" stroke="#000000"></line><line x1="284.5465063600051" x2="284.5465063600051" y1="0" y2="4" stroke-width="1" stroke="#000000"></line><line x1="303.1030509928682" x2="303.1030509928682" y1="0" y2="4" stroke-width="1" stroke="#000000"></line><line x1="321.6595956257313" x2="321.6595956257313" y1="0" y2="4" stroke-width="1" stroke="#000000"></line><line x1="340.2161402585944" x2="340.2161402585944" y1="0" y2="6" stroke-width="1" stroke="#000000"></line><line x1="358.7726848914575" x2="358.7726848914575" y1="0" y2="4" stroke-width="1" stroke="#000000"></line><line x1="377.3292295243207" x2="377.3292295243207" y1="0" y2="4" stroke-width="1" stroke="#000000"></line><line x1="395.8857741571838" x2="395.8857741571838" y1="0" y2="4" stroke-width="1" stroke="#000000"></line><line x1="414.4423187900469" x2="414.4423187900469" y1="0" y2="4" stroke-width="1" stroke="#000000"></line><line x1="432.99886342291" x2="432.99886342291" y1="0" y2="4" stroke-width="1" stroke="#000000"></line><line x1="451.5554080557731" x2="451.5554080557731" y1="0" y2="4" stroke-width="1" stroke="#000000"></line><line x1="470.1119526886362" x2="470.1119526886362" y1="0" y2="4" stroke-width="1" stroke="#000000"></line><line x1="488.66849732149933" x2="488.66849732149933" y1="0" y2="4" stroke-width="1" stroke="#000000"></line><line x1="507.2250419543625" x2="507.2250419543625" y1="0" y2="4" stroke-width="1" stroke="#000000"></line><line x1="525.7815865872255" x2="525.7815865872255" y1="0" y2="6" stroke-width="1" stroke="#000000"></line><line x1="544.3381312200887" x2="544.3381312200887" y1="0" y2="4" stroke-width="1" stroke="#000000"></line><line x1="562.8946758529519" x2="562.8946758529519" y1="0" y2="4" stroke-width="1" stroke="#000000"></line><line x1="581.4512204858149" x2="581.4512204858149" y1="0" y2="4" stroke-width="1" stroke="#000000"></line><line x1="600.0077651186781" x2="600.0077651186781" y1="0" y2="4" stroke-width="1" stroke="#000000"></line><line x1="618.5643097515411" x2="618.5643097515411" y1="0" y2="4" stroke-width="1" stroke="#000000"></line><line x1="637.1208543844043" x2="637.1208543844043" y1="0" y2="4" stroke-width="1" stroke="#000000"></line><line x1="655.6773990172674" x2="655.6773990172674" y1="0" y2="4" stroke-width="1" stroke="#000000"></line><line x1="674.2339436501305" x2="674.2339436501305" y1="0" y2="4" stroke-width="1" stroke="#000000"></line><line x1="692.7904882829937" x2="692.7904882829937" y1="0" y2="4" stroke-width="1" stroke="#000000"></line><line x1="711.3470329158567" x2="711.3470329158567" y1="0" y2="6" stroke-width="1" stroke="#000000"></line><line x1="729.9035775487199" x2="729.9035775487199" y1="0" y2="4" stroke-width="1" stroke="#000000"></line><line x1="748.460122181583" x2="748.460122181583" y1="0" y2="4" stroke-width="1" stroke="#000000"></line><line x1="767.0166668144461" x2="767.0166668144461" y1="0" y2="4" stroke-width="1" stroke="#000000"></line><line x1="785.5732114473093" x2="785.5732114473093" y1="0" y2="4" stroke-width="1" stroke="#000000"></line><line x1="804.1297560801723" x2="804.1297560801723" y1="0" y2="4" stroke-width="1" stroke="#000000"></line><line x1="822.6863007130355" x2="822.6863007130355" y1="0" y2="4" stroke-width="1" stroke="#000000"></line><line x1="841.2428453458986" x2="841.2428453458986" y1="0" y2="4" stroke-width="1" stroke="#000000"></line><line x1="859.7993899787617" x2="859.7993899787617" y1="0" y2="4" stroke-width="1" stroke="#000000"></line><line x1="878.3559346116248" x2="878.3559346116248" y1="0" y2="4" stroke-width="1" stroke="#000000"></line><line x1="896.9124792444879" x2="896.9124792444879" y1="0" y2="6" stroke-width="1" stroke="#000000"></line><line x1="915.4690238773511" x2="915.4690238773511" y1="0" y2="4" stroke-width="1" stroke="#000000"></line><line x1="934.0255685102142" x2="934.0255685102142" y1="0" y2="4" stroke-width="1" stroke="#000000"></line><line x1="952.5821131430773" x2="952.5821131430773" y1="0" y2="4" stroke-width="1" stroke="#000000"></line><line x1="971.1386577759404" x2="971.1386577759404" y1="0" y2="4" stroke-width="1" stroke="#000000"></line><line x1="989.6952024088035" x2="989.6952024088035" y1="0" y2="4" stroke-width="1" stroke="#000000"></line><text x="-33.91475239866793" y="18" font-size="11" fill="#000000">2,300,000</text><text x="151.65069392996324" y="18" font-size="11" fill="#000000">2,304,000</text><text x="337.2161402585944" y="18" font-size="11" fill="#000000">2,308,000</text><text x="522.7815865872255" y="18" font-size="11" fill="#000000">2,312,000</text><text x="708.3470329158567" y="18" font-size="11" fill="#000000">2,316,000</text><text x="893.9124792444879" y="18" font-size="11" fill="#000000">2,320,000</text></g></g></g></g></g></g></g><g transform="translate(0 100)"><g transform="translate(0 0)"><g transform="translate(0 18)"><defs><clipPath id="clip-3IDlZDj3Q0-ApaCKgeeNu-0.744643496590309"><rect x="0" y="0" width="965.5937499999966" height="444"></rect></clipPath></defs><g transform="translate(1.4551915228366852e-11 0)"><g clip-path="url(#clip-3IDlZDj3Q0-ApaCKgeeNu-0.744643496590309)"><g><g></g><g></g><g></g><g></g><g></g><g></g><g></g><g></g><g></g><g><line x1="433.4" x2="426.4" y1="5" y2="5" stroke="#000000"></line><polygon points="429.9,2.5,429.9,7.5,426.4,5" stroke="#000000" fill="#000000"></polygon><rect data-testid="box--1002833003-OX457036.1-165" x="433.4" y="0" width="2" height="10" fill="goldenrod" stroke=""></rect></g><g><line x1="433.4" x2="426.4" y1="20" y2="20" stroke="#000000"></line><polygon points="429.9,17.5,429.9,22.5,426.4,20" stroke="#000000" fill="#000000"></polygon><rect data-testid="box--1002833003-OX457036.1-167" x="433.4" y="15" width="15.169975237365598" height="10" fill="#8080FF" stroke=""></rect></g><g><line x1="433.4" x2="426.4" y1="35" y2="35" stroke="#000000"></line><polygon points="429.9,32.5,429.9,37.5,426.4,35" stroke="#000000" fill="#000000"></polygon><rect data-testid="box--1002833003-OX457036.1-163" x="433.4" y="30" width="269.48741943075464" height="10" fill="goldenrod" stroke=""></rect></g><g><line x1="433.4" x2="426.4" y1="50" y2="50" stroke="#000000"></line><polygon points="429.9,47.5,429.9,52.5,426.4,50" stroke="#000000" fill="#000000"></polygon><rect data-testid="box--1002833003-OX457036.1-164" x="433.4" y="45" width="269.48741943075464" height="10" fill="goldenrod" stroke=""></rect></g><g><line x1="448.6" x2="441.6" y1="5" y2="5" stroke="#000000"></line><polygon points="445.1,2.5,445.1,7.5,441.6,5" stroke="#000000" fill="#000000"></polygon><rect data-testid="box--1002833003-OX457036.1-166" x="448.6" y="0" width="28.020382395623308" height="10" fill="goldenrod" stroke=""></rect></g><g><line x1="476.6" x2="469.6" y1="20" y2="20" stroke="#000000"></line><polygon points="473.1,17.5,473.1,22.5,469.6,20" stroke="#000000" fill="#000000"></polygon><rect data-testid="box--1002833003-OX457036.1-168" x="476.6" y="15" width="226.2970617977657" height="10" fill="#FF8080" stroke=""></rect></g><g><line x1="702.8" x2="695.8" y1="5" y2="5" stroke="#000000"></line><polygon points="699.3,2.5,699.3,7.5,695.8,5" stroke="#000000" fill="#000000"></polygon><rect data-testid="box--1002833003-OX457036.1-169" x="702.8" y="0" width="2" height="10" fill="goldenrod" stroke=""></rect></g></g></g></g></g><g><text x="0" y="5" fill="#000000" font-size="13" dominant-baseline="hanging">augustus.worm.lumter.2-3mb.gff</text></g></g><g transform="translate(0 462)"><g transform="translate(0 18)"><defs><clipPath id="clip-htGuAc_enpIH9ebo0fbGF-0.49747384160557573"><rect x="0" y="0" width="965.5937499999966" height="100"></rect></clipPath></defs><g transform="translate(1.4551915228366852e-11 0)"><g clip-path="url(#clip-htGuAc_enpIH9ebo0fbGF-0.49747384160557573)"><g><g><line data-testid="425862032-OX457036.1-9-0" x1="433.4" y1="5" y2="5" x2="702.8874194307546" stroke="#000000"></line><rect data-testid="box-425862032-OX457036.1-9-0-2" x="433.4" y="0" width="13.917408474647338" height="10" fill="#8080FF" stroke=""></rect><rect data-testid="box-425862032-OX457036.1-9-0-3" x="481.043928344876" y="0" width="221.84349108587855" height="10" fill="#FF8080" stroke=""></rect><line x1="433.4" x2="426.4" y1="5" y2="5" stroke="#000000"></line><polygon points="429.9,2.5,429.9,7.5,426.4,5" stroke="#000000" fill="#000000"></polygon><text x="433.4" y="22" fill="#000000" font-size="12">g10</text></g></g></g></g></g><g><text x="0" y="5" fill="#000000" font-size="13" dominant-baseline="hanging">augustus.prothints.gff3</text></g></g></g></g></svg>