<svg width="965.59375" height="780" xmlns="http://www.w3.org/2000/svg" xmlns:xlink="http://www.w3.org/1999/xlink" viewBox="0,0,1065.59375,780"><rect width="1065.59375" height="780" fill="#ffffff"></rect><g transform="translate(50 0)"><g transform="translate(0)"><g id="header"><text x="0" y="0" dominant-baseline="hanging" font-size="13" fill="#000000">GCA_945859605.1 </text><g transform="translate(0 13)"><line x1="0" x2="965.5937499999966" y1="10" y2="10" stroke="#000000"></line><line x1="0" x2="0" y1="5" y2="15" stroke="#000000"></line><line x1="965.5937499999966" x2="965.5937499999966" y1="5" y2="15" stroke="#000000"></line><text x="482.7968749999983" y="13" text-anchor="middle" dominant-baseline="hanging" font-size="13" fill="#000000">20.8Kbp</text></g><g transform="translate(0 50)"><g><defs><clipPath id="clip-{GCA_945859605.1 }OX457036.1:2365333.6019687844..2386146.6871145708-0"><rect x="0" y="0" width="965.5937499999966" height="100"></rect></clipPath></defs><g transform="translate(0 0)"><g clip-path="url(#clip-{GCA_945859605.1 }OX457036.1:2365333.6019687844..2386146.6871145708-0)"><text x="4" y="13" font-size="13" fill="#000000">OX457036.1</text><g transform="translate(0 20)"><line x1="-24.7545218748261" x2="-24.7545218748261" y1="0" y2="4" stroke-width="1" stroke="#000000"></line><line x1="-6.197977241962981" x2="-6.197977241962981" y1="0" y2="4" stroke-width="1" stroke="#000000"></line><line x1="12.358567390900136" x2="12.358567390900136" y1="0" y2="4" stroke-width="1" stroke="#000000"></line><line x1="30.915112023763253" x2="30.915112023763253" y1="0" y2="4" stroke-width="1" stroke="#000000"></line><line x1="49.47165665662637" x2="49.47165665662637" y1="0" y2="4" stroke-width="1" stroke="#000000"></line><line x1="68.02820128948949" x2="68.02820128948949" y1="0" y2="4" stroke-width="1" stroke="#000000"></line><line x1="86.58474592235261" x2="86.58474592235261" y1="0" y2="4" stroke-width="1" stroke="#000000"></line><line x1="105.14129055521572" x2="105.14129055521572" y1="0" y2="4" stroke-width="1" stroke="#000000"></line><line x1="123.69783518807884" x2="123.69783518807884" y1="0" y2="6" stroke-width="1" stroke="#000000"></line><line x1="142.25437982094195" x2="142.25437982094195" y1="0" y2="4" stroke-width="1" stroke="#000000"></line><line x1="160.8109244538051" x2="160.8109244538051" y1="0" y2="4" stroke-width="1" stroke="#000000"></line><line x1="179.3674690866682" x2="179.3674690866682" y1="0" y2="4" stroke-width="1" stroke="#000000"></line><line x1="197.9240137195313" x2="197.9240137195313" y1="0" y2="4" stroke-width="1" stroke="#000000"></line><line x1="216.48055835239444" x2="216.48055835239444" y1="0" y2="4" stroke-width="1" stroke="#000000"></line><line x1="235.03710298525755" x2="235.03710298525755" y1="0" y2="4" stroke-width="1" stroke="#000000"></line><line x1="253.59364761812066" x2="253.59364761812066" y1="0" y2="4" stroke-width="1" stroke="#000000"></line><line x1="272.15019225098376" x2="272.15019225098376" y1="0" y2="4" stroke-width="1" stroke="#000000"></line><line x1="290.7067368838469" x2="290.7067368838469" y1="0" y2="4" stroke-width="1" stroke="#000000"></line><line x1="309.26328151671004" x2="309.26328151671004" y1="0" y2="6" stroke-width="1" stroke="#000000"></line><line x1="327.81982614957315" x2="327.81982614957315" y1="0" y2="4" stroke-width="1" stroke="#000000"></line><line x1="346.37637078243625" x2="346.37637078243625" y1="0" y2="4" stroke-width="1" stroke="#000000"></line><line x1="364.93291541529936" x2="364.93291541529936" y1="0" y2="4" stroke-width="1" stroke="#000000"></line><line x1="383.48946004816247" x2="383.48946004816247" y1="0" y2="4" stroke-width="1" stroke="#000000"></line><line x1="402.0460046810256" x2="402.0460046810256" y1="0" y2="4" stroke-width="1" stroke="#000000"></line><line x1="420.60254931388874" x2="420.60254931388874" y1="0" y2="4" stroke-width="1" stroke="#000000"></line><line x1="439.15909394675185" x2="439.15909394675185" y1="0" y2="4" stroke-width="1" stroke="#000000"></line><line x1="457.71563857961496" x2="457.71563857961496" y1="0" y2="4" stroke-width="1" stroke="#000000"></line><line x1="476.27218321247807" x2="476.27218321247807" y1="0" y2="4" stroke-width="1" stroke="#000000"></line><line x1="494.8287278453412" x2="494.8287278453412" y1="0" y2="6" stroke-width="1" stroke="#000000"></line><line x1="513.3852724782043" x2="513.3852724782043" y1="0" y2="4" stroke-width="1" stroke="#000000"></line><line x1="531.9418171110674" x2="531.9418171110674" y1="0" y2="4" stroke-width="1" stroke="#000000"></line><line x1="550.4983617439306" x2="550.4983617439306" y1="0" y2="4" stroke-width="1" stroke="#000000"></line><line x1="569.0549063767936" x2="569.0549063767936" y1="0" y2="4" stroke-width="1" stroke="#000000"></line><line x1="587.6114510096568" x2="587.6114510096568" y1="0" y2="4" stroke-width="1" stroke="#000000"></line><line x1="606.1679956425199" x2="606.1679956425199" y1="0" y2="4" stroke-width="1" stroke="#000000"></line><line x1="624.724540275383" x2="624.724540275383" y1="0" y2="4" stroke-width="1" stroke="#000000"></line><line x1="643.2810849082462" x2="643.2810849082462" y1="0" y2="4" stroke-width="1" stroke="#000000"></line><line x1="661.8376295411092" x2="661.8376295411092" y1="0" y2="4" stroke-width="1" stroke="#000000"></line><line x1="680.3941741739724" x2="680.3941741739724" y1="0" y2="6" stroke-width="1" stroke="#000000"></line><line x1="698.9507188068354" x2="698.9507188068354" y1="0" y2="4" stroke-width="1" stroke="#000000"></line><line x1="717.5072634396986" x2="717.5072634396986" y1="0" y2="4" stroke-width="1" stroke="#000000"></line><line x1="736.0638080725618" x2="736.0638080725618" y1="0" y2="4" stroke-width="1" stroke="#000000"></line><line x1="754.6203527054248" x2="754.6203527054248" y1="0" y2="4" stroke-width="1" stroke="#000000"></line><line x1="773.176897338288" x2="773.176897338288" y1="0" y2="4" stroke-width="1" stroke="#000000"></line><line x1="791.733441971151" x2="791.733441971151" y1="0" y2="4" stroke-width="1" stroke="#000000"></line><line x1="810.2899866040142" x2="810.2899866040142" y1="0" y2="4" stroke-width="1" stroke="#000000"></line><line x1="828.8465312368774" x2="828.8465312368774" y1="0" y2="4" stroke-width="1" stroke="#000000"></line><line x1="847.4030758697404" x2="847.4030758697404" y1="0" y2="4" stroke-width="1" stroke="#000000"></line><line x1="865.9596205026036" x2="865.9596205026036" y1="0" y2="6" stroke-width="1" stroke="#000000"></line><line x1="884.5161651354666" x2="884.5161651354666" y1="0" y2="4" stroke-width="1" stroke="#000000"></line><line x1="903.0727097683298" x2="903.0727097683298" y1="0" y2="4" stroke-width="1" stroke="#000000"></line><line x1="921.6292544011928" x2="921.6292544011928" y1="0" y2="4" stroke-width="1" stroke="#000000"></line><line x1="940.185799034056" x2="940.185799034056" y1="0" y2="4" stroke-width="1" stroke="#000000"></line><line x1="958.7423436669192" x2="958.7423436669192" y1="0" y2="4" stroke-width="1" stroke="#000000"></line><line x1="977.2988882997822" x2="977.2988882997822" y1="0" y2="4" stroke-width="1" stroke="#000000"></line><line x1="995.8554329326454" x2="995.8554329326454" y1="0" y2="4" stroke-width="1" stroke="#000000"></line><text x="120.69783518807884" y="18" font-size="11" fill="#000000">2,368,000</text><text x="306.26328151671004" y="18" font-size="11" fill="#000000">2,372,000</text><text x="491.8287278453412" y="18" font-size="11" fill="#000000">2,376,000</text><text x="677.3941741739724" y="18" font-size="11" fill="#000000">2,380,000</text><text x="862.9596205026036" y="18" font-size="11" fill="#000000">2,384,000</text></g></g></g></g></g></g></g><g transform="translate(0 100)"><g transform="translate(0 0)"><g transform="translate(0 18)"><defs><clipPath id="clip-3IDlZDj3Q0-ApaCKgeeNu-0.17019053210074864"><rect x="0" y="0" width="965.5937499999966" height="444"></rect></clipPath></defs><g transform="translate(0 0)"><g clip-path="url(#clip-3IDlZDj3Q0-ApaCKgeeNu-0.17019053210074864)"><g><g><line x1="87" x2="80" y1="5" y2="5" stroke="#000000"></line><polygon points="83.5,2.5,83.5,7.5,80,5" stroke="#000000" fill="#000000"></polygon><rect data-testid="box--1002833003-OX457036.1-181" x="87" y="0" width="2" height="10" fill="goldenrod" stroke=""></rect></g><g><line x1="87" x2="80" y1="20" y2="20" stroke="#000000"></line><polygon points="83.5,17.5,83.5,22.5,80,20" stroke="#000000" fill="#000000"></polygon><rect data-testid="box--1002833003-OX457036.1-183" x="87" y="15" width="10.623621802314135" height="10" fill="#FF8080" stroke=""></rect></g><g><line x1="87" x2="80" y1="35" y2="35" stroke="#000000"></line><polygon points="83.5,32.5,83.5,37.5,80,35" stroke="#000000" fill="#000000"></polygon><rect data-testid="box--1002833003-OX457036.1-179" x="87" y="30" width="42.40170448609222" height="10" fill="goldenrod" stroke=""></rect></g><g><line x1="87" x2="80" y1="50" y2="50" stroke="#000000"></line><polygon points="83.5,47.5,83.5,52.5,80,50" stroke="#000000" fill="#000000"></polygon><rect data-testid="box--1002833003-OX457036.1-180" x="87" y="45" width="42.40170448609222" height="10" fill="goldenrod" stroke=""></rect></g><g><line x1="97.6" x2="90.6" y1="5" y2="5" stroke="#000000"></line><polygon points="94.1,2.5,94.1,7.5,90.6,5" stroke="#000000" fill="#000000"></polygon><rect data-testid="box--1002833003-OX457036.1-182" x="97.6" y="0" width="11.226709502882185" height="10" fill="goldenrod" stroke=""></rect></g><g><line x1="108.8" x2="101.8" y1="20" y2="20" stroke="#000000"></line><polygon points="105.3,17.5,105.3,22.5,101.8,20" stroke="#000000" fill="#000000"></polygon><rect data-testid="box--1002833003-OX457036.1-184" x="108.8" y="15" width="20.5513731808959" height="10" fill="#8080FF" stroke=""></rect></g><g><line x1="129.2" x2="122.19999999999999" y1="5" y2="5" stroke="#000000"></line><polygon points="125.69999999999999,2.5,125.69999999999999,7.5,122.19999999999999,5" stroke="#000000" fill="#000000"></polygon><rect data-testid="box--1002833003-OX457036.1-185" x="129.2" y="0" width="2" height="10" fill="goldenrod" stroke=""></rect></g><g><line x1="131.6" x2="124.6" y1="65" y2="65" stroke="#000000"></line><polygon points="128.1,62.5,128.1,67.5,124.6,65" stroke="#000000" fill="#000000"></polygon><rect data-testid="box--1002833003-OX457036.1-188" x="131.6" y="60" width="2" height="10" fill="goldenrod" stroke=""></rect></g><g><line x1="131.6" x2="124.6" y1="80" y2="80" stroke="#000000"></line><polygon points="128.1,77.5,128.1,82.5,124.6,80" stroke="#000000" fill="#000000"></polygon><rect data-testid="box--1002833003-OX457036.1-186" x="131.6" y="75" width="81.83436183092634" height="10" fill="goldenrod" stroke=""></rect></g><g><line x1="131.6" x2="124.6" y1="95" y2="95" stroke="#000000"></line><polygon points="128.1,92.5,128.1,97.5,124.6,95" stroke="#000000" fill="#000000"></polygon><rect data-testid="box--1002833003-OX457036.1-187" x="131.6" y="90" width="81.83436183092634" height="10" fill="goldenrod" stroke=""></rect></g><g><line x1="131.6" x2="124.6" y1="110" y2="110" stroke="#000000"></line><polygon points="128.1,107.5,128.1,112.5,124.6,110" stroke="#000000" fill="#000000"></polygon><rect data-testid="box--1002833003-OX457036.1-189" x="131.6" y="105" width="81.83436183092634" height="10" fill="#8080FF" stroke=""></rect></g><g><line x1="213.3" x2="206.3" y1="5" y2="5" stroke="#000000"></line><polygon points="209.8,2.5,209.8,7.5,206.3,5" stroke="#000000" fill="#000000"></polygon><rect data-testid="box--1002833003-OX457036.1-190" x="213.3" y="0" width="2" height="10" fill="goldenrod" stroke=""></rect></g><g><line x1="440.3" x2="433.3" y1="5" y2="5" stroke="#000000"></line><polygon points="436.8,2.5,436.8,7.5,433.3,5" stroke="#000000" fill="#000000"></polygon><rect data-testid="box--1002833003-OX457036.1-193" x="440.3" y="0" width="2" height="10" fill="goldenrod" stroke=""></rect></g><g><line x1="440.3" x2="433.3" y1="20" y2="20" stroke="#000000"></line><polygon points="436.8,17.5,436.8,22.5,433.3,20" stroke="#000000" fill="#000000"></polygon><rect data-testid="box--1002833003-OX457036.1-195" x="440.3" y="15" width="9.185489593267244" height="10" fill="#80FF80" stroke=""></rect></g><g><line x1="440.3" x2="433.3" y1="35" y2="35" stroke="#000000"></line><polygon points="436.8,32.5,436.8,37.5,433.3,35" stroke="#000000" fill="#000000"></polygon><rect data-testid="box--1002833003-OX457036.1-191" x="440.3" y="30" width="186.6324476450208" height="10" fill="goldenrod" stroke=""></rect></g><g><line x1="440.3" x2="433.3" y1="50" y2="50" stroke="#000000"></line><polygon points="436.8,47.5,436.8,52.5,433.3,50" stroke="#000000" fill="#000000"></polygon><rect data-testid="box--1002833003-OX457036.1-192" x="440.3" y="45" width="186.6324476450208" height="10" fill="goldenrod" stroke=""></rect></g><g><line x1="449.4" x2="442.4" y1="5" y2="5" stroke="#000000"></line><polygon points="445.9,2.5,445.9,7.5,442.4,5" stroke="#000000" fill="#000000"></polygon><rect data-testid="box--1002833003-OX457036.1-194" x="449.4" y="0" width="141.6792182719099" height="10" fill="goldenrod" stroke=""></rect></g><g><line x1="591.1" x2="584.1" y1="20" y2="20" stroke="#000000"></line><polygon points="587.6,17.5,587.6,22.5,584.1,20" stroke="#000000" fill="#000000"></polygon><rect data-testid="box--1002833003-OX457036.1-196" x="591.1" y="15" width="35.76773977984366" height="10" fill="#80FF80" stroke=""></rect></g><g><line x1="626.7" x2="619.7" y1="5" y2="5" stroke="#000000"></line><polygon points="623.2,2.5,623.2,7.5,619.7,5" stroke="#000000" fill="#000000"></polygon><rect data-testid="box--1002833003-OX457036.1-197" x="626.7" y="0" width="2" height="10" fill="goldenrod" stroke=""></rect></g><g><line x1="744" x2="737" y1="5" y2="5" stroke="#000000"></line><polygon points="740.5,2.5,740.5,7.5,737,5" stroke="#000000" fill="#000000"></polygon><rect data-testid="box--1002833003-OX457036.1-200" x="744" y="0" width="2" height="10" fill="goldenrod" stroke=""></rect></g><g><line x1="744" x2="737" y1="20" y2="20" stroke="#000000"></line><polygon points="740.5,17.5,740.5,22.5,737,20" stroke="#000000" fill="#000000"></polygon><rect data-testid="box--1002833003-OX457036.1-198" x="744" y="15" width="145.2977444753182" height="10" fill="goldenrod" stroke=""></rect></g><g><line x1="744" x2="737" y1="35" y2="35" stroke="#000000"></line><polygon points="740.5,32.5,740.5,37.5,737,35" stroke="#000000" fill="#000000"></polygon><rect data-testid="box--1002833003-OX457036.1-199" x="744" y="30" width="145.2977444753182" height="10" fill="goldenrod" stroke=""></rect></g><g><line x1="744" x2="737" y1="50" y2="50" stroke="#000000"></line><polygon points="740.5,47.5,740.5,52.5,737,50" stroke="#000000" fill="#000000"></polygon><rect data-testid="box--1002833003-OX457036.1-201" x="744" y="45" width="145.2977444753182" height="10" fill="#8080FF" stroke=""></rect></g><g><line x1="889.1" x2="882.1" y1="5" y2="5" stroke="#000000"></line><polygon points="885.6,2.5,885.6,7.5,882.1,5" stroke="#000000" fill="#000000"></polygon><rect data-testid="box--1002833003-OX457036.1-202" x="889.1" y="0" width="2" height="10" fill="goldenrod" stroke=""></rect></g></g></g></g></g><g><text x="0" y="5" fill="#000000" font-size="13" dominant-baseline="hanging">augustus.worm.lumter.2-3mb.gff</text></g></g><g transform="translate(0 462)"><g transform="translate(0 18)"><defs><clipPath id="clip-htGuAc_enpIH9ebo0fbGF-0.07794385291219053"><rect x="0" y="0" width="965.5937499999966" height="100"></rect></clipPath></defs><g transform="translate(0 0)"><g clip-path="url(#clip-htGuAc_enpIH9ebo0fbGF-0.07794385291219053)"><g><g><line data-testid="425862032-OX457036.1-11-0" x1="131.6" y1="5" y2="5" x2="213.43436183092632" stroke="#000000"></line><rect data-testid="box-425862032-OX457036.1-11-0-1" x="131.6" y="0" width="81.83436183092634" height="10" fill="#8080FF" stroke=""></rect><line x1="131.6" x2="124.6" y1="5" y2="5" stroke="#000000"></line><polygon points="128.1,2.5,128.1,7.5,124.6,5" stroke="#000000" fill="#000000"></polygon><text x="131.6" y="22" fill="#000000" font-size="12">g12</text></g><g><line data-testid="425862032-OX457036.1-12-0" x1="440.3" y1="5" y2="5" x2="623.0355732721196" stroke="#000000"></line><rect data-testid="box-425862032-OX457036.1-12-0-2" x="440.3" y="0" width="9.27827231643156" height="10" fill="#80FF80" stroke=""></rect><rect data-testid="box-425862032-OX457036.1-12-0-3" x="598.6337170799045" y="0" width="24.401856192215" height="10" fill="#80FF80" stroke=""></rect><line x1="440.3" x2="433.3" y1="5" y2="5" stroke="#000000"></line><polygon points="436.8,2.5,436.8,7.5,433.3,5" stroke="#000000" fill="#000000"></polygon><text x="440.3" y="22" fill="#000000" font-size="12">g13</text></g><g><line data-testid="425862032-OX457036.1-13-0" x1="744" y1="5" y2="5" x2="885.400870102417" stroke="#000000"></line><rect data-testid="box-425862032-OX457036.1-13-0-1" x="744" y="0" width="141.40087010241695" height="10" fill="#8080FF" stroke=""></rect><line x1="744" x2="737" y1="5" y2="5" stroke="#000000"></line><polygon points="740.5,2.5,740.5,7.5,737,5" stroke="#000000" fill="#000000"></polygon><text x="744" y="22" fill="#000000" font-size="12">g14</text></g></g></g></g></g><g><text x="0" y="5" fill="#000000" font-size="13" dominant-baseline="hanging">augustus.prothints.gff3</text></g></g></g></g></svg>