<svg width="965.59375" height="780" xmlns="http://www.w3.org/2000/svg" xmlns:xlink="http://www.w3.org/1999/xlink" viewBox="0,0,1065.59375,780"><rect width="1065.59375" height="780" fill="#ffffff"></rect><g transform="translate(50 0)"><g transform="translate(0)"><g id="header"><text x="0" y="0" dominant-baseline="hanging" font-size="13" fill="#000000">GCA_945859605.1 </text><g transform="translate(0 13)"><line x1="0" x2="965.5937499999966" y1="10" y2="10" stroke="#000000"></line><line x1="0" x2="0" y1="5" y2="15" stroke="#000000"></line><line x1="965.5937499999966" x2="965.5937499999966" y1="5" y2="15" stroke="#000000"></line><text x="482.7968749999983" y="13" text-anchor="middle" dominant-baseline="hanging" font-size="13" fill="#000000">20.8Kbp</text></g><g transform="translate(0 50)"><g><defs><clipPath id="clip-{GCA_945859605.1 }OX457036.1:2471258.4947162727..2492071.579862059-0"><rect x="0" y="0" width="965.5937499999966" height="100"></rect></clipPath></defs><g transform="translate(1.4551915228366852e-11 0)"><g clip-path="url(#clip-{GCA_945859605.1 }OX457036.1:2471258.4947162727..2492071.579862059-0)"><text x="4" y="13" font-size="13" fill="#000000">OX457036.1</text><g transform="translate(0 20)"><line x1="-21.270194166115182" x2="-21.270194166115182" y1="0" y2="4" stroke-width="1" stroke="#000000"></line><line x1="-2.7136495332520636" x2="-2.7136495332520636" y1="0" y2="4" stroke-width="1" stroke="#000000"></line><line x1="15.842895099611054" x2="15.842895099611054" y1="0" y2="4" stroke-width="1" stroke="#000000"></line><line x1="34.39943973247417" x2="34.39943973247417" y1="0" y2="6" stroke-width="1" stroke="#000000"></line><line x1="52.95598436533729" x2="52.95598436533729" y1="0" y2="4" stroke-width="1" stroke="#000000"></line><line x1="71.51252899820041" x2="71.51252899820041" y1="0" y2="4" stroke-width="1" stroke="#000000"></line><line x1="90.06907363106352" x2="90.06907363106352" y1="0" y2="4" stroke-width="1" stroke="#000000"></line><line x1="108.62561826392664" x2="108.62561826392664" y1="0" y2="4" stroke-width="1" stroke="#000000"></line><line x1="127.18216289678976" x2="127.18216289678976" y1="0" y2="4" stroke-width="1" stroke="#000000"></line><line x1="145.73870752965288" x2="145.73870752965288" y1="0" y2="4" stroke-width="1" stroke="#000000"></line><line x1="164.295252162516" x2="164.295252162516" y1="0" y2="4" stroke-width="1" stroke="#000000"></line><line x1="182.8517967953791" x2="182.8517967953791" y1="0" y2="4" stroke-width="1" stroke="#000000"></line><line x1="201.40834142824224" x2="201.40834142824224" y1="0" y2="4" stroke-width="1" stroke="#000000"></line><line x1="219.96488606110535" x2="219.96488606110535" y1="0" y2="6" stroke-width="1" stroke="#000000"></line><line x1="238.52143069396845" x2="238.52143069396845" y1="0" y2="4" stroke-width="1" stroke="#000000"></line><line x1="257.07797532683156" x2="257.07797532683156" y1="0" y2="4" stroke-width="1" stroke="#000000"></line><line x1="275.63451995969467" x2="275.63451995969467" y1="0" y2="4" stroke-width="1" stroke="#000000"></line><line x1="294.19106459255784" x2="294.19106459255784" y1="0" y2="4" stroke-width="1" stroke="#000000"></line><line x1="312.74760922542094" x2="312.74760922542094" y1="0" y2="4" stroke-width="1" stroke="#000000"></line><line x1="331.30415385828405" x2="331.30415385828405" y1="0" y2="4" stroke-width="1" stroke="#000000"></line><line x1="349.86069849114716" x2="349.86069849114716" y1="0" y2="4" stroke-width="1" stroke="#000000"></line><line x1="368.41724312401027" x2="368.41724312401027" y1="0" y2="4" stroke-width="1" stroke="#000000"></line><line x1="386.9737877568734" x2="386.9737877568734" y1="0" y2="4" stroke-width="1" stroke="#000000"></line><line x1="405.53033238973654" x2="405.53033238973654" y1="0" y2="6" stroke-width="1" stroke="#000000"></line><line x1="424.08687702259965" x2="424.08687702259965" y1="0" y2="4" stroke-width="1" stroke="#000000"></line><line x1="442.64342165546276" x2="442.64342165546276" y1="0" y2="4" stroke-width="1" stroke="#000000"></line><line x1="461.19996628832587" x2="461.19996628832587" y1="0" y2="4" stroke-width="1" stroke="#000000"></line><line x1="479.756510921189" x2="479.756510921189" y1="0" y2="4" stroke-width="1" stroke="#000000"></line><line x1="498.3130555540521" x2="498.3130555540521" y1="0" y2="4" stroke-width="1" stroke="#000000"></line><line x1="516.8696001869152" x2="516.8696001869152" y1="0" y2="4" stroke-width="1" stroke="#000000"></line><line x1="535.4261448197783" x2="535.4261448197783" y1="0" y2="4" stroke-width="1" stroke="#000000"></line><line x1="553.9826894526415" x2="553.9826894526415" y1="0" y2="4" stroke-width="1" stroke="#000000"></line><line x1="572.5392340855046" x2="572.5392340855046" y1="0" y2="4" stroke-width="1" stroke="#000000"></line><line x1="591.0957787183677" x2="591.0957787183677" y1="0" y2="6" stroke-width="1" stroke="#000000"></line><line x1="609.6523233512308" x2="609.6523233512308" y1="0" y2="4" stroke-width="1" stroke="#000000"></line><line x1="628.2088679840939" x2="628.2088679840939" y1="0" y2="4" stroke-width="1" stroke="#000000"></line><line x1="646.7654126169571" x2="646.7654126169571" y1="0" y2="4" stroke-width="1" stroke="#000000"></line><line x1="665.3219572498201" x2="665.3219572498201" y1="0" y2="4" stroke-width="1" stroke="#000000"></line><line x1="683.8785018826833" x2="683.8785018826833" y1="0" y2="4" stroke-width="1" stroke="#000000"></line><line x1="702.4350465155464" x2="702.4350465155464" y1="0" y2="4" stroke-width="1" stroke="#000000"></line><line x1="720.9915911484095" x2="720.9915911484095" y1="0" y2="4" stroke-width="1" stroke="#000000"></line><line x1="739.5481357812727" x2="739.5481357812727" y1="0" y2="4" stroke-width="1" stroke="#000000"></line><line x1="758.1046804141357" x2="758.1046804141357" y1="0" y2="4" stroke-width="1" stroke="#000000"></line><line x1="776.6612250469989" x2="776.6612250469989" y1="0" y2="6" stroke-width="1" stroke="#000000"></line><line x1="795.2177696798619" x2="795.2177696798619" y1="0" y2="4" stroke-width="1" stroke="#000000"></line><line x1="813.7743143127251" x2="813.7743143127251" y1="0" y2="4" stroke-width="1" stroke="#000000"></line><line x1="832.3308589455883" x2="832.3308589455883" y1="0" y2="4" stroke-width="1" stroke="#000000"></line><line x1="850.8874035784513" x2="850.8874035784513" y1="0" y2="4" stroke-width="1" stroke="#000000"></line><line x1="869.4439482113145" x2="869.4439482113145" y1="0" y2="4" stroke-width="1" stroke="#000000"></line><line x1="888.0004928441775" x2="888.0004928441775" y1="0" y2="4" stroke-width="1" stroke="#000000"></line><line x1="906.5570374770407" x2="906.5570374770407" y1="0" y2="4" stroke-width="1" stroke="#000000"></line><line x1="925.1135821099039" x2="925.1135821099039" y1="0" y2="4" stroke-width="1" stroke="#000000"></line><line x1="943.6701267427669" x2="943.6701267427669" y1="0" y2="4" stroke-width="1" stroke="#000000"></line><line x1="962.2266713756301" x2="962.2266713756301" y1="0" y2="6" stroke-width="1" stroke="#000000"></line><line x1="980.7832160084931" x2="980.7832160084931" y1="0" y2="4" stroke-width="1" stroke="#000000"></line><line x1="999.3397606413563" x2="999.3397606413563" y1="0" y2="4" stroke-width="1" stroke="#000000"></line><text x="31.39943973247417" y="18" font-size="11" fill="#000000">2,472,000</text><text x="216.96488606110535" y="18" font-size="11" fill="#000000">2,476,000</text><text x="402.53033238973654" y="18" font-size="11" fill="#000000">2,480,000</text><text x="588.0957787183677" y="18" font-size="11" fill="#000000">2,484,000</text><text x="773.6612250469989" y="18" font-size="11" fill="#000000">2,488,000</text><text x="959.2266713756301" y="18" font-size="11" fill="#000000">2,492,000</text></g></g></g></g></g></g></g><g transform="translate(0 100)"><g transform="translate(0 0)"><g transform="translate(0 18)"><defs><clipPath id="clip-3IDlZDj3Q0-ApaCKgeeNu-0.6581182601821884"><rect x="0" y="0" width="965.5937499999966" height="444"></rect></clipPath></defs><g transform="translate(1.4551915228366852e-11 0)"><g clip-path="url(#clip-3IDlZDj3Q0-ApaCKgeeNu-0.6581182601821884)"><g><g><line x1="356.8" x2="363.8" y1="5" y2="5" stroke="#000000"></line><polygon points="360.3,2.5,360.3,7.5,363.8,5" stroke="#000000" fill="#000000"></polygon><rect data-testid="box--1002833003-OX457036.1-248" x="355.8" y="0" width="2" height="10" fill="goldenrod" stroke=""></rect></g><g><line x1="577.9218392553715" x2="584.9218392553715" y1="20" y2="20" stroke="#000000"></line><polygon points="581.4218392553715,17.5,581.4218392553715,22.5,584.9218392553715,20" stroke="#000000" fill="#000000"></polygon><rect data-testid="box--1002833003-OX457036.1-246" x="355.8" y="15" width="222.12183925537153" height="10" fill="goldenrod" stroke=""></rect></g><g><line x1="577.9218392553715" x2="584.9218392553715" y1="35" y2="35" stroke="#000000"></line><polygon points="581.4218392553715,32.5,581.4218392553715,37.5,584.9218392553715,35" stroke="#000000" fill="#000000"></polygon><rect data-testid="box--1002833003-OX457036.1-247" x="355.8" y="30" width="222.12183925537153" height="10" fill="goldenrod" stroke=""></rect></g><g><line x1="577.9218392553715" x2="584.9218392553715" y1="50" y2="50" stroke="#000000"></line><polygon points="581.4218392553715,47.5,581.4218392553715,52.5,584.9218392553715,50" stroke="#000000" fill="#000000"></polygon><rect data-testid="box--1002833003-OX457036.1-249" x="355.8" y="45" width="222.12183925537153" height="10" fill="#FF8080" stroke=""></rect></g><g><line x1="578.8" x2="585.8" y1="5" y2="5" stroke="#000000"></line><polygon points="582.3,2.5,582.3,7.5,585.8,5" stroke="#000000" fill="#000000"></polygon><rect data-testid="box--1002833003-OX457036.1-250" x="577.8" y="0" width="2" height="10" fill="goldenrod" stroke=""></rect></g></g></g></g></g><g><text x="0" y="5" fill="#000000" font-size="13" dominant-baseline="hanging">augustus.worm.lumter.2-3mb.gff</text></g></g><g transform="translate(0 462)"><g transform="translate(0 18)"><defs><clipPath id="clip-htGuAc_enpIH9ebo0fbGF-0.3314398153814051"><rect x="0" y="0" width="965.5937499999966" height="100"></rect></clipPath></defs><g transform="translate(1.4551915228366852e-11 0)"><g clip-path="url(#clip-htGuAc_enpIH9ebo0fbGF-0.3314398153814051)"><g><g><line data-testid="425862032-OX457036.1-15-0" x1="355.8" y1="5" y2="5" x2="577.9218392553715" stroke="#000000"></line><rect data-testid="box-425862032-OX457036.1-15-0-1" x="355.8" y="0" width="222.12183925537153" height="10" fill="#FF8080" stroke=""></rect><line x1="577.9218392553715" x2="584.9218392553715" y1="5" y2="5" stroke="#000000"></line><polygon points="581.4218392553715,2.5,581.4218392553715,7.5,584.9218392553715,5" stroke="#000000" fill="#000000"></polygon><text x="355.8" y="22" fill="#000000" font-size="12">g16</text></g></g></g></g></g><g><text x="0" y="5" fill="#000000" font-size="13" dominant-baseline="hanging">augustus.prothints.gff3</text></g></g></g></g></svg>