<svg width="965.59375" height="780" xmlns="http://www.w3.org/2000/svg" xmlns:xlink="http://www.w3.org/1999/xlink" viewBox="0,0,1065.59375,780"><rect width="1065.59375" height="780" fill="#ffffff"></rect><g transform="translate(50 0)"><g transform="translate(0)"><g id="header"><text x="0" y="0" dominant-baseline="hanging" font-size="13" fill="#000000">GCA_945859605.1 </text><g transform="translate(0 13)"><line x1="0" x2="965.5937500000182" y1="10" y2="10" stroke="#000000"></line><line x1="0" x2="0" y1="5" y2="15" stroke="#000000"></line><line x1="965.5937500000182" x2="965.5937500000182" y1="5" y2="15" stroke="#000000"></line><text x="482.7968750000091" y="13" text-anchor="middle" dominant-baseline="hanging" font-size="13" fill="#000000">20.8Kbp</text></g><g transform="translate(0 50)"><g><defs><clipPath id="clip-{GCA_945859605.1 }OX457036.1:2562482.374673002..2583295.459818789-0"><rect x="0" y="0" width="965.5937500000182" height="100"></rect></clipPath></defs><g transform="translate(-1.4551915228366852e-11 0)"><g clip-path="url(#clip-{GCA_945859605.1 }OX457036.1:2562482.374673002..2583295.459818789-0)"><text x="4" y="13" font-size="13" fill="#000000">OX457036.1</text><g transform="translate(0 20)"><line x1="-22.37801787330784" x2="-22.37801787330784" y1="0" y2="4" stroke-width="1" stroke="#000000"></line><line x1="-3.8214732404447243" x2="-3.8214732404447243" y1="0" y2="4" stroke-width="1" stroke="#000000"></line><line x1="14.735071392418392" x2="14.735071392418392" y1="0" y2="4" stroke-width="1" stroke="#000000"></line><line x1="33.29161602528151" x2="33.29161602528151" y1="0" y2="4" stroke-width="1" stroke="#000000"></line><line x1="51.84816065814463" x2="51.84816065814463" y1="0" y2="4" stroke-width="1" stroke="#000000"></line><line x1="70.40470529100774" x2="70.40470529100774" y1="0" y2="6" stroke-width="1" stroke="#000000"></line><line x1="88.96124992387087" x2="88.96124992387087" y1="0" y2="4" stroke-width="1" stroke="#000000"></line><line x1="107.51779455673397" x2="107.51779455673397" y1="0" y2="4" stroke-width="1" stroke="#000000"></line><line x1="126.0743391895971" x2="126.0743391895971" y1="0" y2="4" stroke-width="1" stroke="#000000"></line><line x1="144.63088382246022" x2="144.63088382246022" y1="0" y2="4" stroke-width="1" stroke="#000000"></line><line x1="163.18742845532333" x2="163.18742845532333" y1="0" y2="4" stroke-width="1" stroke="#000000"></line><line x1="181.74397308818644" x2="181.74397308818644" y1="0" y2="4" stroke-width="1" stroke="#000000"></line><line x1="200.30051772104957" x2="200.30051772104957" y1="0" y2="4" stroke-width="1" stroke="#000000"></line><line x1="218.85706235391268" x2="218.85706235391268" y1="0" y2="4" stroke-width="1" stroke="#000000"></line><line x1="237.4136069867758" x2="237.4136069867758" y1="0" y2="4" stroke-width="1" stroke="#000000"></line><line x1="255.97015161963893" x2="255.97015161963893" y1="0" y2="6" stroke-width="1" stroke="#000000"></line><line x1="274.52669625250206" x2="274.52669625250206" y1="0" y2="4" stroke-width="1" stroke="#000000"></line><line x1="293.08324088536517" x2="293.08324088536517" y1="0" y2="4" stroke-width="1" stroke="#000000"></line><line x1="311.6397855182283" x2="311.6397855182283" y1="0" y2="4" stroke-width="1" stroke="#000000"></line><line x1="330.1963301510914" x2="330.1963301510914" y1="0" y2="4" stroke-width="1" stroke="#000000"></line><line x1="348.7528747839545" x2="348.7528747839545" y1="0" y2="4" stroke-width="1" stroke="#000000"></line><line x1="367.3094194168176" x2="367.3094194168176" y1="0" y2="4" stroke-width="1" stroke="#000000"></line><line x1="385.8659640496807" x2="385.8659640496807" y1="0" y2="4" stroke-width="1" stroke="#000000"></line><line x1="404.4225086825439" x2="404.4225086825439" y1="0" y2="4" stroke-width="1" stroke="#000000"></line><line x1="422.979053315407" x2="422.979053315407" y1="0" y2="4" stroke-width="1" stroke="#000000"></line><line x1="441.5355979482701" x2="441.5355979482701" y1="0" y2="6" stroke-width="1" stroke="#000000"></line><line x1="460.0921425811332" x2="460.0921425811332" y1="0" y2="4" stroke-width="1" stroke="#000000"></line><line x1="478.6486872139963" x2="478.6486872139963" y1="0" y2="4" stroke-width="1" stroke="#000000"></line><line x1="497.2052318468594" x2="497.2052318468594" y1="0" y2="4" stroke-width="1" stroke="#000000"></line><line x1="515.7617764797226" x2="515.7617764797226" y1="0" y2="4" stroke-width="1" stroke="#000000"></line><line x1="534.3183211125856" x2="534.3183211125856" y1="0" y2="4" stroke-width="1" stroke="#000000"></line><line x1="552.8748657454488" x2="552.8748657454488" y1="0" y2="4" stroke-width="1" stroke="#000000"></line><line x1="571.431410378312" x2="571.431410378312" y1="0" y2="4" stroke-width="1" stroke="#000000"></line><line x1="589.987955011175" x2="589.987955011175" y1="0" y2="4" stroke-width="1" stroke="#000000"></line><line x1="608.5444996440382" x2="608.5444996440382" y1="0" y2="4" stroke-width="1" stroke="#000000"></line><line x1="627.1010442769012" x2="627.1010442769012" y1="0" y2="6" stroke-width="1" stroke="#000000"></line><line x1="645.6575889097644" x2="645.6575889097644" y1="0" y2="4" stroke-width="1" stroke="#000000"></line><line x1="664.2141335426275" x2="664.2141335426275" y1="0" y2="4" stroke-width="1" stroke="#000000"></line><line x1="682.7706781754906" x2="682.7706781754906" y1="0" y2="4" stroke-width="1" stroke="#000000"></line><line x1="701.3272228083538" x2="701.3272228083538" y1="0" y2="4" stroke-width="1" stroke="#000000"></line><line x1="719.8837674412168" x2="719.8837674412168" y1="0" y2="4" stroke-width="1" stroke="#000000"></line><line x1="738.44031207408" x2="738.44031207408" y1="0" y2="4" stroke-width="1" stroke="#000000"></line><line x1="756.996856706943" x2="756.996856706943" y1="0" y2="4" stroke-width="1" stroke="#000000"></line><line x1="775.5534013398062" x2="775.5534013398062" y1="0" y2="4" stroke-width="1" stroke="#000000"></line><line x1="794.1099459726693" x2="794.1099459726693" y1="0" y2="4" stroke-width="1" stroke="#000000"></line><line x1="812.6664906055324" x2="812.6664906055324" y1="0" y2="6" stroke-width="1" stroke="#000000"></line><line x1="831.2230352383956" x2="831.2230352383956" y1="0" y2="4" stroke-width="1" stroke="#000000"></line><line x1="849.7795798712586" x2="849.7795798712586" y1="0" y2="4" stroke-width="1" stroke="#000000"></line><line x1="868.3361245041218" x2="868.3361245041218" y1="0" y2="4" stroke-width="1" stroke="#000000"></line><line x1="886.8926691369849" x2="886.8926691369849" y1="0" y2="4" stroke-width="1" stroke="#000000"></line><line x1="905.449213769848" x2="905.449213769848" y1="0" y2="4" stroke-width="1" stroke="#000000"></line><line x1="924.0057584027112" x2="924.0057584027112" y1="0" y2="4" stroke-width="1" stroke="#000000"></line><line x1="942.5623030355742" x2="942.5623030355742" y1="0" y2="4" stroke-width="1" stroke="#000000"></line><line x1="961.1188476684374" x2="961.1188476684374" y1="0" y2="4" stroke-width="1" stroke="#000000"></line><line x1="979.6753923013005" x2="979.6753923013005" y1="0" y2="4" stroke-width="1" stroke="#000000"></line><line x1="998.2319369341636" x2="998.2319369341636" y1="0" y2="6" stroke-width="1" stroke="#000000"></line><text x="67.40470529100774" y="18" font-size="11" fill="#000000">2,564,000</text><text x="252.97015161963893" y="18" font-size="11" fill="#000000">2,568,000</text><text x="438.5355979482701" y="18" font-size="11" fill="#000000">2,572,000</text><text x="624.1010442769012" y="18" font-size="11" fill="#000000">2,576,000</text><text x="809.6664906055324" y="18" font-size="11" fill="#000000">2,580,000</text><text x="995.2319369341636" y="18" font-size="11" fill="#000000">2,584,000</text></g></g></g></g></g></g></g><g transform="translate(0 100)"><g transform="translate(0 0)"><g transform="translate(0 18)"><defs><clipPath id="clip-3IDlZDj3Q0-ApaCKgeeNu-0.6737790158417454"><rect x="0" y="0" width="965.5937500000182" height="444"></rect></clipPath></defs><g transform="translate(-1.4551915228366852e-11 0)"><g clip-path="url(#clip-3IDlZDj3Q0-ApaCKgeeNu-0.6737790158417454)"><g><g><line x1="88.1" x2="95.1" y1="5" y2="5" stroke="#000000"></line><polygon points="91.6,2.5,91.6,7.5,95.1,5" stroke="#000000" fill="#000000"></polygon><rect data-testid="box--1002833003-OX457036.1-253" x="87.1" y="0" width="2" height="10" fill="goldenrod" stroke=""></rect></g><g><line x1="141.70263258219973" x2="148.70263258219973" y1="20" y2="20" stroke="#000000"></line><polygon points="145.20263258219973,17.5,145.20263258219973,22.5,148.70263258219973,20" stroke="#000000" fill="#000000"></polygon><rect data-testid="box--1002833003-OX457036.1-255" x="87.1" y="15" width="54.602632582199725" height="10" fill="#FF8080" stroke=""></rect></g><g><line x1="315.4846730689628" x2="322.4846730689628" y1="35" y2="35" stroke="#000000"></line><polygon points="318.9846730689628,32.5,318.9846730689628,37.5,322.4846730689628,35" stroke="#000000" fill="#000000"></polygon><rect data-testid="box--1002833003-OX457036.1-251" x="87.1" y="30" width="228.38467306896283" height="10" fill="goldenrod" stroke=""></rect></g><g><line x1="315.4846730689628" x2="322.4846730689628" y1="50" y2="50" stroke="#000000"></line><polygon points="318.9846730689628,47.5,318.9846730689628,52.5,322.4846730689628,50" stroke="#000000" fill="#000000"></polygon><rect data-testid="box--1002833003-OX457036.1-252" x="87.1" y="45" width="228.38467306896283" height="10" fill="goldenrod" stroke=""></rect></g><g><line x1="158.2617160848303" x2="165.2617160848303" y1="5" y2="5" stroke="#000000"></line><polygon points="161.7617160848303,2.5,161.7617160848303,7.5,165.2617160848303,5" stroke="#000000" fill="#000000"></polygon><rect data-testid="box--1002833003-OX457036.1-254" x="141.7" y="0" width="16.561716084830334" height="10" fill="goldenrod" stroke=""></rect></g><g><line x1="315.42032440193276" x2="322.42032440193276" y1="20" y2="20" stroke="#000000"></line><polygon points="318.92032440193276,17.5,318.92032440193276,22.5,322.42032440193276,20" stroke="#000000" fill="#000000"></polygon><rect data-testid="box--1002833003-OX457036.1-256" x="158.2" y="15" width="157.22032440193277" height="10" fill="#FF8080" stroke=""></rect></g><g><line x1="316.3" x2="323.3" y1="5" y2="5" stroke="#000000"></line><polygon points="319.8,2.5,319.8,7.5,323.3,5" stroke="#000000" fill="#000000"></polygon><rect data-testid="box--1002833003-OX457036.1-257" x="315.3" y="0" width="2" height="10" fill="goldenrod" stroke=""></rect></g><g><line x1="404.3" x2="397.3" y1="5" y2="5" stroke="#000000"></line><polygon points="400.8,2.5,400.8,7.5,397.3,5" stroke="#000000" fill="#000000"></polygon><rect data-testid="box--1002833003-OX457036.1-260" x="404.3" y="0" width="2" height="10" fill="goldenrod" stroke=""></rect></g><g><line x1="404.3" x2="397.3" y1="20" y2="20" stroke="#000000"></line><polygon points="400.8,17.5,400.8,22.5,397.3,20" stroke="#000000" fill="#000000"></polygon><rect data-testid="box--1002833003-OX457036.1-262" x="404.3" y="15" width="10.809187248642766" height="10" fill="#FF8080" stroke=""></rect></g><g><line x1="404.3" x2="397.3" y1="35" y2="35" stroke="#000000"></line><polygon points="400.8,32.5,400.8,37.5,397.3,35" stroke="#000000" fill="#000000"></polygon><rect data-testid="box--1002833003-OX457036.1-258" x="404.3" y="30" width="171.27690696132657" height="10" fill="goldenrod" stroke=""></rect></g><g><line x1="404.3" x2="397.3" y1="50" y2="50" stroke="#000000"></line><polygon points="400.8,47.5,400.8,52.5,397.3,50" stroke="#000000" fill="#000000"></polygon><rect data-testid="box--1002833003-OX457036.1-259" x="404.3" y="45" width="171.27690696132657" height="10" fill="goldenrod" stroke=""></rect></g><g><line x1="415.1" x2="408.1" y1="5" y2="5" stroke="#000000"></line><polygon points="411.6,2.5,411.6,7.5,408.1,5" stroke="#000000" fill="#000000"></polygon><rect data-testid="box--1002833003-OX457036.1-261" x="415.1" y="0" width="158.89041341889043" height="10" fill="goldenrod" stroke=""></rect></g><g><line x1="574" x2="567" y1="20" y2="20" stroke="#000000"></line><polygon points="570.5,17.5,570.5,22.5,567,20" stroke="#000000" fill="#000000"></polygon><rect data-testid="box--1002833003-OX457036.1-263" x="574" y="15" width="2" height="10" fill="#8080FF" stroke=""></rect></g><g><line x1="575.4" x2="568.4" y1="65" y2="65" stroke="#000000"></line><polygon points="571.9,62.5,571.9,67.5,568.4,65" stroke="#000000" fill="#000000"></polygon><rect data-testid="box--1002833003-OX457036.1-264" x="575.4" y="60" width="2" height="10" fill="goldenrod" stroke=""></rect></g><g><line x1="684.7" x2="677.7" y1="5" y2="5" stroke="#000000"></line><polygon points="681.2,2.5,681.2,7.5,677.7,5" stroke="#000000" fill="#000000"></polygon><rect data-testid="box--1002833003-OX457036.1-267" x="684.7" y="0" width="2" height="10" fill="goldenrod" stroke=""></rect></g><g><line x1="684.7" x2="677.7" y1="20" y2="20" stroke="#000000"></line><polygon points="681.2,17.5,681.2,22.5,677.7,20" stroke="#000000" fill="#000000"></polygon><rect data-testid="box--1002833003-OX457036.1-265" x="684.7" y="15" width="14.195756644140285" height="10" fill="goldenrod" stroke=""></rect></g><g><line x1="684.7" x2="677.7" y1="35" y2="35" stroke="#000000"></line><polygon points="681.2,32.5,681.2,37.5,677.7,35" stroke="#000000" fill="#000000"></polygon><rect data-testid="box--1002833003-OX457036.1-266" x="684.7" y="30" width="14.195756644140285" height="10" fill="goldenrod" stroke=""></rect></g><g><line x1="684.7" x2="677.7" y1="50" y2="50" stroke="#000000"></line><polygon points="681.2,47.5,681.2,52.5,677.7,50" stroke="#000000" fill="#000000"></polygon><rect data-testid="box--1002833003-OX457036.1-268" x="684.7" y="45" width="14.195756644140285" height="10" fill="#80FF80" stroke=""></rect></g><g><line x1="698.8" x2="691.8" y1="5" y2="5" stroke="#000000"></line><polygon points="695.3,2.5,695.3,7.5,691.8,5" stroke="#000000" fill="#000000"></polygon><rect data-testid="box--1002833003-OX457036.1-269" x="698.8" y="0" width="2" height="10" fill="goldenrod" stroke=""></rect></g><g><line x1="769.4" x2="762.4" y1="5" y2="5" stroke="#000000"></line><polygon points="765.9,2.5,765.9,7.5,762.4,5" stroke="#000000" fill="#000000"></polygon><rect data-testid="box--1002833003-OX457036.1-272" x="769.4" y="0" width="2" height="10" fill="goldenrod" stroke=""></rect></g><g><line x1="769.4" x2="762.4" y1="20" y2="20" stroke="#000000"></line><polygon points="765.9,17.5,765.9,22.5,762.4,20" stroke="#000000" fill="#000000"></polygon><rect data-testid="box--1002833003-OX457036.1-274" x="769.4" y="15" width="6.355616536755618" height="10" fill="#FF8080" stroke=""></rect></g><g><line x1="769.4" x2="762.4" y1="35" y2="35" stroke="#000000"></line><polygon points="765.9,32.5,765.9,37.5,762.4,35" stroke="#000000" fill="#000000"></polygon><rect data-testid="box--1002833003-OX457036.1-270" x="769.4" y="30" width="15.587497491605019" height="10" fill="goldenrod" stroke=""></rect></g><g><line x1="769.4" x2="762.4" y1="50" y2="50" stroke="#000000"></line><polygon points="765.9,47.5,765.9,52.5,762.4,50" stroke="#000000" fill="#000000"></polygon><rect data-testid="box--1002833003-OX457036.1-271" x="769.4" y="45" width="15.587497491605019" height="10" fill="goldenrod" stroke=""></rect></g><g><line x1="775.8" x2="768.8" y1="5" y2="5" stroke="#000000"></line><polygon points="772.3,2.5,772.3,7.5,768.8,5" stroke="#000000" fill="#000000"></polygon><rect data-testid="box--1002833003-OX457036.1-273" x="775.8" y="0" width="3.4793521186618346" height="10" fill="goldenrod" stroke=""></rect></g><g><line x1="779.3" x2="772.3" y1="20" y2="20" stroke="#000000"></line><polygon points="775.8,17.5,775.8,22.5,772.3,20" stroke="#000000" fill="#000000"></polygon><rect data-testid="box--1002833003-OX457036.1-275" x="779.3" y="15" width="5.752528836187566" height="10" fill="#FF8080" stroke=""></rect></g><g><line x1="784.9" x2="777.9" y1="5" y2="5" stroke="#000000"></line><polygon points="781.4,2.5,781.4,7.5,777.9,5" stroke="#000000" fill="#000000"></polygon><rect data-testid="box--1002833003-OX457036.1-276" x="784.9" y="0" width="2" height="10" fill="goldenrod" stroke=""></rect></g><g><line x1="809.5" x2="816.5" y1="5" y2="5" stroke="#000000"></line><polygon points="813,2.5,813,7.5,816.5,5" stroke="#000000" fill="#000000"></polygon><rect data-testid="box--1002833003-OX457036.1-279" x="808.5" y="0" width="2" height="10" fill="goldenrod" stroke=""></rect></g><g><line x1="841.7626062544072" x2="848.7626062544072" y1="20" y2="20" stroke="#000000"></line><polygon points="845.2626062544072,17.5,845.2626062544072,22.5,848.7626062544072,20" stroke="#000000" fill="#000000"></polygon><rect data-testid="box--1002833003-OX457036.1-277" x="808.5" y="15" width="33.26260625440714" height="10" fill="goldenrod" stroke=""></rect></g><g><line x1="841.7626062544072" x2="848.7626062544072" y1="35" y2="35" stroke="#000000"></line><polygon points="845.2626062544072,32.5,845.2626062544072,37.5,848.7626062544072,35" stroke="#000000" fill="#000000"></polygon><rect data-testid="box--1002833003-OX457036.1-278" x="808.5" y="30" width="33.26260625440714" height="10" fill="goldenrod" stroke=""></rect></g><g><line x1="841.7626062544072" x2="848.7626062544072" y1="50" y2="50" stroke="#000000"></line><polygon points="845.2626062544072,47.5,845.2626062544072,52.5,848.7626062544072,50" stroke="#000000" fill="#000000"></polygon><rect data-testid="box--1002833003-OX457036.1-280" x="808.5" y="45" width="33.26260625440714" height="10" fill="#80FF80" stroke=""></rect></g><g><line x1="842.6" x2="849.6" y1="5" y2="5" stroke="#000000"></line><polygon points="846.1,2.5,846.1,7.5,849.6,5" stroke="#000000" fill="#000000"></polygon><rect data-testid="box--1002833003-OX457036.1-281" x="841.6" y="0" width="2" height="10" fill="goldenrod" stroke=""></rect></g><g><line x1="1351.8" x2="1344.8" y1="5" y2="5" stroke="#000000"></line><polygon points="1348.3,2.5,1348.3,7.5,1344.8,5" stroke="#000000" fill="#000000"></polygon><rect data-testid="box--1002833003-OX457036.1-284" x="1351.8" y="0" width="2" height="10" fill="goldenrod" stroke=""></rect></g><g><line x1="1351.8" x2="1344.8" y1="20" y2="20" stroke="#000000"></line><polygon points="1348.3,17.5,1348.3,22.5,1344.8,20" stroke="#000000" fill="#000000"></polygon><rect data-testid="box--1002833003-OX457036.1-289" x="1351.8" y="15" width="9.927751378581767" height="10" fill="#80FF80" stroke=""></rect></g><g><line x1="1351.8" x2="1344.8" y1="35" y2="35" stroke="#000000"></line><polygon points="1348.3,32.5,1348.3,37.5,1344.8,35" stroke="#000000" fill="#000000"></polygon><rect data-testid="box--1002833003-OX457036.1-282" x="1351.8" y="30" width="343.99194613170005" height="10" fill="goldenrod" stroke=""></rect></g><g><line x1="1351.8" x2="1344.8" y1="50" y2="50" stroke="#000000"></line><polygon points="1348.3,47.5,1348.3,52.5,1344.8,50" stroke="#000000" fill="#000000"></polygon><rect data-testid="box--1002833003-OX457036.1-283" x="1351.8" y="45" width="343.99194613170005" height="10" fill="goldenrod" stroke=""></rect></g><g><line x1="1361.7" x2="1354.7" y1="5" y2="5" stroke="#000000"></line><polygon points="1358.2,2.5,1358.2,7.5,1354.7,5" stroke="#000000" fill="#000000"></polygon><rect data-testid="box--1002833003-OX457036.1-285" x="1361.7" y="0" width="3.804091649736939" height="10" fill="goldenrod" stroke=""></rect></g><g><line x1="1365.5" x2="1358.5" y1="20" y2="20" stroke="#000000"></line><polygon points="1362,17.5,1362,22.5,1358.5,20" stroke="#000000" fill="#000000"></polygon><rect data-testid="box--1002833003-OX457036.1-290" x="1365.5" y="15" width="30.757472728970615" height="10" fill="#8080FF" stroke=""></rect></g><g><line x1="1396.3" x2="1389.3" y1="5" y2="5" stroke="#000000"></line><polygon points="1392.8,2.5,1392.8,7.5,1389.3,5" stroke="#000000" fill="#000000"></polygon><rect data-testid="box--1002833003-OX457036.1-286" x="1396.3" y="0" width="144.88022222107878" height="10" fill="goldenrod" stroke=""></rect></g></g></g></g></g><g><text x="0" y="5" fill="#000000" font-size="13" dominant-baseline="hanging">augustus.worm.lumter.2-3mb.gff</text></g></g><g transform="translate(0 462)"><g transform="translate(0 18)"><defs><clipPath id="clip-htGuAc_enpIH9ebo0fbGF-0.041747504187477524"><rect x="0" y="0" width="965.5937500000182" height="100"></rect></clipPath></defs><g transform="translate(-1.4551915228366852e-11 0)"><g clip-path="url(#clip-htGuAc_enpIH9ebo0fbGF-0.041747504187477524)"><g><g><line data-testid="425862032-OX457036.1-16-0" x1="87.1" y1="5" y2="5" x2="315.4846730689628" stroke="#000000"></line><rect data-testid="box-425862032-OX457036.1-16-0-2" x="87.1" y="0" width="54.370675774288934" height="10" fill="#FF8080" stroke=""></rect><rect data-testid="box-425862032-OX457036.1-16-0-3" x="155.94478058792214" y="0" width="159.53989248104065" height="10" fill="#FF8080" stroke=""></rect><line x1="315.4846730689628" x2="322.4846730689628" y1="5" y2="5" stroke="#000000"></line><polygon points="318.9846730689628,2.5,318.9846730689628,7.5,322.4846730689628,5" stroke="#000000" fill="#000000"></polygon><text x="87.1" y="22" fill="#000000" font-size="12">g17</text></g><g><line data-testid="425862032-OX457036.1-17-0" x1="684.7" y1="5" y2="5" x2="699.4524529831262" stroke="#000000"></line><rect data-testid="box-425862032-OX457036.1-17-0-1" x="684.7" y="0" width="14.752452983126178" height="10" fill="#80FF80" stroke=""></rect><line x1="684.7" x2="677.7" y1="5" y2="5" stroke="#000000"></line><polygon points="681.2,2.5,681.2,7.5,677.7,5" stroke="#000000" fill="#000000"></polygon><text x="684.7" y="22" fill="#000000" font-size="12">g18</text></g><g><line data-testid="425862032-OX457036.1-18-0" x1="807.9" y1="5" y2="5" x2="841.719302593393" stroke="#000000"></line><rect data-testid="box-425862032-OX457036.1-18-0-1" x="807.9" y="0" width="33.81930259339303" height="10" fill="#80FF80" stroke=""></rect><line x1="841.719302593393" x2="848.719302593393" y1="5" y2="5" stroke="#000000"></line><polygon points="845.219302593393,2.5,845.219302593393,7.5,848.719302593393,5" stroke="#000000" fill="#000000"></polygon><text x="807.9" y="22" fill="#000000" font-size="12">g19</text></g><g><line data-testid="425862032-OX457036.1-19-0" x1="1365.3" y1="5" y2="5" x2="1392.9956428645482" stroke="#000000"></line><rect data-testid="box-425862032-OX457036.1-19-0-1" x="1365.3" y="0" width="27.6956428645482" height="10" fill="#8080FF" stroke=""></rect><line x1="1365.3" x2="1358.3" y1="5" y2="5" stroke="#000000"></line><polygon points="1361.8,2.5,1361.8,7.5,1358.3,5" stroke="#000000" fill="#000000"></polygon><text x="1365.3" y="22" fill="#000000" font-size="12">g20</text></g></g></g></g></g><g><text x="0" y="5" fill="#000000" font-size="13" dominant-baseline="hanging">augustus.prothints.gff3</text></g></g></g></g></svg>