<svg width="965.59375" height="780" xmlns="http://www.w3.org/2000/svg" xmlns:xlink="http://www.w3.org/1999/xlink" viewBox="0,0,1065.59375,780"><rect width="1065.59375" height="780" fill="#ffffff"></rect><g transform="translate(50 0)"><g transform="translate(0)"><g id="header"><text x="0" y="0" dominant-baseline="hanging" font-size="13" fill="#000000">GCA_945859605.1 </text><g transform="translate(0 13)"><line x1="0" x2="965.5937499999966" y1="10" y2="10" stroke="#000000"></line><line x1="0" x2="0" y1="5" y2="15" stroke="#000000"></line><line x1="965.5937499999966" x2="965.5937499999966" y1="5" y2="15" stroke="#000000"></line><text x="482.7968749999983" y="13" text-anchor="middle" dominant-baseline="hanging" font-size="13" fill="#000000">20.8Kbp</text></g><g transform="translate(0 50)"><g><defs><clipPath id="clip-{GCA_945859605.1 }OX457036.1:2590591.056020728..2611404.1411665143-0"><rect x="0" y="0" width="965.5937499999966" height="100"></rect></clipPath></defs><g transform="translate(0 0)"><g clip-path="url(#clip-{GCA_945859605.1 }OX457036.1:2590591.056020728..2611404.1411665143-0)"><text x="4" y="13" font-size="13" fill="#000000">OX457036.1</text><g transform="translate(0 20)"><line x1="-27.419893572896893" x2="-27.419893572896893" y1="0" y2="4" stroke-width="1" stroke="#000000"></line><line x1="-8.863348940033774" x2="-8.863348940033774" y1="0" y2="4" stroke-width="1" stroke="#000000"></line><line x1="9.693195692829343" x2="9.693195692829343" y1="0" y2="4" stroke-width="1" stroke="#000000"></line><line x1="28.24974032569246" x2="28.24974032569246" y1="0" y2="4" stroke-width="1" stroke="#000000"></line><line x1="46.80628495855558" x2="46.80628495855558" y1="0" y2="4" stroke-width="1" stroke="#000000"></line><line x1="65.3628295914187" x2="65.3628295914187" y1="0" y2="6" stroke-width="1" stroke="#000000"></line><line x1="83.91937422428181" x2="83.91937422428181" y1="0" y2="4" stroke-width="1" stroke="#000000"></line><line x1="102.47591885714493" x2="102.47591885714493" y1="0" y2="4" stroke-width="1" stroke="#000000"></line><line x1="121.03246349000804" x2="121.03246349000804" y1="0" y2="4" stroke-width="1" stroke="#000000"></line><line x1="139.58900812287118" x2="139.58900812287118" y1="0" y2="4" stroke-width="1" stroke="#000000"></line><line x1="158.1455527557343" x2="158.1455527557343" y1="0" y2="4" stroke-width="1" stroke="#000000"></line><line x1="176.7020973885974" x2="176.7020973885974" y1="0" y2="4" stroke-width="1" stroke="#000000"></line><line x1="195.25864202146053" x2="195.25864202146053" y1="0" y2="4" stroke-width="1" stroke="#000000"></line><line x1="213.81518665432364" x2="213.81518665432364" y1="0" y2="4" stroke-width="1" stroke="#000000"></line><line x1="232.37173128718675" x2="232.37173128718675" y1="0" y2="4" stroke-width="1" stroke="#000000"></line><line x1="250.92827592004986" x2="250.92827592004986" y1="0" y2="6" stroke-width="1" stroke="#000000"></line><line x1="269.484820552913" x2="269.484820552913" y1="0" y2="4" stroke-width="1" stroke="#000000"></line><line x1="288.0413651857761" x2="288.0413651857761" y1="0" y2="4" stroke-width="1" stroke="#000000"></line><line x1="306.5979098186392" x2="306.5979098186392" y1="0" y2="4" stroke-width="1" stroke="#000000"></line><line x1="325.1544544515023" x2="325.1544544515023" y1="0" y2="4" stroke-width="1" stroke="#000000"></line><line x1="343.7109990843655" x2="343.7109990843655" y1="0" y2="4" stroke-width="1" stroke="#000000"></line><line x1="362.2675437172286" x2="362.2675437172286" y1="0" y2="4" stroke-width="1" stroke="#000000"></line><line x1="380.8240883500917" x2="380.8240883500917" y1="0" y2="4" stroke-width="1" stroke="#000000"></line><line x1="399.3806329829548" x2="399.3806329829548" y1="0" y2="4" stroke-width="1" stroke="#000000"></line><line x1="417.9371776158179" x2="417.9371776158179" y1="0" y2="4" stroke-width="1" stroke="#000000"></line><line x1="436.493722248681" x2="436.493722248681" y1="0" y2="6" stroke-width="1" stroke="#000000"></line><line x1="455.05026688154413" x2="455.05026688154413" y1="0" y2="4" stroke-width="1" stroke="#000000"></line><line x1="473.6068115144073" x2="473.6068115144073" y1="0" y2="4" stroke-width="1" stroke="#000000"></line><line x1="492.1633561472704" x2="492.1633561472704" y1="0" y2="4" stroke-width="1" stroke="#000000"></line><line x1="510.7199007801335" x2="510.7199007801335" y1="0" y2="4" stroke-width="1" stroke="#000000"></line><line x1="529.2764454129966" x2="529.2764454129966" y1="0" y2="4" stroke-width="1" stroke="#000000"></line><line x1="547.8329900458598" x2="547.8329900458598" y1="0" y2="4" stroke-width="1" stroke="#000000"></line><line x1="566.3895346787228" x2="566.3895346787228" y1="0" y2="4" stroke-width="1" stroke="#000000"></line><line x1="584.946079311586" x2="584.946079311586" y1="0" y2="4" stroke-width="1" stroke="#000000"></line><line x1="603.502623944449" x2="603.502623944449" y1="0" y2="4" stroke-width="1" stroke="#000000"></line><line x1="622.0591685773122" x2="622.0591685773122" y1="0" y2="6" stroke-width="1" stroke="#000000"></line><line x1="640.6157132101754" x2="640.6157132101754" y1="0" y2="4" stroke-width="1" stroke="#000000"></line><line x1="659.1722578430384" x2="659.1722578430384" y1="0" y2="4" stroke-width="1" stroke="#000000"></line><line x1="677.7288024759016" x2="677.7288024759016" y1="0" y2="4" stroke-width="1" stroke="#000000"></line><line x1="696.2853471087647" x2="696.2853471087647" y1="0" y2="4" stroke-width="1" stroke="#000000"></line><line x1="714.8418917416278" x2="714.8418917416278" y1="0" y2="4" stroke-width="1" stroke="#000000"></line><line x1="733.3984363744909" x2="733.3984363744909" y1="0" y2="4" stroke-width="1" stroke="#000000"></line><line x1="751.954981007354" x2="751.954981007354" y1="0" y2="4" stroke-width="1" stroke="#000000"></line><line x1="770.5115256402172" x2="770.5115256402172" y1="0" y2="4" stroke-width="1" stroke="#000000"></line><line x1="789.0680702730803" x2="789.0680702730803" y1="0" y2="4" stroke-width="1" stroke="#000000"></line><line x1="807.6246149059434" x2="807.6246149059434" y1="0" y2="6" stroke-width="1" stroke="#000000"></line><line x1="826.1811595388065" x2="826.1811595388065" y1="0" y2="4" stroke-width="1" stroke="#000000"></line><line x1="844.7377041716696" x2="844.7377041716696" y1="0" y2="4" stroke-width="1" stroke="#000000"></line><line x1="863.2942488045328" x2="863.2942488045328" y1="0" y2="4" stroke-width="1" stroke="#000000"></line><line x1="881.8507934373959" x2="881.8507934373959" y1="0" y2="4" stroke-width="1" stroke="#000000"></line><line x1="900.407338070259" x2="900.407338070259" y1="0" y2="4" stroke-width="1" stroke="#000000"></line><line x1="918.9638827031221" x2="918.9638827031221" y1="0" y2="4" stroke-width="1" stroke="#000000"></line><line x1="937.5204273359852" x2="937.5204273359852" y1="0" y2="4" stroke-width="1" stroke="#000000"></line><line x1="956.0769719688483" x2="956.0769719688483" y1="0" y2="4" stroke-width="1" stroke="#000000"></line><line x1="974.6335166017114" x2="974.6335166017114" y1="0" y2="4" stroke-width="1" stroke="#000000"></line><line x1="993.1900612345746" x2="993.1900612345746" y1="0" y2="6" stroke-width="1" stroke="#000000"></line><text x="62.3628295914187" y="18" font-size="11" fill="#000000">2,592,000</text><text x="247.92827592004986" y="18" font-size="11" fill="#000000">2,596,000</text><text x="433.493722248681" y="18" font-size="11" fill="#000000">2,600,000</text><text x="619.0591685773122" y="18" font-size="11" fill="#000000">2,604,000</text><text x="804.6246149059434" y="18" font-size="11" fill="#000000">2,608,000</text><text x="990.1900612345746" y="18" font-size="11" fill="#000000">2,612,000</text></g></g></g></g></g></g></g><g transform="translate(0 100)"><g transform="translate(0 0)"><g transform="translate(0 18)"><defs><clipPath id="clip-3IDlZDj3Q0-ApaCKgeeNu-0.7179328194970656"><rect x="0" y="0" width="965.5937499999966" height="444"></rect></clipPath></defs><g transform="translate(0 0)"><g clip-path="url(#clip-3IDlZDj3Q0-ApaCKgeeNu-0.7179328194970656)"><g><g></g><g></g><g></g><g></g><g></g><g><line x1="47.8" x2="40.8" y1="5" y2="5" stroke="#000000"></line><polygon points="44.3,2.5,44.3,7.5,40.8,5" stroke="#000000" fill="#000000"></polygon><rect data-testid="box--1002833003-OX457036.1-284" x="47.8" y="0" width="2" height="10" fill="goldenrod" stroke=""></rect></g><g><line x1="47.8" x2="40.8" y1="20" y2="20" stroke="#000000"></line><polygon points="44.3,17.5,44.3,22.5,40.8,20" stroke="#000000" fill="#000000"></polygon><rect data-testid="box--1002833003-OX457036.1-289" x="47.8" y="15" width="9.927751378581767" height="10" fill="#80FF80" stroke=""></rect></g><g><line x1="47.8" x2="40.8" y1="35" y2="35" stroke="#000000"></line><polygon points="44.3,32.5,44.3,37.5,40.8,35" stroke="#000000" fill="#000000"></polygon><rect data-testid="box--1002833003-OX457036.1-282" x="47.8" y="30" width="343.99194613170005" height="10" fill="goldenrod" stroke=""></rect></g><g><line x1="47.8" x2="40.8" y1="50" y2="50" stroke="#000000"></line><polygon points="44.3,47.5,44.3,52.5,40.8,50" stroke="#000000" fill="#000000"></polygon><rect data-testid="box--1002833003-OX457036.1-283" x="47.8" y="45" width="343.99194613170005" height="10" fill="goldenrod" stroke=""></rect></g><g><line x1="57.7" x2="50.7" y1="5" y2="5" stroke="#000000"></line><polygon points="54.2,2.5,54.2,7.5,50.7,5" stroke="#000000" fill="#000000"></polygon><rect data-testid="box--1002833003-OX457036.1-285" x="57.7" y="0" width="3.804091649736939" height="10" fill="goldenrod" stroke=""></rect></g><g><line x1="61.5" x2="54.5" y1="20" y2="20" stroke="#000000"></line><polygon points="58,17.5,58,22.5,54.5,20" stroke="#000000" fill="#000000"></polygon><rect data-testid="box--1002833003-OX457036.1-290" x="61.5" y="15" width="30.757472728970615" height="10" fill="#8080FF" stroke=""></rect></g><g><line x1="92.3" x2="85.3" y1="5" y2="5" stroke="#000000"></line><polygon points="88.8,2.5,88.8,7.5,85.3,5" stroke="#000000" fill="#000000"></polygon><rect data-testid="box--1002833003-OX457036.1-286" x="92.3" y="0" width="144.88022222107878" height="10" fill="goldenrod" stroke=""></rect></g><g><line x1="237.2" x2="230.2" y1="20" y2="20" stroke="#000000"></line><polygon points="233.7,17.5,233.7,22.5,230.2,20" stroke="#000000" fill="#000000"></polygon><rect data-testid="box--1002833003-OX457036.1-291" x="237.2" y="15" width="6.402007898337775" height="10" fill="#8080FF" stroke=""></rect></g><g><line x1="243.6" x2="236.6" y1="5" y2="5" stroke="#000000"></line><polygon points="240.1,2.5,240.1,7.5,236.6,5" stroke="#000000" fill="#000000"></polygon><rect data-testid="box--1002833003-OX457036.1-287" x="243.6" y="0" width="43.70066261039264" height="10" fill="goldenrod" stroke=""></rect></g><g><line x1="287.3" x2="280.3" y1="20" y2="20" stroke="#000000"></line><polygon points="283.8,17.5,283.8,22.5,280.3,20" stroke="#000000" fill="#000000"></polygon><rect data-testid="box--1002833003-OX457036.1-292" x="287.3" y="15" width="22.3142449210179" height="10" fill="#8080FF" stroke=""></rect></g><g><line x1="309.6" x2="302.6" y1="5" y2="5" stroke="#000000"></line><polygon points="306.1,2.5,306.1,7.5,302.6,5" stroke="#000000" fill="#000000"></polygon><rect data-testid="box--1002833003-OX457036.1-288" x="309.6" y="0" width="28.15955648036978" height="10" fill="goldenrod" stroke=""></rect></g><g><line x1="337.7" x2="330.7" y1="20" y2="20" stroke="#000000"></line><polygon points="334.2,17.5,334.2,22.5,330.7,20" stroke="#000000" fill="#000000"></polygon><rect data-testid="box--1002833003-OX457036.1-293" x="337.7" y="15" width="54.04593624321383" height="10" fill="#FF8080" stroke=""></rect></g><g><line x1="391.6" x2="384.6" y1="5" y2="5" stroke="#000000"></line><polygon points="388.1,2.5,388.1,7.5,384.6,5" stroke="#000000" fill="#000000"></polygon><rect data-testid="box--1002833003-OX457036.1-294" x="391.6" y="0" width="2" height="10" fill="goldenrod" stroke=""></rect></g><g><line x1="448.3" x2="441.3" y1="5" y2="5" stroke="#000000"></line><polygon points="444.8,2.5,444.8,7.5,441.3,5" stroke="#000000" fill="#000000"></polygon><rect data-testid="box--1002833003-OX457036.1-297" x="448.3" y="0" width="2" height="10" fill="goldenrod" stroke=""></rect></g><g><line x1="448.3" x2="441.3" y1="20" y2="20" stroke="#000000"></line><polygon points="444.8,17.5,444.8,22.5,441.3,20" stroke="#000000" fill="#000000"></polygon><rect data-testid="box--1002833003-OX457036.1-300" x="448.3" y="15" width="7.422617853145247" height="10" fill="#FF8080" stroke=""></rect></g><g><line x1="448.3" x2="441.3" y1="35" y2="35" stroke="#000000"></line><polygon points="444.8,32.5,444.8,37.5,441.3,35" stroke="#000000" fill="#000000"></polygon><rect data-testid="box--1002833003-OX457036.1-295" x="448.3" y="30" width="37.11308926572624" height="10" fill="goldenrod" stroke=""></rect></g><g><line x1="448.3" x2="441.3" y1="50" y2="50" stroke="#000000"></line><polygon points="444.8,47.5,444.8,52.5,441.3,50" stroke="#000000" fill="#000000"></polygon><rect data-testid="box--1002833003-OX457036.1-296" x="448.3" y="45" width="37.11308926572624" height="10" fill="goldenrod" stroke=""></rect></g><g><line x1="455.7" x2="448.7" y1="5" y2="5" stroke="#000000"></line><polygon points="452.2,2.5,452.2,7.5,448.7,5" stroke="#000000" fill="#000000"></polygon><rect data-testid="box--1002833003-OX457036.1-298" x="455.7" y="0" width="4.592744796633622" height="10" fill="goldenrod" stroke=""></rect></g><g><line x1="460.3" x2="453.3" y1="20" y2="20" stroke="#000000"></line><polygon points="456.8,17.5,456.8,22.5,453.3,20" stroke="#000000" fill="#000000"></polygon><rect data-testid="box--1002833003-OX457036.1-301" x="460.3" y="15" width="18.04623965545938" height="10" fill="#FF8080" stroke=""></rect></g><g><line x1="478.3" x2="471.3" y1="5" y2="5" stroke="#000000"></line><polygon points="474.8,2.5,474.8,7.5,471.3,5" stroke="#000000" fill="#000000"></polygon><rect data-testid="box--1002833003-OX457036.1-299" x="478.3" y="0" width="3.5721348418261503" height="10" fill="goldenrod" stroke=""></rect></g><g><line x1="481.9" x2="474.9" y1="65" y2="65" stroke="#000000"></line><polygon points="478.4,62.5,478.4,67.5,474.9,65" stroke="#000000" fill="#000000"></polygon><rect data-testid="box--1002833003-OX457036.1-302" x="481.9" y="60" width="3.4793521186618346" height="10" fill="#8080FF" stroke=""></rect></g><g><line x1="485.3" x2="478.3" y1="5" y2="5" stroke="#000000"></line><polygon points="481.8,2.5,481.8,7.5,478.3,5" stroke="#000000" fill="#000000"></polygon><rect data-testid="box--1002833003-OX457036.1-303" x="485.3" y="0" width="2" height="10" fill="goldenrod" stroke=""></rect></g><g><line x1="544.4" x2="551.4" y1="5" y2="5" stroke="#000000"></line><polygon points="547.9,2.5,547.9,7.5,551.4,5" stroke="#000000" fill="#000000"></polygon><rect data-testid="box--1002833003-OX457036.1-306" x="543.4" y="0" width="2" height="10" fill="goldenrod" stroke=""></rect></g><g><line x1="560.1008901695768" x2="567.1008901695768" y1="20" y2="20" stroke="#000000"></line><polygon points="563.6008901695768,17.5,563.6008901695768,22.5,567.1008901695768,20" stroke="#000000" fill="#000000"></polygon><rect data-testid="box--1002833003-OX457036.1-304" x="543.4" y="15" width="16.700890169576805" height="10" fill="goldenrod" stroke=""></rect></g><g><line x1="560.1008901695768" x2="567.1008901695768" y1="35" y2="35" stroke="#000000"></line><polygon points="563.6008901695768,32.5,563.6008901695768,37.5,567.1008901695768,35" stroke="#000000" fill="#000000"></polygon><rect data-testid="box--1002833003-OX457036.1-305" x="543.4" y="30" width="16.700890169576805" height="10" fill="goldenrod" stroke=""></rect></g><g><line x1="560.1008901695768" x2="567.1008901695768" y1="50" y2="50" stroke="#000000"></line><polygon points="563.6008901695768,47.5,563.6008901695768,52.5,567.1008901695768,50" stroke="#000000" fill="#000000"></polygon><rect data-testid="box--1002833003-OX457036.1-307" x="543.4" y="45" width="16.700890169576805" height="10" fill="#80FF80" stroke=""></rect></g><g><line x1="560.9" x2="567.9" y1="5" y2="5" stroke="#000000"></line><polygon points="564.4,2.5,564.4,7.5,567.9,5" stroke="#000000" fill="#000000"></polygon><rect data-testid="box--1002833003-OX457036.1-308" x="559.9" y="0" width="2" height="10" fill="goldenrod" stroke=""></rect></g><g><line x1="571.2" x2="578.2" y1="5" y2="5" stroke="#000000"></line><polygon points="574.7,2.5,574.7,7.5,578.2,5" stroke="#000000" fill="#000000"></polygon><rect data-testid="box--1002833003-OX457036.1-311" x="570.2" y="0" width="2" height="10" fill="goldenrod" stroke=""></rect></g><g><line x1="586.4833679153375" x2="593.4833679153375" y1="20" y2="20" stroke="#000000"></line><polygon points="589.9833679153375,17.5,589.9833679153375,22.5,593.4833679153375,20" stroke="#000000" fill="#000000"></polygon><rect data-testid="box--1002833003-OX457036.1-309" x="570.2" y="15" width="16.283367915337386" height="10" fill="goldenrod" stroke=""></rect></g><g><line x1="586.4833679153375" x2="593.4833679153375" y1="35" y2="35" stroke="#000000"></line><polygon points="589.9833679153375,32.5,589.9833679153375,37.5,593.4833679153375,35" stroke="#000000" fill="#000000"></polygon><rect data-testid="box--1002833003-OX457036.1-310" x="570.2" y="30" width="16.283367915337386" height="10" fill="goldenrod" stroke=""></rect></g><g><line x1="586.4833679153375" x2="593.4833679153375" y1="50" y2="50" stroke="#000000"></line><polygon points="589.9833679153375,47.5,589.9833679153375,52.5,593.4833679153375,50" stroke="#000000" fill="#000000"></polygon><rect data-testid="box--1002833003-OX457036.1-312" x="570.2" y="45" width="16.283367915337386" height="10" fill="#80FF80" stroke=""></rect></g><g><line x1="587.4" x2="594.4" y1="5" y2="5" stroke="#000000"></line><polygon points="590.9,2.5,590.9,7.5,594.4,5" stroke="#000000" fill="#000000"></polygon><rect data-testid="box--1002833003-OX457036.1-313" x="586.4" y="0" width="2" height="10" fill="goldenrod" stroke=""></rect></g><g><line x1="669" x2="662" y1="5" y2="5" stroke="#000000"></line><polygon points="665.5,2.5,665.5,7.5,662,5" stroke="#000000" fill="#000000"></polygon><rect data-testid="box--1002833003-OX457036.1-316" x="669" y="0" width="2" height="10" fill="goldenrod" stroke=""></rect></g><g><line x1="669" x2="662" y1="20" y2="20" stroke="#000000"></line><polygon points="665.5,17.5,665.5,22.5,662,20" stroke="#000000" fill="#000000"></polygon><rect data-testid="box--1002833003-OX457036.1-319" x="669" y="15" width="25.83998840126189" height="10" fill="#8080FF" stroke=""></rect></g><g><line x1="669" x2="662" y1="35" y2="35" stroke="#000000"></line><polygon points="665.5,32.5,665.5,37.5,662,35" stroke="#000000" fill="#000000"></polygon><rect data-testid="box--1002833003-OX457036.1-314" x="669" y="30" width="189.97262567893617" height="10" fill="goldenrod" stroke=""></rect></g><g><line x1="669" x2="662" y1="50" y2="50" stroke="#000000"></line><polygon points="665.5,47.5,665.5,52.5,662,50" stroke="#000000" fill="#000000"></polygon><rect data-testid="box--1002833003-OX457036.1-315" x="669" y="45" width="189.97262567893617" height="10" fill="goldenrod" stroke=""></rect></g><g><line x1="694.8" x2="687.8" y1="5" y2="5" stroke="#000000"></line><polygon points="691.3,2.5,691.3,7.5,687.8,5" stroke="#000000" fill="#000000"></polygon><rect data-testid="box--1002833003-OX457036.1-317" x="694.8" y="0" width="25.422466147022472" height="10" fill="goldenrod" stroke=""></rect></g><g><line x1="720.2" x2="713.2" y1="20" y2="20" stroke="#000000"></line><polygon points="716.7,17.5,716.7,22.5,713.2,20" stroke="#000000" fill="#000000"></polygon><rect data-testid="box--1002833003-OX457036.1-320" x="720.2" y="15" width="12.80401579667555" height="10" fill="#80FF80" stroke=""></rect></g><g><line x1="733" x2="726" y1="5" y2="5" stroke="#000000"></line><polygon points="729.5,2.5,729.5,7.5,726,5" stroke="#000000" fill="#000000"></polygon><rect data-testid="box--1002833003-OX457036.1-318" x="733" y="0" width="122.93710819271816" height="10" fill="goldenrod" stroke=""></rect></g><g><line x1="856" x2="849" y1="20" y2="20" stroke="#000000"></line><polygon points="852.5,17.5,852.5,22.5,849,20" stroke="#000000" fill="#000000"></polygon><rect data-testid="box--1002833003-OX457036.1-321" x="856" y="15" width="2.9690471412580988" height="10" fill="#8080FF" stroke=""></rect></g><g><line x1="858.8" x2="851.8" y1="65" y2="65" stroke="#000000"></line><polygon points="855.3,62.5,855.3,67.5,851.8,65" stroke="#000000" fill="#000000"></polygon><rect data-testid="box--1002833003-OX457036.1-322" x="858.8" y="60" width="2" height="10" fill="goldenrod" stroke=""></rect></g></g></g></g></g><g><text x="0" y="5" fill="#000000" font-size="13" dominant-baseline="hanging">augustus.worm.lumter.2-3mb.gff</text></g></g><g transform="translate(0 462)"><g transform="translate(0 18)"><defs><clipPath id="clip-htGuAc_enpIH9ebo0fbGF-0.11556492547688735"><rect x="0" y="0" width="965.5937499999966" height="100"></rect></clipPath></defs><g transform="translate(0 0)"><g clip-path="url(#clip-htGuAc_enpIH9ebo0fbGF-0.11556492547688735)"><g><g><line data-testid="425862032-OX457036.1-18-0" x1="-496.1" y1="5" y2="5" x2="-462.280697406607" stroke="#000000"></line><line x1="-462.280697406607" x2="-455.280697406607" y1="5" y2="5" stroke="#000000"></line><polygon points="-458.780697406607,2.5,-458.780697406607,7.5,-455.280697406607,5" stroke="#000000" fill="#000000"></polygon><text x="-496.1" y="22" fill="#000000" font-size="12">g19</text></g><g><line data-testid="425862032-OX457036.1-19-0" x1="61.3" y1="5" y2="5" x2="88.9956428645482" stroke="#000000"></line><rect data-testid="box-425862032-OX457036.1-19-0-1" x="61.3" y="0" width="27.6956428645482" height="10" fill="#8080FF" stroke=""></rect><line x1="61.3" x2="54.3" y1="5" y2="5" stroke="#000000"></line><polygon points="57.8,2.5,57.8,7.5,54.3,5" stroke="#000000" fill="#000000"></polygon><text x="61.3" y="22" fill="#000000" font-size="12">g20</text></g><g><line data-testid="425862032-OX457036.1-20-0" x1="287.1" y1="5" y2="5" x2="303.66171608483035" stroke="#000000"></line><rect data-testid="box-425862032-OX457036.1-20-0-1" x="287.1" y="0" width="16.561716084830334" height="10" fill="#8080FF" stroke=""></rect><line x1="287.1" x2="280.1" y1="5" y2="5" stroke="#000000"></line><polygon points="283.6,2.5,283.6,7.5,280.1,5" stroke="#000000" fill="#000000"></polygon><text x="287.1" y="22" fill="#000000" font-size="12">g21</text></g><g><line data-testid="425862032-OX457036.1-21-0" x1="335.7" y1="5" y2="5" x2="476.9616960176705" stroke="#000000"></line><rect data-testid="box-425862032-OX457036.1-21-0-2" x="335.7" y="0" width="55.53045981384288" height="10" fill="#FF8080" stroke=""></rect><rect data-testid="box-425862032-OX457036.1-21-0-3" x="460.67832810233307" y="0" width="16.283367915337386" height="10" fill="#FF8080" stroke=""></rect><line x1="335.7" x2="328.7" y1="5" y2="5" stroke="#000000"></line><polygon points="332.2,2.5,332.2,7.5,328.7,5" stroke="#000000" fill="#000000"></polygon><text x="335.7" y="22" fill="#000000" font-size="12">g22</text></g><g><line data-testid="425862032-OX457036.1-22-0" x1="669" y1="5" y2="5" x2="729.3551614183873" stroke="#000000"></line><rect data-testid="box-425862032-OX457036.1-22-0-2" x="669" y="0" width="25.83998840126189" height="10" fill="#8080FF" stroke=""></rect><rect data-testid="box-425862032-OX457036.1-22-0-3" x="720.2624545482844" y="0" width="9.092706870102928" height="10" fill="#80FF80" stroke=""></rect><line x1="669" x2="662" y1="5" y2="5" stroke="#000000"></line><polygon points="665.5,2.5,665.5,7.5,662,5" stroke="#000000" fill="#000000"></polygon><text x="669" y="22" fill="#000000" font-size="12">g23</text></g></g></g></g></g><g><text x="0" y="5" fill="#000000" font-size="13" dominant-baseline="hanging">augustus.prothints.gff3</text></g></g></g></g></svg>