<svg width="965.59375" height="780" xmlns="http://www.w3.org/2000/svg" xmlns:xlink="http://www.w3.org/1999/xlink" viewBox="0,0,1065.59375,780"><rect width="1065.59375" height="780" fill="#ffffff"></rect><g transform="translate(50 0)"><g transform="translate(0)"><g id="header"><text x="0" y="0" dominant-baseline="hanging" font-size="13" fill="#000000">GCA_945859605.1 </text><g transform="translate(0 13)"><line x1="0" x2="965.5937499999966" y1="10" y2="10" stroke="#000000"></line><line x1="0" x2="0" y1="5" y2="15" stroke="#000000"></line><line x1="965.5937499999966" x2="965.5937499999966" y1="5" y2="15" stroke="#000000"></line><text x="482.7968749999983" y="13" text-anchor="middle" dominant-baseline="hanging" font-size="13" fill="#000000">20.8Kbp</text></g><g transform="translate(0 50)"><g><defs><clipPath id="clip-{GCA_945859605.1 }OX457036.1:2649977.1120889676..2670790.197234754-0"><rect x="0" y="0" width="965.5937499999966" height="100"></rect></clipPath></defs><g transform="translate(0 0)"><g clip-path="url(#clip-{GCA_945859605.1 }OX457036.1:2649977.1120889676..2670790.197234754-0)"><text x="4" y="13" font-size="13" fill="#000000">OX457036.1</text><g transform="translate(0 20)"><line x1="-36.051287909161" x2="-36.051287909161" y1="0" y2="4" stroke-width="1" stroke="#000000"></line><line x1="-17.49474327629788" x2="-17.49474327629788" y1="0" y2="4" stroke-width="1" stroke="#000000"></line><line x1="1.0618013565652384" x2="1.0618013565652384" y1="0" y2="4" stroke-width="1" stroke="#000000"></line><line x1="19.618345989428356" x2="19.618345989428356" y1="0" y2="4" stroke-width="1" stroke="#000000"></line><line x1="38.17489062229147" x2="38.17489062229147" y1="0" y2="4" stroke-width="1" stroke="#000000"></line><line x1="56.731435255154594" x2="56.731435255154594" y1="0" y2="4" stroke-width="1" stroke="#000000"></line><line x1="75.2879798880177" x2="75.2879798880177" y1="0" y2="4" stroke-width="1" stroke="#000000"></line><line x1="93.84452452088082" x2="93.84452452088082" y1="0" y2="6" stroke-width="1" stroke="#000000"></line><line x1="112.40106915374395" x2="112.40106915374395" y1="0" y2="4" stroke-width="1" stroke="#000000"></line><line x1="130.95761378660706" x2="130.95761378660706" y1="0" y2="4" stroke-width="1" stroke="#000000"></line><line x1="149.51415841947016" x2="149.51415841947016" y1="0" y2="4" stroke-width="1" stroke="#000000"></line><line x1="168.0707030523333" x2="168.0707030523333" y1="0" y2="4" stroke-width="1" stroke="#000000"></line><line x1="186.6272476851964" x2="186.6272476851964" y1="0" y2="4" stroke-width="1" stroke="#000000"></line><line x1="205.18379231805952" x2="205.18379231805952" y1="0" y2="4" stroke-width="1" stroke="#000000"></line><line x1="223.74033695092265" x2="223.74033695092265" y1="0" y2="4" stroke-width="1" stroke="#000000"></line><line x1="242.29688158378576" x2="242.29688158378576" y1="0" y2="4" stroke-width="1" stroke="#000000"></line><line x1="260.85342621664887" x2="260.85342621664887" y1="0" y2="4" stroke-width="1" stroke="#000000"></line><line x1="279.409970849512" x2="279.409970849512" y1="0" y2="6" stroke-width="1" stroke="#000000"></line><line x1="297.96651548237514" x2="297.96651548237514" y1="0" y2="4" stroke-width="1" stroke="#000000"></line><line x1="316.52306011523825" x2="316.52306011523825" y1="0" y2="4" stroke-width="1" stroke="#000000"></line><line x1="335.07960474810136" x2="335.07960474810136" y1="0" y2="4" stroke-width="1" stroke="#000000"></line><line x1="353.63614938096447" x2="353.63614938096447" y1="0" y2="4" stroke-width="1" stroke="#000000"></line><line x1="372.1926940138276" x2="372.1926940138276" y1="0" y2="4" stroke-width="1" stroke="#000000"></line><line x1="390.7492386466907" x2="390.7492386466907" y1="0" y2="4" stroke-width="1" stroke="#000000"></line><line x1="409.3057832795538" x2="409.3057832795538" y1="0" y2="4" stroke-width="1" stroke="#000000"></line><line x1="427.86232791241696" x2="427.86232791241696" y1="0" y2="4" stroke-width="1" stroke="#000000"></line><line x1="446.41887254528007" x2="446.41887254528007" y1="0" y2="4" stroke-width="1" stroke="#000000"></line><line x1="464.9754171781432" x2="464.9754171781432" y1="0" y2="6" stroke-width="1" stroke="#000000"></line><line x1="483.5319618110063" x2="483.5319618110063" y1="0" y2="4" stroke-width="1" stroke="#000000"></line><line x1="502.0885064438694" x2="502.0885064438694" y1="0" y2="4" stroke-width="1" stroke="#000000"></line><line x1="520.6450510767326" x2="520.6450510767326" y1="0" y2="4" stroke-width="1" stroke="#000000"></line><line x1="539.2015957095956" x2="539.2015957095956" y1="0" y2="4" stroke-width="1" stroke="#000000"></line><line x1="557.7581403424588" x2="557.7581403424588" y1="0" y2="4" stroke-width="1" stroke="#000000"></line><line x1="576.3146849753218" x2="576.3146849753218" y1="0" y2="4" stroke-width="1" stroke="#000000"></line><line x1="594.871229608185" x2="594.871229608185" y1="0" y2="4" stroke-width="1" stroke="#000000"></line><line x1="613.4277742410482" x2="613.4277742410482" y1="0" y2="4" stroke-width="1" stroke="#000000"></line><line x1="631.9843188739112" x2="631.9843188739112" y1="0" y2="4" stroke-width="1" stroke="#000000"></line><line x1="650.5408635067744" x2="650.5408635067744" y1="0" y2="6" stroke-width="1" stroke="#000000"></line><line x1="669.0974081396374" x2="669.0974081396374" y1="0" y2="4" stroke-width="1" stroke="#000000"></line><line x1="687.6539527725006" x2="687.6539527725006" y1="0" y2="4" stroke-width="1" stroke="#000000"></line><line x1="706.2104974053638" x2="706.2104974053638" y1="0" y2="4" stroke-width="1" stroke="#000000"></line><line x1="724.7670420382268" x2="724.7670420382268" y1="0" y2="4" stroke-width="1" stroke="#000000"></line><line x1="743.32358667109" x2="743.32358667109" y1="0" y2="4" stroke-width="1" stroke="#000000"></line><line x1="761.880131303953" x2="761.880131303953" y1="0" y2="4" stroke-width="1" stroke="#000000"></line><line x1="780.4366759368162" x2="780.4366759368162" y1="0" y2="4" stroke-width="1" stroke="#000000"></line><line x1="798.9932205696792" x2="798.9932205696792" y1="0" y2="4" stroke-width="1" stroke="#000000"></line><line x1="817.5497652025424" x2="817.5497652025424" y1="0" y2="4" stroke-width="1" stroke="#000000"></line><line x1="836.1063098354056" x2="836.1063098354056" y1="0" y2="6" stroke-width="1" stroke="#000000"></line><line x1="854.6628544682686" x2="854.6628544682686" y1="0" y2="4" stroke-width="1" stroke="#000000"></line><line x1="873.2193991011318" x2="873.2193991011318" y1="0" y2="4" stroke-width="1" stroke="#000000"></line><line x1="891.7759437339948" x2="891.7759437339948" y1="0" y2="4" stroke-width="1" stroke="#000000"></line><line x1="910.332488366858" x2="910.332488366858" y1="0" y2="4" stroke-width="1" stroke="#000000"></line><line x1="928.889032999721" x2="928.889032999721" y1="0" y2="4" stroke-width="1" stroke="#000000"></line><line x1="947.4455776325842" x2="947.4455776325842" y1="0" y2="4" stroke-width="1" stroke="#000000"></line><line x1="966.0021222654474" x2="966.0021222654474" y1="0" y2="4" stroke-width="1" stroke="#000000"></line><line x1="984.5586668983104" x2="984.5586668983104" y1="0" y2="4" stroke-width="1" stroke="#000000"></line><line x1="1003.1152115311736" x2="1003.1152115311736" y1="0" y2="4" stroke-width="1" stroke="#000000"></line><text x="90.84452452088082" y="18" font-size="11" fill="#000000">2,652,000</text><text x="276.409970849512" y="18" font-size="11" fill="#000000">2,656,000</text><text x="461.9754171781432" y="18" font-size="11" fill="#000000">2,660,000</text><text x="647.5408635067744" y="18" font-size="11" fill="#000000">2,664,000</text><text x="833.1063098354056" y="18" font-size="11" fill="#000000">2,668,000</text></g></g></g></g></g></g></g><g transform="translate(0 100)"><g transform="translate(0 0)"><g transform="translate(0 18)"><defs><clipPath id="clip-3IDlZDj3Q0-ApaCKgeeNu-0.9061800570264571"><rect x="0" y="0" width="965.5937499999966" height="444"></rect></clipPath></defs><g transform="translate(0 0)"><g clip-path="url(#clip-3IDlZDj3Q0-ApaCKgeeNu-0.9061800570264571)"><g><g></g><g></g><g></g><g></g><g></g><g></g><g></g><g></g><g></g><g><line x1="45.6" x2="38.6" y1="5" y2="5" stroke="#000000"></line><polygon points="42.1,2.5,42.1,7.5,38.6,5" stroke="#000000" fill="#000000"></polygon><rect data-testid="box--1002833003-OX457036.1-344" x="45.6" y="0" width="2" height="10" fill="goldenrod" stroke=""></rect></g><g><line x1="45.6" x2="38.6" y1="20" y2="20" stroke="#000000"></line><polygon points="42.1,17.5,42.1,22.5,38.6,20" stroke="#000000" fill="#000000"></polygon><rect data-testid="box--1002833003-OX457036.1-346" x="45.6" y="15" width="11.458666310792974" height="10" fill="#80FF80" stroke=""></rect></g><g><line x1="45.6" x2="38.6" y1="35" y2="35" stroke="#000000"></line><polygon points="42.1,32.5,42.1,37.5,38.6,35" stroke="#000000" fill="#000000"></polygon><rect data-testid="box--1002833003-OX457036.1-342" x="45.6" y="30" width="98.72081744683179" height="10" fill="goldenrod" stroke=""></rect></g><g><line x1="45.6" x2="38.6" y1="50" y2="50" stroke="#000000"></line><polygon points="42.1,47.5,42.1,52.5,38.6,50" stroke="#000000" fill="#000000"></polygon><rect data-testid="box--1002833003-OX457036.1-343" x="45.6" y="45" width="98.72081744683179" height="10" fill="goldenrod" stroke=""></rect></g><g><line x1="57.1" x2="50.1" y1="5" y2="5" stroke="#000000"></line><polygon points="53.6,2.5,53.6,7.5,50.1,5" stroke="#000000" fill="#000000"></polygon><rect data-testid="box--1002833003-OX457036.1-345" x="57.1" y="0" width="82.57662361624087" height="10" fill="goldenrod" stroke=""></rect></g><g><line x1="139.7" x2="132.7" y1="20" y2="20" stroke="#000000"></line><polygon points="136.2,17.5,136.2,22.5,132.7,20" stroke="#000000" fill="#000000"></polygon><rect data-testid="box--1002833003-OX457036.1-347" x="139.7" y="15" width="4.685527519797938" height="10" fill="#8080FF" stroke=""></rect></g><g><line x1="144.2" x2="137.2" y1="5" y2="5" stroke="#000000"></line><polygon points="140.7,2.5,140.7,7.5,137.2,5" stroke="#000000" fill="#000000"></polygon><rect data-testid="box--1002833003-OX457036.1-348" x="144.2" y="0" width="2" height="10" fill="goldenrod" stroke=""></rect></g><g><line x1="209.3" x2="216.3" y1="5" y2="5" stroke="#000000"></line><polygon points="212.8,2.5,212.8,7.5,216.3,5" stroke="#000000" fill="#000000"></polygon><rect data-testid="box--1002833003-OX457036.1-351" x="208.3" y="0" width="2" height="10" fill="goldenrod" stroke=""></rect></g><g><line x1="221.75349485882577" x2="228.75349485882577" y1="20" y2="20" stroke="#000000"></line><polygon points="225.25349485882577,17.5,225.25349485882577,22.5,228.75349485882577,20" stroke="#000000" fill="#000000"></polygon><rect data-testid="box--1002833003-OX457036.1-353" x="208.3" y="15" width="13.45349485882576" height="10" fill="#8080FF" stroke=""></rect></g><g><line x1="234.37194520917268" x2="241.37194520917268" y1="35" y2="35" stroke="#000000"></line><polygon points="237.87194520917268,32.5,237.87194520917268,37.5,241.37194520917268,35" stroke="#000000" fill="#000000"></polygon><rect data-testid="box--1002833003-OX457036.1-349" x="208.3" y="30" width="26.07194520917268" height="10" fill="goldenrod" stroke=""></rect></g><g><line x1="234.37194520917268" x2="241.37194520917268" y1="50" y2="50" stroke="#000000"></line><polygon points="237.87194520917268,47.5,237.87194520917268,52.5,241.37194520917268,50" stroke="#000000" fill="#000000"></polygon><rect data-testid="box--1002833003-OX457036.1-350" x="208.3" y="45" width="26.07194520917268" height="10" fill="goldenrod" stroke=""></rect></g><g><line x1="227.59170292093404" x2="234.59170292093404" y1="5" y2="5" stroke="#000000"></line><polygon points="231.09170292093404,2.5,231.09170292093404,7.5,234.59170292093404,5" stroke="#000000" fill="#000000"></polygon><rect data-testid="box--1002833003-OX457036.1-352" x="221.7" y="0" width="5.89170292093404" height="10" fill="goldenrod" stroke=""></rect></g><g><line x1="234.32674742941288" x2="241.32674742941288" y1="20" y2="20" stroke="#000000"></line><polygon points="237.82674742941288,17.5,237.82674742941288,22.5,241.32674742941288,20" stroke="#000000" fill="#000000"></polygon><rect data-testid="box--1002833003-OX457036.1-354" x="227.6" y="15" width="6.72674742941288" height="10" fill="#FF8080" stroke=""></rect></g><g><line x1="235.2" x2="242.2" y1="5" y2="5" stroke="#000000"></line><polygon points="238.7,2.5,238.7,7.5,242.2,5" stroke="#000000" fill="#000000"></polygon><rect data-testid="box--1002833003-OX457036.1-355" x="234.2" y="0" width="2" height="10" fill="goldenrod" stroke=""></rect></g><g><line x1="527.5" x2="520.5" y1="5" y2="5" stroke="#000000"></line><polygon points="524,2.5,524,7.5,520.5,5" stroke="#000000" fill="#000000"></polygon><rect data-testid="box--1002833003-OX457036.1-358" x="527.5" y="0" width="2" height="10" fill="goldenrod" stroke=""></rect></g><g><line x1="527.5" x2="520.5" y1="20" y2="20" stroke="#000000"></line><polygon points="524,17.5,524,22.5,520.5,20" stroke="#000000" fill="#000000"></polygon><rect data-testid="box--1002833003-OX457036.1-356" x="527.5" y="15" width="11.13392677971787" height="10" fill="goldenrod" stroke=""></rect></g><g><line x1="527.5" x2="520.5" y1="35" y2="35" stroke="#000000"></line><polygon points="524,32.5,524,37.5,520.5,35" stroke="#000000" fill="#000000"></polygon><rect data-testid="box--1002833003-OX457036.1-357" x="527.5" y="30" width="11.13392677971787" height="10" fill="goldenrod" stroke=""></rect></g><g><line x1="527.5" x2="520.5" y1="50" y2="50" stroke="#000000"></line><polygon points="524,47.5,524,52.5,520.5,50" stroke="#000000" fill="#000000"></polygon><rect data-testid="box--1002833003-OX457036.1-359" x="527.5" y="45" width="11.13392677971787" height="10" fill="#8080FF" stroke=""></rect></g><g><line x1="538.5" x2="531.5" y1="5" y2="5" stroke="#000000"></line><polygon points="535,2.5,535,7.5,531.5,5" stroke="#000000" fill="#000000"></polygon><rect data-testid="box--1002833003-OX457036.1-360" x="538.5" y="0" width="2" height="10" fill="goldenrod" stroke=""></rect></g><g><line x1="837.8" x2="830.8" y1="5" y2="5" stroke="#000000"></line><polygon points="834.3,2.5,834.3,7.5,830.8,5" stroke="#000000" fill="#000000"></polygon><rect data-testid="box--1002833003-OX457036.1-363" x="837.8" y="0" width="2" height="10" fill="goldenrod" stroke=""></rect></g><g><line x1="837.8" x2="830.8" y1="20" y2="20" stroke="#000000"></line><polygon points="834.3,17.5,834.3,22.5,830.8,20" stroke="#000000" fill="#000000"></polygon><rect data-testid="box--1002833003-OX457036.1-361" x="837.8" y="15" width="57.89641925453293" height="10" fill="goldenrod" stroke=""></rect></g><g><line x1="837.8" x2="830.8" y1="35" y2="35" stroke="#000000"></line><polygon points="834.3,32.5,834.3,37.5,830.8,35" stroke="#000000" fill="#000000"></polygon><rect data-testid="box--1002833003-OX457036.1-362" x="837.8" y="30" width="57.89641925453293" height="10" fill="goldenrod" stroke=""></rect></g><g><line x1="837.8" x2="830.8" y1="50" y2="50" stroke="#000000"></line><polygon points="834.3,47.5,834.3,52.5,830.8,50" stroke="#000000" fill="#000000"></polygon><rect data-testid="box--1002833003-OX457036.1-364" x="837.8" y="45" width="57.89641925453293" height="10" fill="#FF8080" stroke=""></rect></g><g><line x1="895.5" x2="888.5" y1="5" y2="5" stroke="#000000"></line><polygon points="892,2.5,892,7.5,888.5,5" stroke="#000000" fill="#000000"></polygon><rect data-testid="box--1002833003-OX457036.1-365" x="895.5" y="0" width="2" height="10" fill="goldenrod" stroke=""></rect></g><g><line x1="1094.5" x2="1101.5" y1="5" y2="5" stroke="#000000"></line><polygon points="1098,2.5,1098,7.5,1101.5,5" stroke="#000000" fill="#000000"></polygon><rect data-testid="box--1002833003-OX457036.1-368" x="1093.5" y="0" width="2" height="10" fill="goldenrod" stroke=""></rect></g><g><line x1="1105.5153626497788" x2="1112.5153626497788" y1="20" y2="20" stroke="#000000"></line><polygon points="1109.0153626497788,17.5,1109.0153626497788,22.5,1112.5153626497788,20" stroke="#000000" fill="#000000"></polygon><rect data-testid="box--1002833003-OX457036.1-370" x="1093.5" y="15" width="12.015362649778869" height="10" fill="#80FF80" stroke=""></rect></g><g><line x1="1141.4686678759513" x2="1148.4686678759513" y1="35" y2="35" stroke="#000000"></line><polygon points="1144.9686678759513,32.5,1144.9686678759513,37.5,1148.4686678759513,35" stroke="#000000" fill="#000000"></polygon><rect data-testid="box--1002833003-OX457036.1-366" x="1093.5" y="30" width="47.968667875951155" height="10" fill="goldenrod" stroke=""></rect></g><g><line x1="1141.4686678759513" x2="1148.4686678759513" y1="50" y2="50" stroke="#000000"></line><polygon points="1144.9686678759513,47.5,1144.9686678759513,52.5,1148.4686678759513,50" stroke="#000000" fill="#000000"></polygon><rect data-testid="box--1002833003-OX457036.1-367" x="1093.5" y="45" width="47.968667875951155" height="10" fill="goldenrod" stroke=""></rect></g><g><line x1="1140.1079557402898" x2="1147.1079557402898" y1="5" y2="5" stroke="#000000"></line><polygon points="1143.6079557402898,2.5,1143.6079557402898,7.5,1147.1079557402898,5" stroke="#000000" fill="#000000"></polygon><rect data-testid="box--1002833003-OX457036.1-369" x="1105.5" y="0" width="34.60795574028971" height="10" fill="goldenrod" stroke=""></rect></g><g><line x1="1141.4453494858824" x2="1148.4453494858824" y1="20" y2="20" stroke="#000000"></line><polygon points="1144.9453494858824,17.5,1144.9453494858824,22.5,1148.4453494858824,20" stroke="#000000" fill="#000000"></polygon><rect data-testid="box--1002833003-OX457036.1-371" x="1140.1" y="15" width="2" height="10" fill="#FF8080" stroke=""></rect></g><g><line x1="1142.3" x2="1149.3" y1="65" y2="65" stroke="#000000"></line><polygon points="1145.8,62.5,1145.8,67.5,1149.3,65" stroke="#000000" fill="#000000"></polygon><rect data-testid="box--1002833003-OX457036.1-372" x="1141.3" y="60" width="2" height="10" fill="goldenrod" stroke=""></rect></g><g><line x1="1145.1" x2="1138.1" y1="5" y2="5" stroke="#000000"></line><polygon points="1141.6,2.5,1141.6,7.5,1138.1,5" stroke="#000000" fill="#000000"></polygon><rect data-testid="box--1002833003-OX457036.1-375" x="1145.1" y="0" width="2" height="10" fill="goldenrod" stroke=""></rect></g><g><line x1="1145.1" x2="1138.1" y1="20" y2="20" stroke="#000000"></line><polygon points="1141.6,17.5,1141.6,22.5,1138.1,20" stroke="#000000" fill="#000000"></polygon><rect data-testid="box--1002833003-OX457036.1-377" x="1145.1" y="15" width="17.164803785398384" height="10" fill="#FF8080" stroke=""></rect></g><g><line x1="1145.1" x2="1138.1" y1="35" y2="35" stroke="#000000"></line><polygon points="1141.6,32.5,1141.6,37.5,1138.1,35" stroke="#000000" fill="#000000"></polygon><rect data-testid="box--1002833003-OX457036.1-373" x="1145.1" y="30" width="63.509774005974016" height="10" fill="goldenrod" stroke=""></rect></g><g><line x1="1145.1" x2="1138.1" y1="50" y2="50" stroke="#000000"></line><polygon points="1141.6,47.5,1141.6,52.5,1138.1,50" stroke="#000000" fill="#000000"></polygon><rect data-testid="box--1002833003-OX457036.1-374" x="1145.1" y="45" width="63.509774005974016" height="10" fill="goldenrod" stroke=""></rect></g><g><line x1="1162.2" x2="1155.2" y1="5" y2="5" stroke="#000000"></line><polygon points="1158.7,2.5,1158.7,7.5,1155.2,5" stroke="#000000" fill="#000000"></polygon><rect data-testid="box--1002833003-OX457036.1-376" x="1162.2" y="0" width="42.912009463495956" height="10" fill="goldenrod" stroke=""></rect></g><g><line x1="1205.2" x2="1198.2" y1="20" y2="20" stroke="#000000"></line><polygon points="1201.7,17.5,1201.7,22.5,1198.2,20" stroke="#000000" fill="#000000"></polygon><rect data-testid="box--1002833003-OX457036.1-378" x="1205.2" y="15" width="3.4329607570796767" height="10" fill="#80FF80" stroke=""></rect></g><g><line x1="1208.4" x2="1201.4" y1="65" y2="65" stroke="#000000"></line><polygon points="1204.9,62.5,1204.9,67.5,1201.4,65" stroke="#000000" fill="#000000"></polygon><rect data-testid="box--1002833003-OX457036.1-379" x="1208.4" y="60" width="2" height="10" fill="goldenrod" stroke=""></rect></g><g><line x1="1230" x2="1237" y1="5" y2="5" stroke="#000000"></line><polygon points="1233.5,2.5,1233.5,7.5,1237,5" stroke="#000000" fill="#000000"></polygon><rect data-testid="box--1002833003-OX457036.1-382" x="1229" y="0" width="2" height="10" fill="goldenrod" stroke=""></rect></g><g><line x1="1231.0876112711971" x2="1238.0876112711971" y1="20" y2="20" stroke="#000000"></line><polygon points="1234.5876112711971,17.5,1234.5876112711971,22.5,1238.0876112711971,20" stroke="#000000" fill="#000000"></polygon><rect data-testid="box--1002833003-OX457036.1-385" x="1229" y="15" width="2.0876112711971007" height="10" fill="#FF8080" stroke=""></rect></g><g><line x1="1350.730932791582" x2="1357.730932791582" y1="35" y2="35" stroke="#000000"></line><polygon points="1354.230932791582,32.5,1354.230932791582,37.5,1357.730932791582,35" stroke="#000000" fill="#000000"></polygon><rect data-testid="box--1002833003-OX457036.1-380" x="1229" y="30" width="121.73093279158205" height="10" fill="goldenrod" stroke=""></rect></g><g><line x1="1350.730932791582" x2="1357.730932791582" y1="50" y2="50" stroke="#000000"></line><polygon points="1354.230932791582,47.5,1354.230932791582,52.5,1357.730932791582,50" stroke="#000000" fill="#000000"></polygon><rect data-testid="box--1002833003-OX457036.1-381" x="1229" y="45" width="121.73093279158205" height="10" fill="goldenrod" stroke=""></rect></g><g><line x1="1326.8981616671558" x2="1333.8981616671558" y1="65" y2="65" stroke="#000000"></line><polygon points="1330.3981616671558,62.5,1330.3981616671558,67.5,1333.8981616671558,65" stroke="#000000" fill="#000000"></polygon><rect data-testid="box--1002833003-OX457036.1-383" x="1231.1" y="60" width="95.79816166715584" height="10" fill="goldenrod" stroke=""></rect></g><g><line x1="1330.1937866723333" x2="1337.1937866723333" y1="5" y2="5" stroke="#000000"></line><polygon points="1333.6937866723333,2.5,1333.6937866723333,7.5,1337.1937866723333,5" stroke="#000000" fill="#000000"></polygon><rect data-testid="box--1002833003-OX457036.1-386" x="1326.9" y="0" width="3.293786672333203" height="10" fill="#80FF80" stroke=""></rect></g><g><line x1="1341.1019699718072" x2="1348.1019699718072" y1="20" y2="20" stroke="#000000"></line><polygon points="1344.6019699718072,17.5,1344.6019699718072,22.5,1348.1019699718072,20" stroke="#000000" fill="#000000"></polygon><rect data-testid="box--1002833003-OX457036.1-384" x="1330.2" y="15" width="10.901969971807082" height="10" fill="goldenrod" stroke=""></rect></g><g><line x1="1350.7494032090888" x2="1357.7494032090888" y1="5" y2="5" stroke="#000000"></line><polygon points="1354.2494032090888,2.5,1354.2494032090888,7.5,1357.7494032090888,5" stroke="#000000" fill="#000000"></polygon><rect data-testid="box--1002833003-OX457036.1-387" x="1341.1" y="0" width="9.64940320908882" height="10" fill="#8080FF" stroke=""></rect></g><g><line x1="1351.6" x2="1358.6" y1="20" y2="20" stroke="#000000"></line><polygon points="1355.1,17.5,1355.1,22.5,1358.6,20" stroke="#000000" fill="#000000"></polygon><rect data-testid="box--1002833003-OX457036.1-388" x="1350.6" y="15" width="2" height="10" fill="goldenrod" stroke=""></rect></g></g></g></g></g><g><text x="0" y="5" fill="#000000" font-size="13" dominant-baseline="hanging">augustus.worm.lumter.2-3mb.gff</text></g></g><g transform="translate(0 462)"><g transform="translate(0 18)"><defs><clipPath id="clip-htGuAc_enpIH9ebo0fbGF-0.9043043905951644"><rect x="0" y="0" width="965.5937499999966" height="100"></rect></clipPath></defs><g transform="translate(0 0)"><g clip-path="url(#clip-htGuAc_enpIH9ebo0fbGF-0.9043043905951644)"><g><g><line data-testid="425862032-OX457036.1-23-0" x1="208.3" y1="5" y2="5" x2="221.9390603051544" stroke="#000000"></line><rect data-testid="box-425862032-OX457036.1-23-0-1" x="208.3" y="0" width="13.639060305154391" height="10" fill="#8080FF" stroke=""></rect><line x1="221.9390603051544" x2="228.9390603051544" y1="5" y2="5" stroke="#000000"></line><polygon points="225.4390603051544,2.5,225.4390603051544,7.5,228.9390603051544,5" stroke="#000000" fill="#000000"></polygon><text x="208.3" y="22" fill="#000000" font-size="12">g24</text></g><g><line data-testid="425862032-OX457036.1-24-0" x1="837.8" y1="5" y2="5" x2="895.6964192545329" stroke="#000000"></line><rect data-testid="box-425862032-OX457036.1-24-0-1" x="837.8" y="0" width="57.89641925453293" height="10" fill="#FF8080" stroke=""></rect><line x1="837.8" x2="830.8" y1="5" y2="5" stroke="#000000"></line><polygon points="834.3,2.5,834.3,7.5,830.8,5" stroke="#000000" fill="#000000"></polygon><text x="837.8" y="22" fill="#000000" font-size="12">g25</text></g><g><line data-testid="425862032-OX457036.1-25-0" x1="1145.1" y1="5" y2="5" x2="1162.0792383390697" stroke="#000000"></line><rect data-testid="box-425862032-OX457036.1-25-0-1" x="1145.1" y="0" width="16.979238339069752" height="10" fill="#FF8080" stroke=""></rect><line x1="1145.1" x2="1138.1" y1="5" y2="5" stroke="#000000"></line><polygon points="1141.6,2.5,1141.6,7.5,1138.1,5" stroke="#000000" fill="#000000"></polygon><text x="1145.1" y="22" fill="#000000" font-size="12">g26</text></g></g></g></g></g><g><text x="0" y="5" fill="#000000" font-size="13" dominant-baseline="hanging">augustus.prothints.gff3</text></g></g></g></g></svg>