<svg width="965.59375" height="780" xmlns="http://www.w3.org/2000/svg" xmlns:xlink="http://www.w3.org/1999/xlink" viewBox="0,0,1065.59375,780"><rect width="1065.59375" height="780" fill="#ffffff"></rect><g transform="translate(50 0)"><g transform="translate(0)"><g id="header"><text x="0" y="0" dominant-baseline="hanging" font-size="13" fill="#000000">GCA_945859605.1 </text><g transform="translate(0 13)"><line x1="0" x2="965.5937499999966" y1="10" y2="10" stroke="#000000"></line><line x1="0" x2="0" y1="5" y2="15" stroke="#000000"></line><line x1="965.5937499999966" x2="965.5937499999966" y1="5" y2="15" stroke="#000000"></line><text x="482.7968749999983" y="13" text-anchor="middle" dominant-baseline="hanging" font-size="13" fill="#000000">20.8Kbp</text></g><g transform="translate(0 50)"><g><defs><clipPath id="clip-{GCA_945859605.1 }OX457036.1:2667394.147770687..2688207.2329164734-0"><rect x="0" y="0" width="965.5937499999966" height="100"></rect></clipPath></defs><g transform="translate(0 0)"><g clip-path="url(#clip-{GCA_945859605.1 }OX457036.1:2667394.147770687..2688207.2329164734-0)"><text x="4" y="13" font-size="13" fill="#000000">OX457036.1</text><g transform="translate(0 20)"><line x1="-27.563324063173887" x2="-27.563324063173887" y1="0" y2="4" stroke-width="1" stroke="#000000"></line><line x1="-9.00677943031077" x2="-9.00677943031077" y1="0" y2="4" stroke-width="1" stroke="#000000"></line><line x1="9.549765202552347" x2="9.549765202552347" y1="0" y2="4" stroke-width="1" stroke="#000000"></line><line x1="28.106309835415466" x2="28.106309835415466" y1="0" y2="6" stroke-width="1" stroke="#000000"></line><line x1="46.66285446827858" x2="46.66285446827858" y1="0" y2="4" stroke-width="1" stroke="#000000"></line><line x1="65.2193991011417" x2="65.2193991011417" y1="0" y2="4" stroke-width="1" stroke="#000000"></line><line x1="83.77594373400481" x2="83.77594373400481" y1="0" y2="4" stroke-width="1" stroke="#000000"></line><line x1="102.33248836686793" x2="102.33248836686793" y1="0" y2="4" stroke-width="1" stroke="#000000"></line><line x1="120.88903299973106" x2="120.88903299973106" y1="0" y2="4" stroke-width="1" stroke="#000000"></line><line x1="139.44557763259417" x2="139.44557763259417" y1="0" y2="4" stroke-width="1" stroke="#000000"></line><line x1="158.00212226545727" x2="158.00212226545727" y1="0" y2="4" stroke-width="1" stroke="#000000"></line><line x1="176.5586668983204" x2="176.5586668983204" y1="0" y2="4" stroke-width="1" stroke="#000000"></line><line x1="195.11521153118352" x2="195.11521153118352" y1="0" y2="4" stroke-width="1" stroke="#000000"></line><line x1="213.67175616404663" x2="213.67175616404663" y1="0" y2="6" stroke-width="1" stroke="#000000"></line><line x1="232.22830079690976" x2="232.22830079690976" y1="0" y2="4" stroke-width="1" stroke="#000000"></line><line x1="250.78484542977287" x2="250.78484542977287" y1="0" y2="4" stroke-width="1" stroke="#000000"></line><line x1="269.341390062636" x2="269.341390062636" y1="0" y2="4" stroke-width="1" stroke="#000000"></line><line x1="287.8979346954991" x2="287.8979346954991" y1="0" y2="4" stroke-width="1" stroke="#000000"></line><line x1="306.4544793283622" x2="306.4544793283622" y1="0" y2="4" stroke-width="1" stroke="#000000"></line><line x1="325.01102396122536" x2="325.01102396122536" y1="0" y2="4" stroke-width="1" stroke="#000000"></line><line x1="343.56756859408847" x2="343.56756859408847" y1="0" y2="4" stroke-width="1" stroke="#000000"></line><line x1="362.1241132269516" x2="362.1241132269516" y1="0" y2="4" stroke-width="1" stroke="#000000"></line><line x1="380.6806578598147" x2="380.6806578598147" y1="0" y2="4" stroke-width="1" stroke="#000000"></line><line x1="399.2372024926778" x2="399.2372024926778" y1="0" y2="6" stroke-width="1" stroke="#000000"></line><line x1="417.7937471255409" x2="417.7937471255409" y1="0" y2="4" stroke-width="1" stroke="#000000"></line><line x1="436.35029175840407" x2="436.35029175840407" y1="0" y2="4" stroke-width="1" stroke="#000000"></line><line x1="454.9068363912672" x2="454.9068363912672" y1="0" y2="4" stroke-width="1" stroke="#000000"></line><line x1="473.4633810241303" x2="473.4633810241303" y1="0" y2="4" stroke-width="1" stroke="#000000"></line><line x1="492.0199256569934" x2="492.0199256569934" y1="0" y2="4" stroke-width="1" stroke="#000000"></line><line x1="510.5764702898565" x2="510.5764702898565" y1="0" y2="4" stroke-width="1" stroke="#000000"></line><line x1="529.1330149227197" x2="529.1330149227197" y1="0" y2="4" stroke-width="1" stroke="#000000"></line><line x1="547.6895595555827" x2="547.6895595555827" y1="0" y2="4" stroke-width="1" stroke="#000000"></line><line x1="566.2461041884459" x2="566.2461041884459" y1="0" y2="4" stroke-width="1" stroke="#000000"></line><line x1="584.8026488213089" x2="584.8026488213089" y1="0" y2="6" stroke-width="1" stroke="#000000"></line><line x1="603.3591934541721" x2="603.3591934541721" y1="0" y2="4" stroke-width="1" stroke="#000000"></line><line x1="621.9157380870353" x2="621.9157380870353" y1="0" y2="4" stroke-width="1" stroke="#000000"></line><line x1="640.4722827198983" x2="640.4722827198983" y1="0" y2="4" stroke-width="1" stroke="#000000"></line><line x1="659.0288273527615" x2="659.0288273527615" y1="0" y2="4" stroke-width="1" stroke="#000000"></line><line x1="677.5853719856245" x2="677.5853719856245" y1="0" y2="4" stroke-width="1" stroke="#000000"></line><line x1="696.1419166184877" x2="696.1419166184877" y1="0" y2="4" stroke-width="1" stroke="#000000"></line><line x1="714.6984612513509" x2="714.6984612513509" y1="0" y2="4" stroke-width="1" stroke="#000000"></line><line x1="733.2550058842139" x2="733.2550058842139" y1="0" y2="4" stroke-width="1" stroke="#000000"></line><line x1="751.8115505170771" x2="751.8115505170771" y1="0" y2="4" stroke-width="1" stroke="#000000"></line><line x1="770.3680951499401" x2="770.3680951499401" y1="0" y2="6" stroke-width="1" stroke="#000000"></line><line x1="788.9246397828033" x2="788.9246397828033" y1="0" y2="4" stroke-width="1" stroke="#000000"></line><line x1="807.4811844156663" x2="807.4811844156663" y1="0" y2="4" stroke-width="1" stroke="#000000"></line><line x1="826.0377290485295" x2="826.0377290485295" y1="0" y2="4" stroke-width="1" stroke="#000000"></line><line x1="844.5942736813927" x2="844.5942736813927" y1="0" y2="4" stroke-width="1" stroke="#000000"></line><line x1="863.1508183142557" x2="863.1508183142557" y1="0" y2="4" stroke-width="1" stroke="#000000"></line><line x1="881.7073629471189" x2="881.7073629471189" y1="0" y2="4" stroke-width="1" stroke="#000000"></line><line x1="900.263907579982" x2="900.263907579982" y1="0" y2="4" stroke-width="1" stroke="#000000"></line><line x1="918.8204522128451" x2="918.8204522128451" y1="0" y2="4" stroke-width="1" stroke="#000000"></line><line x1="937.3769968457082" x2="937.3769968457082" y1="0" y2="4" stroke-width="1" stroke="#000000"></line><line x1="955.9335414785713" x2="955.9335414785713" y1="0" y2="6" stroke-width="1" stroke="#000000"></line><line x1="974.4900861114345" x2="974.4900861114345" y1="0" y2="4" stroke-width="1" stroke="#000000"></line><line x1="993.0466307442975" x2="993.0466307442975" y1="0" y2="4" stroke-width="1" stroke="#000000"></line><text x="25.106309835415466" y="18" font-size="11" fill="#000000">2,668,000</text><text x="210.67175616404663" y="18" font-size="11" fill="#000000">2,672,000</text><text x="396.2372024926778" y="18" font-size="11" fill="#000000">2,676,000</text><text x="581.8026488213089" y="18" font-size="11" fill="#000000">2,680,000</text><text x="767.3680951499401" y="18" font-size="11" fill="#000000">2,684,000</text><text x="952.9335414785713" y="18" font-size="11" fill="#000000">2,688,000</text></g></g></g></g></g></g></g><g transform="translate(0 100)"><g transform="translate(0 0)"><g transform="translate(0 18)"><defs><clipPath id="clip-3IDlZDj3Q0-ApaCKgeeNu-0.7472819879543309"><rect x="0" y="0" width="965.5937499999966" height="444"></rect></clipPath></defs><g transform="translate(0 0)"><g clip-path="url(#clip-3IDlZDj3Q0-ApaCKgeeNu-0.7472819879543309)"><g><g></g><g></g><g></g><g></g><g></g><g><line x1="29.8" x2="22.8" y1="5" y2="5" stroke="#000000"></line><polygon points="26.3,2.5,26.3,7.5,22.8,5" stroke="#000000" fill="#000000"></polygon><rect data-testid="box--1002833003-OX457036.1-363" x="29.8" y="0" width="2" height="10" fill="goldenrod" stroke=""></rect></g><g><line x1="29.8" x2="22.8" y1="20" y2="20" stroke="#000000"></line><polygon points="26.3,17.5,26.3,22.5,22.8,20" stroke="#000000" fill="#000000"></polygon><rect data-testid="box--1002833003-OX457036.1-361" x="29.8" y="15" width="57.89641925453293" height="10" fill="goldenrod" stroke=""></rect></g><g><line x1="29.8" x2="22.8" y1="35" y2="35" stroke="#000000"></line><polygon points="26.3,32.5,26.3,37.5,22.8,35" stroke="#000000" fill="#000000"></polygon><rect data-testid="box--1002833003-OX457036.1-362" x="29.8" y="30" width="57.89641925453293" height="10" fill="goldenrod" stroke=""></rect></g><g><line x1="29.8" x2="22.8" y1="50" y2="50" stroke="#000000"></line><polygon points="26.3,47.5,26.3,52.5,22.8,50" stroke="#000000" fill="#000000"></polygon><rect data-testid="box--1002833003-OX457036.1-364" x="29.8" y="45" width="57.89641925453293" height="10" fill="#FF8080" stroke=""></rect></g><g><line x1="87.5" x2="80.5" y1="5" y2="5" stroke="#000000"></line><polygon points="84,2.5,84,7.5,80.5,5" stroke="#000000" fill="#000000"></polygon><rect data-testid="box--1002833003-OX457036.1-365" x="87.5" y="0" width="2" height="10" fill="goldenrod" stroke=""></rect></g><g><line x1="286.5" x2="293.5" y1="5" y2="5" stroke="#000000"></line><polygon points="290,2.5,290,7.5,293.5,5" stroke="#000000" fill="#000000"></polygon><rect data-testid="box--1002833003-OX457036.1-368" x="285.5" y="0" width="2" height="10" fill="goldenrod" stroke=""></rect></g><g><line x1="297.51536264977887" x2="304.51536264977887" y1="20" y2="20" stroke="#000000"></line><polygon points="301.01536264977887,17.5,301.01536264977887,22.5,304.51536264977887,20" stroke="#000000" fill="#000000"></polygon><rect data-testid="box--1002833003-OX457036.1-370" x="285.5" y="15" width="12.015362649778869" height="10" fill="#80FF80" stroke=""></rect></g><g><line x1="333.46866787595116" x2="340.46866787595116" y1="35" y2="35" stroke="#000000"></line><polygon points="336.96866787595116,32.5,336.96866787595116,37.5,340.46866787595116,35" stroke="#000000" fill="#000000"></polygon><rect data-testid="box--1002833003-OX457036.1-366" x="285.5" y="30" width="47.968667875951155" height="10" fill="goldenrod" stroke=""></rect></g><g><line x1="333.46866787595116" x2="340.46866787595116" y1="50" y2="50" stroke="#000000"></line><polygon points="336.96866787595116,47.5,336.96866787595116,52.5,340.46866787595116,50" stroke="#000000" fill="#000000"></polygon><rect data-testid="box--1002833003-OX457036.1-367" x="285.5" y="45" width="47.968667875951155" height="10" fill="goldenrod" stroke=""></rect></g><g><line x1="332.1079557402897" x2="339.1079557402897" y1="5" y2="5" stroke="#000000"></line><polygon points="335.6079557402897,2.5,335.6079557402897,7.5,339.1079557402897,5" stroke="#000000" fill="#000000"></polygon><rect data-testid="box--1002833003-OX457036.1-369" x="297.5" y="0" width="34.60795574028971" height="10" fill="goldenrod" stroke=""></rect></g><g><line x1="333.4453494858826" x2="340.4453494858826" y1="20" y2="20" stroke="#000000"></line><polygon points="336.9453494858826,17.5,336.9453494858826,22.5,340.4453494858826,20" stroke="#000000" fill="#000000"></polygon><rect data-testid="box--1002833003-OX457036.1-371" x="332.1" y="15" width="2" height="10" fill="#FF8080" stroke=""></rect></g><g><line x1="334.3" x2="341.3" y1="65" y2="65" stroke="#000000"></line><polygon points="337.8,62.5,337.8,67.5,341.3,65" stroke="#000000" fill="#000000"></polygon><rect data-testid="box--1002833003-OX457036.1-372" x="333.3" y="60" width="2" height="10" fill="goldenrod" stroke=""></rect></g><g><line x1="337.1" x2="330.1" y1="5" y2="5" stroke="#000000"></line><polygon points="333.6,2.5,333.6,7.5,330.1,5" stroke="#000000" fill="#000000"></polygon><rect data-testid="box--1002833003-OX457036.1-375" x="337.1" y="0" width="2" height="10" fill="goldenrod" stroke=""></rect></g><g><line x1="337.1" x2="330.1" y1="20" y2="20" stroke="#000000"></line><polygon points="333.6,17.5,333.6,22.5,330.1,20" stroke="#000000" fill="#000000"></polygon><rect data-testid="box--1002833003-OX457036.1-377" x="337.1" y="15" width="17.164803785398384" height="10" fill="#FF8080" stroke=""></rect></g><g><line x1="337.1" x2="330.1" y1="35" y2="35" stroke="#000000"></line><polygon points="333.6,32.5,333.6,37.5,330.1,35" stroke="#000000" fill="#000000"></polygon><rect data-testid="box--1002833003-OX457036.1-373" x="337.1" y="30" width="63.509774005974016" height="10" fill="goldenrod" stroke=""></rect></g><g><line x1="337.1" x2="330.1" y1="50" y2="50" stroke="#000000"></line><polygon points="333.6,47.5,333.6,52.5,330.1,50" stroke="#000000" fill="#000000"></polygon><rect data-testid="box--1002833003-OX457036.1-374" x="337.1" y="45" width="63.509774005974016" height="10" fill="goldenrod" stroke=""></rect></g><g><line x1="354.2" x2="347.2" y1="5" y2="5" stroke="#000000"></line><polygon points="350.7,2.5,350.7,7.5,347.2,5" stroke="#000000" fill="#000000"></polygon><rect data-testid="box--1002833003-OX457036.1-376" x="354.2" y="0" width="42.912009463495956" height="10" fill="goldenrod" stroke=""></rect></g><g><line x1="397.2" x2="390.2" y1="20" y2="20" stroke="#000000"></line><polygon points="393.7,17.5,393.7,22.5,390.2,20" stroke="#000000" fill="#000000"></polygon><rect data-testid="box--1002833003-OX457036.1-378" x="397.2" y="15" width="3.4329607570796767" height="10" fill="#80FF80" stroke=""></rect></g><g><line x1="400.5" x2="393.5" y1="65" y2="65" stroke="#000000"></line><polygon points="397,62.5,397,67.5,393.5,65" stroke="#000000" fill="#000000"></polygon><rect data-testid="box--1002833003-OX457036.1-379" x="400.5" y="60" width="2" height="10" fill="goldenrod" stroke=""></rect></g><g><line x1="422" x2="429" y1="5" y2="5" stroke="#000000"></line><polygon points="425.5,2.5,425.5,7.5,429,5" stroke="#000000" fill="#000000"></polygon><rect data-testid="box--1002833003-OX457036.1-382" x="421" y="0" width="2" height="10" fill="goldenrod" stroke=""></rect></g><g><line x1="423.0876112711971" x2="430.0876112711971" y1="20" y2="20" stroke="#000000"></line><polygon points="426.5876112711971,17.5,426.5876112711971,22.5,430.0876112711971,20" stroke="#000000" fill="#000000"></polygon><rect data-testid="box--1002833003-OX457036.1-385" x="421" y="15" width="2.0876112711971007" height="10" fill="#FF8080" stroke=""></rect></g><g><line x1="542.7309327915821" x2="549.7309327915821" y1="35" y2="35" stroke="#000000"></line><polygon points="546.2309327915821,32.5,546.2309327915821,37.5,549.7309327915821,35" stroke="#000000" fill="#000000"></polygon><rect data-testid="box--1002833003-OX457036.1-380" x="421" y="30" width="121.73093279158205" height="10" fill="goldenrod" stroke=""></rect></g><g><line x1="542.7309327915821" x2="549.7309327915821" y1="50" y2="50" stroke="#000000"></line><polygon points="546.2309327915821,47.5,546.2309327915821,52.5,549.7309327915821,50" stroke="#000000" fill="#000000"></polygon><rect data-testid="box--1002833003-OX457036.1-381" x="421" y="45" width="121.73093279158205" height="10" fill="goldenrod" stroke=""></rect></g><g><line x1="518.8981616671558" x2="525.8981616671558" y1="65" y2="65" stroke="#000000"></line><polygon points="522.3981616671558,62.5,522.3981616671558,67.5,525.8981616671558,65" stroke="#000000" fill="#000000"></polygon><rect data-testid="box--1002833003-OX457036.1-383" x="423.1" y="60" width="95.79816166715584" height="10" fill="goldenrod" stroke=""></rect></g><g><line x1="522.1937866723332" x2="529.1937866723332" y1="5" y2="5" stroke="#000000"></line><polygon points="525.6937866723332,2.5,525.6937866723332,7.5,529.1937866723332,5" stroke="#000000" fill="#000000"></polygon><rect data-testid="box--1002833003-OX457036.1-386" x="518.9" y="0" width="3.293786672333203" height="10" fill="#80FF80" stroke=""></rect></g><g><line x1="533.1019699718071" x2="540.1019699718071" y1="20" y2="20" stroke="#000000"></line><polygon points="536.6019699718071,17.5,536.6019699718071,22.5,540.1019699718071,20" stroke="#000000" fill="#000000"></polygon><rect data-testid="box--1002833003-OX457036.1-384" x="522.2" y="15" width="10.901969971807082" height="10" fill="goldenrod" stroke=""></rect></g><g><line x1="542.7494032090889" x2="549.7494032090889" y1="5" y2="5" stroke="#000000"></line><polygon points="546.2494032090889,2.5,546.2494032090889,7.5,549.7494032090889,5" stroke="#000000" fill="#000000"></polygon><rect data-testid="box--1002833003-OX457036.1-387" x="533.1" y="0" width="9.64940320908882" height="10" fill="#8080FF" stroke=""></rect></g><g><line x1="543.6" x2="550.6" y1="20" y2="20" stroke="#000000"></line><polygon points="547.1,17.5,547.1,22.5,550.6,20" stroke="#000000" fill="#000000"></polygon><rect data-testid="box--1002833003-OX457036.1-388" x="542.6" y="15" width="2" height="10" fill="goldenrod" stroke=""></rect></g><g><line x1="767.4" x2="760.4" y1="5" y2="5" stroke="#000000"></line><polygon points="763.9,2.5,763.9,7.5,760.4,5" stroke="#000000" fill="#000000"></polygon><rect data-testid="box--1002833003-OX457036.1-391" x="767.4" y="0" width="2" height="10" fill="goldenrod" stroke=""></rect></g><g><line x1="767.4" x2="760.4" y1="20" y2="20" stroke="#000000"></line><polygon points="763.9,17.5,763.9,22.5,760.4,20" stroke="#000000" fill="#000000"></polygon><rect data-testid="box--1002833003-OX457036.1-399" x="767.4" y="15" width="14.10297392097597" height="10" fill="#8080FF" stroke=""></rect></g><g><line x1="767.4" x2="760.4" y1="35" y2="35" stroke="#000000"></line><polygon points="763.9,32.5,763.9,37.5,760.4,35" stroke="#000000" fill="#000000"></polygon><rect data-testid="box--1002833003-OX457036.1-389" x="767.4" y="30" width="779.0037436875937" height="10" fill="goldenrod" stroke=""></rect></g><g><line x1="767.4" x2="760.4" y1="50" y2="50" stroke="#000000"></line><polygon points="763.9,47.5,763.9,52.5,760.4,50" stroke="#000000" fill="#000000"></polygon><rect data-testid="box--1002833003-OX457036.1-390" x="767.4" y="45" width="779.0037436875937" height="10" fill="goldenrod" stroke=""></rect></g><g><line x1="781.5" x2="774.5" y1="5" y2="5" stroke="#000000"></line><polygon points="778,2.5,778,7.5,774.5,5" stroke="#000000" fill="#000000"></polygon><rect data-testid="box--1002833003-OX457036.1-392" x="781.5" y="0" width="100.34451510220731" height="10" fill="goldenrod" stroke=""></rect></g><g><line x1="881.8" x2="874.8" y1="20" y2="20" stroke="#000000"></line><polygon points="878.3,17.5,878.3,22.5,874.8,20" stroke="#000000" fill="#000000"></polygon><rect data-testid="box--1002833003-OX457036.1-400" x="881.8" y="15" width="3.618526203408308" height="10" fill="#8080FF" stroke=""></rect></g><g><line x1="885.4" x2="878.4" y1="5" y2="5" stroke="#000000"></line><polygon points="881.9,2.5,881.9,7.5,878.4,5" stroke="#000000" fill="#000000"></polygon><rect data-testid="box--1002833003-OX457036.1-393" x="885.4" y="0" width="8.536010531117034" height="10" fill="goldenrod" stroke=""></rect></g><g><line x1="894" x2="887" y1="20" y2="20" stroke="#000000"></line><polygon points="890.5,17.5,890.5,22.5,887,20" stroke="#000000" fill="#000000"></polygon><rect data-testid="box--1002833003-OX457036.1-401" x="894" y="15" width="7.051486960487985" height="10" fill="#FF8080" stroke=""></rect></g><g><line x1="901" x2="894" y1="5" y2="5" stroke="#000000"></line><polygon points="897.5,2.5,897.5,7.5,894,5" stroke="#000000" fill="#000000"></polygon><rect data-testid="box--1002833003-OX457036.1-394" x="901" y="0" width="107.25682797794882" height="10" fill="goldenrod" stroke=""></rect></g><g><line x1="1008.3" x2="1001.3" y1="20" y2="20" stroke="#000000"></line><polygon points="1004.8,17.5,1004.8,22.5,1001.3,20" stroke="#000000" fill="#000000"></polygon><rect data-testid="box--1002833003-OX457036.1-402" x="1008.3" y="15" width="21.989505389942796" height="10" fill="#8080FF" stroke=""></rect></g><g><line x1="1030.3" x2="1023.3" y1="5" y2="5" stroke="#000000"></line><polygon points="1026.8,2.5,1026.8,7.5,1023.3,5" stroke="#000000" fill="#000000"></polygon><rect data-testid="box--1002833003-OX457036.1-395" x="1030.3" y="0" width="156.7564107861112" height="10" fill="goldenrod" stroke=""></rect></g><g><line x1="1187" x2="1180" y1="20" y2="20" stroke="#000000"></line><polygon points="1183.5,17.5,1183.5,22.5,1180,20" stroke="#000000" fill="#000000"></polygon><rect data-testid="box--1002833003-OX457036.1-403" x="1187" y="15" width="7.1442696836523005" height="10" fill="#FF8080" stroke=""></rect></g><g><line x1="1194.2" x2="1187.2" y1="5" y2="5" stroke="#000000"></line><polygon points="1190.7,2.5,1190.7,7.5,1187.2,5" stroke="#000000" fill="#000000"></polygon><rect data-testid="box--1002833003-OX457036.1-396" x="1194.2" y="0" width="67.03551748621801" height="10" fill="goldenrod" stroke=""></rect></g><g><line x1="1261.2" x2="1254.2" y1="20" y2="20" stroke="#000000"></line><polygon points="1257.7,17.5,1257.7,22.5,1254.2,20" stroke="#000000" fill="#000000"></polygon><rect data-testid="box--1002833003-OX457036.1-404" x="1261.2" y="15" width="7.376226491563089" height="10" fill="#8080FF" stroke=""></rect></g><g><line x1="1268.6" x2="1261.6" y1="5" y2="5" stroke="#000000"></line><polygon points="1265.1,2.5,1265.1,7.5,1261.6,5" stroke="#000000" fill="#000000"></polygon><rect data-testid="box--1002833003-OX457036.1-397" x="1268.6" y="0" width="201.52407471289345" height="10" fill="goldenrod" stroke=""></rect></g></g></g></g></g><g><text x="0" y="5" fill="#000000" font-size="13" dominant-baseline="hanging">augustus.worm.lumter.2-3mb.gff</text></g></g><g transform="translate(0 462)"><g transform="translate(0 18)"><defs><clipPath id="clip-htGuAc_enpIH9ebo0fbGF-0.7035828193591052"><rect x="0" y="0" width="965.5937499999966" height="100"></rect></clipPath></defs><g transform="translate(0 0)"><g clip-path="url(#clip-htGuAc_enpIH9ebo0fbGF-0.7035828193591052)"><g><g><line data-testid="425862032-OX457036.1-24-0" x1="29.8" y1="5" y2="5" x2="87.69641925453293" stroke="#000000"></line><rect data-testid="box-425862032-OX457036.1-24-0-1" x="29.8" y="0" width="57.89641925453293" height="10" fill="#FF8080" stroke=""></rect><line x1="29.8" x2="22.8" y1="5" y2="5" stroke="#000000"></line><polygon points="26.3,2.5,26.3,7.5,22.8,5" stroke="#000000" fill="#000000"></polygon><text x="29.8" y="22" fill="#000000" font-size="12">g25</text></g><g><line data-testid="425862032-OX457036.1-25-0" x1="337.1" y1="5" y2="5" x2="354.0792383390698" stroke="#000000"></line><rect data-testid="box-425862032-OX457036.1-25-0-1" x="337.1" y="0" width="16.979238339069752" height="10" fill="#FF8080" stroke=""></rect><line x1="337.1" x2="330.1" y1="5" y2="5" stroke="#000000"></line><polygon points="333.6,2.5,333.6,7.5,330.1,5" stroke="#000000" fill="#000000"></polygon><text x="337.1" y="22" fill="#000000" font-size="12">g26</text></g></g></g></g></g><g><text x="0" y="5" fill="#000000" font-size="13" dominant-baseline="hanging">augustus.prothints.gff3</text></g></g></g></g></svg>