<svg width="965.59375" height="780" xmlns="http://www.w3.org/2000/svg" xmlns:xlink="http://www.w3.org/1999/xlink" viewBox="0,0,1065.59375,780"><rect width="1065.59375" height="780" fill="#ffffff"></rect><g transform="translate(50 0)"><g transform="translate(0)"><g id="header"><text x="0" y="0" dominant-baseline="hanging" font-size="13" fill="#000000">GCA_945859605.1 </text><g transform="translate(0 13)"><line x1="0" x2="965.5937500000182" y1="10" y2="10" stroke="#000000"></line><line x1="0" x2="0" y1="5" y2="15" stroke="#000000"></line><line x1="965.5937500000182" x2="965.5937500000182" y1="5" y2="15" stroke="#000000"></line><text x="482.7968750000091" y="13" text-anchor="middle" dominant-baseline="hanging" font-size="13" fill="#000000">20.8Kbp</text></g><g transform="translate(0 50)"><g><defs><clipPath id="clip-{GCA_945859605.1 }OX457036.1:2743852.3477249686..2764665.4328707554-0"><rect x="0" y="0" width="965.5937500000182" height="100"></rect></clipPath></defs><g transform="translate(-1.4551915228366852e-11 0)"><g clip-path="url(#clip-{GCA_945859605.1 }OX457036.1:2743852.3477249686..2764665.4328707554-0)"><text x="4" y="13" font-size="13" fill="#000000">OX457036.1</text><g transform="translate(0 20)"><line x1="-30.26329918631484" x2="-30.26329918631484" y1="0" y2="4" stroke-width="1" stroke="#000000"></line><line x1="-11.706754553451724" x2="-11.706754553451724" y1="0" y2="4" stroke-width="1" stroke="#000000"></line><line x1="6.849790079411394" x2="6.849790079411394" y1="0" y2="6" stroke-width="1" stroke="#000000"></line><line x1="25.40633471227451" x2="25.40633471227451" y1="0" y2="4" stroke-width="1" stroke="#000000"></line><line x1="43.96287934513763" x2="43.96287934513763" y1="0" y2="4" stroke-width="1" stroke="#000000"></line><line x1="62.519423978000745" x2="62.519423978000745" y1="0" y2="4" stroke-width="1" stroke="#000000"></line><line x1="81.07596861086387" x2="81.07596861086387" y1="0" y2="4" stroke-width="1" stroke="#000000"></line><line x1="99.63251324372698" x2="99.63251324372698" y1="0" y2="4" stroke-width="1" stroke="#000000"></line><line x1="118.1890578765901" x2="118.1890578765901" y1="0" y2="4" stroke-width="1" stroke="#000000"></line><line x1="136.74560250945322" x2="136.74560250945322" y1="0" y2="4" stroke-width="1" stroke="#000000"></line><line x1="155.30214714231633" x2="155.30214714231633" y1="0" y2="4" stroke-width="1" stroke="#000000"></line><line x1="173.85869177517944" x2="173.85869177517944" y1="0" y2="4" stroke-width="1" stroke="#000000"></line><line x1="192.41523640804257" x2="192.41523640804257" y1="0" y2="6" stroke-width="1" stroke="#000000"></line><line x1="210.97178104090568" x2="210.97178104090568" y1="0" y2="4" stroke-width="1" stroke="#000000"></line><line x1="229.5283256737688" x2="229.5283256737688" y1="0" y2="4" stroke-width="1" stroke="#000000"></line><line x1="248.08487030663193" x2="248.08487030663193" y1="0" y2="4" stroke-width="1" stroke="#000000"></line><line x1="266.64141493949506" x2="266.64141493949506" y1="0" y2="4" stroke-width="1" stroke="#000000"></line><line x1="285.1979595723582" x2="285.1979595723582" y1="0" y2="4" stroke-width="1" stroke="#000000"></line><line x1="303.7545042052213" x2="303.7545042052213" y1="0" y2="4" stroke-width="1" stroke="#000000"></line><line x1="322.3110488380844" x2="322.3110488380844" y1="0" y2="4" stroke-width="1" stroke="#000000"></line><line x1="340.8675934709475" x2="340.8675934709475" y1="0" y2="4" stroke-width="1" stroke="#000000"></line><line x1="359.4241381038106" x2="359.4241381038106" y1="0" y2="4" stroke-width="1" stroke="#000000"></line><line x1="377.9806827366737" x2="377.9806827366737" y1="0" y2="6" stroke-width="1" stroke="#000000"></line><line x1="396.5372273695369" x2="396.5372273695369" y1="0" y2="4" stroke-width="1" stroke="#000000"></line><line x1="415.0937720024" x2="415.0937720024" y1="0" y2="4" stroke-width="1" stroke="#000000"></line><line x1="433.6503166352631" x2="433.6503166352631" y1="0" y2="4" stroke-width="1" stroke="#000000"></line><line x1="452.2068612681262" x2="452.2068612681262" y1="0" y2="4" stroke-width="1" stroke="#000000"></line><line x1="470.7634059009893" x2="470.7634059009893" y1="0" y2="4" stroke-width="1" stroke="#000000"></line><line x1="489.3199505338524" x2="489.3199505338524" y1="0" y2="4" stroke-width="1" stroke="#000000"></line><line x1="507.8764951667156" x2="507.8764951667156" y1="0" y2="4" stroke-width="1" stroke="#000000"></line><line x1="526.4330397995786" x2="526.4330397995786" y1="0" y2="4" stroke-width="1" stroke="#000000"></line><line x1="544.9895844324418" x2="544.9895844324418" y1="0" y2="4" stroke-width="1" stroke="#000000"></line><line x1="563.546129065305" x2="563.546129065305" y1="0" y2="6" stroke-width="1" stroke="#000000"></line><line x1="582.102673698168" x2="582.102673698168" y1="0" y2="4" stroke-width="1" stroke="#000000"></line><line x1="600.6592183310312" x2="600.6592183310312" y1="0" y2="4" stroke-width="1" stroke="#000000"></line><line x1="619.2157629638942" x2="619.2157629638942" y1="0" y2="4" stroke-width="1" stroke="#000000"></line><line x1="637.7723075967574" x2="637.7723075967574" y1="0" y2="4" stroke-width="1" stroke="#000000"></line><line x1="656.3288522296205" x2="656.3288522296205" y1="0" y2="4" stroke-width="1" stroke="#000000"></line><line x1="674.8853968624836" x2="674.8853968624836" y1="0" y2="4" stroke-width="1" stroke="#000000"></line><line x1="693.4419414953468" x2="693.4419414953468" y1="0" y2="4" stroke-width="1" stroke="#000000"></line><line x1="711.9984861282098" x2="711.9984861282098" y1="0" y2="4" stroke-width="1" stroke="#000000"></line><line x1="730.555030761073" x2="730.555030761073" y1="0" y2="4" stroke-width="1" stroke="#000000"></line><line x1="749.111575393936" x2="749.111575393936" y1="0" y2="6" stroke-width="1" stroke="#000000"></line><line x1="767.6681200267992" x2="767.6681200267992" y1="0" y2="4" stroke-width="1" stroke="#000000"></line><line x1="786.2246646596624" x2="786.2246646596624" y1="0" y2="4" stroke-width="1" stroke="#000000"></line><line x1="804.7812092925254" x2="804.7812092925254" y1="0" y2="4" stroke-width="1" stroke="#000000"></line><line x1="823.3377539253886" x2="823.3377539253886" y1="0" y2="4" stroke-width="1" stroke="#000000"></line><line x1="841.8942985582516" x2="841.8942985582516" y1="0" y2="4" stroke-width="1" stroke="#000000"></line><line x1="860.4508431911148" x2="860.4508431911148" y1="0" y2="4" stroke-width="1" stroke="#000000"></line><line x1="879.0073878239779" x2="879.0073878239779" y1="0" y2="4" stroke-width="1" stroke="#000000"></line><line x1="897.563932456841" x2="897.563932456841" y1="0" y2="4" stroke-width="1" stroke="#000000"></line><line x1="916.1204770897042" x2="916.1204770897042" y1="0" y2="4" stroke-width="1" stroke="#000000"></line><line x1="934.6770217225672" x2="934.6770217225672" y1="0" y2="6" stroke-width="1" stroke="#000000"></line><line x1="953.2335663554304" x2="953.2335663554304" y1="0" y2="4" stroke-width="1" stroke="#000000"></line><line x1="971.7901109882935" x2="971.7901109882935" y1="0" y2="4" stroke-width="1" stroke="#000000"></line><line x1="990.3466556211566" x2="990.3466556211566" y1="0" y2="4" stroke-width="1" stroke="#000000"></line><text x="3.8497900794113944" y="18" font-size="11" fill="#000000">2,744,000</text><text x="189.41523640804257" y="18" font-size="11" fill="#000000">2,748,000</text><text x="374.9806827366737" y="18" font-size="11" fill="#000000">2,752,000</text><text x="560.546129065305" y="18" font-size="11" fill="#000000">2,756,000</text><text x="746.111575393936" y="18" font-size="11" fill="#000000">2,760,000</text><text x="931.6770217225672" y="18" font-size="11" fill="#000000">2,764,000</text></g></g></g></g></g></g></g><g transform="translate(0 100)"><g transform="translate(0 0)"><g transform="translate(0 18)"><defs><clipPath id="clip-3IDlZDj3Q0-ApaCKgeeNu-0.15016100848081626"><rect x="0" y="0" width="965.5937500000182" height="444"></rect></clipPath></defs><g transform="translate(-1.4551915228366852e-11 0)"><g clip-path="url(#clip-3IDlZDj3Q0-ApaCKgeeNu-0.15016100848081626)"><g><g><line x1="440.3" x2="447.3" y1="5" y2="5" stroke="#000000"></line><polygon points="443.8,2.5,443.8,7.5,447.3,5" stroke="#000000" fill="#000000"></polygon><rect data-testid="box--1002833003-OX457036.1-420" x="439.3" y="0" width="2" height="10" fill="goldenrod" stroke=""></rect></g><g><line x1="454.33080115261913" x2="461.33080115261913" y1="20" y2="20" stroke="#000000"></line><polygon points="457.83080115261913,17.5,457.83080115261913,22.5,461.33080115261913,20" stroke="#000000" fill="#000000"></polygon><rect data-testid="box--1002833003-OX457036.1-418" x="439.3" y="15" width="15.030801152619125" height="10" fill="goldenrod" stroke=""></rect></g><g><line x1="454.33080115261913" x2="461.33080115261913" y1="35" y2="35" stroke="#000000"></line><polygon points="457.83080115261913,32.5,457.83080115261913,37.5,461.33080115261913,35" stroke="#000000" fill="#000000"></polygon><rect data-testid="box--1002833003-OX457036.1-419" x="439.3" y="30" width="15.030801152619125" height="10" fill="goldenrod" stroke=""></rect></g><g><line x1="454.33080115261913" x2="461.33080115261913" y1="50" y2="50" stroke="#000000"></line><polygon points="457.83080115261913,47.5,457.83080115261913,52.5,461.33080115261913,50" stroke="#000000" fill="#000000"></polygon><rect data-testid="box--1002833003-OX457036.1-421" x="439.3" y="45" width="15.030801152619125" height="10" fill="#80FF80" stroke=""></rect></g><g><line x1="455.2" x2="462.2" y1="5" y2="5" stroke="#000000"></line><polygon points="458.7,2.5,458.7,7.5,462.2,5" stroke="#000000" fill="#000000"></polygon><rect data-testid="box--1002833003-OX457036.1-422" x="454.2" y="0" width="2" height="10" fill="goldenrod" stroke=""></rect></g></g></g></g></g><g><text x="0" y="5" fill="#000000" font-size="13" dominant-baseline="hanging">augustus.worm.lumter.2-3mb.gff</text></g></g><g transform="translate(0 462)"><g transform="translate(0 18)"><defs><clipPath id="clip-htGuAc_enpIH9ebo0fbGF-0.08178328485161357"><rect x="0" y="0" width="965.5937500000182" height="100"></rect></clipPath></defs><g transform="translate(-1.4551915228366852e-11 0)"><g clip-path="url(#clip-htGuAc_enpIH9ebo0fbGF-0.08178328485161357)"><g><g><line data-testid="425862032-OX457036.1-26-0" x1="433.4" y1="5" y2="5" x2="454.276112711971" stroke="#000000"></line><rect data-testid="box-425862032-OX457036.1-26-0-1" x="433.4" y="0" width="20.876112711971007" height="10" fill="#80FF80" stroke=""></rect><line x1="454.276112711971" x2="461.276112711971" y1="5" y2="5" stroke="#000000"></line><polygon points="457.776112711971,2.5,457.776112711971,7.5,461.276112711971,5" stroke="#000000" fill="#000000"></polygon><text x="433.4" y="22" fill="#000000" font-size="12">g27</text></g></g></g></g></g><g><text x="0" y="5" fill="#000000" font-size="13" dominant-baseline="hanging">augustus.prothints.gff3</text></g></g></g></g></svg>