<svg width="965.59375" height="780" xmlns="http://www.w3.org/2000/svg" xmlns:xlink="http://www.w3.org/1999/xlink" viewBox="0,0,1065.59375,780"><rect width="1065.59375" height="780" fill="#ffffff"></rect><g transform="translate(50 0)"><g transform="translate(0)"><g id="header"><text x="0" y="0" dominant-baseline="hanging" font-size="13" fill="#000000">GCA_945859605.1 </text><g transform="translate(0 13)"><line x1="0" x2="965.5937499999966" y1="10" y2="10" stroke="#000000"></line><line x1="0" x2="0" y1="5" y2="15" stroke="#000000"></line><line x1="965.5937499999966" x2="965.5937499999966" y1="5" y2="15" stroke="#000000"></line><text x="482.7968749999983" y="13" text-anchor="middle" dominant-baseline="hanging" font-size="13" fill="#000000">20.8Kbp</text></g><g transform="translate(0 50)"><g><defs><clipPath id="clip-{GCA_945859605.1 }OX457036.1:2778837.309249017..2799650.3943948033-0"><rect x="0" y="0" width="965.5937499999966" height="100"></rect></clipPath></defs><g transform="translate(0 0)"><g clip-path="url(#clip-{GCA_945859605.1 }OX457036.1:2778837.309249017..2799650.3943948033-0)"><text x="4" y="13" font-size="13" fill="#000000">OX457036.1</text><g transform="translate(0 20)"><line x1="-20.28737149436591" x2="-20.28737149436591" y1="0" y2="4" stroke-width="1" stroke="#000000"></line><line x1="-1.7308268615027922" x2="-1.7308268615027922" y1="0" y2="4" stroke-width="1" stroke="#000000"></line><line x1="16.825717771360324" x2="16.825717771360324" y1="0" y2="4" stroke-width="1" stroke="#000000"></line><line x1="35.38226240422344" x2="35.38226240422344" y1="0" y2="4" stroke-width="1" stroke="#000000"></line><line x1="53.93880703708656" x2="53.93880703708656" y1="0" y2="6" stroke-width="1" stroke="#000000"></line><line x1="72.49535166994967" x2="72.49535166994967" y1="0" y2="4" stroke-width="1" stroke="#000000"></line><line x1="91.05189630281279" x2="91.05189630281279" y1="0" y2="4" stroke-width="1" stroke="#000000"></line><line x1="109.60844093567592" x2="109.60844093567592" y1="0" y2="4" stroke-width="1" stroke="#000000"></line><line x1="128.16498556853904" x2="128.16498556853904" y1="0" y2="4" stroke-width="1" stroke="#000000"></line><line x1="146.72153020140215" x2="146.72153020140215" y1="0" y2="4" stroke-width="1" stroke="#000000"></line><line x1="165.27807483426525" x2="165.27807483426525" y1="0" y2="4" stroke-width="1" stroke="#000000"></line><line x1="183.8346194671284" x2="183.8346194671284" y1="0" y2="4" stroke-width="1" stroke="#000000"></line><line x1="202.3911640999915" x2="202.3911640999915" y1="0" y2="4" stroke-width="1" stroke="#000000"></line><line x1="220.9477087328546" x2="220.9477087328546" y1="0" y2="4" stroke-width="1" stroke="#000000"></line><line x1="239.50425336571774" x2="239.50425336571774" y1="0" y2="6" stroke-width="1" stroke="#000000"></line><line x1="258.0607979985808" x2="258.0607979985808" y1="0" y2="4" stroke-width="1" stroke="#000000"></line><line x1="276.617342631444" x2="276.617342631444" y1="0" y2="4" stroke-width="1" stroke="#000000"></line><line x1="295.1738872643071" x2="295.1738872643071" y1="0" y2="4" stroke-width="1" stroke="#000000"></line><line x1="313.7304318971702" x2="313.7304318971702" y1="0" y2="4" stroke-width="1" stroke="#000000"></line><line x1="332.2869765300333" x2="332.2869765300333" y1="0" y2="4" stroke-width="1" stroke="#000000"></line><line x1="350.8435211628964" x2="350.8435211628964" y1="0" y2="4" stroke-width="1" stroke="#000000"></line><line x1="369.40006579575953" x2="369.40006579575953" y1="0" y2="4" stroke-width="1" stroke="#000000"></line><line x1="387.9566104286227" x2="387.9566104286227" y1="0" y2="4" stroke-width="1" stroke="#000000"></line><line x1="406.5131550614858" x2="406.5131550614858" y1="0" y2="4" stroke-width="1" stroke="#000000"></line><line x1="425.0696996943489" x2="425.0696996943489" y1="0" y2="6" stroke-width="1" stroke="#000000"></line><line x1="443.626244327212" x2="443.626244327212" y1="0" y2="4" stroke-width="1" stroke="#000000"></line><line x1="462.18278896007513" x2="462.18278896007513" y1="0" y2="4" stroke-width="1" stroke="#000000"></line><line x1="480.73933359293824" x2="480.73933359293824" y1="0" y2="4" stroke-width="1" stroke="#000000"></line><line x1="499.2958782258014" x2="499.2958782258014" y1="0" y2="4" stroke-width="1" stroke="#000000"></line><line x1="517.8524228586645" x2="517.8524228586645" y1="0" y2="4" stroke-width="1" stroke="#000000"></line><line x1="536.4089674915276" x2="536.4089674915276" y1="0" y2="4" stroke-width="1" stroke="#000000"></line><line x1="554.9655121243908" x2="554.9655121243908" y1="0" y2="4" stroke-width="1" stroke="#000000"></line><line x1="573.5220567572538" x2="573.5220567572538" y1="0" y2="4" stroke-width="1" stroke="#000000"></line><line x1="592.078601390117" x2="592.078601390117" y1="0" y2="4" stroke-width="1" stroke="#000000"></line><line x1="610.63514602298" x2="610.63514602298" y1="0" y2="6" stroke-width="1" stroke="#000000"></line><line x1="629.1916906558432" x2="629.1916906558432" y1="0" y2="4" stroke-width="1" stroke="#000000"></line><line x1="647.7482352887063" x2="647.7482352887063" y1="0" y2="4" stroke-width="1" stroke="#000000"></line><line x1="666.3047799215694" x2="666.3047799215694" y1="0" y2="4" stroke-width="1" stroke="#000000"></line><line x1="684.8613245544326" x2="684.8613245544326" y1="0" y2="4" stroke-width="1" stroke="#000000"></line><line x1="703.4178691872957" x2="703.4178691872957" y1="0" y2="4" stroke-width="1" stroke="#000000"></line><line x1="721.9744138201588" x2="721.9744138201588" y1="0" y2="4" stroke-width="1" stroke="#000000"></line><line x1="740.5309584530219" x2="740.5309584530219" y1="0" y2="4" stroke-width="1" stroke="#000000"></line><line x1="759.087503085885" x2="759.087503085885" y1="0" y2="4" stroke-width="1" stroke="#000000"></line><line x1="777.6440477187481" x2="777.6440477187481" y1="0" y2="4" stroke-width="1" stroke="#000000"></line><line x1="796.2005923516112" x2="796.2005923516112" y1="0" y2="6" stroke-width="1" stroke="#000000"></line><line x1="814.7571369844744" x2="814.7571369844744" y1="0" y2="4" stroke-width="1" stroke="#000000"></line><line x1="833.3136816173375" x2="833.3136816173375" y1="0" y2="4" stroke-width="1" stroke="#000000"></line><line x1="851.8702262502006" x2="851.8702262502006" y1="0" y2="4" stroke-width="1" stroke="#000000"></line><line x1="870.4267708830637" x2="870.4267708830637" y1="0" y2="4" stroke-width="1" stroke="#000000"></line><line x1="888.9833155159268" x2="888.9833155159268" y1="0" y2="4" stroke-width="1" stroke="#000000"></line><line x1="907.53986014879" x2="907.53986014879" y1="0" y2="4" stroke-width="1" stroke="#000000"></line><line x1="926.0964047816531" x2="926.0964047816531" y1="0" y2="4" stroke-width="1" stroke="#000000"></line><line x1="944.6529494145162" x2="944.6529494145162" y1="0" y2="4" stroke-width="1" stroke="#000000"></line><line x1="963.2094940473793" x2="963.2094940473793" y1="0" y2="4" stroke-width="1" stroke="#000000"></line><line x1="981.7660386802424" x2="981.7660386802424" y1="0" y2="6" stroke-width="1" stroke="#000000"></line><line x1="1000.3225833131055" x2="1000.3225833131055" y1="0" y2="4" stroke-width="1" stroke="#000000"></line><text x="50.93880703708656" y="18" font-size="11" fill="#000000">2,780,000</text><text x="236.50425336571774" y="18" font-size="11" fill="#000000">2,784,000</text><text x="422.0696996943489" y="18" font-size="11" fill="#000000">2,788,000</text><text x="607.63514602298" y="18" font-size="11" fill="#000000">2,792,000</text><text x="793.2005923516112" y="18" font-size="11" fill="#000000">2,796,000</text><text x="978.7660386802424" y="18" font-size="11" fill="#000000">2,800,000</text></g></g></g></g></g></g></g><g transform="translate(0 100)"><g transform="translate(0 0)"><g transform="translate(0 18)"><defs><clipPath id="clip-3IDlZDj3Q0-ApaCKgeeNu-0.09278231085034028"><rect x="0" y="0" width="965.5937499999966" height="444"></rect></clipPath></defs><g transform="translate(0 0)"><g clip-path="url(#clip-3IDlZDj3Q0-ApaCKgeeNu-0.09278231085034028)"><g><g><line x1="265.8" x2="272.8" y1="5" y2="5" stroke="#000000"></line><polygon points="269.3,2.5,269.3,7.5,272.8,5" stroke="#000000" fill="#000000"></polygon><rect data-testid="box--1002833003-OX457036.1-425" x="264.8" y="0" width="2" height="10" fill="goldenrod" stroke=""></rect></g><g><line x1="285.8152867967175" x2="292.8152867967175" y1="20" y2="20" stroke="#000000"></line><polygon points="289.3152867967175,17.5,289.3152867967175,22.5,292.8152867967175,20" stroke="#000000" fill="#000000"></polygon><rect data-testid="box--1002833003-OX457036.1-423" x="264.8" y="15" width="21.01528679671748" height="10" fill="goldenrod" stroke=""></rect></g><g><line x1="285.8152867967175" x2="292.8152867967175" y1="35" y2="35" stroke="#000000"></line><polygon points="289.3152867967175,32.5,289.3152867967175,37.5,292.8152867967175,35" stroke="#000000" fill="#000000"></polygon><rect data-testid="box--1002833003-OX457036.1-424" x="264.8" y="30" width="21.01528679671748" height="10" fill="goldenrod" stroke=""></rect></g><g><line x1="285.8152867967175" x2="292.8152867967175" y1="50" y2="50" stroke="#000000"></line><polygon points="289.3152867967175,47.5,289.3152867967175,52.5,292.8152867967175,50" stroke="#000000" fill="#000000"></polygon><rect data-testid="box--1002833003-OX457036.1-426" x="264.8" y="45" width="21.01528679671748" height="10" fill="#80FF80" stroke=""></rect></g><g><line x1="286.7" x2="293.7" y1="5" y2="5" stroke="#000000"></line><polygon points="290.2,2.5,290.2,7.5,293.7,5" stroke="#000000" fill="#000000"></polygon><rect data-testid="box--1002833003-OX457036.1-427" x="285.7" y="0" width="2" height="10" fill="goldenrod" stroke=""></rect></g><g><line x1="377.4" x2="384.4" y1="5" y2="5" stroke="#000000"></line><polygon points="380.9,2.5,380.9,7.5,384.4,5" stroke="#000000" fill="#000000"></polygon><rect data-testid="box--1002833003-OX457036.1-430" x="376.4" y="0" width="2" height="10" fill="goldenrod" stroke=""></rect></g><g><line x1="389.76071213566144" x2="396.76071213566144" y1="20" y2="20" stroke="#000000"></line><polygon points="393.26071213566144,17.5,393.26071213566144,22.5,396.76071213566144,20" stroke="#000000" fill="#000000"></polygon><rect data-testid="box--1002833003-OX457036.1-428" x="376.4" y="15" width="13.360712135661444" height="10" fill="goldenrod" stroke=""></rect></g><g><line x1="389.76071213566144" x2="396.76071213566144" y1="35" y2="35" stroke="#000000"></line><polygon points="393.26071213566144,32.5,393.26071213566144,37.5,396.76071213566144,35" stroke="#000000" fill="#000000"></polygon><rect data-testid="box--1002833003-OX457036.1-429" x="376.4" y="30" width="13.360712135661444" height="10" fill="goldenrod" stroke=""></rect></g><g><line x1="389.76071213566144" x2="396.76071213566144" y1="50" y2="50" stroke="#000000"></line><polygon points="393.26071213566144,47.5,393.26071213566144,52.5,396.76071213566144,50" stroke="#000000" fill="#000000"></polygon><rect data-testid="box--1002833003-OX457036.1-431" x="376.4" y="45" width="13.360712135661444" height="10" fill="#80FF80" stroke=""></rect></g><g><line x1="390.6" x2="397.6" y1="5" y2="5" stroke="#000000"></line><polygon points="394.1,2.5,394.1,7.5,397.6,5" stroke="#000000" fill="#000000"></polygon><rect data-testid="box--1002833003-OX457036.1-432" x="389.6" y="0" width="2" height="10" fill="goldenrod" stroke=""></rect></g><g><line x1="729.2" x2="722.2" y1="5" y2="5" stroke="#000000"></line><polygon points="725.7,2.5,725.7,7.5,722.2,5" stroke="#000000" fill="#000000"></polygon><rect data-testid="box--1002833003-OX457036.1-435" x="729.2" y="0" width="2" height="10" fill="goldenrod" stroke=""></rect></g><g><line x1="729.2" x2="722.2" y1="20" y2="20" stroke="#000000"></line><polygon points="725.7,17.5,725.7,22.5,722.2,20" stroke="#000000" fill="#000000"></polygon><rect data-testid="box--1002833003-OX457036.1-433" x="729.2" y="15" width="29.365731881505884" height="10" fill="goldenrod" stroke=""></rect></g><g><line x1="729.2" x2="722.2" y1="35" y2="35" stroke="#000000"></line><polygon points="725.7,32.5,725.7,37.5,722.2,35" stroke="#000000" fill="#000000"></polygon><rect data-testid="box--1002833003-OX457036.1-434" x="729.2" y="30" width="29.365731881505884" height="10" fill="goldenrod" stroke=""></rect></g><g><line x1="729.2" x2="722.2" y1="50" y2="50" stroke="#000000"></line><polygon points="725.7,47.5,725.7,52.5,722.2,50" stroke="#000000" fill="#000000"></polygon><rect data-testid="box--1002833003-OX457036.1-436" x="729.2" y="45" width="29.365731881505884" height="10" fill="#80FF80" stroke=""></rect></g><g><line x1="758.5" x2="751.5" y1="5" y2="5" stroke="#000000"></line><polygon points="755,2.5,755,7.5,751.5,5" stroke="#000000" fill="#000000"></polygon><rect data-testid="box--1002833003-OX457036.1-437" x="758.5" y="0" width="2" height="10" fill="goldenrod" stroke=""></rect></g><g><line x1="939.5" x2="932.5" y1="5" y2="5" stroke="#000000"></line><polygon points="936,2.5,936,7.5,932.5,5" stroke="#000000" fill="#000000"></polygon><rect data-testid="box--1002833003-OX457036.1-440" x="939.5" y="0" width="2" height="10" fill="goldenrod" stroke=""></rect></g><g><line x1="939.5" x2="932.5" y1="20" y2="20" stroke="#000000"></line><polygon points="936,17.5,936,22.5,932.5,20" stroke="#000000" fill="#000000"></polygon><rect data-testid="box--1002833003-OX457036.1-442" x="939.5" y="15" width="10.345273632821188" height="10" fill="#80FF80" stroke=""></rect></g><g><line x1="939.5" x2="932.5" y1="35" y2="35" stroke="#000000"></line><polygon points="936,32.5,936,37.5,932.5,35" stroke="#000000" fill="#000000"></polygon><rect data-testid="box--1002833003-OX457036.1-438" x="939.5" y="30" width="109.76196150338534" height="10" fill="goldenrod" stroke=""></rect></g><g><line x1="939.5" x2="932.5" y1="50" y2="50" stroke="#000000"></line><polygon points="936,47.5,936,52.5,932.5,50" stroke="#000000" fill="#000000"></polygon><rect data-testid="box--1002833003-OX457036.1-439" x="939.5" y="45" width="109.76196150338534" height="10" fill="goldenrod" stroke=""></rect></g><g><line x1="949.9" x2="942.9" y1="5" y2="5" stroke="#000000"></line><polygon points="946.4,2.5,946.4,7.5,942.9,5" stroke="#000000" fill="#000000"></polygon><rect data-testid="box--1002833003-OX457036.1-441" x="949.9" y="0" width="96.40124936772389" height="10" fill="goldenrod" stroke=""></rect></g><g><line x1="1046.3" x2="1039.3" y1="20" y2="20" stroke="#000000"></line><polygon points="1042.8,17.5,1042.8,22.5,1039.3,20" stroke="#000000" fill="#000000"></polygon><rect data-testid="box--1002833003-OX457036.1-443" x="1046.3" y="15" width="3.0154385028402566" height="10" fill="#FF8080" stroke=""></rect></g><g><line x1="1049.1" x2="1042.1" y1="65" y2="65" stroke="#000000"></line><polygon points="1045.6,62.5,1045.6,67.5,1042.1,65" stroke="#000000" fill="#000000"></polygon><rect data-testid="box--1002833003-OX457036.1-444" x="1049.1" y="60" width="2" height="10" fill="goldenrod" stroke=""></rect></g><g><line x1="1160.6" x2="1167.6" y1="5" y2="5" stroke="#000000"></line><polygon points="1164.1,2.5,1164.1,7.5,1167.6,5" stroke="#000000" fill="#000000"></polygon><rect data-testid="box--1002833003-OX457036.1-447" x="1159.6" y="0" width="2" height="10" fill="goldenrod" stroke=""></rect></g><g><line x1="1160.6" x2="1167.6" y1="20" y2="20" stroke="#000000"></line><polygon points="1164.1,17.5,1164.1,22.5,1167.6,20" stroke="#000000" fill="#000000"></polygon><rect data-testid="box--1002833003-OX457036.1-456" x="1159.6" y="15" width="2" height="10" fill="#80FF80" stroke=""></rect></g><g><line x1="1771.6412333534076" x2="1778.6412333534076" y1="35" y2="35" stroke="#000000"></line><polygon points="1775.1412333534076,32.5,1775.1412333534076,37.5,1778.6412333534076,35" stroke="#000000" fill="#000000"></polygon><rect data-testid="box--1002833003-OX457036.1-445" x="1159.6" y="30" width="612.0412333534077" height="10" fill="goldenrod" stroke=""></rect></g><g><line x1="1771.6412333534076" x2="1778.6412333534076" y1="50" y2="50" stroke="#000000"></line><polygon points="1775.1412333534076,47.5,1775.1412333534076,52.5,1778.6412333534076,50" stroke="#000000" fill="#000000"></polygon><rect data-testid="box--1002833003-OX457036.1-446" x="1159.6" y="45" width="612.0412333534077" height="10" fill="goldenrod" stroke=""></rect></g><g><line x1="1163.3865693954974" x2="1170.3865693954974" y1="65" y2="65" stroke="#000000"></line><polygon points="1166.8865693954974,62.5,1166.8865693954974,67.5,1170.3865693954974,65" stroke="#000000" fill="#000000"></polygon><rect data-testid="box--1002833003-OX457036.1-448" x="1160" y="60" width="3.386569395497519" height="10" fill="goldenrod" stroke=""></rect></g><g><line x1="1171.9824018926993" x2="1178.9824018926993" y1="80" y2="80" stroke="#000000"></line><polygon points="1175.4824018926993,77.5,1175.4824018926993,82.5,1178.9824018926993,80" stroke="#000000" fill="#000000"></polygon><rect data-testid="box--1002833003-OX457036.1-457" x="1163.4" y="75" width="8.582401892699192" height="10" fill="#8080FF" stroke=""></rect></g><g><line x1="1215.0439662714068" x2="1222.0439662714068" y1="5" y2="5" stroke="#000000"></line><polygon points="1218.5439662714068,2.5,1218.5439662714068,7.5,1222.0439662714068,5" stroke="#000000" fill="#000000"></polygon><rect data-testid="box--1002833003-OX457036.1-449" x="1171.9" y="0" width="43.14396627140675" height="10" fill="goldenrod" stroke=""></rect></g><g><line x1="1220.110267050873" x2="1227.110267050873" y1="20" y2="20" stroke="#000000"></line><polygon points="1223.610267050873,17.5,1223.610267050873,22.5,1227.110267050873,20" stroke="#000000" fill="#000000"></polygon><rect data-testid="box--1002833003-OX457036.1-458" x="1215.1" y="15" width="5.010267050873042" height="10" fill="#8080FF" stroke=""></rect></g><g><line x1="1260.7852241075523" x2="1267.7852241075523" y1="5" y2="5" stroke="#000000"></line><polygon points="1264.2852241075523,2.5,1264.2852241075523,7.5,1267.7852241075523,5" stroke="#000000" fill="#000000"></polygon><rect data-testid="box--1002833003-OX457036.1-450" x="1220.1" y="0" width="40.685224107552386" height="10" fill="goldenrod" stroke=""></rect></g><g><line x1="1269.0576623616241" x2="1276.0576623616241" y1="20" y2="20" stroke="#000000"></line><polygon points="1272.5576623616241,17.5,1272.5576623616241,22.5,1276.0576623616241,20" stroke="#000000" fill="#000000"></polygon><rect data-testid="box--1002833003-OX457036.1-459" x="1260.8" y="15" width="8.257662361624087" height="10" fill="#FF8080" stroke=""></rect></g><g><line x1="1303.4223902939611" x2="1310.4223902939611" y1="5" y2="5" stroke="#000000"></line><polygon points="1306.9223902939611,2.5,1306.9223902939611,7.5,1310.4223902939611,5" stroke="#000000" fill="#000000"></polygon><rect data-testid="box--1002833003-OX457036.1-451" x="1269" y="0" width="34.42239029396108" height="10" fill="goldenrod" stroke=""></rect></g><g><line x1="1305.0309149322113" x2="1312.0309149322113" y1="20" y2="20" stroke="#000000"></line><polygon points="1308.5309149322113,17.5,1308.5309149322113,22.5,1312.0309149322113,20" stroke="#000000" fill="#000000"></polygon><rect data-testid="box--1002833003-OX457036.1-460" x="1303.5" y="15" width="2" height="10" fill="#80FF80" stroke=""></rect></g><g><line x1="1617.7241684253256" x2="1624.7241684253256" y1="65" y2="65" stroke="#000000"></line><polygon points="1621.2241684253256,62.5,1621.2241684253256,67.5,1624.7241684253256,65" stroke="#000000" fill="#000000"></polygon><rect data-testid="box--1002833003-OX457036.1-452" x="1305" y="60" width="312.7241684253257" height="10" fill="goldenrod" stroke=""></rect></g></g></g></g></g><g><text x="0" y="5" fill="#000000" font-size="13" dominant-baseline="hanging">augustus.worm.lumter.2-3mb.gff</text></g></g><g transform="translate(0 462)"><g transform="translate(0 18)"><defs><clipPath id="clip-htGuAc_enpIH9ebo0fbGF-0.4052267707486972"><rect x="0" y="0" width="965.5937499999966" height="100"></rect></clipPath></defs><g transform="translate(0 0)"><g clip-path="url(#clip-htGuAc_enpIH9ebo0fbGF-0.4052267707486972)"><g><g><line data-testid="425862032-OX457036.1-27-0" x1="264.8" y1="5" y2="5" x2="285.8152867967175" stroke="#000000"></line><rect data-testid="box-425862032-OX457036.1-27-0-1" x="264.8" y="0" width="21.01528679671748" height="10" fill="#80FF80" stroke=""></rect><line x1="285.8152867967175" x2="292.8152867967175" y1="5" y2="5" stroke="#000000"></line><polygon points="289.3152867967175,2.5,289.3152867967175,7.5,292.8152867967175,5" stroke="#000000" fill="#000000"></polygon><text x="264.8" y="22" fill="#000000" font-size="12">g28</text></g><g><line data-testid="425862032-OX457036.1-28-0" x1="729.2" y1="5" y2="5" x2="758.5657318815059" stroke="#000000"></line><rect data-testid="box-425862032-OX457036.1-28-0-1" x="729.2" y="0" width="29.365731881505884" height="10" fill="#80FF80" stroke=""></rect><line x1="729.2" x2="722.2" y1="5" y2="5" stroke="#000000"></line><polygon points="725.7,2.5,725.7,7.5,722.2,5" stroke="#000000" fill="#000000"></polygon><text x="729.2" y="22" fill="#000000" font-size="12">g29</text></g></g></g></g></g><g><text x="0" y="5" fill="#000000" font-size="13" dominant-baseline="hanging">augustus.prothints.gff3</text></g></g></g></g></svg>