<svg width="965.59375" height="780" xmlns="http://www.w3.org/2000/svg" xmlns:xlink="http://www.w3.org/1999/xlink" viewBox="0,0,1065.59375,780"><rect width="1065.59375" height="780" fill="#ffffff"></rect><g transform="translate(50 0)"><g transform="translate(0)"><g id="header"><text x="0" y="0" dominant-baseline="hanging" font-size="13" fill="#000000">GCA_945859605.1 </text><g transform="translate(0 13)"><line x1="0" x2="965.5937499999966" y1="10" y2="10" stroke="#000000"></line><line x1="0" x2="0" y1="5" y2="15" stroke="#000000"></line><line x1="965.5937499999966" x2="965.5937499999966" y1="5" y2="15" stroke="#000000"></line><text x="482.7968749999983" y="13" text-anchor="middle" dominant-baseline="hanging" font-size="13" fill="#000000">20.8Kbp</text></g><g transform="translate(0 50)"><g><defs><clipPath id="clip-{GCA_945859605.1 }OX457036.1:2819405.206715597..2840218.2918613832-0"><rect x="0" y="0" width="965.5937499999966" height="100"></rect></clipPath></defs><g transform="translate(1.4551915228366852e-11 0)"><g clip-path="url(#clip-{GCA_945859605.1 }OX457036.1:2819405.206715597..2840218.2918613832-0)"><text x="4" y="13" font-size="13" fill="#000000">OX457036.1</text><g transform="translate(0 20)"><line x1="-28.076363575203132" x2="-28.076363575203132" y1="0" y2="4" stroke-width="1" stroke="#000000"></line><line x1="-9.519818942340013" x2="-9.519818942340013" y1="0" y2="4" stroke-width="1" stroke="#000000"></line><line x1="9.036725690523104" x2="9.036725690523104" y1="0" y2="4" stroke-width="1" stroke="#000000"></line><line x1="27.59327032338622" x2="27.59327032338622" y1="0" y2="6" stroke-width="1" stroke="#000000"></line><line x1="46.14981495624934" x2="46.14981495624934" y1="0" y2="4" stroke-width="1" stroke="#000000"></line><line x1="64.70635958911245" x2="64.70635958911245" y1="0" y2="4" stroke-width="1" stroke="#000000"></line><line x1="83.26290422197557" x2="83.26290422197557" y1="0" y2="4" stroke-width="1" stroke="#000000"></line><line x1="101.8194488548387" x2="101.8194488548387" y1="0" y2="4" stroke-width="1" stroke="#000000"></line><line x1="120.3759934877018" x2="120.3759934877018" y1="0" y2="4" stroke-width="1" stroke="#000000"></line><line x1="138.9325381205649" x2="138.9325381205649" y1="0" y2="4" stroke-width="1" stroke="#000000"></line><line x1="157.48908275342805" x2="157.48908275342805" y1="0" y2="4" stroke-width="1" stroke="#000000"></line><line x1="176.04562738629116" x2="176.04562738629116" y1="0" y2="4" stroke-width="1" stroke="#000000"></line><line x1="194.60217201915427" x2="194.60217201915427" y1="0" y2="4" stroke-width="1" stroke="#000000"></line><line x1="213.1587166520174" x2="213.1587166520174" y1="0" y2="6" stroke-width="1" stroke="#000000"></line><line x1="231.7152612848805" x2="231.7152612848805" y1="0" y2="4" stroke-width="1" stroke="#000000"></line><line x1="250.27180591774362" x2="250.27180591774362" y1="0" y2="4" stroke-width="1" stroke="#000000"></line><line x1="268.82835055060673" x2="268.82835055060673" y1="0" y2="4" stroke-width="1" stroke="#000000"></line><line x1="287.38489518346984" x2="287.38489518346984" y1="0" y2="4" stroke-width="1" stroke="#000000"></line><line x1="305.941439816333" x2="305.941439816333" y1="0" y2="4" stroke-width="1" stroke="#000000"></line><line x1="324.4979844491961" x2="324.4979844491961" y1="0" y2="4" stroke-width="1" stroke="#000000"></line><line x1="343.0545290820592" x2="343.0545290820592" y1="0" y2="4" stroke-width="1" stroke="#000000"></line><line x1="361.6110737149223" x2="361.6110737149223" y1="0" y2="4" stroke-width="1" stroke="#000000"></line><line x1="380.16761834778544" x2="380.16761834778544" y1="0" y2="4" stroke-width="1" stroke="#000000"></line><line x1="398.72416298064854" x2="398.72416298064854" y1="0" y2="6" stroke-width="1" stroke="#000000"></line><line x1="417.2807076135117" x2="417.2807076135117" y1="0" y2="4" stroke-width="1" stroke="#000000"></line><line x1="435.8372522463748" x2="435.8372522463748" y1="0" y2="4" stroke-width="1" stroke="#000000"></line><line x1="454.3937968792379" x2="454.3937968792379" y1="0" y2="4" stroke-width="1" stroke="#000000"></line><line x1="472.95034151210103" x2="472.95034151210103" y1="0" y2="4" stroke-width="1" stroke="#000000"></line><line x1="491.50688614496414" x2="491.50688614496414" y1="0" y2="4" stroke-width="1" stroke="#000000"></line><line x1="510.06343077782725" x2="510.06343077782725" y1="0" y2="4" stroke-width="1" stroke="#000000"></line><line x1="528.6199754106904" x2="528.6199754106904" y1="0" y2="4" stroke-width="1" stroke="#000000"></line><line x1="547.1765200435535" x2="547.1765200435535" y1="0" y2="4" stroke-width="1" stroke="#000000"></line><line x1="565.7330646764166" x2="565.7330646764166" y1="0" y2="4" stroke-width="1" stroke="#000000"></line><line x1="584.2896093092797" x2="584.2896093092797" y1="0" y2="6" stroke-width="1" stroke="#000000"></line><line x1="602.8461539421429" x2="602.8461539421429" y1="0" y2="4" stroke-width="1" stroke="#000000"></line><line x1="621.402698575006" x2="621.402698575006" y1="0" y2="4" stroke-width="1" stroke="#000000"></line><line x1="639.9592432078691" x2="639.9592432078691" y1="0" y2="4" stroke-width="1" stroke="#000000"></line><line x1="658.5157878407322" x2="658.5157878407322" y1="0" y2="4" stroke-width="1" stroke="#000000"></line><line x1="677.0723324735953" x2="677.0723324735953" y1="0" y2="4" stroke-width="1" stroke="#000000"></line><line x1="695.6288771064584" x2="695.6288771064584" y1="0" y2="4" stroke-width="1" stroke="#000000"></line><line x1="714.1854217393216" x2="714.1854217393216" y1="0" y2="4" stroke-width="1" stroke="#000000"></line><line x1="732.7419663721847" x2="732.7419663721847" y1="0" y2="4" stroke-width="1" stroke="#000000"></line><line x1="751.2985110050478" x2="751.2985110050478" y1="0" y2="4" stroke-width="1" stroke="#000000"></line><line x1="769.8550556379109" x2="769.8550556379109" y1="0" y2="6" stroke-width="1" stroke="#000000"></line><line x1="788.411600270774" x2="788.411600270774" y1="0" y2="4" stroke-width="1" stroke="#000000"></line><line x1="806.9681449036372" x2="806.9681449036372" y1="0" y2="4" stroke-width="1" stroke="#000000"></line><line x1="825.5246895365003" x2="825.5246895365003" y1="0" y2="4" stroke-width="1" stroke="#000000"></line><line x1="844.0812341693634" x2="844.0812341693634" y1="0" y2="4" stroke-width="1" stroke="#000000"></line><line x1="862.6377788022265" x2="862.6377788022265" y1="0" y2="4" stroke-width="1" stroke="#000000"></line><line x1="881.1943234350896" x2="881.1943234350896" y1="0" y2="4" stroke-width="1" stroke="#000000"></line><line x1="899.7508680679528" x2="899.7508680679528" y1="0" y2="4" stroke-width="1" stroke="#000000"></line><line x1="918.3074127008158" x2="918.3074127008158" y1="0" y2="4" stroke-width="1" stroke="#000000"></line><line x1="936.863957333679" x2="936.863957333679" y1="0" y2="4" stroke-width="1" stroke="#000000"></line><line x1="955.4205019665421" x2="955.4205019665421" y1="0" y2="6" stroke-width="1" stroke="#000000"></line><line x1="973.9770465994052" x2="973.9770465994052" y1="0" y2="4" stroke-width="1" stroke="#000000"></line><line x1="992.5335912322683" x2="992.5335912322683" y1="0" y2="4" stroke-width="1" stroke="#000000"></line><text x="24.59327032338622" y="18" font-size="11" fill="#000000">2,820,000</text><text x="210.1587166520174" y="18" font-size="11" fill="#000000">2,824,000</text><text x="395.72416298064854" y="18" font-size="11" fill="#000000">2,828,000</text><text x="581.2896093092797" y="18" font-size="11" fill="#000000">2,832,000</text><text x="766.8550556379109" y="18" font-size="11" fill="#000000">2,836,000</text><text x="952.4205019665421" y="18" font-size="11" fill="#000000">2,840,000</text></g></g></g></g></g></g></g><g transform="translate(0 100)"><g transform="translate(0 0)"><g transform="translate(0 18)"><defs><clipPath id="clip-3IDlZDj3Q0-ApaCKgeeNu-0.15393832969218924"><rect x="0" y="0" width="965.5937499999966" height="444"></rect></clipPath></defs><g transform="translate(1.4551915228366852e-11 0)"><g clip-path="url(#clip-3IDlZDj3Q0-ApaCKgeeNu-0.15393832969218924)"><g><g></g><g></g><g></g><g></g><g></g><g></g><g></g><g></g><g></g><g></g><g></g><g><line x1="305.9" x2="298.9" y1="5" y2="5" stroke="#000000"></line><polygon points="302.4,2.5,302.4,7.5,298.9,5" stroke="#000000" fill="#000000"></polygon><rect data-testid="box--1002833003-OX457036.1-468" x="305.9" y="0" width="2" height="10" fill="goldenrod" stroke=""></rect></g><g><line x1="305.9" x2="298.9" y1="20" y2="20" stroke="#000000"></line><polygon points="302.4,17.5,302.4,22.5,298.9,20" stroke="#000000" fill="#000000"></polygon><rect data-testid="box--1002833003-OX457036.1-466" x="305.9" y="15" width="242.85877788259606" height="10" fill="goldenrod" stroke=""></rect></g><g><line x1="305.9" x2="298.9" y1="35" y2="35" stroke="#000000"></line><polygon points="302.4,32.5,302.4,37.5,298.9,35" stroke="#000000" fill="#000000"></polygon><rect data-testid="box--1002833003-OX457036.1-467" x="305.9" y="30" width="242.85877788259606" height="10" fill="goldenrod" stroke=""></rect></g><g><line x1="305.9" x2="298.9" y1="50" y2="50" stroke="#000000"></line><polygon points="302.4,47.5,302.4,52.5,298.9,50" stroke="#000000" fill="#000000"></polygon><rect data-testid="box--1002833003-OX457036.1-469" x="305.9" y="45" width="242.85877788259606" height="10" fill="#80FF80" stroke=""></rect></g><g><line x1="548.6" x2="541.6" y1="5" y2="5" stroke="#000000"></line><polygon points="545.1,2.5,545.1,7.5,541.6,5" stroke="#000000" fill="#000000"></polygon><rect data-testid="box--1002833003-OX457036.1-470" x="548.6" y="0" width="2" height="10" fill="goldenrod" stroke=""></rect></g><g><line x1="1202.2" x2="1209.2" y1="5" y2="5" stroke="#000000"></line><polygon points="1205.7,2.5,1205.7,7.5,1209.2,5" stroke="#000000" fill="#000000"></polygon><rect data-testid="box--1002833003-OX457036.1-473" x="1201.2" y="0" width="2" height="10" fill="goldenrod" stroke=""></rect></g><g><line x1="1278.3488343111285" x2="1285.3488343111285" y1="20" y2="20" stroke="#000000"></line><polygon points="1281.8488343111285,17.5,1281.8488343111285,22.5,1285.3488343111285,20" stroke="#000000" fill="#000000"></polygon><rect data-testid="box--1002833003-OX457036.1-476" x="1201.2" y="15" width="77.14883431112841" height="10" fill="#80FF80" stroke=""></rect></g><g><line x1="1582.490600843755" x2="1589.490600843755" y1="35" y2="35" stroke="#000000"></line><polygon points="1585.990600843755,32.5,1585.990600843755,37.5,1589.490600843755,35" stroke="#000000" fill="#000000"></polygon><rect data-testid="box--1002833003-OX457036.1-471" x="1201.2" y="30" width="381.29060084375493" height="10" fill="goldenrod" stroke=""></rect></g><g><line x1="1582.490600843755" x2="1589.490600843755" y1="50" y2="50" stroke="#000000"></line><polygon points="1585.990600843755,47.5,1585.990600843755,52.5,1589.490600843755,50" stroke="#000000" fill="#000000"></polygon><rect data-testid="box--1002833003-OX457036.1-472" x="1201.2" y="45" width="381.29060084375493" height="10" fill="goldenrod" stroke=""></rect></g><g><line x1="1373.7342480513344" x2="1380.7342480513344" y1="5" y2="5" stroke="#000000"></line><polygon points="1377.2342480513344,2.5,1377.2342480513344,7.5,1380.7342480513344,5" stroke="#000000" fill="#000000"></polygon><rect data-testid="box--1002833003-OX457036.1-474" x="1278.4" y="0" width="95.33424805133427" height="10" fill="goldenrod" stroke=""></rect></g><g><line x1="1390.447281531159" x2="1397.447281531159" y1="20" y2="20" stroke="#000000"></line><polygon points="1393.947281531159,17.5,1393.947281531159,22.5,1397.447281531159,20" stroke="#000000" fill="#000000"></polygon><rect data-testid="box--1002833003-OX457036.1-477" x="1373.7" y="15" width="16.747281531158965" height="10" fill="#80FF80" stroke=""></rect></g><g><line x1="1572.5324855715517" x2="1579.5324855715517" y1="5" y2="5" stroke="#000000"></line><polygon points="1576.0324855715517,2.5,1576.0324855715517,7.5,1579.5324855715517,5" stroke="#000000" fill="#000000"></polygon><rect data-testid="box--1002833003-OX457036.1-475" x="1390.4" y="0" width="182.13248557155148" height="10" fill="goldenrod" stroke=""></rect></g></g></g></g></g><g><text x="0" y="5" fill="#000000" font-size="13" dominant-baseline="hanging">augustus.worm.lumter.2-3mb.gff</text></g></g><g transform="translate(0 462)"><g transform="translate(0 18)"><defs><clipPath id="clip-htGuAc_enpIH9ebo0fbGF-0.44609916132446314"><rect x="0" y="0" width="965.5937499999966" height="100"></rect></clipPath></defs><g transform="translate(1.4551915228366852e-11 0)"><g clip-path="url(#clip-htGuAc_enpIH9ebo0fbGF-0.44609916132446314)"><g><g><line data-testid="425862032-OX457036.1-29-0" x1="305.9" y1="5" y2="5" x2="548.7587778825961" stroke="#000000"></line><rect data-testid="box-425862032-OX457036.1-29-0-1" x="305.9" y="0" width="242.85877788259606" height="10" fill="#80FF80" stroke=""></rect><line x1="305.9" x2="298.9" y1="5" y2="5" stroke="#000000"></line><polygon points="302.4,2.5,302.4,7.5,298.9,5" stroke="#000000" fill="#000000"></polygon><text x="305.9" y="22" fill="#000000" font-size="12">g30</text></g><g><line data-testid="425862032-OX457036.1-30-0" x1="1201.2" y1="5" y2="5" x2="1281.503446898715" stroke="#000000"></line><rect data-testid="box-425862032-OX457036.1-30-0-1" x="1201.2" y="0" width="80.30344689871514" height="10" fill="#80FF80" stroke=""></rect><line x1="1281.503446898715" x2="1288.503446898715" y1="5" y2="5" stroke="#000000"></line><polygon points="1285.003446898715,2.5,1285.003446898715,7.5,1288.503446898715,5" stroke="#000000" fill="#000000"></polygon><text x="1201.2" y="22" fill="#000000" font-size="12">g31</text></g></g></g></g></g><g><text x="0" y="5" fill="#000000" font-size="13" dominant-baseline="hanging">augustus.prothints.gff3</text></g></g></g></g></svg>