<svg width="965.59375" height="780" xmlns="http://www.w3.org/2000/svg" xmlns:xlink="http://www.w3.org/1999/xlink" viewBox="0,0,1065.59375,780"><rect width="1065.59375" height="780" fill="#ffffff"></rect><g transform="translate(50 0)"><g transform="translate(0)"><g id="header"><text x="0" y="0" dominant-baseline="hanging" font-size="13" fill="#000000">GCA_945859605.1 </text><g transform="translate(0 13)"><line x1="0" x2="965.5937499999966" y1="10" y2="10" stroke="#000000"></line><line x1="0" x2="0" y1="5" y2="15" stroke="#000000"></line><line x1="965.5937499999966" x2="965.5937499999966" y1="5" y2="15" stroke="#000000"></line><text x="482.7968749999983" y="13" text-anchor="middle" dominant-baseline="hanging" font-size="13" fill="#000000">20.8Kbp</text></g><g transform="translate(0 50)"><g><defs><clipPath id="clip-{GCA_945859605.1 }OX457036.1:2840184.937405173..2860998.0225509596-0"><rect x="0" y="0" width="965.5937499999966" height="100"></rect></clipPath></defs><g transform="translate(0 0)"><g clip-path="url(#clip-{GCA_945859605.1 }OX457036.1:2840184.937405173..2860998.0225509596-0)"><text x="4" y="13" font-size="13" fill="#000000">OX457036.1</text><g transform="translate(0 20)"><line x1="-27.13604266631911" x2="-27.13604266631911" y1="0" y2="4" stroke-width="1" stroke="#000000"></line><line x1="-8.579498033455993" x2="-8.579498033455993" y1="0" y2="6" stroke-width="1" stroke="#000000"></line><line x1="9.977046599407124" x2="9.977046599407124" y1="0" y2="4" stroke-width="1" stroke="#000000"></line><line x1="28.533591232270243" x2="28.533591232270243" y1="0" y2="4" stroke-width="1" stroke="#000000"></line><line x1="47.09013586513336" x2="47.09013586513336" y1="0" y2="4" stroke-width="1" stroke="#000000"></line><line x1="65.64668049799647" x2="65.64668049799647" y1="0" y2="4" stroke-width="1" stroke="#000000"></line><line x1="84.2032251308596" x2="84.2032251308596" y1="0" y2="4" stroke-width="1" stroke="#000000"></line><line x1="102.75976976372272" x2="102.75976976372272" y1="0" y2="4" stroke-width="1" stroke="#000000"></line><line x1="121.31631439658582" x2="121.31631439658582" y1="0" y2="4" stroke-width="1" stroke="#000000"></line><line x1="139.87285902944896" x2="139.87285902944896" y1="0" y2="4" stroke-width="1" stroke="#000000"></line><line x1="158.42940366231207" x2="158.42940366231207" y1="0" y2="4" stroke-width="1" stroke="#000000"></line><line x1="176.98594829517518" x2="176.98594829517518" y1="0" y2="6" stroke-width="1" stroke="#000000"></line><line x1="195.54249292803829" x2="195.54249292803829" y1="0" y2="4" stroke-width="1" stroke="#000000"></line><line x1="214.09903756090142" x2="214.09903756090142" y1="0" y2="4" stroke-width="1" stroke="#000000"></line><line x1="232.65558219376453" x2="232.65558219376453" y1="0" y2="4" stroke-width="1" stroke="#000000"></line><line x1="251.21212682662764" x2="251.21212682662764" y1="0" y2="4" stroke-width="1" stroke="#000000"></line><line x1="269.76867145949075" x2="269.76867145949075" y1="0" y2="4" stroke-width="1" stroke="#000000"></line><line x1="288.3252160923539" x2="288.3252160923539" y1="0" y2="4" stroke-width="1" stroke="#000000"></line><line x1="306.881760725217" x2="306.881760725217" y1="0" y2="4" stroke-width="1" stroke="#000000"></line><line x1="325.43830535808013" x2="325.43830535808013" y1="0" y2="4" stroke-width="1" stroke="#000000"></line><line x1="343.99484999094324" x2="343.99484999094324" y1="0" y2="4" stroke-width="1" stroke="#000000"></line><line x1="362.55139462380635" x2="362.55139462380635" y1="0" y2="6" stroke-width="1" stroke="#000000"></line><line x1="381.10793925666945" x2="381.10793925666945" y1="0" y2="4" stroke-width="1" stroke="#000000"></line><line x1="399.66448388953256" x2="399.66448388953256" y1="0" y2="4" stroke-width="1" stroke="#000000"></line><line x1="418.2210285223957" x2="418.2210285223957" y1="0" y2="4" stroke-width="1" stroke="#000000"></line><line x1="436.77757315525884" x2="436.77757315525884" y1="0" y2="4" stroke-width="1" stroke="#000000"></line><line x1="455.33411778812194" x2="455.33411778812194" y1="0" y2="4" stroke-width="1" stroke="#000000"></line><line x1="473.89066242098505" x2="473.89066242098505" y1="0" y2="4" stroke-width="1" stroke="#000000"></line><line x1="492.44720705384816" x2="492.44720705384816" y1="0" y2="4" stroke-width="1" stroke="#000000"></line><line x1="511.00375168671127" x2="511.00375168671127" y1="0" y2="4" stroke-width="1" stroke="#000000"></line><line x1="529.5602963195744" x2="529.5602963195744" y1="0" y2="4" stroke-width="1" stroke="#000000"></line><line x1="548.1168409524375" x2="548.1168409524375" y1="0" y2="6" stroke-width="1" stroke="#000000"></line><line x1="566.6733855853006" x2="566.6733855853006" y1="0" y2="4" stroke-width="1" stroke="#000000"></line><line x1="585.2299302181638" x2="585.2299302181638" y1="0" y2="4" stroke-width="1" stroke="#000000"></line><line x1="603.7864748510269" x2="603.7864748510269" y1="0" y2="4" stroke-width="1" stroke="#000000"></line><line x1="622.34301948389" x2="622.34301948389" y1="0" y2="4" stroke-width="1" stroke="#000000"></line><line x1="640.8995641167531" x2="640.8995641167531" y1="0" y2="4" stroke-width="1" stroke="#000000"></line><line x1="659.4561087496162" x2="659.4561087496162" y1="0" y2="4" stroke-width="1" stroke="#000000"></line><line x1="678.0126533824794" x2="678.0126533824794" y1="0" y2="4" stroke-width="1" stroke="#000000"></line><line x1="696.5691980153425" x2="696.5691980153425" y1="0" y2="4" stroke-width="1" stroke="#000000"></line><line x1="715.1257426482056" x2="715.1257426482056" y1="0" y2="4" stroke-width="1" stroke="#000000"></line><line x1="733.6822872810687" x2="733.6822872810687" y1="0" y2="6" stroke-width="1" stroke="#000000"></line><line x1="752.2388319139318" x2="752.2388319139318" y1="0" y2="4" stroke-width="1" stroke="#000000"></line><line x1="770.795376546795" x2="770.795376546795" y1="0" y2="4" stroke-width="1" stroke="#000000"></line><line x1="789.351921179658" x2="789.351921179658" y1="0" y2="4" stroke-width="1" stroke="#000000"></line><line x1="807.9084658125212" x2="807.9084658125212" y1="0" y2="4" stroke-width="1" stroke="#000000"></line><line x1="826.4650104453843" x2="826.4650104453843" y1="0" y2="4" stroke-width="1" stroke="#000000"></line><line x1="845.0215550782474" x2="845.0215550782474" y1="0" y2="4" stroke-width="1" stroke="#000000"></line><line x1="863.5780997111106" x2="863.5780997111106" y1="0" y2="4" stroke-width="1" stroke="#000000"></line><line x1="882.1346443439736" x2="882.1346443439736" y1="0" y2="4" stroke-width="1" stroke="#000000"></line><line x1="900.6911889768368" x2="900.6911889768368" y1="0" y2="4" stroke-width="1" stroke="#000000"></line><line x1="919.2477336096998" x2="919.2477336096998" y1="0" y2="6" stroke-width="1" stroke="#000000"></line><line x1="937.804278242563" x2="937.804278242563" y1="0" y2="4" stroke-width="1" stroke="#000000"></line><line x1="956.3608228754262" x2="956.3608228754262" y1="0" y2="4" stroke-width="1" stroke="#000000"></line><line x1="974.9173675082892" x2="974.9173675082892" y1="0" y2="4" stroke-width="1" stroke="#000000"></line><line x1="993.4739121411524" x2="993.4739121411524" y1="0" y2="4" stroke-width="1" stroke="#000000"></line><text x="-11.579498033455993" y="18" font-size="11" fill="#000000">2,840,000</text><text x="173.98594829517518" y="18" font-size="11" fill="#000000">2,844,000</text><text x="359.55139462380635" y="18" font-size="11" fill="#000000">2,848,000</text><text x="545.1168409524375" y="18" font-size="11" fill="#000000">2,852,000</text><text x="730.6822872810687" y="18" font-size="11" fill="#000000">2,856,000</text><text x="916.2477336096998" y="18" font-size="11" fill="#000000">2,860,000</text></g></g></g></g></g></g></g><g transform="translate(0 100)"><g transform="translate(0 0)"><g transform="translate(0 18)"><defs><clipPath id="clip-3IDlZDj3Q0-ApaCKgeeNu-0.9780101049237584"><rect x="0" y="0" width="965.5937499999966" height="444"></rect></clipPath></defs><g transform="translate(0 0)"><g clip-path="url(#clip-3IDlZDj3Q0-ApaCKgeeNu-0.9780101049237584)"><g><g></g><g></g><g></g><g></g><g><line x1="238.2" x2="245.2" y1="5" y2="5" stroke="#000000"></line><polygon points="241.7,2.5,241.7,7.5,245.2,5" stroke="#000000" fill="#000000"></polygon><rect data-testid="box--1002833003-OX457036.1-473" x="237.2" y="0" width="2" height="10" fill="goldenrod" stroke=""></rect></g><g><line x1="314.34883431112837" x2="321.34883431112837" y1="20" y2="20" stroke="#000000"></line><polygon points="317.84883431112837,17.5,317.84883431112837,22.5,321.34883431112837,20" stroke="#000000" fill="#000000"></polygon><rect data-testid="box--1002833003-OX457036.1-476" x="237.2" y="15" width="77.14883431112841" height="10" fill="#80FF80" stroke=""></rect></g><g><line x1="618.4906008437549" x2="625.4906008437549" y1="35" y2="35" stroke="#000000"></line><polygon points="621.9906008437549,32.5,621.9906008437549,37.5,625.4906008437549,35" stroke="#000000" fill="#000000"></polygon><rect data-testid="box--1002833003-OX457036.1-471" x="237.2" y="30" width="381.29060084375493" height="10" fill="goldenrod" stroke=""></rect></g><g><line x1="618.4906008437549" x2="625.4906008437549" y1="50" y2="50" stroke="#000000"></line><polygon points="621.9906008437549,47.5,621.9906008437549,52.5,625.4906008437549,50" stroke="#000000" fill="#000000"></polygon><rect data-testid="box--1002833003-OX457036.1-472" x="237.2" y="45" width="381.29060084375493" height="10" fill="goldenrod" stroke=""></rect></g><g><line x1="409.73424805133425" x2="416.73424805133425" y1="5" y2="5" stroke="#000000"></line><polygon points="413.23424805133425,2.5,413.23424805133425,7.5,416.73424805133425,5" stroke="#000000" fill="#000000"></polygon><rect data-testid="box--1002833003-OX457036.1-474" x="314.4" y="0" width="95.33424805133427" height="10" fill="goldenrod" stroke=""></rect></g><g><line x1="426.447281531159" x2="433.447281531159" y1="20" y2="20" stroke="#000000"></line><polygon points="429.947281531159,17.5,429.947281531159,22.5,433.447281531159,20" stroke="#000000" fill="#000000"></polygon><rect data-testid="box--1002833003-OX457036.1-477" x="409.7" y="15" width="16.747281531158965" height="10" fill="#80FF80" stroke=""></rect></g><g><line x1="608.6324855715515" x2="615.6324855715515" y1="5" y2="5" stroke="#000000"></line><polygon points="612.1324855715515,2.5,612.1324855715515,7.5,615.6324855715515,5" stroke="#000000" fill="#000000"></polygon><rect data-testid="box--1002833003-OX457036.1-475" x="426.5" y="0" width="182.13248557155148" height="10" fill="goldenrod" stroke=""></rect></g><g><line x1="618.5277513785818" x2="625.5277513785818" y1="20" y2="20" stroke="#000000"></line><polygon points="622.0277513785818,17.5,622.0277513785818,22.5,625.5277513785818,20" stroke="#000000" fill="#000000"></polygon><rect data-testid="box--1002833003-OX457036.1-478" x="608.6" y="15" width="9.927751378581767" height="10" fill="#FF8080" stroke=""></rect></g><g><line x1="619.4" x2="626.4" y1="5" y2="5" stroke="#000000"></line><polygon points="622.9,2.5,622.9,7.5,626.4,5" stroke="#000000" fill="#000000"></polygon><rect data-testid="box--1002833003-OX457036.1-479" x="618.4" y="0" width="2" height="10" fill="goldenrod" stroke=""></rect></g><g><line x1="943.9" x2="950.9" y1="5" y2="5" stroke="#000000"></line><polygon points="947.4,2.5,947.4,7.5,950.9,5" stroke="#000000" fill="#000000"></polygon><rect data-testid="box--1002833003-OX457036.1-482" x="942.9" y="0" width="2" height="10" fill="goldenrod" stroke=""></rect></g><g><line x1="962.1060236950133" x2="969.1060236950133" y1="20" y2="20" stroke="#000000"></line><polygon points="965.6060236950133,17.5,965.6060236950133,22.5,969.1060236950133,20" stroke="#000000" fill="#000000"></polygon><rect data-testid="box--1002833003-OX457036.1-480" x="942.9" y="15" width="19.206023695013325" height="10" fill="goldenrod" stroke=""></rect></g><g><line x1="962.1060236950133" x2="969.1060236950133" y1="35" y2="35" stroke="#000000"></line><polygon points="965.6060236950133,32.5,965.6060236950133,37.5,969.1060236950133,35" stroke="#000000" fill="#000000"></polygon><rect data-testid="box--1002833003-OX457036.1-481" x="942.9" y="30" width="19.206023695013325" height="10" fill="goldenrod" stroke=""></rect></g><g><line x1="962.1060236950133" x2="969.1060236950133" y1="50" y2="50" stroke="#000000"></line><polygon points="965.6060236950133,47.5,965.6060236950133,52.5,969.1060236950133,50" stroke="#000000" fill="#000000"></polygon><rect data-testid="box--1002833003-OX457036.1-483" x="942.9" y="45" width="19.206023695013325" height="10" fill="#80FF80" stroke=""></rect></g><g><line x1="962.9" x2="969.9" y1="5" y2="5" stroke="#000000"></line><polygon points="966.4,2.5,966.4,7.5,969.9,5" stroke="#000000" fill="#000000"></polygon><rect data-testid="box--1002833003-OX457036.1-484" x="961.9" y="0" width="2" height="10" fill="goldenrod" stroke=""></rect></g></g></g></g></g><g><text x="0" y="5" fill="#000000" font-size="13" dominant-baseline="hanging">augustus.worm.lumter.2-3mb.gff</text></g></g><g transform="translate(0 462)"><g transform="translate(0 18)"><defs><clipPath id="clip-htGuAc_enpIH9ebo0fbGF-0.21335806314038952"><rect x="0" y="0" width="965.5937499999966" height="100"></rect></clipPath></defs><g transform="translate(0 0)"><g clip-path="url(#clip-htGuAc_enpIH9ebo0fbGF-0.21335806314038952)"><g><g><line data-testid="425862032-OX457036.1-29-0" x1="-658.1" y1="5" y2="5" x2="-415.24122211740394" stroke="#000000"></line><line x1="-658.1" x2="-665.1" y1="5" y2="5" stroke="#000000"></line><polygon points="-661.6,2.5,-661.6,7.5,-665.1,5" stroke="#000000" fill="#000000"></polygon><text x="-658.1" y="22" fill="#000000" font-size="12">g30</text></g><g><line data-testid="425862032-OX457036.1-30-0" x1="237.2" y1="5" y2="5" x2="317.50344689871514" stroke="#000000"></line><rect data-testid="box-425862032-OX457036.1-30-0-1" x="237.2" y="0" width="80.30344689871514" height="10" fill="#80FF80" stroke=""></rect><line x1="317.50344689871514" x2="324.50344689871514" y1="5" y2="5" stroke="#000000"></line><polygon points="321.00344689871514,2.5,321.00344689871514,7.5,324.50344689871514,5" stroke="#000000" fill="#000000"></polygon><text x="237.2" y="22" fill="#000000" font-size="12">g31</text></g></g></g></g></g><g><text x="0" y="5" fill="#000000" font-size="13" dominant-baseline="hanging">augustus.prothints.gff3</text></g></g></g></g></svg>