<svg width="965.59375" height="780" xmlns="http://www.w3.org/2000/svg" xmlns:xlink="http://www.w3.org/1999/xlink" viewBox="0,0,1065.59375,780"><rect width="1065.59375" height="780" fill="#ffffff"></rect><g transform="translate(50 0)"><g transform="translate(0)"><g id="header"><text x="0" y="0" dominant-baseline="hanging" font-size="13" fill="#000000">GCA_945859605.1 </text><g transform="translate(0 13)"><line x1="0" x2="965.5937499999966" y1="10" y2="10" stroke="#000000"></line><line x1="0" x2="0" y1="5" y2="15" stroke="#000000"></line><line x1="965.5937499999966" x2="965.5937499999966" y1="5" y2="15" stroke="#000000"></line><text x="482.7968749999983" y="13" text-anchor="middle" dominant-baseline="hanging" font-size="13" fill="#000000">20.8Kbp</text></g><g transform="translate(0 50)"><g><defs><clipPath id="clip-{GCA_945859605.1 }OX457036.1:2878036.8119807914..2898849.897126578-0"><rect x="0" y="0" width="965.5937499999966" height="100"></rect></clipPath></defs><g transform="translate(0 0)"><g clip-path="url(#clip-{GCA_945859605.1 }OX457036.1:2878036.8119807914..2898849.897126578-0)"><text x="4" y="13" font-size="13" fill="#000000">OX457036.1</text><g transform="translate(0 20)"><line x1="-20.264302544311935" x2="-20.264302544311935" y1="0" y2="4" stroke-width="1" stroke="#000000"></line><line x1="-1.707757911448818" x2="-1.707757911448818" y1="0" y2="4" stroke-width="1" stroke="#000000"></line><line x1="16.8487867214143" x2="16.8487867214143" y1="0" y2="4" stroke-width="1" stroke="#000000"></line><line x1="35.405331354277415" x2="35.405331354277415" y1="0" y2="4" stroke-width="1" stroke="#000000"></line><line x1="53.96187598714054" x2="53.96187598714054" y1="0" y2="4" stroke-width="1" stroke="#000000"></line><line x1="72.51842062000365" x2="72.51842062000365" y1="0" y2="4" stroke-width="1" stroke="#000000"></line><line x1="91.07496525286678" x2="91.07496525286678" y1="0" y2="6" stroke-width="1" stroke="#000000"></line><line x1="109.63150988572988" x2="109.63150988572988" y1="0" y2="4" stroke-width="1" stroke="#000000"></line><line x1="128.188054518593" x2="128.188054518593" y1="0" y2="4" stroke-width="1" stroke="#000000"></line><line x1="146.74459915145613" x2="146.74459915145613" y1="0" y2="4" stroke-width="1" stroke="#000000"></line><line x1="165.30114378431924" x2="165.30114378431924" y1="0" y2="4" stroke-width="1" stroke="#000000"></line><line x1="183.85768841718235" x2="183.85768841718235" y1="0" y2="4" stroke-width="1" stroke="#000000"></line><line x1="202.41423305004548" x2="202.41423305004548" y1="0" y2="4" stroke-width="1" stroke="#000000"></line><line x1="220.9707776829086" x2="220.9707776829086" y1="0" y2="4" stroke-width="1" stroke="#000000"></line><line x1="239.5273223157717" x2="239.5273223157717" y1="0" y2="4" stroke-width="1" stroke="#000000"></line><line x1="258.0838669486348" x2="258.0838669486348" y1="0" y2="4" stroke-width="1" stroke="#000000"></line><line x1="276.6404115814979" x2="276.6404115814979" y1="0" y2="6" stroke-width="1" stroke="#000000"></line><line x1="295.1969562143611" x2="295.1969562143611" y1="0" y2="4" stroke-width="1" stroke="#000000"></line><line x1="313.7535008472242" x2="313.7535008472242" y1="0" y2="4" stroke-width="1" stroke="#000000"></line><line x1="332.3100454800873" x2="332.3100454800873" y1="0" y2="4" stroke-width="1" stroke="#000000"></line><line x1="350.8665901129504" x2="350.8665901129504" y1="0" y2="4" stroke-width="1" stroke="#000000"></line><line x1="369.4231347458135" x2="369.4231347458135" y1="0" y2="4" stroke-width="1" stroke="#000000"></line><line x1="387.9796793786766" x2="387.9796793786766" y1="0" y2="4" stroke-width="1" stroke="#000000"></line><line x1="406.5362240115398" x2="406.5362240115398" y1="0" y2="4" stroke-width="1" stroke="#000000"></line><line x1="425.0927686444029" x2="425.0927686444029" y1="0" y2="4" stroke-width="1" stroke="#000000"></line><line x1="443.649313277266" x2="443.649313277266" y1="0" y2="4" stroke-width="1" stroke="#000000"></line><line x1="462.2058579101291" x2="462.2058579101291" y1="0" y2="6" stroke-width="1" stroke="#000000"></line><line x1="480.7624025429922" x2="480.7624025429922" y1="0" y2="4" stroke-width="1" stroke="#000000"></line><line x1="499.3189471758553" x2="499.3189471758553" y1="0" y2="4" stroke-width="1" stroke="#000000"></line><line x1="517.8754918087185" x2="517.8754918087185" y1="0" y2="4" stroke-width="1" stroke="#000000"></line><line x1="536.4320364415815" x2="536.4320364415815" y1="0" y2="4" stroke-width="1" stroke="#000000"></line><line x1="554.9885810744447" x2="554.9885810744447" y1="0" y2="4" stroke-width="1" stroke="#000000"></line><line x1="573.5451257073079" x2="573.5451257073079" y1="0" y2="4" stroke-width="1" stroke="#000000"></line><line x1="592.1016703401709" x2="592.1016703401709" y1="0" y2="4" stroke-width="1" stroke="#000000"></line><line x1="610.6582149730341" x2="610.6582149730341" y1="0" y2="4" stroke-width="1" stroke="#000000"></line><line x1="629.2147596058971" x2="629.2147596058971" y1="0" y2="4" stroke-width="1" stroke="#000000"></line><line x1="647.7713042387603" x2="647.7713042387603" y1="0" y2="6" stroke-width="1" stroke="#000000"></line><line x1="666.3278488716234" x2="666.3278488716234" y1="0" y2="4" stroke-width="1" stroke="#000000"></line><line x1="684.8843935044865" x2="684.8843935044865" y1="0" y2="4" stroke-width="1" stroke="#000000"></line><line x1="703.4409381373497" x2="703.4409381373497" y1="0" y2="4" stroke-width="1" stroke="#000000"></line><line x1="721.9974827702127" x2="721.9974827702127" y1="0" y2="4" stroke-width="1" stroke="#000000"></line><line x1="740.5540274030759" x2="740.5540274030759" y1="0" y2="4" stroke-width="1" stroke="#000000"></line><line x1="759.110572035939" x2="759.110572035939" y1="0" y2="4" stroke-width="1" stroke="#000000"></line><line x1="777.6671166688021" x2="777.6671166688021" y1="0" y2="4" stroke-width="1" stroke="#000000"></line><line x1="796.2236613016652" x2="796.2236613016652" y1="0" y2="4" stroke-width="1" stroke="#000000"></line><line x1="814.7802059345283" x2="814.7802059345283" y1="0" y2="4" stroke-width="1" stroke="#000000"></line><line x1="833.3367505673915" x2="833.3367505673915" y1="0" y2="6" stroke-width="1" stroke="#000000"></line><line x1="851.8932952002546" x2="851.8932952002546" y1="0" y2="4" stroke-width="1" stroke="#000000"></line><line x1="870.4498398331177" x2="870.4498398331177" y1="0" y2="4" stroke-width="1" stroke="#000000"></line><line x1="889.0063844659808" x2="889.0063844659808" y1="0" y2="4" stroke-width="1" stroke="#000000"></line><line x1="907.5629290988439" x2="907.5629290988439" y1="0" y2="4" stroke-width="1" stroke="#000000"></line><line x1="926.1194737317071" x2="926.1194737317071" y1="0" y2="4" stroke-width="1" stroke="#000000"></line><line x1="944.6760183645702" x2="944.6760183645702" y1="0" y2="4" stroke-width="1" stroke="#000000"></line><line x1="963.2325629974333" x2="963.2325629974333" y1="0" y2="4" stroke-width="1" stroke="#000000"></line><line x1="981.7891076302964" x2="981.7891076302964" y1="0" y2="4" stroke-width="1" stroke="#000000"></line><line x1="1000.3456522631595" x2="1000.3456522631595" y1="0" y2="4" stroke-width="1" stroke="#000000"></line><text x="88.07496525286678" y="18" font-size="11" fill="#000000">2,880,000</text><text x="273.6404115814979" y="18" font-size="11" fill="#000000">2,884,000</text><text x="459.2058579101291" y="18" font-size="11" fill="#000000">2,888,000</text><text x="644.7713042387603" y="18" font-size="11" fill="#000000">2,892,000</text><text x="830.3367505673915" y="18" font-size="11" fill="#000000">2,896,000</text></g></g></g></g></g></g></g><g transform="translate(0 100)"><g transform="translate(0 0)"><g transform="translate(0 18)"><defs><clipPath id="clip-3IDlZDj3Q0-ApaCKgeeNu-0.5728079076439705"><rect x="0" y="0" width="965.5937499999966" height="444"></rect></clipPath></defs><g transform="translate(0 0)"><g clip-path="url(#clip-3IDlZDj3Q0-ApaCKgeeNu-0.5728079076439705)"><g><g><line x1="121.4" x2="128.4" y1="5" y2="5" stroke="#000000"></line><polygon points="124.9,2.5,124.9,7.5,128.4,5" stroke="#000000" fill="#000000"></polygon><rect data-testid="box--1002833003-OX457036.1-487" x="120.4" y="0" width="2" height="10" fill="goldenrod" stroke=""></rect></g><g><line x1="122.162871740122" x2="129.162871740122" y1="20" y2="20" stroke="#000000"></line><polygon points="125.662871740122,17.5,125.662871740122,22.5,129.162871740122,20" stroke="#000000" fill="#000000"></polygon><rect data-testid="box--1002833003-OX457036.1-489" x="120.4" y="15" width="2" height="10" fill="#FF8080" stroke=""></rect></g><g><line x1="182.3788590737628" x2="189.3788590737628" y1="35" y2="35" stroke="#000000"></line><polygon points="185.8788590737628,32.5,185.8788590737628,37.5,189.3788590737628,35" stroke="#000000" fill="#000000"></polygon><rect data-testid="box--1002833003-OX457036.1-485" x="120.4" y="30" width="61.97885907376281" height="10" fill="goldenrod" stroke=""></rect></g><g><line x1="182.3788590737628" x2="189.3788590737628" y1="50" y2="50" stroke="#000000"></line><polygon points="185.8788590737628,47.5,185.8788590737628,52.5,189.3788590737628,50" stroke="#000000" fill="#000000"></polygon><rect data-testid="box--1002833003-OX457036.1-486" x="120.4" y="45" width="61.97885907376281" height="10" fill="goldenrod" stroke=""></rect></g><g><line x1="171.5531914465802" x2="178.5531914465802" y1="65" y2="65" stroke="#000000"></line><polygon points="175.0531914465802,62.5,175.0531914465802,67.5,178.5531914465802,65" stroke="#000000" fill="#000000"></polygon><rect data-testid="box--1002833003-OX457036.1-488" x="122.1" y="60" width="49.453191446580206" height="10" fill="goldenrod" stroke=""></rect></g><g><line x1="182.3627958870606" x2="189.3627958870606" y1="5" y2="5" stroke="#000000"></line><polygon points="185.8627958870606,2.5,185.8627958870606,7.5,189.3627958870606,5" stroke="#000000" fill="#000000"></polygon><rect data-testid="box--1002833003-OX457036.1-490" x="171.6" y="0" width="10.762795887060609" height="10" fill="#80FF80" stroke=""></rect></g><g><line x1="183.2" x2="190.2" y1="20" y2="20" stroke="#000000"></line><polygon points="186.7,17.5,186.7,22.5,190.2,20" stroke="#000000" fill="#000000"></polygon><rect data-testid="box--1002833003-OX457036.1-491" x="182.2" y="15" width="2" height="10" fill="goldenrod" stroke=""></rect></g><g><line x1="196" x2="203" y1="5" y2="5" stroke="#000000"></line><polygon points="199.5,2.5,199.5,7.5,203,5" stroke="#000000" fill="#000000"></polygon><rect data-testid="box--1002833003-OX457036.1-494" x="195" y="0" width="2" height="10" fill="goldenrod" stroke=""></rect></g><g><line x1="208.77823438990086" x2="215.77823438990086" y1="20" y2="20" stroke="#000000"></line><polygon points="212.27823438990086,17.5,212.27823438990086,22.5,215.77823438990086,20" stroke="#000000" fill="#000000"></polygon><rect data-testid="box--1002833003-OX457036.1-492" x="195" y="15" width="13.778234389900865" height="10" fill="goldenrod" stroke=""></rect></g><g><line x1="208.77823438990086" x2="215.77823438990086" y1="35" y2="35" stroke="#000000"></line><polygon points="212.27823438990086,32.5,212.27823438990086,37.5,215.77823438990086,35" stroke="#000000" fill="#000000"></polygon><rect data-testid="box--1002833003-OX457036.1-493" x="195" y="30" width="13.778234389900865" height="10" fill="goldenrod" stroke=""></rect></g><g><line x1="208.77823438990086" x2="215.77823438990086" y1="50" y2="50" stroke="#000000"></line><polygon points="212.27823438990086,47.5,212.27823438990086,52.5,215.77823438990086,50" stroke="#000000" fill="#000000"></polygon><rect data-testid="box--1002833003-OX457036.1-495" x="195" y="45" width="13.778234389900865" height="10" fill="#FF8080" stroke=""></rect></g><g><line x1="209.6" x2="216.6" y1="5" y2="5" stroke="#000000"></line><polygon points="213.1,2.5,213.1,7.5,216.6,5" stroke="#000000" fill="#000000"></polygon><rect data-testid="box--1002833003-OX457036.1-496" x="208.6" y="0" width="2" height="10" fill="goldenrod" stroke=""></rect></g><g><line x1="232" x2="225" y1="5" y2="5" stroke="#000000"></line><polygon points="228.5,2.5,228.5,7.5,225,5" stroke="#000000" fill="#000000"></polygon><rect data-testid="box--1002833003-OX457036.1-499" x="232" y="0" width="2" height="10" fill="goldenrod" stroke=""></rect></g><g><line x1="232" x2="225" y1="20" y2="20" stroke="#000000"></line><polygon points="228.5,17.5,228.5,22.5,225,20" stroke="#000000" fill="#000000"></polygon><rect data-testid="box--1002833003-OX457036.1-497" x="232" y="15" width="12.664841711929078" height="10" fill="goldenrod" stroke=""></rect></g><g><line x1="232" x2="225" y1="35" y2="35" stroke="#000000"></line><polygon points="228.5,32.5,228.5,37.5,225,35" stroke="#000000" fill="#000000"></polygon><rect data-testid="box--1002833003-OX457036.1-498" x="232" y="30" width="12.664841711929078" height="10" fill="goldenrod" stroke=""></rect></g><g><line x1="232" x2="225" y1="50" y2="50" stroke="#000000"></line><polygon points="228.5,47.5,228.5,52.5,225,50" stroke="#000000" fill="#000000"></polygon><rect data-testid="box--1002833003-OX457036.1-500" x="232" y="45" width="12.664841711929078" height="10" fill="#80FF80" stroke=""></rect></g><g><line x1="244.6" x2="237.6" y1="5" y2="5" stroke="#000000"></line><polygon points="241.1,2.5,241.1,7.5,237.6,5" stroke="#000000" fill="#000000"></polygon><rect data-testid="box--1002833003-OX457036.1-501" x="244.6" y="0" width="2" height="10" fill="goldenrod" stroke=""></rect></g><g><line x1="582.2" x2="589.2" y1="5" y2="5" stroke="#000000"></line><polygon points="585.7,2.5,585.7,7.5,589.2,5" stroke="#000000" fill="#000000"></polygon><rect data-testid="box--1002833003-OX457036.1-504" x="581.2" y="0" width="2" height="10" fill="goldenrod" stroke=""></rect></g><g><line x1="613.6275617459283" x2="620.6275617459283" y1="20" y2="20" stroke="#000000"></line><polygon points="617.1275617459283,17.5,617.1275617459283,22.5,620.6275617459283,20" stroke="#000000" fill="#000000"></polygon><rect data-testid="box--1002833003-OX457036.1-506" x="581.2" y="15" width="32.427561745928294" height="10" fill="#80FF80" stroke=""></rect></g><g><line x1="874.4861879224015" x2="881.4861879224015" y1="35" y2="35" stroke="#000000"></line><polygon points="877.9861879224015,32.5,877.9861879224015,37.5,881.4861879224015,35" stroke="#000000" fill="#000000"></polygon><rect data-testid="box--1002833003-OX457036.1-502" x="581.2" y="30" width="293.28618792240155" height="10" fill="goldenrod" stroke=""></rect></g><g><line x1="874.4861879224015" x2="881.4861879224015" y1="50" y2="50" stroke="#000000"></line><polygon points="877.9861879224015,47.5,877.9861879224015,52.5,881.4861879224015,50" stroke="#000000" fill="#000000"></polygon><rect data-testid="box--1002833003-OX457036.1-503" x="581.2" y="45" width="293.28618792240155" height="10" fill="goldenrod" stroke=""></rect></g><g><line x1="821.1157776338275" x2="828.1157776338275" y1="5" y2="5" stroke="#000000"></line><polygon points="824.6157776338275,2.5,824.6157776338275,7.5,828.1157776338275,5" stroke="#000000" fill="#000000"></polygon><rect data-testid="box--1002833003-OX457036.1-505" x="613.7" y="0" width="207.4157776338275" height="10" fill="goldenrod" stroke=""></rect></g><g><line x1="874.5428485426457" x2="881.5428485426457" y1="20" y2="20" stroke="#000000"></line><polygon points="878.0428485426457,17.5,878.0428485426457,22.5,881.5428485426457,20" stroke="#000000" fill="#000000"></polygon><rect data-testid="box--1002833003-OX457036.1-507" x="821.1" y="15" width="53.44284854264578" height="10" fill="#8080FF" stroke=""></rect></g><g><line x1="875.4" x2="882.4" y1="5" y2="5" stroke="#000000"></line><polygon points="878.9,2.5,878.9,7.5,882.4,5" stroke="#000000" fill="#000000"></polygon><rect data-testid="box--1002833003-OX457036.1-508" x="874.4" y="0" width="2" height="10" fill="goldenrod" stroke=""></rect></g><g><line x1="920.8" x2="913.8" y1="5" y2="5" stroke="#000000"></line><polygon points="917.3,2.5,917.3,7.5,913.8,5" stroke="#000000" fill="#000000"></polygon><rect data-testid="box--1002833003-OX457036.1-511" x="920.8" y="0" width="2" height="10" fill="goldenrod" stroke=""></rect></g><g><line x1="920.8" x2="913.8" y1="20" y2="20" stroke="#000000"></line><polygon points="917.3,17.5,917.3,22.5,913.8,20" stroke="#000000" fill="#000000"></polygon><rect data-testid="box--1002833003-OX457036.1-509" x="920.8" y="15" width="88.93224015299648" height="10" fill="goldenrod" stroke=""></rect></g><g><line x1="920.8" x2="913.8" y1="35" y2="35" stroke="#000000"></line><polygon points="917.3,32.5,917.3,37.5,913.8,35" stroke="#000000" fill="#000000"></polygon><rect data-testid="box--1002833003-OX457036.1-510" x="920.8" y="30" width="88.93224015299648" height="10" fill="goldenrod" stroke=""></rect></g><g><line x1="920.8" x2="913.8" y1="50" y2="50" stroke="#000000"></line><polygon points="917.3,47.5,917.3,52.5,913.8,50" stroke="#000000" fill="#000000"></polygon><rect data-testid="box--1002833003-OX457036.1-512" x="920.8" y="45" width="88.93224015299648" height="10" fill="#FF8080" stroke=""></rect></g><g><line x1="1009.6" x2="1002.6" y1="5" y2="5" stroke="#000000"></line><polygon points="1006.1,2.5,1006.1,7.5,1002.6,5" stroke="#000000" fill="#000000"></polygon><rect data-testid="box--1002833003-OX457036.1-513" x="1009.6" y="0" width="2" height="10" fill="goldenrod" stroke=""></rect></g><g><line x1="1138.6" x2="1131.6" y1="5" y2="5" stroke="#000000"></line><polygon points="1135.1,2.5,1135.1,7.5,1131.6,5" stroke="#000000" fill="#000000"></polygon><rect data-testid="box--1002833003-OX457036.1-516" x="1138.6" y="0" width="2" height="10" fill="goldenrod" stroke=""></rect></g><g><line x1="1138.6" x2="1131.6" y1="20" y2="20" stroke="#000000"></line><polygon points="1135.1,17.5,1135.1,22.5,1131.6,20" stroke="#000000" fill="#000000"></polygon><rect data-testid="box--1002833003-OX457036.1-519" x="1138.6" y="15" width="24.309073469050684" height="10" fill="#80FF80" stroke=""></rect></g><g><line x1="1138.6" x2="1131.6" y1="35" y2="35" stroke="#000000"></line><polygon points="1135.1,32.5,1135.1,37.5,1131.6,35" stroke="#000000" fill="#000000"></polygon><rect data-testid="box--1002833003-OX457036.1-514" x="1138.6" y="30" width="105.49395623782682" height="10" fill="goldenrod" stroke=""></rect></g><g><line x1="1138.6" x2="1131.6" y1="50" y2="50" stroke="#000000"></line><polygon points="1135.1,47.5,1135.1,52.5,1131.6,50" stroke="#000000" fill="#000000"></polygon><rect data-testid="box--1002833003-OX457036.1-515" x="1138.6" y="45" width="105.49395623782682" height="10" fill="goldenrod" stroke=""></rect></g><g><line x1="1162.9" x2="1155.9" y1="5" y2="5" stroke="#000000"></line><polygon points="1159.4,2.5,1159.4,7.5,1155.9,5" stroke="#000000" fill="#000000"></polygon><rect data-testid="box--1002833003-OX457036.1-517" x="1162.9" y="0" width="28.99460098884862" height="10" fill="goldenrod" stroke=""></rect></g><g><line x1="1191.9" x2="1184.9" y1="20" y2="20" stroke="#000000"></line><polygon points="1188.4,17.5,1188.4,22.5,1184.9,20" stroke="#000000" fill="#000000"></polygon><rect data-testid="box--1002833003-OX457036.1-520" x="1191.9" y="15" width="2.9690471412580988" height="10" fill="#8080FF" stroke=""></rect></g><g><line x1="1194.9" x2="1187.9" y1="65" y2="65" stroke="#000000"></line><polygon points="1191.4,62.5,1191.4,67.5,1187.9,65" stroke="#000000" fill="#000000"></polygon><rect data-testid="box--1002833003-OX457036.1-518" x="1194.9" y="60" width="36.556392926740344" height="10" fill="goldenrod" stroke=""></rect></g><g><line x1="1231.5" x2="1224.5" y1="5" y2="5" stroke="#000000"></line><polygon points="1228,2.5,1228,7.5,1224.5,5" stroke="#000000" fill="#000000"></polygon><rect data-testid="box--1002833003-OX457036.1-521" x="1231.5" y="0" width="12.664841711929078" height="10" fill="#80FF80" stroke=""></rect></g><g><line x1="1244" x2="1237" y1="20" y2="20" stroke="#000000"></line><polygon points="1240.5,17.5,1240.5,22.5,1237,20" stroke="#000000" fill="#000000"></polygon><rect data-testid="box--1002833003-OX457036.1-522" x="1244" y="15" width="2" height="10" fill="goldenrod" stroke=""></rect></g></g></g></g></g><g><text x="0" y="5" fill="#000000" font-size="13" dominant-baseline="hanging">augustus.worm.lumter.2-3mb.gff</text></g></g><g transform="translate(0 462)"><g transform="translate(0 18)"><defs><clipPath id="clip-htGuAc_enpIH9ebo0fbGF-0.17198584216883606"><rect x="0" y="0" width="965.5937499999966" height="100"></rect></clipPath></defs><g transform="translate(0 0)"><g clip-path="url(#clip-htGuAc_enpIH9ebo0fbGF-0.17198584216883606)"><g><g><line data-testid="425862032-OX457036.1-31-0" x1="232" y1="5" y2="5" x2="243.13392677971788" stroke="#000000"></line><rect data-testid="box-425862032-OX457036.1-31-0-1" x="232" y="0" width="11.13392677971787" height="10" fill="#80FF80" stroke=""></rect><line x1="232" x2="225" y1="5" y2="5" stroke="#000000"></line><polygon points="228.5,2.5,228.5,7.5,225,5" stroke="#000000" fill="#000000"></polygon><text x="232" y="22" fill="#000000" font-size="12">g32</text></g><g><line data-testid="425862032-OX457036.1-32-0" x1="581.2" y1="5" y2="5" x2="615.4368248476325" stroke="#000000"></line><rect data-testid="box-425862032-OX457036.1-32-0-1" x="581.2" y="0" width="34.23682484763245" height="10" fill="#80FF80" stroke=""></rect><line x1="615.4368248476325" x2="622.4368248476325" y1="5" y2="5" stroke="#000000"></line><polygon points="618.9368248476325,2.5,618.9368248476325,7.5,622.4368248476325,5" stroke="#000000" fill="#000000"></polygon><text x="581.2" y="22" fill="#000000" font-size="12">g33</text></g></g></g></g></g><g><text x="0" y="5" fill="#000000" font-size="13" dominant-baseline="hanging">augustus.prothints.gff3</text></g></g></g></g></svg>