<svg width="965.59375" height="780" xmlns="http://www.w3.org/2000/svg" xmlns:xlink="http://www.w3.org/1999/xlink" viewBox="0,0,1065.59375,780"><rect width="1065.59375" height="780" fill="#ffffff"></rect><g transform="translate(50 0)"><g transform="translate(0)"><g id="header"><text x="0" y="0" dominant-baseline="hanging" font-size="13" fill="#000000">GCA_945859605.1 </text><g transform="translate(0 13)"><line x1="0" x2="965.5937499999966" y1="10" y2="10" stroke="#000000"></line><line x1="0" x2="0" y1="5" y2="15" stroke="#000000"></line><line x1="965.5937499999966" x2="965.5937499999966" y1="5" y2="15" stroke="#000000"></line><text x="482.7968749999983" y="13" text-anchor="middle" dominant-baseline="hanging" font-size="13" fill="#000000">20.8Kbp</text></g><g transform="translate(0 50)"><g><defs><clipPath id="clip-{GCA_945859605.1 }OX457036.1:2905908.3802189888..2926721.465364775-0"><rect x="0" y="0" width="965.5937499999966" height="100"></rect></clipPath></defs><g transform="translate(0 0)"><g clip-path="url(#clip-{GCA_945859605.1 }OX457036.1:2905908.3802189888..2926721.465364775-0)"><text x="4" y="13" font-size="13" fill="#000000">OX457036.1</text><g transform="translate(0 20)"><line x1="-32.86272287675523" x2="-32.86272287675523" y1="0" y2="4" stroke-width="1" stroke="#000000"></line><line x1="-14.30617824389211" x2="-14.30617824389211" y1="0" y2="4" stroke-width="1" stroke="#000000"></line><line x1="4.250366388971007" x2="4.250366388971007" y1="0" y2="4" stroke-width="1" stroke="#000000"></line><line x1="22.806911021834125" x2="22.806911021834125" y1="0" y2="4" stroke-width="1" stroke="#000000"></line><line x1="41.36345565469724" x2="41.36345565469724" y1="0" y2="4" stroke-width="1" stroke="#000000"></line><line x1="59.920000287560356" x2="59.920000287560356" y1="0" y2="4" stroke-width="1" stroke="#000000"></line><line x1="78.47654492042348" x2="78.47654492042348" y1="0" y2="4" stroke-width="1" stroke="#000000"></line><line x1="97.0330895532866" x2="97.0330895532866" y1="0" y2="6" stroke-width="1" stroke="#000000"></line><line x1="115.58963418614971" x2="115.58963418614971" y1="0" y2="4" stroke-width="1" stroke="#000000"></line><line x1="134.14617881901282" x2="134.14617881901282" y1="0" y2="4" stroke-width="1" stroke="#000000"></line><line x1="152.70272345187595" x2="152.70272345187595" y1="0" y2="4" stroke-width="1" stroke="#000000"></line><line x1="171.25926808473906" x2="171.25926808473906" y1="0" y2="4" stroke-width="1" stroke="#000000"></line><line x1="189.81581271760217" x2="189.81581271760217" y1="0" y2="4" stroke-width="1" stroke="#000000"></line><line x1="208.3723573504653" x2="208.3723573504653" y1="0" y2="4" stroke-width="1" stroke="#000000"></line><line x1="226.92890198332842" x2="226.92890198332842" y1="0" y2="4" stroke-width="1" stroke="#000000"></line><line x1="245.48544661619152" x2="245.48544661619152" y1="0" y2="4" stroke-width="1" stroke="#000000"></line><line x1="264.04199124905466" x2="264.04199124905466" y1="0" y2="4" stroke-width="1" stroke="#000000"></line><line x1="282.59853588191777" x2="282.59853588191777" y1="0" y2="6" stroke-width="1" stroke="#000000"></line><line x1="301.1550805147809" x2="301.1550805147809" y1="0" y2="4" stroke-width="1" stroke="#000000"></line><line x1="319.711625147644" x2="319.711625147644" y1="0" y2="4" stroke-width="1" stroke="#000000"></line><line x1="338.2681697805071" x2="338.2681697805071" y1="0" y2="4" stroke-width="1" stroke="#000000"></line><line x1="356.82471441337026" x2="356.82471441337026" y1="0" y2="4" stroke-width="1" stroke="#000000"></line><line x1="375.38125904623337" x2="375.38125904623337" y1="0" y2="4" stroke-width="1" stroke="#000000"></line><line x1="393.9378036790965" x2="393.9378036790965" y1="0" y2="4" stroke-width="1" stroke="#000000"></line><line x1="412.4943483119596" x2="412.4943483119596" y1="0" y2="4" stroke-width="1" stroke="#000000"></line><line x1="431.0508929448227" x2="431.0508929448227" y1="0" y2="4" stroke-width="1" stroke="#000000"></line><line x1="449.6074375776858" x2="449.6074375776858" y1="0" y2="4" stroke-width="1" stroke="#000000"></line><line x1="468.16398221054897" x2="468.16398221054897" y1="0" y2="6" stroke-width="1" stroke="#000000"></line><line x1="486.7205268434121" x2="486.7205268434121" y1="0" y2="4" stroke-width="1" stroke="#000000"></line><line x1="505.2770714762752" x2="505.2770714762752" y1="0" y2="4" stroke-width="1" stroke="#000000"></line><line x1="523.8336161091383" x2="523.8336161091383" y1="0" y2="4" stroke-width="1" stroke="#000000"></line><line x1="542.3901607420014" x2="542.3901607420014" y1="0" y2="4" stroke-width="1" stroke="#000000"></line><line x1="560.9467053748646" x2="560.9467053748646" y1="0" y2="4" stroke-width="1" stroke="#000000"></line><line x1="579.5032500077276" x2="579.5032500077276" y1="0" y2="4" stroke-width="1" stroke="#000000"></line><line x1="598.0597946405908" x2="598.0597946405908" y1="0" y2="4" stroke-width="1" stroke="#000000"></line><line x1="616.6163392734538" x2="616.6163392734538" y1="0" y2="4" stroke-width="1" stroke="#000000"></line><line x1="635.172883906317" x2="635.172883906317" y1="0" y2="4" stroke-width="1" stroke="#000000"></line><line x1="653.7294285391802" x2="653.7294285391802" y1="0" y2="6" stroke-width="1" stroke="#000000"></line><line x1="672.2859731720432" x2="672.2859731720432" y1="0" y2="4" stroke-width="1" stroke="#000000"></line><line x1="690.8425178049064" x2="690.8425178049064" y1="0" y2="4" stroke-width="1" stroke="#000000"></line><line x1="709.3990624377694" x2="709.3990624377694" y1="0" y2="4" stroke-width="1" stroke="#000000"></line><line x1="727.9556070706326" x2="727.9556070706326" y1="0" y2="4" stroke-width="1" stroke="#000000"></line><line x1="746.5121517034956" x2="746.5121517034956" y1="0" y2="4" stroke-width="1" stroke="#000000"></line><line x1="765.0686963363588" x2="765.0686963363588" y1="0" y2="4" stroke-width="1" stroke="#000000"></line><line x1="783.625240969222" x2="783.625240969222" y1="0" y2="4" stroke-width="1" stroke="#000000"></line><line x1="802.181785602085" x2="802.181785602085" y1="0" y2="4" stroke-width="1" stroke="#000000"></line><line x1="820.7383302349482" x2="820.7383302349482" y1="0" y2="4" stroke-width="1" stroke="#000000"></line><line x1="839.2948748678112" x2="839.2948748678112" y1="0" y2="6" stroke-width="1" stroke="#000000"></line><line x1="857.8514195006744" x2="857.8514195006744" y1="0" y2="4" stroke-width="1" stroke="#000000"></line><line x1="876.4079641335376" x2="876.4079641335376" y1="0" y2="4" stroke-width="1" stroke="#000000"></line><line x1="894.9645087664006" x2="894.9645087664006" y1="0" y2="4" stroke-width="1" stroke="#000000"></line><line x1="913.5210533992638" x2="913.5210533992638" y1="0" y2="4" stroke-width="1" stroke="#000000"></line><line x1="932.0775980321268" x2="932.0775980321268" y1="0" y2="4" stroke-width="1" stroke="#000000"></line><line x1="950.63414266499" x2="950.63414266499" y1="0" y2="4" stroke-width="1" stroke="#000000"></line><line x1="969.1906872978531" x2="969.1906872978531" y1="0" y2="4" stroke-width="1" stroke="#000000"></line><line x1="987.7472319307162" x2="987.7472319307162" y1="0" y2="4" stroke-width="1" stroke="#000000"></line><text x="94.0330895532866" y="18" font-size="11" fill="#000000">2,908,000</text><text x="279.59853588191777" y="18" font-size="11" fill="#000000">2,912,000</text><text x="465.16398221054897" y="18" font-size="11" fill="#000000">2,916,000</text><text x="650.7294285391802" y="18" font-size="11" fill="#000000">2,920,000</text><text x="836.2948748678112" y="18" font-size="11" fill="#000000">2,924,000</text></g></g></g></g></g></g></g><g transform="translate(0 100)"><g transform="translate(0 0)"><g transform="translate(0 18)"><defs><clipPath id="clip-3IDlZDj3Q0-ApaCKgeeNu-0.0952673402405162"><rect x="0" y="0" width="965.5937499999966" height="444"></rect></clipPath></defs><g transform="translate(0 0)"><g clip-path="url(#clip-3IDlZDj3Q0-ApaCKgeeNu-0.0952673402405162)"><g><g></g><g></g><g></g><g></g><g></g><g></g><g></g><g></g><g></g><g></g><g></g><g></g><g></g><g></g><g></g><g></g><g></g><g></g><g></g><g><line x1="218.8" x2="211.8" y1="5" y2="5" stroke="#000000"></line><polygon points="215.3,2.5,215.3,7.5,211.8,5" stroke="#000000" fill="#000000"></polygon><rect data-testid="box--1002833003-OX457036.1-525" x="218.8" y="0" width="2" height="10" fill="goldenrod" stroke=""></rect></g><g><line x1="218.8" x2="211.8" y1="20" y2="20" stroke="#000000"></line><polygon points="215.3,17.5,215.3,22.5,211.8,20" stroke="#000000" fill="#000000"></polygon><rect data-testid="box--1002833003-OX457036.1-523" x="218.8" y="15" width="12.247319457689658" height="10" fill="goldenrod" stroke=""></rect></g><g><line x1="218.8" x2="211.8" y1="35" y2="35" stroke="#000000"></line><polygon points="215.3,32.5,215.3,37.5,211.8,35" stroke="#000000" fill="#000000"></polygon><rect data-testid="box--1002833003-OX457036.1-524" x="218.8" y="30" width="12.247319457689658" height="10" fill="goldenrod" stroke=""></rect></g><g><line x1="218.8" x2="211.8" y1="50" y2="50" stroke="#000000"></line><polygon points="215.3,47.5,215.3,52.5,211.8,50" stroke="#000000" fill="#000000"></polygon><rect data-testid="box--1002833003-OX457036.1-526" x="218.8" y="45" width="12.247319457689658" height="10" fill="#FF8080" stroke=""></rect></g><g><line x1="230.9" x2="223.9" y1="5" y2="5" stroke="#000000"></line><polygon points="227.4,2.5,227.4,7.5,223.9,5" stroke="#000000" fill="#000000"></polygon><rect data-testid="box--1002833003-OX457036.1-527" x="230.9" y="0" width="2" height="10" fill="goldenrod" stroke=""></rect></g><g><line x1="243" x2="236" y1="5" y2="5" stroke="#000000"></line><polygon points="239.5,2.5,239.5,7.5,236,5" stroke="#000000" fill="#000000"></polygon><rect data-testid="box--1002833003-OX457036.1-530" x="243" y="0" width="2" height="10" fill="goldenrod" stroke=""></rect></g><g><line x1="243" x2="236" y1="20" y2="20" stroke="#000000"></line><polygon points="239.5,17.5,239.5,22.5,236,20" stroke="#000000" fill="#000000"></polygon><rect data-testid="box--1002833003-OX457036.1-532" x="243" y="15" width="10.066925463328241" height="10" fill="#8080FF" stroke=""></rect></g><g><line x1="243" x2="236" y1="35" y2="35" stroke="#000000"></line><polygon points="239.5,32.5,239.5,37.5,236,35" stroke="#000000" fill="#000000"></polygon><rect data-testid="box--1002833003-OX457036.1-528" x="243" y="30" width="110.04030967287828" height="10" fill="goldenrod" stroke=""></rect></g><g><line x1="243" x2="236" y1="50" y2="50" stroke="#000000"></line><polygon points="239.5,47.5,239.5,52.5,236,50" stroke="#000000" fill="#000000"></polygon><rect data-testid="box--1002833003-OX457036.1-529" x="243" y="45" width="110.04030967287828" height="10" fill="goldenrod" stroke=""></rect></g><g><line x1="253.1" x2="246.1" y1="5" y2="5" stroke="#000000"></line><polygon points="249.6,2.5,249.6,7.5,246.1,5" stroke="#000000" fill="#000000"></polygon><rect data-testid="box--1002833003-OX457036.1-531" x="253.1" y="0" width="91.80850457109027" height="10" fill="goldenrod" stroke=""></rect></g><g><line x1="344.9" x2="337.9" y1="20" y2="20" stroke="#000000"></line><polygon points="341.4,17.5,341.4,22.5,337.9,20" stroke="#000000" fill="#000000"></polygon><rect data-testid="box--1002833003-OX457036.1-533" x="344.9" y="15" width="8.164879638459771" height="10" fill="#80FF80" stroke=""></rect></g><g><line x1="352.9" x2="345.9" y1="5" y2="5" stroke="#000000"></line><polygon points="349.4,2.5,349.4,7.5,345.9,5" stroke="#000000" fill="#000000"></polygon><rect data-testid="box--1002833003-OX457036.1-534" x="352.9" y="0" width="2" height="10" fill="goldenrod" stroke=""></rect></g><g><line x1="571.7" x2="578.7" y1="5" y2="5" stroke="#000000"></line><polygon points="575.2,2.5,575.2,7.5,578.7,5" stroke="#000000" fill="#000000"></polygon><rect data-testid="box--1002833003-OX457036.1-537" x="570.7" y="0" width="2" height="10" fill="goldenrod" stroke=""></rect></g><g><line x1="574.8288311808121" x2="581.8288311808121" y1="20" y2="20" stroke="#000000"></line><polygon points="578.3288311808121,17.5,578.3288311808121,22.5,581.8288311808121,20" stroke="#000000" fill="#000000"></polygon><rect data-testid="box--1002833003-OX457036.1-542" x="570.7" y="15" width="4.1288311808120435" height="10" fill="#80FF80" stroke=""></rect></g><g><line x1="814.6257791989857" x2="821.6257791989857" y1="35" y2="35" stroke="#000000"></line><polygon points="818.1257791989857,32.5,818.1257791989857,37.5,821.6257791989857,35" stroke="#000000" fill="#000000"></polygon><rect data-testid="box--1002833003-OX457036.1-535" x="570.7" y="30" width="243.92577919898568" height="10" fill="goldenrod" stroke=""></rect></g><g><line x1="814.6257791989857" x2="821.6257791989857" y1="50" y2="50" stroke="#000000"></line><polygon points="818.1257791989857,47.5,818.1257791989857,52.5,821.6257791989857,50" stroke="#000000" fill="#000000"></polygon><rect data-testid="box--1002833003-OX457036.1-536" x="570.7" y="45" width="243.92577919898568" height="10" fill="goldenrod" stroke=""></rect></g><g><line x1="599.7121611696186" x2="606.7121611696186" y1="65" y2="65" stroke="#000000"></line><polygon points="603.2121611696186,62.5,603.2121611696186,67.5,606.7121611696186,65" stroke="#000000" fill="#000000"></polygon><rect data-testid="box--1002833003-OX457036.1-538" x="574.8" y="60" width="24.912161169618734" height="10" fill="goldenrod" stroke=""></rect></g><g><line x1="601.4628717401221" x2="608.4628717401221" y1="5" y2="5" stroke="#000000"></line><polygon points="604.9628717401221,2.5,604.9628717401221,7.5,608.4628717401221,5" stroke="#000000" fill="#000000"></polygon><rect data-testid="box--1002833003-OX457036.1-543" x="599.7" y="0" width="2" height="10" fill="#80FF80" stroke=""></rect></g><g><line x1="731.8597260458635" x2="738.8597260458635" y1="20" y2="20" stroke="#000000"></line><polygon points="735.3597260458635,17.5,735.3597260458635,22.5,738.8597260458635,20" stroke="#000000" fill="#000000"></polygon><rect data-testid="box--1002833003-OX457036.1-539" x="601.5" y="15" width="130.3597260458634" height="10" fill="goldenrod" stroke=""></rect></g><g><line x1="745.6318430283187" x2="752.6318430283187" y1="5" y2="5" stroke="#000000"></line><polygon points="749.1318430283187,2.5,749.1318430283187,7.5,752.6318430283187,5" stroke="#000000" fill="#000000"></polygon><rect data-testid="box--1002833003-OX457036.1-544" x="731.9" y="0" width="13.731843028318707" height="10" fill="#FF8080" stroke=""></rect></g><g><line x1="784.0584387516088" x2="791.0584387516088" y1="20" y2="20" stroke="#000000"></line><polygon points="787.5584387516088,17.5,787.5584387516088,22.5,791.0584387516088,20" stroke="#000000" fill="#000000"></polygon><rect data-testid="box--1002833003-OX457036.1-540" x="745.6" y="15" width="38.45843875160881" height="10" fill="goldenrod" stroke=""></rect></g><g><line x1="791.754574661056" x2="798.754574661056" y1="5" y2="5" stroke="#000000"></line><polygon points="795.254574661056,2.5,795.254574661056,7.5,798.754574661056,5" stroke="#000000" fill="#000000"></polygon><rect data-testid="box--1002833003-OX457036.1-545" x="784.1" y="0" width="7.654574661056036" height="10" fill="#80FF80" stroke=""></rect></g><g><line x1="803.4834058418681" x2="810.4834058418681" y1="20" y2="20" stroke="#000000"></line><polygon points="806.9834058418681,17.5,806.9834058418681,22.5,810.4834058418681,20" stroke="#000000" fill="#000000"></polygon><rect data-testid="box--1002833003-OX457036.1-541" x="791.7" y="15" width="11.78340584186808" height="10" fill="goldenrod" stroke=""></rect></g><g><line x1="814.6339267797179" x2="821.6339267797179" y1="5" y2="5" stroke="#000000"></line><polygon points="818.1339267797179,2.5,818.1339267797179,7.5,821.6339267797179,5" stroke="#000000" fill="#000000"></polygon><rect data-testid="box--1002833003-OX457036.1-546" x="803.5" y="0" width="11.13392677971787" height="10" fill="#FF8080" stroke=""></rect></g><g><line x1="815.5" x2="822.5" y1="20" y2="20" stroke="#000000"></line><polygon points="819,17.5,819,22.5,822.5,20" stroke="#000000" fill="#000000"></polygon><rect data-testid="box--1002833003-OX457036.1-547" x="814.5" y="15" width="2" height="10" fill="goldenrod" stroke=""></rect></g><g><line x1="1100" x2="1093" y1="5" y2="5" stroke="#000000"></line><polygon points="1096.5,2.5,1096.5,7.5,1093,5" stroke="#000000" fill="#000000"></polygon><rect data-testid="box--1002833003-OX457036.1-550" x="1100" y="0" width="2" height="10" fill="goldenrod" stroke=""></rect></g><g><line x1="1100" x2="1093" y1="20" y2="20" stroke="#000000"></line><polygon points="1096.5,17.5,1096.5,22.5,1093,20" stroke="#000000" fill="#000000"></polygon><rect data-testid="box--1002833003-OX457036.1-552" x="1100" y="15" width="11.319492226046501" height="10" fill="#8080FF" stroke=""></rect></g><g><line x1="1100" x2="1093" y1="35" y2="35" stroke="#000000"></line><polygon points="1096.5,32.5,1096.5,37.5,1093,35" stroke="#000000" fill="#000000"></polygon><rect data-testid="box--1002833003-OX457036.1-548" x="1100" y="30" width="222.81770967910387" height="10" fill="goldenrod" stroke=""></rect></g><g><line x1="1100" x2="1093" y1="50" y2="50" stroke="#000000"></line><polygon points="1096.5,47.5,1096.5,52.5,1093,50" stroke="#000000" fill="#000000"></polygon><rect data-testid="box--1002833003-OX457036.1-549" x="1100" y="45" width="222.81770967910387" height="10" fill="goldenrod" stroke=""></rect></g><g><line x1="1111.4" x2="1104.4" y1="5" y2="5" stroke="#000000"></line><polygon points="1107.9,2.5,1107.9,7.5,1104.4,5" stroke="#000000" fill="#000000"></polygon><rect data-testid="box--1002833003-OX457036.1-551" x="1111.4" y="0" width="204.02920823832997" height="10" fill="goldenrod" stroke=""></rect></g><g><line x1="1315.4" x2="1308.4" y1="20" y2="20" stroke="#000000"></line><polygon points="1311.9,17.5,1311.9,22.5,1308.4,20" stroke="#000000" fill="#000000"></polygon><rect data-testid="box--1002833003-OX457036.1-553" x="1315.4" y="15" width="7.4690092147274045" height="10" fill="#8080FF" stroke=""></rect></g><g><line x1="1322.7" x2="1315.7" y1="5" y2="5" stroke="#000000"></line><polygon points="1319.2,2.5,1319.2,7.5,1315.7,5" stroke="#000000" fill="#000000"></polygon><rect data-testid="box--1002833003-OX457036.1-554" x="1322.7" y="0" width="2" height="10" fill="goldenrod" stroke=""></rect></g><g><line x1="1355.6" x2="1348.6" y1="5" y2="5" stroke="#000000"></line><polygon points="1352.1,2.5,1352.1,7.5,1348.6,5" stroke="#000000" fill="#000000"></polygon><rect data-testid="box--1002833003-OX457036.1-557" x="1355.6" y="0" width="2" height="10" fill="goldenrod" stroke=""></rect></g><g><line x1="1355.6" x2="1348.6" y1="20" y2="20" stroke="#000000"></line><polygon points="1352.1,17.5,1352.1,22.5,1348.6,20" stroke="#000000" fill="#000000"></polygon><rect data-testid="box--1002833003-OX457036.1-555" x="1355.6" y="15" width="20.319416372985113" height="10" fill="goldenrod" stroke=""></rect></g><g><line x1="1355.6" x2="1348.6" y1="35" y2="35" stroke="#000000"></line><polygon points="1352.1,32.5,1352.1,37.5,1348.6,35" stroke="#000000" fill="#000000"></polygon><rect data-testid="box--1002833003-OX457036.1-556" x="1355.6" y="30" width="20.319416372985113" height="10" fill="goldenrod" stroke=""></rect></g><g><line x1="1355.6" x2="1348.6" y1="50" y2="50" stroke="#000000"></line><polygon points="1352.1,47.5,1352.1,52.5,1348.6,50" stroke="#000000" fill="#000000"></polygon><rect data-testid="box--1002833003-OX457036.1-558" x="1355.6" y="45" width="20.319416372985113" height="10" fill="#FF8080" stroke=""></rect></g><g><line x1="1375.8" x2="1368.8" y1="5" y2="5" stroke="#000000"></line><polygon points="1372.3,2.5,1372.3,7.5,1368.8,5" stroke="#000000" fill="#000000"></polygon><rect data-testid="box--1002833003-OX457036.1-559" x="1375.8" y="0" width="2" height="10" fill="goldenrod" stroke=""></rect></g></g></g></g></g><g><text x="0" y="5" fill="#000000" font-size="13" dominant-baseline="hanging">augustus.worm.lumter.2-3mb.gff</text></g></g><g transform="translate(0 462)"><g transform="translate(0 18)"><defs><clipPath id="clip-htGuAc_enpIH9ebo0fbGF-0.8047191130831362"><rect x="0" y="0" width="965.5937499999966" height="100"></rect></clipPath></defs><g transform="translate(0 0)"><g clip-path="url(#clip-htGuAc_enpIH9ebo0fbGF-0.8047191130831362)"><g><g><line data-testid="425862032-OX457036.1-33-0" x1="218.8" y1="5" y2="5" x2="344.2886330797369" stroke="#000000"></line><rect data-testid="box-425862032-OX457036.1-33-0-3" x="218.8" y="0" width="10.066925463328241" height="10" fill="#FF8080" stroke=""></rect><rect data-testid="box-425862032-OX457036.1-33-0-4" x="243.01629074588638" y="0" width="10.020534101746083" height="10" fill="#8080FF" stroke=""></rect><rect data-testid="box-425862032-OX457036.1-33-0-5" x="340.85567232265714" y="0" width="3.4329607570796767" height="10" fill="#8080FF" stroke=""></rect><line x1="218.8" x2="211.8" y1="5" y2="5" stroke="#000000"></line><polygon points="215.3,2.5,215.3,7.5,211.8,5" stroke="#000000" fill="#000000"></polygon><text x="218.8" y="22" fill="#000000" font-size="12">g34</text></g><g><line data-testid="425862032-OX457036.1-34-0" x1="1355.6" y1="5" y2="5" x2="1375.919416372985" stroke="#000000"></line><rect data-testid="box-425862032-OX457036.1-34-0-1" x="1355.6" y="0" width="20.319416372985113" height="10" fill="#FF8080" stroke=""></rect><line x1="1355.6" x2="1348.6" y1="5" y2="5" stroke="#000000"></line><polygon points="1352.1,2.5,1352.1,7.5,1348.6,5" stroke="#000000" fill="#000000"></polygon><text x="1355.6" y="22" fill="#000000" font-size="12">g35</text></g></g></g></g></g><g><text x="0" y="5" fill="#000000" font-size="13" dominant-baseline="hanging">augustus.prothints.gff3</text></g></g></g></g></svg>