<svg width="965.59375" height="780" xmlns="http://www.w3.org/2000/svg" xmlns:xlink="http://www.w3.org/1999/xlink" viewBox="0,0,1065.59375,780"><rect width="1065.59375" height="780" fill="#ffffff"></rect><g transform="translate(50 0)"><g transform="translate(0)"><g id="header"><text x="0" y="0" dominant-baseline="hanging" font-size="13" fill="#000000">GCA_945859605.1 </text><g transform="translate(0 13)"><line x1="0" x2="965.5937500000182" y1="10" y2="10" stroke="#000000"></line><line x1="0" x2="0" y1="5" y2="15" stroke="#000000"></line><line x1="965.5937500000182" x2="965.5937500000182" y1="5" y2="15" stroke="#000000"></line><text x="482.7968750000091" y="13" text-anchor="middle" dominant-baseline="hanging" font-size="13" fill="#000000">20.8Kbp</text></g><g transform="translate(0 50)"><g><defs><clipPath id="clip-{GCA_945859605.1 }OX457036.1:2930719.0337705472..2951532.118916334-0"><rect x="0" y="0" width="965.5937500000182" height="100"></rect></clipPath></defs><g transform="translate(0 0)"><g clip-path="url(#clip-{GCA_945859605.1 }OX457036.1:2930719.0337705472..2951532.118916334-0)"><text x="4" y="13" font-size="13" fill="#000000">OX457036.1</text><g transform="translate(0 20)"><line x1="-33.35695563923968" x2="-33.35695563923968" y1="0" y2="4" stroke-width="1" stroke="#000000"></line><line x1="-14.800411006376565" x2="-14.800411006376565" y1="0" y2="4" stroke-width="1" stroke="#000000"></line><line x1="3.756133626486552" x2="3.756133626486552" y1="0" y2="4" stroke-width="1" stroke="#000000"></line><line x1="22.31267825934967" x2="22.31267825934967" y1="0" y2="4" stroke-width="1" stroke="#000000"></line><line x1="40.86922289221279" x2="40.86922289221279" y1="0" y2="4" stroke-width="1" stroke="#000000"></line><line x1="59.425767525075905" x2="59.425767525075905" y1="0" y2="6" stroke-width="1" stroke="#000000"></line><line x1="77.98231215793902" x2="77.98231215793902" y1="0" y2="4" stroke-width="1" stroke="#000000"></line><line x1="96.53885679080214" x2="96.53885679080214" y1="0" y2="4" stroke-width="1" stroke="#000000"></line><line x1="115.09540142366525" x2="115.09540142366525" y1="0" y2="4" stroke-width="1" stroke="#000000"></line><line x1="133.65194605652837" x2="133.65194605652837" y1="0" y2="4" stroke-width="1" stroke="#000000"></line><line x1="152.20849068939148" x2="152.20849068939148" y1="0" y2="4" stroke-width="1" stroke="#000000"></line><line x1="170.76503532225462" x2="170.76503532225462" y1="0" y2="4" stroke-width="1" stroke="#000000"></line><line x1="189.32157995511773" x2="189.32157995511773" y1="0" y2="4" stroke-width="1" stroke="#000000"></line><line x1="207.87812458798084" x2="207.87812458798084" y1="0" y2="4" stroke-width="1" stroke="#000000"></line><line x1="226.43466922084397" x2="226.43466922084397" y1="0" y2="4" stroke-width="1" stroke="#000000"></line><line x1="244.99121385370708" x2="244.99121385370708" y1="0" y2="6" stroke-width="1" stroke="#000000"></line><line x1="263.5477584865702" x2="263.5477584865702" y1="0" y2="4" stroke-width="1" stroke="#000000"></line><line x1="282.1043031194333" x2="282.1043031194333" y1="0" y2="4" stroke-width="1" stroke="#000000"></line><line x1="300.66084775229643" x2="300.66084775229643" y1="0" y2="4" stroke-width="1" stroke="#000000"></line><line x1="319.21739238515954" x2="319.21739238515954" y1="0" y2="4" stroke-width="1" stroke="#000000"></line><line x1="337.77393701802265" x2="337.77393701802265" y1="0" y2="4" stroke-width="1" stroke="#000000"></line><line x1="356.33048165088576" x2="356.33048165088576" y1="0" y2="4" stroke-width="1" stroke="#000000"></line><line x1="374.8870262837489" x2="374.8870262837489" y1="0" y2="4" stroke-width="1" stroke="#000000"></line><line x1="393.44357091661203" x2="393.44357091661203" y1="0" y2="4" stroke-width="1" stroke="#000000"></line><line x1="412.00011554947514" x2="412.00011554947514" y1="0" y2="4" stroke-width="1" stroke="#000000"></line><line x1="430.55666018233825" x2="430.55666018233825" y1="0" y2="6" stroke-width="1" stroke="#000000"></line><line x1="449.11320481520136" x2="449.11320481520136" y1="0" y2="4" stroke-width="1" stroke="#000000"></line><line x1="467.66974944806447" x2="467.66974944806447" y1="0" y2="4" stroke-width="1" stroke="#000000"></line><line x1="486.22629408092763" x2="486.22629408092763" y1="0" y2="4" stroke-width="1" stroke="#000000"></line><line x1="504.78283871379074" x2="504.78283871379074" y1="0" y2="4" stroke-width="1" stroke="#000000"></line><line x1="523.3393833466538" x2="523.3393833466538" y1="0" y2="4" stroke-width="1" stroke="#000000"></line><line x1="541.895927979517" x2="541.895927979517" y1="0" y2="4" stroke-width="1" stroke="#000000"></line><line x1="560.4524726123801" x2="560.4524726123801" y1="0" y2="4" stroke-width="1" stroke="#000000"></line><line x1="579.0090172452432" x2="579.0090172452432" y1="0" y2="4" stroke-width="1" stroke="#000000"></line><line x1="597.5655618781063" x2="597.5655618781063" y1="0" y2="4" stroke-width="1" stroke="#000000"></line><line x1="616.1221065109694" x2="616.1221065109694" y1="0" y2="6" stroke-width="1" stroke="#000000"></line><line x1="634.6786511438326" x2="634.6786511438326" y1="0" y2="4" stroke-width="1" stroke="#000000"></line><line x1="653.2351957766956" x2="653.2351957766956" y1="0" y2="4" stroke-width="1" stroke="#000000"></line><line x1="671.7917404095588" x2="671.7917404095588" y1="0" y2="4" stroke-width="1" stroke="#000000"></line><line x1="690.3482850424219" x2="690.3482850424219" y1="0" y2="4" stroke-width="1" stroke="#000000"></line><line x1="708.904829675285" x2="708.904829675285" y1="0" y2="4" stroke-width="1" stroke="#000000"></line><line x1="727.4613743081482" x2="727.4613743081482" y1="0" y2="4" stroke-width="1" stroke="#000000"></line><line x1="746.0179189410112" x2="746.0179189410112" y1="0" y2="4" stroke-width="1" stroke="#000000"></line><line x1="764.5744635738744" x2="764.5744635738744" y1="0" y2="4" stroke-width="1" stroke="#000000"></line><line x1="783.1310082067375" x2="783.1310082067375" y1="0" y2="4" stroke-width="1" stroke="#000000"></line><line x1="801.6875528396006" x2="801.6875528396006" y1="0" y2="6" stroke-width="1" stroke="#000000"></line><line x1="820.2440974724637" x2="820.2440974724637" y1="0" y2="4" stroke-width="1" stroke="#000000"></line><line x1="838.8006421053268" x2="838.8006421053268" y1="0" y2="4" stroke-width="1" stroke="#000000"></line><line x1="857.35718673819" x2="857.35718673819" y1="0" y2="4" stroke-width="1" stroke="#000000"></line><line x1="875.913731371053" x2="875.913731371053" y1="0" y2="4" stroke-width="1" stroke="#000000"></line><line x1="894.4702760039162" x2="894.4702760039162" y1="0" y2="4" stroke-width="1" stroke="#000000"></line><line x1="913.0268206367793" x2="913.0268206367793" y1="0" y2="4" stroke-width="1" stroke="#000000"></line><line x1="931.5833652696424" x2="931.5833652696424" y1="0" y2="4" stroke-width="1" stroke="#000000"></line><line x1="950.1399099025056" x2="950.1399099025056" y1="0" y2="4" stroke-width="1" stroke="#000000"></line><line x1="968.6964545353686" x2="968.6964545353686" y1="0" y2="4" stroke-width="1" stroke="#000000"></line><line x1="987.2529991682318" x2="987.2529991682318" y1="0" y2="6" stroke-width="1" stroke="#000000"></line><text x="56.425767525075905" y="18" font-size="11" fill="#000000">2,932,000</text><text x="241.99121385370708" y="18" font-size="11" fill="#000000">2,936,000</text><text x="427.55666018233825" y="18" font-size="11" fill="#000000">2,940,000</text><text x="613.1221065109694" y="18" font-size="11" fill="#000000">2,944,000</text><text x="798.6875528396006" y="18" font-size="11" fill="#000000">2,948,000</text><text x="984.2529991682318" y="18" font-size="11" fill="#000000">2,952,000</text></g></g></g></g></g></g></g><g transform="translate(0 100)"><g transform="translate(0 0)"><g transform="translate(0 18)"><defs><clipPath id="clip-3IDlZDj3Q0-ApaCKgeeNu-0.35575633410262464"><rect x="0" y="0" width="965.5937500000182" height="444"></rect></clipPath></defs><g transform="translate(0 0)"><g clip-path="url(#clip-3IDlZDj3Q0-ApaCKgeeNu-0.35575633410262464)"><g><g></g><g></g><g></g><g></g><g></g><g></g><g></g><g></g><g></g><g></g><g></g><g><line x1="-51" x2="-58" y1="35" y2="35" stroke="#000000"></line><polygon points="-54.5,32.5,-54.5,37.5,-58,35" stroke="#000000" fill="#000000"></polygon><rect data-testid="box--1002833003-OX457036.1-548" x="0" y="30" width="171.81770967910387" height="10" fill="goldenrod" stroke=""></rect></g><g><line x1="-51" x2="-58" y1="50" y2="50" stroke="#000000"></line><polygon points="-54.5,47.5,-54.5,52.5,-58,50" stroke="#000000" fill="#000000"></polygon><rect data-testid="box--1002833003-OX457036.1-549" x="0" y="45" width="171.81770967910387" height="10" fill="goldenrod" stroke=""></rect></g><g><line x1="-39.7" x2="-46.7" y1="5" y2="5" stroke="#000000"></line><polygon points="-43.2,2.5,-43.2,7.5,-46.7,5" stroke="#000000" fill="#000000"></polygon><rect data-testid="box--1002833003-OX457036.1-551" x="0" y="0" width="164.32920823832995" height="10" fill="goldenrod" stroke=""></rect></g><g><line x1="164.4" x2="157.4" y1="20" y2="20" stroke="#000000"></line><polygon points="160.9,17.5,160.9,22.5,157.4,20" stroke="#000000" fill="#000000"></polygon><rect data-testid="box--1002833003-OX457036.1-553" x="164.4" y="15" width="7.4690092147274045" height="10" fill="#8080FF" stroke=""></rect></g><g><line x1="171.7" x2="164.7" y1="5" y2="5" stroke="#000000"></line><polygon points="168.2,2.5,168.2,7.5,164.7,5" stroke="#000000" fill="#000000"></polygon><rect data-testid="box--1002833003-OX457036.1-554" x="171.7" y="0" width="2" height="10" fill="goldenrod" stroke=""></rect></g><g><line x1="204.6" x2="197.6" y1="5" y2="5" stroke="#000000"></line><polygon points="201.1,2.5,201.1,7.5,197.6,5" stroke="#000000" fill="#000000"></polygon><rect data-testid="box--1002833003-OX457036.1-557" x="204.6" y="0" width="2" height="10" fill="goldenrod" stroke=""></rect></g><g><line x1="204.6" x2="197.6" y1="20" y2="20" stroke="#000000"></line><polygon points="201.1,17.5,201.1,22.5,197.6,20" stroke="#000000" fill="#000000"></polygon><rect data-testid="box--1002833003-OX457036.1-555" x="204.6" y="15" width="20.319416372985113" height="10" fill="goldenrod" stroke=""></rect></g><g><line x1="204.6" x2="197.6" y1="35" y2="35" stroke="#000000"></line><polygon points="201.1,32.5,201.1,37.5,197.6,35" stroke="#000000" fill="#000000"></polygon><rect data-testid="box--1002833003-OX457036.1-556" x="204.6" y="30" width="20.319416372985113" height="10" fill="goldenrod" stroke=""></rect></g><g><line x1="204.6" x2="197.6" y1="50" y2="50" stroke="#000000"></line><polygon points="201.1,47.5,201.1,52.5,197.6,50" stroke="#000000" fill="#000000"></polygon><rect data-testid="box--1002833003-OX457036.1-558" x="204.6" y="45" width="20.319416372985113" height="10" fill="#FF8080" stroke=""></rect></g><g><line x1="224.8" x2="217.8" y1="5" y2="5" stroke="#000000"></line><polygon points="221.3,2.5,221.3,7.5,217.8,5" stroke="#000000" fill="#000000"></polygon><rect data-testid="box--1002833003-OX457036.1-559" x="224.8" y="0" width="2" height="10" fill="goldenrod" stroke=""></rect></g><g><line x1="632" x2="639" y1="5" y2="5" stroke="#000000"></line><polygon points="635.5,2.5,635.5,7.5,639,5" stroke="#000000" fill="#000000"></polygon><rect data-testid="box--1002833003-OX457036.1-562" x="631" y="0" width="2" height="10" fill="goldenrod" stroke=""></rect></g><g><line x1="637.0308770056805" x2="644.0308770056805" y1="20" y2="20" stroke="#000000"></line><polygon points="640.5308770056805,17.5,640.5308770056805,22.5,644.0308770056805,20" stroke="#000000" fill="#000000"></polygon><rect data-testid="box--1002833003-OX457036.1-570" x="631" y="15" width="6.030877005680513" height="10" fill="#FF8080" stroke=""></rect></g><g><line x1="1235.9433550313377" x2="1242.9433550313377" y1="35" y2="35" stroke="#000000"></line><polygon points="1239.4433550313377,32.5,1239.4433550313377,37.5,1242.9433550313377,35" stroke="#000000" fill="#000000"></polygon><rect data-testid="box--1002833003-OX457036.1-560" x="631" y="30" width="604.9433550313377" height="10" fill="goldenrod" stroke=""></rect></g><g><line x1="1235.9433550313377" x2="1242.9433550313377" y1="50" y2="50" stroke="#000000"></line><polygon points="1239.4433550313377,47.5,1239.4433550313377,52.5,1242.9433550313377,50" stroke="#000000" fill="#000000"></polygon><rect data-testid="box--1002833003-OX457036.1-561" x="631" y="45" width="604.9433550313377" height="10" fill="goldenrod" stroke=""></rect></g><g><line x1="659.4070276441822" x2="666.4070276441822" y1="5" y2="5" stroke="#000000"></line><polygon points="662.9070276441822,2.5,662.9070276441822,7.5,666.4070276441822,5" stroke="#000000" fill="#000000"></polygon><rect data-testid="box--1002833003-OX457036.1-563" x="637" y="0" width="22.407027644182214" height="10" fill="goldenrod" stroke=""></rect></g><g><line x1="662.9329607570796" x2="669.9329607570796" y1="20" y2="20" stroke="#000000"></line><polygon points="666.4329607570796,17.5,666.4329607570796,22.5,669.9329607570796,20" stroke="#000000" fill="#000000"></polygon><rect data-testid="box--1002833003-OX457036.1-571" x="659.5" y="15" width="3.4329607570796767" height="10" fill="#FF8080" stroke=""></rect></g><g><line x1="689.946163802398" x2="696.946163802398" y1="65" y2="65" stroke="#000000"></line><polygon points="693.446163802398,62.5,693.446163802398,67.5,696.946163802398,65" stroke="#000000" fill="#000000"></polygon><rect data-testid="box--1002833003-OX457036.1-564" x="662.9" y="60" width="27.046163802397995" height="10" fill="goldenrod" stroke=""></rect></g><g><line x1="693.5185262034083" x2="700.5185262034083" y1="5" y2="5" stroke="#000000"></line><polygon points="697.0185262034083,2.5,697.0185262034083,7.5,700.5185262034083,5" stroke="#000000" fill="#000000"></polygon><rect data-testid="box--1002833003-OX457036.1-572" x="689.9" y="0" width="3.618526203408308" height="10" fill="#80FF80" stroke=""></rect></g><g><line x1="772.4189233280861" x2="779.4189233280861" y1="20" y2="20" stroke="#000000"></line><polygon points="775.9189233280861,17.5,775.9189233280861,22.5,779.4189233280861,20" stroke="#000000" fill="#000000"></polygon><rect data-testid="box--1002833003-OX457036.1-565" x="693.6" y="15" width="78.81892332808609" height="10" fill="goldenrod" stroke=""></rect></g><g><line x1="777.966963389859" x2="784.966963389859" y1="5" y2="5" stroke="#000000"></line><polygon points="781.466963389859,2.5,781.466963389859,7.5,784.966963389859,5" stroke="#000000" fill="#000000"></polygon><rect data-testid="box--1002833003-OX457036.1-573" x="772.4" y="0" width="5.566963389858935" height="10" fill="#8080FF" stroke=""></rect></g><g><line x1="824.059404774247" x2="831.059404774247" y1="20" y2="20" stroke="#000000"></line><polygon points="827.559404774247,17.5,827.559404774247,22.5,831.059404774247,20" stroke="#000000" fill="#000000"></polygon><rect data-testid="box--1002833003-OX457036.1-566" x="777.9" y="15" width="46.159404774247" height="10" fill="goldenrod" stroke=""></rect></g><g><line x1="831.8473573842203" x2="838.8473573842203" y1="5" y2="5" stroke="#000000"></line><polygon points="835.3473573842203,2.5,835.3473573842203,7.5,838.8473573842203,5" stroke="#000000" fill="#000000"></polygon><rect data-testid="box--1002833003-OX457036.1-574" x="824.1" y="0" width="7.747357384220352" height="10" fill="#80FF80" stroke=""></rect></g><g><line x1="936.6908685372587" x2="943.6908685372587" y1="20" y2="20" stroke="#000000"></line><polygon points="940.1908685372587,17.5,940.1908685372587,22.5,943.6908685372587,20" stroke="#000000" fill="#000000"></polygon><rect data-testid="box--1002833003-OX457036.1-567" x="831.8" y="15" width="104.89086853725877" height="10" fill="goldenrod" stroke=""></rect></g><g><line x1="939.7154385028404" x2="946.7154385028404" y1="5" y2="5" stroke="#000000"></line><polygon points="943.2154385028404,2.5,943.2154385028404,7.5,946.7154385028404,5" stroke="#000000" fill="#000000"></polygon><rect data-testid="box--1002833003-OX457036.1-575" x="936.7" y="0" width="3.0154385028402566" height="10" fill="#FF8080" stroke=""></rect></g><g><line x1="1140.7137697354897" x2="1147.7137697354897" y1="65" y2="65" stroke="#000000"></line><polygon points="1144.2137697354897,62.5,1144.2137697354897,67.5,1147.7137697354897,65" stroke="#000000" fill="#000000"></polygon><rect data-testid="box--1002833003-OX457036.1-568" x="939.7" y="60" width="201.01376973548972" height="10" fill="goldenrod" stroke=""></rect></g><g><line x1="1144.2329607570796" x2="1151.2329607570796" y1="5" y2="5" stroke="#000000"></line><polygon points="1147.7329607570796,2.5,1147.7329607570796,7.5,1151.2329607570796,5" stroke="#000000" fill="#000000"></polygon><rect data-testid="box--1002833003-OX457036.1-576" x="1140.8" y="0" width="3.4329607570796767" height="10" fill="#80FF80" stroke=""></rect></g><g><line x1="1232.7611092603393" x2="1239.7611092603393" y1="20" y2="20" stroke="#000000"></line><polygon points="1236.2611092603393,17.5,1236.2611092603393,22.5,1239.7611092603393,20" stroke="#000000" fill="#000000"></polygon><rect data-testid="box--1002833003-OX457036.1-569" x="1144.2" y="15" width="88.56110926033922" height="10" fill="goldenrod" stroke=""></rect></g><g><line x1="1236.0010039491688" x2="1243.0010039491688" y1="5" y2="5" stroke="#000000"></line><polygon points="1239.5010039491688,2.5,1239.5010039491688,7.5,1243.0010039491688,5" stroke="#000000" fill="#000000"></polygon><rect data-testid="box--1002833003-OX457036.1-577" x="1232.8" y="0" width="3.2010039491688875" height="10" fill="#8080FF" stroke=""></rect></g><g><line x1="1236.8" x2="1243.8" y1="65" y2="65" stroke="#000000"></line><polygon points="1240.3,62.5,1240.3,67.5,1243.8,65" stroke="#000000" fill="#000000"></polygon><rect data-testid="box--1002833003-OX457036.1-578" x="1235.8" y="60" width="2" height="10" fill="goldenrod" stroke=""></rect></g><g><line x1="1405.5" x2="1398.5" y1="5" y2="5" stroke="#000000"></line><polygon points="1402,2.5,1402,7.5,1398.5,5" stroke="#000000" fill="#000000"></polygon><rect data-testid="box--1002833003-OX457036.1-581" x="1405.5" y="0" width="2" height="10" fill="goldenrod" stroke=""></rect></g><g><line x1="1405.5" x2="1398.5" y1="20" y2="20" stroke="#000000"></line><polygon points="1402,17.5,1402,22.5,1398.5,20" stroke="#000000" fill="#000000"></polygon><rect data-testid="box--1002833003-OX457036.1-579" x="1405.5" y="15" width="56.087156152828776" height="10" fill="goldenrod" stroke=""></rect></g><g><line x1="1405.5" x2="1398.5" y1="35" y2="35" stroke="#000000"></line><polygon points="1402,32.5,1402,37.5,1398.5,35" stroke="#000000" fill="#000000"></polygon><rect data-testid="box--1002833003-OX457036.1-580" x="1405.5" y="30" width="56.087156152828776" height="10" fill="goldenrod" stroke=""></rect></g><g><line x1="1405.5" x2="1398.5" y1="50" y2="50" stroke="#000000"></line><polygon points="1402,47.5,1402,52.5,1398.5,50" stroke="#000000" fill="#000000"></polygon><rect data-testid="box--1002833003-OX457036.1-582" x="1405.5" y="45" width="56.087156152828776" height="10" fill="#8080FF" stroke=""></rect></g><g><line x1="1461.4" x2="1454.4" y1="5" y2="5" stroke="#000000"></line><polygon points="1457.9,2.5,1457.9,7.5,1454.4,5" stroke="#000000" fill="#000000"></polygon><rect data-testid="box--1002833003-OX457036.1-583" x="1461.4" y="0" width="2" height="10" fill="goldenrod" stroke=""></rect></g></g></g></g></g><g><text x="0" y="5" fill="#000000" font-size="13" dominant-baseline="hanging">augustus.worm.lumter.2-3mb.gff</text></g></g><g transform="translate(0 462)"><g transform="translate(0 18)"><defs><clipPath id="clip-htGuAc_enpIH9ebo0fbGF-0.26855357463848994"><rect x="0" y="0" width="965.5937500000182" height="100"></rect></clipPath></defs><g transform="translate(0 0)"><g clip-path="url(#clip-htGuAc_enpIH9ebo0fbGF-0.26855357463848994)"><g><g><line data-testid="425862032-OX457036.1-34-0" x1="204.6" y1="5" y2="5" x2="224.9194163729851" stroke="#000000"></line><rect data-testid="box-425862032-OX457036.1-34-0-1" x="204.6" y="0" width="20.319416372985113" height="10" fill="#FF8080" stroke=""></rect><line x1="204.6" x2="197.6" y1="5" y2="5" stroke="#000000"></line><polygon points="201.1,2.5,201.1,7.5,197.6,5" stroke="#000000" fill="#000000"></polygon><text x="204.6" y="22" fill="#000000" font-size="12">g35</text></g><g><line data-testid="425862032-OX457036.1-35-0" x1="363.4" y1="5" y2="5" x2="1163.326247761147" stroke="#000000"></line><rect data-testid="box-425862032-OX457036.1-35-0-9" x="363.4" y="0" width="3.386569395497519" height="10" fill="#80FF80" stroke=""></rect><rect data-testid="box-425862032-OX457036.1-35-0-10" x="630.057546374243" y="0" width="6.958704237323669" height="10" fill="#FF8080" stroke=""></rect><rect data-testid="box-425862032-OX457036.1-35-0-11" x="659.4232782557489" y="0" width="3.4329607570796767" height="10" fill="#FF8080" stroke=""></rect><rect data-testid="box-425862032-OX457036.1-35-0-12" x="689.9024028152265" y="0" width="3.618526203408308" height="10" fill="#80FF80" stroke=""></rect><rect data-testid="box-425862032-OX457036.1-35-0-13" x="772.3398523467209" y="0" width="5.566963389858935" height="10" fill="#8080FF" stroke=""></rect><rect data-testid="box-425862032-OX457036.1-35-0-14" x="824.0662205108268" y="0" width="7.747357384220352" height="10" fill="#80FF80" stroke=""></rect><rect data-testid="box-425862032-OX457036.1-35-0-15" x="936.704446432306" y="0" width="4.268005265558517" height="10" fill="#FF8080" stroke=""></rect><rect data-testid="box-425862032-OX457036.1-35-0-16" x="1140.733654670636" y="0" width="3.4329607570796767" height="10" fill="#80FF80" stroke=""></rect><rect data-testid="box-425862032-OX457036.1-35-0-17" x="1162.0736809984287" y="0" width="2" height="10" fill="#FF8080" stroke=""></rect><line x1="1163.326247761147" x2="1170.326247761147" y1="5" y2="5" stroke="#000000"></line><polygon points="1166.826247761147,2.5,1166.826247761147,7.5,1170.326247761147,5" stroke="#000000" fill="#000000"></polygon><text x="363.4" y="22" fill="#000000" font-size="12">g36</text></g><g><line data-testid="425862032-OX457036.1-36-0" x1="1405.5" y1="5" y2="5" x2="1462.283026576561" stroke="#000000"></line><rect data-testid="box-425862032-OX457036.1-36-0-1" x="1405.5" y="0" width="56.78302657656114" height="10" fill="#8080FF" stroke=""></rect><line x1="1405.5" x2="1398.5" y1="5" y2="5" stroke="#000000"></line><polygon points="1402,2.5,1402,7.5,1398.5,5" stroke="#000000" fill="#000000"></polygon><text x="1405.5" y="22" fill="#000000" font-size="12">g37</text></g></g></g></g></g><g><text x="0" y="5" fill="#000000" font-size="13" dominant-baseline="hanging">augustus.prothints.gff3</text></g></g></g></g></svg>