<svg width="965.59375" height="780" xmlns="http://www.w3.org/2000/svg" xmlns:xlink="http://www.w3.org/1999/xlink" viewBox="0,0,1065.59375,780"><rect width="1065.59375" height="780" fill="#ffffff"></rect><g transform="translate(50 0)"><g transform="translate(0)"><g id="header"><text x="0" y="0" dominant-baseline="hanging" font-size="13" fill="#000000">GCA_945859605.1 </text><g transform="translate(0 13)"><line x1="0" x2="965.5937499999966" y1="10" y2="10" stroke="#000000"></line><line x1="0" x2="0" y1="5" y2="15" stroke="#000000"></line><line x1="965.5937499999966" x2="965.5937499999966" y1="5" y2="15" stroke="#000000"></line><text x="482.7968749999983" y="13" text-anchor="middle" dominant-baseline="hanging" font-size="13" fill="#000000">20.8Kbp</text></g><g transform="translate(0 50)"><g><defs><clipPath id="clip-{GCA_945859605.1 }OX457036.1:2954430.3447233834..2975243.42986917-0"><rect x="0" y="0" width="965.5937499999966" height="100"></rect></clipPath></defs><g transform="translate(0 0)"><g clip-path="url(#clip-{GCA_945859605.1 }OX457036.1:2954430.3447233834..2975243.42986917-0)"><text x="4" y="13" font-size="13" fill="#000000">OX457036.1</text><g transform="translate(0 20)"><line x1="-38.52082230031751" x2="-38.52082230031751" y1="0" y2="4" stroke-width="1" stroke="#000000"></line><line x1="-19.964277667454397" x2="-19.964277667454397" y1="0" y2="4" stroke-width="1" stroke="#000000"></line><line x1="-1.407733034591278" x2="-1.407733034591278" y1="0" y2="4" stroke-width="1" stroke="#000000"></line><line x1="17.14881159827184" x2="17.14881159827184" y1="0" y2="4" stroke-width="1" stroke="#000000"></line><line x1="35.70535623113496" x2="35.70535623113496" y1="0" y2="4" stroke-width="1" stroke="#000000"></line><line x1="54.26190086399807" x2="54.26190086399807" y1="0" y2="4" stroke-width="1" stroke="#000000"></line><line x1="72.81844549686119" x2="72.81844549686119" y1="0" y2="6" stroke-width="1" stroke="#000000"></line><line x1="91.37499012972431" x2="91.37499012972431" y1="0" y2="4" stroke-width="1" stroke="#000000"></line><line x1="109.93153476258743" x2="109.93153476258743" y1="0" y2="4" stroke-width="1" stroke="#000000"></line><line x1="128.48807939545054" x2="128.48807939545054" y1="0" y2="4" stroke-width="1" stroke="#000000"></line><line x1="147.04462402831365" x2="147.04462402831365" y1="0" y2="4" stroke-width="1" stroke="#000000"></line><line x1="165.60116866117679" x2="165.60116866117679" y1="0" y2="4" stroke-width="1" stroke="#000000"></line><line x1="184.1577132940399" x2="184.1577132940399" y1="0" y2="4" stroke-width="1" stroke="#000000"></line><line x1="202.714257926903" x2="202.714257926903" y1="0" y2="4" stroke-width="1" stroke="#000000"></line><line x1="221.27080255976614" x2="221.27080255976614" y1="0" y2="4" stroke-width="1" stroke="#000000"></line><line x1="239.82734719262925" x2="239.82734719262925" y1="0" y2="4" stroke-width="1" stroke="#000000"></line><line x1="258.38389182549236" x2="258.38389182549236" y1="0" y2="6" stroke-width="1" stroke="#000000"></line><line x1="276.94043645835546" x2="276.94043645835546" y1="0" y2="4" stroke-width="1" stroke="#000000"></line><line x1="295.4969810912186" x2="295.4969810912186" y1="0" y2="4" stroke-width="1" stroke="#000000"></line><line x1="314.05352572408174" x2="314.05352572408174" y1="0" y2="4" stroke-width="1" stroke="#000000"></line><line x1="332.61007035694485" x2="332.61007035694485" y1="0" y2="4" stroke-width="1" stroke="#000000"></line><line x1="351.16661498980795" x2="351.16661498980795" y1="0" y2="4" stroke-width="1" stroke="#000000"></line><line x1="369.72315962267106" x2="369.72315962267106" y1="0" y2="4" stroke-width="1" stroke="#000000"></line><line x1="388.27970425553417" x2="388.27970425553417" y1="0" y2="4" stroke-width="1" stroke="#000000"></line><line x1="406.8362488883973" x2="406.8362488883973" y1="0" y2="4" stroke-width="1" stroke="#000000"></line><line x1="425.39279352126044" x2="425.39279352126044" y1="0" y2="4" stroke-width="1" stroke="#000000"></line><line x1="443.94933815412355" x2="443.94933815412355" y1="0" y2="6" stroke-width="1" stroke="#000000"></line><line x1="462.50588278698666" x2="462.50588278698666" y1="0" y2="4" stroke-width="1" stroke="#000000"></line><line x1="481.06242741984977" x2="481.06242741984977" y1="0" y2="4" stroke-width="1" stroke="#000000"></line><line x1="499.6189720527129" x2="499.6189720527129" y1="0" y2="4" stroke-width="1" stroke="#000000"></line><line x1="518.175516685576" x2="518.175516685576" y1="0" y2="4" stroke-width="1" stroke="#000000"></line><line x1="536.7320613184392" x2="536.7320613184392" y1="0" y2="4" stroke-width="1" stroke="#000000"></line><line x1="555.2886059513022" x2="555.2886059513022" y1="0" y2="4" stroke-width="1" stroke="#000000"></line><line x1="573.8451505841654" x2="573.8451505841654" y1="0" y2="4" stroke-width="1" stroke="#000000"></line><line x1="592.4016952170285" x2="592.4016952170285" y1="0" y2="4" stroke-width="1" stroke="#000000"></line><line x1="610.9582398498916" x2="610.9582398498916" y1="0" y2="4" stroke-width="1" stroke="#000000"></line><line x1="629.5147844827547" x2="629.5147844827547" y1="0" y2="6" stroke-width="1" stroke="#000000"></line><line x1="648.0713291156178" x2="648.0713291156178" y1="0" y2="4" stroke-width="1" stroke="#000000"></line><line x1="666.627873748481" x2="666.627873748481" y1="0" y2="4" stroke-width="1" stroke="#000000"></line><line x1="685.184418381344" x2="685.184418381344" y1="0" y2="4" stroke-width="1" stroke="#000000"></line><line x1="703.7409630142072" x2="703.7409630142072" y1="0" y2="4" stroke-width="1" stroke="#000000"></line><line x1="722.2975076470703" x2="722.2975076470703" y1="0" y2="4" stroke-width="1" stroke="#000000"></line><line x1="740.8540522799334" x2="740.8540522799334" y1="0" y2="4" stroke-width="1" stroke="#000000"></line><line x1="759.4105969127966" x2="759.4105969127966" y1="0" y2="4" stroke-width="1" stroke="#000000"></line><line x1="777.9671415456596" x2="777.9671415456596" y1="0" y2="4" stroke-width="1" stroke="#000000"></line><line x1="796.5236861785228" x2="796.5236861785228" y1="0" y2="4" stroke-width="1" stroke="#000000"></line><line x1="815.0802308113858" x2="815.0802308113858" y1="0" y2="6" stroke-width="1" stroke="#000000"></line><line x1="833.636775444249" x2="833.636775444249" y1="0" y2="4" stroke-width="1" stroke="#000000"></line><line x1="852.1933200771122" x2="852.1933200771122" y1="0" y2="4" stroke-width="1" stroke="#000000"></line><line x1="870.7498647099752" x2="870.7498647099752" y1="0" y2="4" stroke-width="1" stroke="#000000"></line><line x1="889.3064093428384" x2="889.3064093428384" y1="0" y2="4" stroke-width="1" stroke="#000000"></line><line x1="907.8629539757014" x2="907.8629539757014" y1="0" y2="4" stroke-width="1" stroke="#000000"></line><line x1="926.4194986085646" x2="926.4194986085646" y1="0" y2="4" stroke-width="1" stroke="#000000"></line><line x1="944.9760432414278" x2="944.9760432414278" y1="0" y2="4" stroke-width="1" stroke="#000000"></line><line x1="963.5325878742908" x2="963.5325878742908" y1="0" y2="4" stroke-width="1" stroke="#000000"></line><line x1="982.089132507154" x2="982.089132507154" y1="0" y2="4" stroke-width="1" stroke="#000000"></line><line x1="1000.645677140017" x2="1000.645677140017" y1="0" y2="6" stroke-width="1" stroke="#000000"></line><text x="69.81844549686119" y="18" font-size="11" fill="#000000">2,956,000</text><text x="255.38389182549236" y="18" font-size="11" fill="#000000">2,960,000</text><text x="440.94933815412355" y="18" font-size="11" fill="#000000">2,964,000</text><text x="626.5147844827547" y="18" font-size="11" fill="#000000">2,968,000</text><text x="812.0802308113858" y="18" font-size="11" fill="#000000">2,972,000</text><text x="997.645677140017" y="18" font-size="11" fill="#000000">2,976,000</text></g></g></g></g></g></g></g><g transform="translate(0 100)"><g transform="translate(0 0)"><g transform="translate(0 18)"><defs><clipPath id="clip-3IDlZDj3Q0-ApaCKgeeNu-0.36219196981823387"><rect x="0" y="0" width="965.5937499999966" height="444"></rect></clipPath></defs><g transform="translate(0 0)"><g clip-path="url(#clip-3IDlZDj3Q0-ApaCKgeeNu-0.36219196981823387)"><g><g></g><g></g><g><line x1="135.94335503133766" x2="142.94335503133766" y1="35" y2="35" stroke="#000000"></line><polygon points="139.44335503133766,32.5,139.44335503133766,37.5,142.94335503133766,35" stroke="#000000" fill="#000000"></polygon><rect data-testid="box--1002833003-OX457036.1-560" x="0" y="30" width="135.94335503133766" height="10" fill="goldenrod" stroke=""></rect></g><g><line x1="135.94335503133766" x2="142.94335503133766" y1="50" y2="50" stroke="#000000"></line><polygon points="139.44335503133766,47.5,139.44335503133766,52.5,142.94335503133766,50" stroke="#000000" fill="#000000"></polygon><rect data-testid="box--1002833003-OX457036.1-561" x="0" y="45" width="135.94335503133766" height="10" fill="goldenrod" stroke=""></rect></g><g></g><g></g><g></g><g></g><g></g><g></g><g></g><g></g><g></g><g></g><g><line x1="40.81376973548973" x2="47.81376973548973" y1="65" y2="65" stroke="#000000"></line><polygon points="44.31376973548973,62.5,44.31376973548973,67.5,47.81376973548973,65" stroke="#000000" fill="#000000"></polygon><rect data-testid="box--1002833003-OX457036.1-568" x="0" y="60" width="40.81376973548973" height="10" fill="goldenrod" stroke=""></rect></g><g><line x1="44.232960757079674" x2="51.232960757079674" y1="5" y2="5" stroke="#000000"></line><polygon points="47.732960757079674,2.5,47.732960757079674,7.5,51.232960757079674,5" stroke="#000000" fill="#000000"></polygon><rect data-testid="box--1002833003-OX457036.1-576" x="40.8" y="0" width="3.4329607570796767" height="10" fill="#80FF80" stroke=""></rect></g><g><line x1="132.76110926033923" x2="139.76110926033923" y1="20" y2="20" stroke="#000000"></line><polygon points="136.26110926033923,17.5,136.26110926033923,22.5,139.76110926033923,20" stroke="#000000" fill="#000000"></polygon><rect data-testid="box--1002833003-OX457036.1-569" x="44.2" y="15" width="88.56110926033922" height="10" fill="goldenrod" stroke=""></rect></g><g><line x1="136.0010039491689" x2="143.0010039491689" y1="5" y2="5" stroke="#000000"></line><polygon points="139.5010039491689,2.5,139.5010039491689,7.5,143.0010039491689,5" stroke="#000000" fill="#000000"></polygon><rect data-testid="box--1002833003-OX457036.1-577" x="132.8" y="0" width="3.2010039491688875" height="10" fill="#8080FF" stroke=""></rect></g><g><line x1="136.8" x2="143.8" y1="65" y2="65" stroke="#000000"></line><polygon points="140.3,62.5,140.3,67.5,143.8,65" stroke="#000000" fill="#000000"></polygon><rect data-testid="box--1002833003-OX457036.1-578" x="135.8" y="60" width="2" height="10" fill="goldenrod" stroke=""></rect></g><g><line x1="305.5" x2="298.5" y1="5" y2="5" stroke="#000000"></line><polygon points="302,2.5,302,7.5,298.5,5" stroke="#000000" fill="#000000"></polygon><rect data-testid="box--1002833003-OX457036.1-581" x="305.5" y="0" width="2" height="10" fill="goldenrod" stroke=""></rect></g><g><line x1="305.5" x2="298.5" y1="20" y2="20" stroke="#000000"></line><polygon points="302,17.5,302,22.5,298.5,20" stroke="#000000" fill="#000000"></polygon><rect data-testid="box--1002833003-OX457036.1-579" x="305.5" y="15" width="56.087156152828776" height="10" fill="goldenrod" stroke=""></rect></g><g><line x1="305.5" x2="298.5" y1="35" y2="35" stroke="#000000"></line><polygon points="302,32.5,302,37.5,298.5,35" stroke="#000000" fill="#000000"></polygon><rect data-testid="box--1002833003-OX457036.1-580" x="305.5" y="30" width="56.087156152828776" height="10" fill="goldenrod" stroke=""></rect></g><g><line x1="305.5" x2="298.5" y1="50" y2="50" stroke="#000000"></line><polygon points="302,47.5,302,52.5,298.5,50" stroke="#000000" fill="#000000"></polygon><rect data-testid="box--1002833003-OX457036.1-582" x="305.5" y="45" width="56.087156152828776" height="10" fill="#8080FF" stroke=""></rect></g><g><line x1="361.4" x2="354.4" y1="5" y2="5" stroke="#000000"></line><polygon points="357.9,2.5,357.9,7.5,354.4,5" stroke="#000000" fill="#000000"></polygon><rect data-testid="box--1002833003-OX457036.1-583" x="361.4" y="0" width="2" height="10" fill="goldenrod" stroke=""></rect></g><g><line x1="1038.1" x2="1031.1" y1="5" y2="5" stroke="#000000"></line><polygon points="1034.6,2.5,1034.6,7.5,1031.1,5" stroke="#000000" fill="#000000"></polygon><rect data-testid="box--1002833003-OX457036.1-586" x="1038.1" y="0" width="2" height="10" fill="goldenrod" stroke=""></rect></g><g><line x1="1038.1" x2="1031.1" y1="20" y2="20" stroke="#000000"></line><polygon points="1034.6,17.5,1034.6,22.5,1031.1,20" stroke="#000000" fill="#000000"></polygon><rect data-testid="box--1002833003-OX457036.1-590" x="1038.1" y="15" width="9.27827231643156" height="10" fill="#FF8080" stroke=""></rect></g><g><line x1="1038.1" x2="1031.1" y1="35" y2="35" stroke="#000000"></line><polygon points="1034.6,32.5,1034.6,37.5,1031.1,35" stroke="#000000" fill="#000000"></polygon><rect data-testid="box--1002833003-OX457036.1-584" x="1038.1" y="30" width="280.9460857415476" height="10" fill="goldenrod" stroke=""></rect></g><g><line x1="1038.1" x2="1031.1" y1="50" y2="50" stroke="#000000"></line><polygon points="1034.6,47.5,1034.6,52.5,1031.1,50" stroke="#000000" fill="#000000"></polygon><rect data-testid="box--1002833003-OX457036.1-585" x="1038.1" y="45" width="280.9460857415476" height="10" fill="goldenrod" stroke=""></rect></g><g><line x1="1047.4" x2="1040.4" y1="5" y2="5" stroke="#000000"></line><polygon points="1043.9,2.5,1043.9,7.5,1040.4,5" stroke="#000000" fill="#000000"></polygon><rect data-testid="box--1002833003-OX457036.1-587" x="1047.4" y="0" width="47.922276514369" height="10" fill="goldenrod" stroke=""></rect></g><g><line x1="1095.3" x2="1088.3" y1="20" y2="20" stroke="#000000"></line><polygon points="1091.8,17.5,1091.8,22.5,1088.3,20" stroke="#000000" fill="#000000"></polygon><rect data-testid="box--1002833003-OX457036.1-591" x="1095.3" y="15" width="7.840140107384667" height="10" fill="#80FF80" stroke=""></rect></g><g><line x1="1103.2" x2="1096.2" y1="5" y2="5" stroke="#000000"></line><polygon points="1099.7,2.5,1099.7,7.5,1096.2,5" stroke="#000000" fill="#000000"></polygon><rect data-testid="box--1002833003-OX457036.1-588" x="1103.2" y="0" width="47.08723200589016" height="10" fill="goldenrod" stroke=""></rect></g><g><line x1="1150.3" x2="1143.3" y1="20" y2="20" stroke="#000000"></line><polygon points="1146.8,17.5,1146.8,22.5,1143.3,20" stroke="#000000" fill="#000000"></polygon><rect data-testid="box--1002833003-OX457036.1-592" x="1150.3" y="15" width="122.42680321531442" height="10" fill="#8080FF" stroke=""></rect></g><g><line x1="1272.7" x2="1265.7" y1="5" y2="5" stroke="#000000"></line><polygon points="1269.2,2.5,1269.2,7.5,1265.7,5" stroke="#000000" fill="#000000"></polygon><rect data-testid="box--1002833003-OX457036.1-589" x="1272.7" y="0" width="2" height="10" fill="goldenrod" stroke=""></rect></g><g><line x1="1274.6" x2="1267.6" y1="65" y2="65" stroke="#000000"></line><polygon points="1271.1,62.5,1271.1,67.5,1267.6,65" stroke="#000000" fill="#000000"></polygon><rect data-testid="box--1002833003-OX457036.1-593" x="1274.6" y="60" width="44.442924395707166" height="10" fill="#8080FF" stroke=""></rect></g><g><line x1="1319" x2="1312" y1="5" y2="5" stroke="#000000"></line><polygon points="1315.5,2.5,1315.5,7.5,1312,5" stroke="#000000" fill="#000000"></polygon><rect data-testid="box--1002833003-OX457036.1-594" x="1319" y="0" width="2" height="10" fill="goldenrod" stroke=""></rect></g><g><line x1="1340.2" x2="1333.2" y1="5" y2="5" stroke="#000000"></line><polygon points="1336.7,2.5,1336.7,7.5,1333.2,5" stroke="#000000" fill="#000000"></polygon><rect data-testid="box--1002833003-OX457036.1-597" x="1340.2" y="0" width="2" height="10" fill="goldenrod" stroke=""></rect></g><g><line x1="1340.2" x2="1333.2" y1="20" y2="20" stroke="#000000"></line><polygon points="1336.7,17.5,1336.7,22.5,1333.2,20" stroke="#000000" fill="#000000"></polygon><rect data-testid="box--1002833003-OX457036.1-595" x="1340.2" y="15" width="39.66461415274491" height="10" fill="goldenrod" stroke=""></rect></g><g><line x1="1340.2" x2="1333.2" y1="35" y2="35" stroke="#000000"></line><polygon points="1336.7,32.5,1336.7,37.5,1333.2,35" stroke="#000000" fill="#000000"></polygon><rect data-testid="box--1002833003-OX457036.1-596" x="1340.2" y="30" width="39.66461415274491" height="10" fill="goldenrod" stroke=""></rect></g><g><line x1="1340.2" x2="1333.2" y1="50" y2="50" stroke="#000000"></line><polygon points="1336.7,47.5,1336.7,52.5,1333.2,50" stroke="#000000" fill="#000000"></polygon><rect data-testid="box--1002833003-OX457036.1-598" x="1340.2" y="45" width="39.66461415274491" height="10" fill="#8080FF" stroke=""></rect></g><g><line x1="1379.8" x2="1372.8" y1="5" y2="5" stroke="#000000"></line><polygon points="1376.3,2.5,1376.3,7.5,1372.8,5" stroke="#000000" fill="#000000"></polygon><rect data-testid="box--1002833003-OX457036.1-599" x="1379.8" y="0" width="2" height="10" fill="goldenrod" stroke=""></rect></g></g></g></g></g><g><text x="0" y="5" fill="#000000" font-size="13" dominant-baseline="hanging">augustus.worm.lumter.2-3mb.gff</text></g></g><g transform="translate(0 462)"><g transform="translate(0 18)"><defs><clipPath id="clip-htGuAc_enpIH9ebo0fbGF-0.373287193909271"><rect x="0" y="0" width="965.5937499999966" height="100"></rect></clipPath></defs><g transform="translate(0 0)"><g clip-path="url(#clip-htGuAc_enpIH9ebo0fbGF-0.373287193909271)"><g><g><line data-testid="425862032-OX457036.1-35-0" x1="-736.6" y1="5" y2="5" x2="63.326247761146874" stroke="#000000"></line><rect data-testid="box-425862032-OX457036.1-35-0-16" x="40.73365467063593" y="0" width="3.4329607570796767" height="10" fill="#80FF80" stroke=""></rect><rect data-testid="box-425862032-OX457036.1-35-0-17" x="62.073680998428586" y="0" width="2" height="10" fill="#FF8080" stroke=""></rect><line x1="63.326247761146874" x2="70.32624776114687" y1="5" y2="5" stroke="#000000"></line><polygon points="66.82624776114687,2.5,66.82624776114687,7.5,70.32624776114687,5" stroke="#000000" fill="#000000"></polygon><text x="0" y="22" fill="#000000" font-size="12">g36</text></g><g><line data-testid="425862032-OX457036.1-36-0" x1="305.5" y1="5" y2="5" x2="362.28302657656116" stroke="#000000"></line><rect data-testid="box-425862032-OX457036.1-36-0-1" x="305.5" y="0" width="56.78302657656114" height="10" fill="#8080FF" stroke=""></rect><line x1="305.5" x2="298.5" y1="5" y2="5" stroke="#000000"></line><polygon points="302,2.5,302,7.5,298.5,5" stroke="#000000" fill="#000000"></polygon><text x="305.5" y="22" fill="#000000" font-size="12">g37</text></g><g><line data-testid="425862032-OX457036.1-37-0" x1="1034.8" y1="5" y2="5" x2="1319.132655137045" stroke="#000000"></line><rect data-testid="box-425862032-OX457036.1-37-0-3" x="1034.8" y="0" width="10.113316824910399" height="10" fill="#8080FF" stroke=""></rect><rect data-testid="box-425862032-OX457036.1-37-0-4" x="1150.1289248932442" y="0" width="122.61236866164305" height="10" fill="#8080FF" stroke=""></rect><rect data-testid="box-425862032-OX457036.1-37-0-5" x="1274.6897307413378" y="0" width="44.442924395707166" height="10" fill="#8080FF" stroke=""></rect><line x1="1034.8" x2="1027.8" y1="5" y2="5" stroke="#000000"></line><polygon points="1031.3,2.5,1031.3,7.5,1027.8,5" stroke="#000000" fill="#000000"></polygon><text x="1034.8" y="22" fill="#000000" font-size="12">g38</text></g></g></g></g></g><g><text x="0" y="5" fill="#000000" font-size="13" dominant-baseline="hanging">augustus.prothints.gff3</text></g></g></g></g></svg>