<svg width="965.59375" height="780" xmlns="http://www.w3.org/2000/svg" xmlns:xlink="http://www.w3.org/1999/xlink" viewBox="0,0,1065.59375,780"><rect width="1065.59375" height="780" fill="#ffffff"></rect><g transform="translate(50 0)"><g transform="translate(0)"><g id="header"><text x="0" y="0" dominant-baseline="hanging" font-size="13" fill="#000000">GCA_945859605.1 </text><g transform="translate(0 13)"><line x1="0" x2="965.5937499999966" y1="10" y2="10" stroke="#000000"></line><line x1="0" x2="0" y1="5" y2="15" stroke="#000000"></line><line x1="965.5937499999966" x2="965.5937499999966" y1="5" y2="15" stroke="#000000"></line><text x="482.7968749999983" y="13" text-anchor="middle" dominant-baseline="hanging" font-size="13" fill="#000000">20.8Kbp</text></g><g transform="translate(0 50)"><g><defs><clipPath id="clip-{GCA_945859605.1 }OX457036.1:2971114.485339288..2991927.5704850745-0"><rect x="0" y="0" width="965.5937499999966" height="100"></rect></clipPath></defs><g transform="translate(0 0)"><g clip-path="url(#clip-{GCA_945859605.1 }OX457036.1:2971114.485339288..2991927.5704850745-0)"><text x="4" y="13" font-size="13" fill="#000000">OX457036.1</text><g transform="translate(0 20)"><line x1="-33.14594772006652" x2="-33.14594772006652" y1="0" y2="4" stroke-width="1" stroke="#000000"></line><line x1="-14.589403087203404" x2="-14.589403087203404" y1="0" y2="4" stroke-width="1" stroke="#000000"></line><line x1="3.9671415456597128" x2="3.9671415456597128" y1="0" y2="4" stroke-width="1" stroke="#000000"></line><line x1="22.52368617852283" x2="22.52368617852283" y1="0" y2="4" stroke-width="1" stroke="#000000"></line><line x1="41.080230811385945" x2="41.080230811385945" y1="0" y2="6" stroke-width="1" stroke="#000000"></line><line x1="59.63677544424907" x2="59.63677544424907" y1="0" y2="4" stroke-width="1" stroke="#000000"></line><line x1="78.19332007711218" x2="78.19332007711218" y1="0" y2="4" stroke-width="1" stroke="#000000"></line><line x1="96.7498647099753" x2="96.7498647099753" y1="0" y2="4" stroke-width="1" stroke="#000000"></line><line x1="115.30640934283842" x2="115.30640934283842" y1="0" y2="4" stroke-width="1" stroke="#000000"></line><line x1="133.86295397570154" x2="133.86295397570154" y1="0" y2="4" stroke-width="1" stroke="#000000"></line><line x1="152.41949860856465" x2="152.41949860856465" y1="0" y2="4" stroke-width="1" stroke="#000000"></line><line x1="170.97604324142776" x2="170.97604324142776" y1="0" y2="4" stroke-width="1" stroke="#000000"></line><line x1="189.5325878742909" x2="189.5325878742909" y1="0" y2="4" stroke-width="1" stroke="#000000"></line><line x1="208.089132507154" x2="208.089132507154" y1="0" y2="4" stroke-width="1" stroke="#000000"></line><line x1="226.6456771400171" x2="226.6456771400171" y1="0" y2="6" stroke-width="1" stroke="#000000"></line><line x1="245.20222177288025" x2="245.20222177288025" y1="0" y2="4" stroke-width="1" stroke="#000000"></line><line x1="263.75876640574336" x2="263.75876640574336" y1="0" y2="4" stroke-width="1" stroke="#000000"></line><line x1="282.31531103860647" x2="282.31531103860647" y1="0" y2="4" stroke-width="1" stroke="#000000"></line><line x1="300.8718556714696" x2="300.8718556714696" y1="0" y2="4" stroke-width="1" stroke="#000000"></line><line x1="319.4284003043327" x2="319.4284003043327" y1="0" y2="4" stroke-width="1" stroke="#000000"></line><line x1="337.98494493719585" x2="337.98494493719585" y1="0" y2="4" stroke-width="1" stroke="#000000"></line><line x1="356.54148957005896" x2="356.54148957005896" y1="0" y2="4" stroke-width="1" stroke="#000000"></line><line x1="375.09803420292207" x2="375.09803420292207" y1="0" y2="4" stroke-width="1" stroke="#000000"></line><line x1="393.6545788357852" x2="393.6545788357852" y1="0" y2="4" stroke-width="1" stroke="#000000"></line><line x1="412.2111234686483" x2="412.2111234686483" y1="0" y2="6" stroke-width="1" stroke="#000000"></line><line x1="430.7676681015114" x2="430.7676681015114" y1="0" y2="4" stroke-width="1" stroke="#000000"></line><line x1="449.32421273437456" x2="449.32421273437456" y1="0" y2="4" stroke-width="1" stroke="#000000"></line><line x1="467.88075736723766" x2="467.88075736723766" y1="0" y2="4" stroke-width="1" stroke="#000000"></line><line x1="486.4373020001008" x2="486.4373020001008" y1="0" y2="4" stroke-width="1" stroke="#000000"></line><line x1="504.9938466329639" x2="504.9938466329639" y1="0" y2="4" stroke-width="1" stroke="#000000"></line><line x1="523.550391265827" x2="523.550391265827" y1="0" y2="4" stroke-width="1" stroke="#000000"></line><line x1="542.1069358986902" x2="542.1069358986902" y1="0" y2="4" stroke-width="1" stroke="#000000"></line><line x1="560.6634805315532" x2="560.6634805315532" y1="0" y2="4" stroke-width="1" stroke="#000000"></line><line x1="579.2200251644164" x2="579.2200251644164" y1="0" y2="4" stroke-width="1" stroke="#000000"></line><line x1="597.7765697972794" x2="597.7765697972794" y1="0" y2="6" stroke-width="1" stroke="#000000"></line><line x1="616.3331144301426" x2="616.3331144301426" y1="0" y2="4" stroke-width="1" stroke="#000000"></line><line x1="634.8896590630058" x2="634.8896590630058" y1="0" y2="4" stroke-width="1" stroke="#000000"></line><line x1="653.4462036958688" x2="653.4462036958688" y1="0" y2="4" stroke-width="1" stroke="#000000"></line><line x1="672.002748328732" x2="672.002748328732" y1="0" y2="4" stroke-width="1" stroke="#000000"></line><line x1="690.559292961595" x2="690.559292961595" y1="0" y2="4" stroke-width="1" stroke="#000000"></line><line x1="709.1158375944582" x2="709.1158375944582" y1="0" y2="4" stroke-width="1" stroke="#000000"></line><line x1="727.6723822273212" x2="727.6723822273212" y1="0" y2="4" stroke-width="1" stroke="#000000"></line><line x1="746.2289268601844" x2="746.2289268601844" y1="0" y2="4" stroke-width="1" stroke="#000000"></line><line x1="764.7854714930476" x2="764.7854714930476" y1="0" y2="4" stroke-width="1" stroke="#000000"></line><line x1="783.3420161259106" x2="783.3420161259106" y1="0" y2="6" stroke-width="1" stroke="#000000"></line><line x1="801.8985607587738" x2="801.8985607587738" y1="0" y2="4" stroke-width="1" stroke="#000000"></line><line x1="820.4551053916368" x2="820.4551053916368" y1="0" y2="4" stroke-width="1" stroke="#000000"></line><line x1="839.0116500245" x2="839.0116500245" y1="0" y2="4" stroke-width="1" stroke="#000000"></line><line x1="857.5681946573632" x2="857.5681946573632" y1="0" y2="4" stroke-width="1" stroke="#000000"></line><line x1="876.1247392902262" x2="876.1247392902262" y1="0" y2="4" stroke-width="1" stroke="#000000"></line><line x1="894.6812839230894" x2="894.6812839230894" y1="0" y2="4" stroke-width="1" stroke="#000000"></line><line x1="913.2378285559524" x2="913.2378285559524" y1="0" y2="4" stroke-width="1" stroke="#000000"></line><line x1="931.7943731888156" x2="931.7943731888156" y1="0" y2="4" stroke-width="1" stroke="#000000"></line><line x1="950.3509178216786" x2="950.3509178216786" y1="0" y2="4" stroke-width="1" stroke="#000000"></line><line x1="968.9074624545418" x2="968.9074624545418" y1="0" y2="6" stroke-width="1" stroke="#000000"></line><line x1="987.464007087405" x2="987.464007087405" y1="0" y2="4" stroke-width="1" stroke="#000000"></line><text x="38.080230811385945" y="18" font-size="11" fill="#000000">2,972,000</text><text x="223.6456771400171" y="18" font-size="11" fill="#000000">2,976,000</text><text x="409.2111234686483" y="18" font-size="11" fill="#000000">2,980,000</text><text x="594.7765697972794" y="18" font-size="11" fill="#000000">2,984,000</text><text x="780.3420161259106" y="18" font-size="11" fill="#000000">2,988,000</text><text x="965.9074624545418" y="18" font-size="11" fill="#000000">2,992,000</text></g></g></g></g></g></g></g><g transform="translate(0 100)"><g transform="translate(0 0)"><g transform="translate(0 18)"><defs><clipPath id="clip-3IDlZDj3Q0-ApaCKgeeNu-0.04936483405503389"><rect x="0" y="0" width="965.5937499999966" height="444"></rect></clipPath></defs><g transform="translate(0 0)"><g clip-path="url(#clip-3IDlZDj3Q0-ApaCKgeeNu-0.04936483405503389)"><g><g></g><g></g><g></g><g></g><g></g><g><line x1="264.2" x2="257.2" y1="5" y2="5" stroke="#000000"></line><polygon points="260.7,2.5,260.7,7.5,257.2,5" stroke="#000000" fill="#000000"></polygon><rect data-testid="box--1002833003-OX457036.1-586" x="264.2" y="0" width="2" height="10" fill="goldenrod" stroke=""></rect></g><g><line x1="264.2" x2="257.2" y1="20" y2="20" stroke="#000000"></line><polygon points="260.7,17.5,260.7,22.5,257.2,20" stroke="#000000" fill="#000000"></polygon><rect data-testid="box--1002833003-OX457036.1-590" x="264.2" y="15" width="9.27827231643156" height="10" fill="#FF8080" stroke=""></rect></g><g><line x1="264.2" x2="257.2" y1="35" y2="35" stroke="#000000"></line><polygon points="260.7,32.5,260.7,37.5,257.2,35" stroke="#000000" fill="#000000"></polygon><rect data-testid="box--1002833003-OX457036.1-584" x="264.2" y="30" width="280.9460857415476" height="10" fill="goldenrod" stroke=""></rect></g><g><line x1="264.2" x2="257.2" y1="50" y2="50" stroke="#000000"></line><polygon points="260.7,47.5,260.7,52.5,257.2,50" stroke="#000000" fill="#000000"></polygon><rect data-testid="box--1002833003-OX457036.1-585" x="264.2" y="45" width="280.9460857415476" height="10" fill="goldenrod" stroke=""></rect></g><g><line x1="273.4" x2="266.4" y1="5" y2="5" stroke="#000000"></line><polygon points="269.9,2.5,269.9,7.5,266.4,5" stroke="#000000" fill="#000000"></polygon><rect data-testid="box--1002833003-OX457036.1-587" x="273.4" y="0" width="47.922276514369" height="10" fill="goldenrod" stroke=""></rect></g><g><line x1="321.4" x2="314.4" y1="20" y2="20" stroke="#000000"></line><polygon points="317.9,17.5,317.9,22.5,314.4,20" stroke="#000000" fill="#000000"></polygon><rect data-testid="box--1002833003-OX457036.1-591" x="321.4" y="15" width="7.840140107384667" height="10" fill="#80FF80" stroke=""></rect></g><g><line x1="329.2" x2="322.2" y1="5" y2="5" stroke="#000000"></line><polygon points="325.7,2.5,325.7,7.5,322.2,5" stroke="#000000" fill="#000000"></polygon><rect data-testid="box--1002833003-OX457036.1-588" x="329.2" y="0" width="47.08723200589016" height="10" fill="goldenrod" stroke=""></rect></g><g><line x1="376.3" x2="369.3" y1="20" y2="20" stroke="#000000"></line><polygon points="372.8,17.5,372.8,22.5,369.3,20" stroke="#000000" fill="#000000"></polygon><rect data-testid="box--1002833003-OX457036.1-592" x="376.3" y="15" width="122.42680321531442" height="10" fill="#8080FF" stroke=""></rect></g><g><line x1="498.7" x2="491.7" y1="5" y2="5" stroke="#000000"></line><polygon points="495.2,2.5,495.2,7.5,491.7,5" stroke="#000000" fill="#000000"></polygon><rect data-testid="box--1002833003-OX457036.1-589" x="498.7" y="0" width="2" height="10" fill="goldenrod" stroke=""></rect></g><g><line x1="500.7" x2="493.7" y1="65" y2="65" stroke="#000000"></line><polygon points="497.2,62.5,497.2,67.5,493.7,65" stroke="#000000" fill="#000000"></polygon><rect data-testid="box--1002833003-OX457036.1-593" x="500.7" y="60" width="44.442924395707166" height="10" fill="#8080FF" stroke=""></rect></g><g><line x1="545" x2="538" y1="5" y2="5" stroke="#000000"></line><polygon points="541.5,2.5,541.5,7.5,538,5" stroke="#000000" fill="#000000"></polygon><rect data-testid="box--1002833003-OX457036.1-594" x="545" y="0" width="2" height="10" fill="goldenrod" stroke=""></rect></g><g><line x1="566.3" x2="559.3" y1="5" y2="5" stroke="#000000"></line><polygon points="562.8,2.5,562.8,7.5,559.3,5" stroke="#000000" fill="#000000"></polygon><rect data-testid="box--1002833003-OX457036.1-597" x="566.3" y="0" width="2" height="10" fill="goldenrod" stroke=""></rect></g><g><line x1="566.3" x2="559.3" y1="20" y2="20" stroke="#000000"></line><polygon points="562.8,17.5,562.8,22.5,559.3,20" stroke="#000000" fill="#000000"></polygon><rect data-testid="box--1002833003-OX457036.1-595" x="566.3" y="15" width="39.66461415274491" height="10" fill="goldenrod" stroke=""></rect></g><g><line x1="566.3" x2="559.3" y1="35" y2="35" stroke="#000000"></line><polygon points="562.8,32.5,562.8,37.5,559.3,35" stroke="#000000" fill="#000000"></polygon><rect data-testid="box--1002833003-OX457036.1-596" x="566.3" y="30" width="39.66461415274491" height="10" fill="goldenrod" stroke=""></rect></g><g><line x1="566.3" x2="559.3" y1="50" y2="50" stroke="#000000"></line><polygon points="562.8,47.5,562.8,52.5,559.3,50" stroke="#000000" fill="#000000"></polygon><rect data-testid="box--1002833003-OX457036.1-598" x="566.3" y="45" width="39.66461415274491" height="10" fill="#8080FF" stroke=""></rect></g><g><line x1="605.8" x2="598.8" y1="5" y2="5" stroke="#000000"></line><polygon points="602.3,2.5,602.3,7.5,598.8,5" stroke="#000000" fill="#000000"></polygon><rect data-testid="box--1002833003-OX457036.1-599" x="605.8" y="0" width="2" height="10" fill="goldenrod" stroke=""></rect></g></g></g></g></g><g><text x="0" y="5" fill="#000000" font-size="13" dominant-baseline="hanging">augustus.worm.lumter.2-3mb.gff</text></g></g><g transform="translate(0 462)"><g transform="translate(0 18)"><defs><clipPath id="clip-htGuAc_enpIH9ebo0fbGF-0.7724810174599659"><rect x="0" y="0" width="965.5937499999966" height="100"></rect></clipPath></defs><g transform="translate(0 0)"><g clip-path="url(#clip-htGuAc_enpIH9ebo0fbGF-0.7724810174599659)"><g><g><line data-testid="425862032-OX457036.1-36-0" x1="-468.5" y1="5" y2="5" x2="-411.71697342343884" stroke="#000000"></line><line x1="-468.5" x2="-475.5" y1="5" y2="5" stroke="#000000"></line><polygon points="-472,2.5,-472,7.5,-475.5,5" stroke="#000000" fill="#000000"></polygon><text x="-468.5" y="22" fill="#000000" font-size="12">g37</text></g><g><line data-testid="425862032-OX457036.1-37-0" x1="260.8" y1="5" y2="5" x2="545.132655137045" stroke="#000000"></line><rect data-testid="box-425862032-OX457036.1-37-0-3" x="260.8" y="0" width="10.113316824910399" height="10" fill="#8080FF" stroke=""></rect><rect data-testid="box-425862032-OX457036.1-37-0-4" x="376.1289248932443" y="0" width="122.61236866164305" height="10" fill="#8080FF" stroke=""></rect><rect data-testid="box-425862032-OX457036.1-37-0-5" x="500.68973074133794" y="0" width="44.442924395707166" height="10" fill="#8080FF" stroke=""></rect><line x1="260.8" x2="253.8" y1="5" y2="5" stroke="#000000"></line><polygon points="257.3,2.5,257.3,7.5,253.8,5" stroke="#000000" fill="#000000"></polygon><text x="260.8" y="22" fill="#000000" font-size="12">g38</text></g></g></g></g></g><g><text x="0" y="5" fill="#000000" font-size="13" dominant-baseline="hanging">augustus.prothints.gff3</text></g></g></g></g></svg>