<svg width="965.59375" height="780" xmlns="http://www.w3.org/2000/svg" xmlns:xlink="http://www.w3.org/1999/xlink" viewBox="0,0,1065.59375,780"><rect width="1065.59375" height="780" fill="#ffffff"></rect><g transform="translate(50 0)"><g transform="translate(0)"><g id="header"><text x="0" y="0" dominant-baseline="hanging" font-size="13" fill="#000000">GCA_945859605.1 </text><g transform="translate(0 13)"><line x1="0" x2="965.5937499999966" y1="10" y2="10" stroke="#000000"></line><line x1="0" x2="0" y1="5" y2="15" stroke="#000000"></line><line x1="965.5937499999966" x2="965.5937499999966" y1="5" y2="15" stroke="#000000"></line><text x="482.7968749999983" y="13" text-anchor="middle" dominant-baseline="hanging" font-size="13" fill="#000000">20.8Kbp</text></g><g transform="translate(0 50)"><g><defs><clipPath id="clip-{GCA_945859605.1 }OX457036.1:2255873.568315601..2276686.6534613874-0"><rect x="0" y="0" width="965.5937499999966" height="100"></rect></clipPath></defs><g transform="translate(0 0)"><g clip-path="url(#clip-{GCA_945859605.1 }OX457036.1:2255873.568315601..2276686.6534613874-0)"><text x="4" y="13" font-size="13" fill="#000000">OX457036.1</text><g transform="translate(0 20)"><line x1="-31.24775127932987" x2="-31.24775127932987" y1="0" y2="4" stroke-width="1" stroke="#000000"></line><line x1="-12.691206646466753" x2="-12.691206646466753" y1="0" y2="4" stroke-width="1" stroke="#000000"></line><line x1="5.865337986396365" x2="5.865337986396365" y1="0" y2="6" stroke-width="1" stroke="#000000"></line><line x1="24.42188261925948" x2="24.42188261925948" y1="0" y2="4" stroke-width="1" stroke="#000000"></line><line x1="42.9784272521226" x2="42.9784272521226" y1="0" y2="4" stroke-width="1" stroke="#000000"></line><line x1="61.534971884985715" x2="61.534971884985715" y1="0" y2="4" stroke-width="1" stroke="#000000"></line><line x1="80.09151651784883" x2="80.09151651784883" y1="0" y2="4" stroke-width="1" stroke="#000000"></line><line x1="98.64806115071195" x2="98.64806115071195" y1="0" y2="4" stroke-width="1" stroke="#000000"></line><line x1="117.20460578357508" x2="117.20460578357508" y1="0" y2="4" stroke-width="1" stroke="#000000"></line><line x1="135.7611504164382" x2="135.7611504164382" y1="0" y2="4" stroke-width="1" stroke="#000000"></line><line x1="154.3176950493013" x2="154.3176950493013" y1="0" y2="4" stroke-width="1" stroke="#000000"></line><line x1="172.87423968216441" x2="172.87423968216441" y1="0" y2="4" stroke-width="1" stroke="#000000"></line><line x1="191.43078431502755" x2="191.43078431502755" y1="0" y2="6" stroke-width="1" stroke="#000000"></line><line x1="209.98732894789066" x2="209.98732894789066" y1="0" y2="4" stroke-width="1" stroke="#000000"></line><line x1="228.54387358075377" x2="228.54387358075377" y1="0" y2="4" stroke-width="1" stroke="#000000"></line><line x1="247.10041821361688" x2="247.10041821361688" y1="0" y2="4" stroke-width="1" stroke="#000000"></line><line x1="265.65696284648" x2="265.65696284648" y1="0" y2="4" stroke-width="1" stroke="#000000"></line><line x1="284.21350747934315" x2="284.21350747934315" y1="0" y2="4" stroke-width="1" stroke="#000000"></line><line x1="302.77005211220626" x2="302.77005211220626" y1="0" y2="4" stroke-width="1" stroke="#000000"></line><line x1="321.32659674506937" x2="321.32659674506937" y1="0" y2="4" stroke-width="1" stroke="#000000"></line><line x1="339.8831413779325" x2="339.8831413779325" y1="0" y2="4" stroke-width="1" stroke="#000000"></line><line x1="358.4396860107956" x2="358.4396860107956" y1="0" y2="4" stroke-width="1" stroke="#000000"></line><line x1="376.9962306436587" x2="376.9962306436587" y1="0" y2="6" stroke-width="1" stroke="#000000"></line><line x1="395.55277527652186" x2="395.55277527652186" y1="0" y2="4" stroke-width="1" stroke="#000000"></line><line x1="414.10931990938496" x2="414.10931990938496" y1="0" y2="4" stroke-width="1" stroke="#000000"></line><line x1="432.6658645422481" x2="432.6658645422481" y1="0" y2="4" stroke-width="1" stroke="#000000"></line><line x1="451.2224091751112" x2="451.2224091751112" y1="0" y2="4" stroke-width="1" stroke="#000000"></line><line x1="469.7789538079743" x2="469.7789538079743" y1="0" y2="4" stroke-width="1" stroke="#000000"></line><line x1="488.3354984408374" x2="488.3354984408374" y1="0" y2="4" stroke-width="1" stroke="#000000"></line><line x1="506.8920430737005" x2="506.8920430737005" y1="0" y2="4" stroke-width="1" stroke="#000000"></line><line x1="525.4485877065637" x2="525.4485877065637" y1="0" y2="4" stroke-width="1" stroke="#000000"></line><line x1="544.0051323394267" x2="544.0051323394267" y1="0" y2="4" stroke-width="1" stroke="#000000"></line><line x1="562.5616769722899" x2="562.5616769722899" y1="0" y2="6" stroke-width="1" stroke="#000000"></line><line x1="581.118221605153" x2="581.118221605153" y1="0" y2="4" stroke-width="1" stroke="#000000"></line><line x1="599.6747662380161" x2="599.6747662380161" y1="0" y2="4" stroke-width="1" stroke="#000000"></line><line x1="618.2313108708793" x2="618.2313108708793" y1="0" y2="4" stroke-width="1" stroke="#000000"></line><line x1="636.7878555037423" x2="636.7878555037423" y1="0" y2="4" stroke-width="1" stroke="#000000"></line><line x1="655.3444001366055" x2="655.3444001366055" y1="0" y2="4" stroke-width="1" stroke="#000000"></line><line x1="673.9009447694685" x2="673.9009447694685" y1="0" y2="4" stroke-width="1" stroke="#000000"></line><line x1="692.4574894023317" x2="692.4574894023317" y1="0" y2="4" stroke-width="1" stroke="#000000"></line><line x1="711.0140340351949" x2="711.0140340351949" y1="0" y2="4" stroke-width="1" stroke="#000000"></line><line x1="729.5705786680579" x2="729.5705786680579" y1="0" y2="4" stroke-width="1" stroke="#000000"></line><line x1="748.1271233009211" x2="748.1271233009211" y1="0" y2="6" stroke-width="1" stroke="#000000"></line><line x1="766.6836679337841" x2="766.6836679337841" y1="0" y2="4" stroke-width="1" stroke="#000000"></line><line x1="785.2402125666473" x2="785.2402125666473" y1="0" y2="4" stroke-width="1" stroke="#000000"></line><line x1="803.7967571995105" x2="803.7967571995105" y1="0" y2="4" stroke-width="1" stroke="#000000"></line><line x1="822.3533018323735" x2="822.3533018323735" y1="0" y2="4" stroke-width="1" stroke="#000000"></line><line x1="840.9098464652367" x2="840.9098464652367" y1="0" y2="4" stroke-width="1" stroke="#000000"></line><line x1="859.4663910980997" x2="859.4663910980997" y1="0" y2="4" stroke-width="1" stroke="#000000"></line><line x1="878.0229357309629" x2="878.0229357309629" y1="0" y2="4" stroke-width="1" stroke="#000000"></line><line x1="896.579480363826" x2="896.579480363826" y1="0" y2="4" stroke-width="1" stroke="#000000"></line><line x1="915.1360249966891" x2="915.1360249966891" y1="0" y2="4" stroke-width="1" stroke="#000000"></line><line x1="933.6925696295523" x2="933.6925696295523" y1="0" y2="6" stroke-width="1" stroke="#000000"></line><line x1="952.2491142624153" x2="952.2491142624153" y1="0" y2="4" stroke-width="1" stroke="#000000"></line><line x1="970.8056588952785" x2="970.8056588952785" y1="0" y2="4" stroke-width="1" stroke="#000000"></line><line x1="989.3622035281415" x2="989.3622035281415" y1="0" y2="4" stroke-width="1" stroke="#000000"></line><text x="2.865337986396365" y="18" font-size="11" fill="#000000">2,256,000</text><text x="188.43078431502755" y="18" font-size="11" fill="#000000">2,260,000</text><text x="373.9962306436587" y="18" font-size="11" fill="#000000">2,264,000</text><text x="559.5616769722899" y="18" font-size="11" fill="#000000">2,268,000</text><text x="745.1271233009211" y="18" font-size="11" fill="#000000">2,272,000</text><text x="930.6925696295523" y="18" font-size="11" fill="#000000">2,276,000</text></g></g></g></g></g></g></g><g transform="translate(0 100)"><g transform="translate(0 0)"><g transform="translate(0 18)"><defs><clipPath id="clip-3IDlZDj3Q0-ApaCKgeeNu-0.9388084783812629"><rect x="0" y="0" width="965.5937499999966" height="444"></rect></clipPath></defs><g transform="translate(0 0)"><g clip-path="url(#clip-3IDlZDj3Q0-ApaCKgeeNu-0.9388084783812629)"><g><g><line x1="12.7" x2="19.7" y1="5" y2="5" stroke="#000000"></line><polygon points="16.2,2.5,16.2,7.5,19.7,5" stroke="#000000" fill="#000000"></polygon><rect data-testid="box--1002833003-OX457036.1-139" x="11.7" y="0" width="2" height="10" fill="goldenrod" stroke=""></rect></g><g><line x1="30.627675525520377" x2="37.627675525520374" y1="20" y2="20" stroke="#000000"></line><polygon points="34.127675525520374,17.5,34.127675525520374,22.5,37.627675525520374,20" stroke="#000000" fill="#000000"></polygon><rect data-testid="box--1002833003-OX457036.1-137" x="11.7" y="15" width="18.927675525520378" height="10" fill="goldenrod" stroke=""></rect></g><g><line x1="30.627675525520377" x2="37.627675525520374" y1="35" y2="35" stroke="#000000"></line><polygon points="34.127675525520374,32.5,34.127675525520374,37.5,37.627675525520374,35" stroke="#000000" fill="#000000"></polygon><rect data-testid="box--1002833003-OX457036.1-138" x="11.7" y="30" width="18.927675525520378" height="10" fill="goldenrod" stroke=""></rect></g><g><line x1="30.627675525520377" x2="37.627675525520374" y1="50" y2="50" stroke="#000000"></line><polygon points="34.127675525520374,47.5,34.127675525520374,52.5,37.627675525520374,50" stroke="#000000" fill="#000000"></polygon><rect data-testid="box--1002833003-OX457036.1-140" x="11.7" y="45" width="18.927675525520378" height="10" fill="#80FF80" stroke=""></rect></g><g><line x1="31.5" x2="38.5" y1="5" y2="5" stroke="#000000"></line><polygon points="35,2.5,35,7.5,38.5,5" stroke="#000000" fill="#000000"></polygon><rect data-testid="box--1002833003-OX457036.1-141" x="30.5" y="0" width="2" height="10" fill="goldenrod" stroke=""></rect></g><g><line x1="473.8" x2="480.8" y1="5" y2="5" stroke="#000000"></line><polygon points="477.3,2.5,477.3,7.5,480.8,5" stroke="#000000" fill="#000000"></polygon><rect data-testid="box--1002833003-OX457036.1-144" x="472.8" y="0" width="2" height="10" fill="goldenrod" stroke=""></rect></g><g><line x1="497.0162907458864" x2="504.0162907458864" y1="20" y2="20" stroke="#000000"></line><polygon points="500.5162907458864,17.5,500.5162907458864,22.5,504.0162907458864,20" stroke="#000000" fill="#000000"></polygon><rect data-testid="box--1002833003-OX457036.1-142" x="472.8" y="15" width="24.21629074588637" height="10" fill="goldenrod" stroke=""></rect></g><g><line x1="497.0162907458864" x2="504.0162907458864" y1="35" y2="35" stroke="#000000"></line><polygon points="500.5162907458864,32.5,500.5162907458864,37.5,504.0162907458864,35" stroke="#000000" fill="#000000"></polygon><rect data-testid="box--1002833003-OX457036.1-143" x="472.8" y="30" width="24.21629074588637" height="10" fill="goldenrod" stroke=""></rect></g><g><line x1="497.0162907458864" x2="504.0162907458864" y1="50" y2="50" stroke="#000000"></line><polygon points="500.5162907458864,47.5,500.5162907458864,52.5,504.0162907458864,50" stroke="#000000" fill="#000000"></polygon><rect data-testid="box--1002833003-OX457036.1-145" x="472.8" y="45" width="24.21629074588637" height="10" fill="#8080FF" stroke=""></rect></g><g><line x1="497.9" x2="504.9" y1="5" y2="5" stroke="#000000"></line><polygon points="501.4,2.5,501.4,7.5,504.9,5" stroke="#000000" fill="#000000"></polygon><rect data-testid="box--1002833003-OX457036.1-146" x="496.9" y="0" width="2" height="10" fill="goldenrod" stroke=""></rect></g><g><line x1="524.5" x2="517.5" y1="5" y2="5" stroke="#000000"></line><polygon points="521,2.5,521,7.5,517.5,5" stroke="#000000" fill="#000000"></polygon><rect data-testid="box--1002833003-OX457036.1-149" x="524.5" y="0" width="2" height="10" fill="goldenrod" stroke=""></rect></g><g><line x1="524.5" x2="517.5" y1="20" y2="20" stroke="#000000"></line><polygon points="521,17.5,521,22.5,517.5,20" stroke="#000000" fill="#000000"></polygon><rect data-testid="box--1002833003-OX457036.1-147" x="524.5" y="15" width="23.10289806791458" height="10" fill="goldenrod" stroke=""></rect></g><g><line x1="524.5" x2="517.5" y1="35" y2="35" stroke="#000000"></line><polygon points="521,32.5,521,37.5,517.5,35" stroke="#000000" fill="#000000"></polygon><rect data-testid="box--1002833003-OX457036.1-148" x="524.5" y="30" width="23.10289806791458" height="10" fill="goldenrod" stroke=""></rect></g><g><line x1="524.5" x2="517.5" y1="50" y2="50" stroke="#000000"></line><polygon points="521,47.5,521,52.5,517.5,50" stroke="#000000" fill="#000000"></polygon><rect data-testid="box--1002833003-OX457036.1-150" x="524.5" y="45" width="23.10289806791458" height="10" fill="#8080FF" stroke=""></rect></g><g><line x1="547.4" x2="540.4" y1="5" y2="5" stroke="#000000"></line><polygon points="543.9,2.5,543.9,7.5,540.4,5" stroke="#000000" fill="#000000"></polygon><rect data-testid="box--1002833003-OX457036.1-151" x="547.4" y="0" width="2" height="10" fill="goldenrod" stroke=""></rect></g><g><line x1="1401.9" x2="1408.9" y1="5" y2="5" stroke="#000000"></line><polygon points="1405.4,2.5,1405.4,7.5,1408.9,5" stroke="#000000" fill="#000000"></polygon><rect data-testid="box--1002833003-OX457036.1-154" x="1400.9" y="0" width="2" height="10" fill="goldenrod" stroke=""></rect></g><g><line x1="1404.8896570960655" x2="1411.8896570960655" y1="20" y2="20" stroke="#000000"></line><polygon points="1408.3896570960655,17.5,1408.3896570960655,22.5,1411.8896570960655,20" stroke="#000000" fill="#000000"></polygon><rect data-testid="box--1002833003-OX457036.1-158" x="1400.9" y="15" width="3.9896570960655704" height="10" fill="#80FF80" stroke=""></rect></g><g><line x1="1777.505073323957" x2="1784.505073323957" y1="35" y2="35" stroke="#000000"></line><polygon points="1781.005073323957,32.5,1781.005073323957,37.5,1784.505073323957,35" stroke="#000000" fill="#000000"></polygon><rect data-testid="box--1002833003-OX457036.1-152" x="1400.9" y="30" width="376.60507332395696" height="10" fill="goldenrod" stroke=""></rect></g><g><line x1="1777.505073323957" x2="1784.505073323957" y1="50" y2="50" stroke="#000000"></line><polygon points="1781.005073323957,47.5,1781.005073323957,52.5,1784.505073323957,50" stroke="#000000" fill="#000000"></polygon><rect data-testid="box--1002833003-OX457036.1-153" x="1400.9" y="45" width="376.60507332395696" height="10" fill="goldenrod" stroke=""></rect></g><g><line x1="1586.5221805941478" x2="1593.5221805941478" y1="65" y2="65" stroke="#000000"></line><polygon points="1590.0221805941478,62.5,1590.0221805941478,67.5,1593.5221805941478,65" stroke="#000000" fill="#000000"></polygon><rect data-testid="box--1002833003-OX457036.1-155" x="1404.9" y="60" width="181.62218059414775" height="10" fill="goldenrod" stroke=""></rect></g></g></g></g></g><g><text x="0" y="5" fill="#000000" font-size="13" dominant-baseline="hanging">augustus.worm.lumter.2-3mb.gff</text></g></g><g transform="translate(0 462)"><g transform="translate(0 18)"><defs><clipPath id="clip-htGuAc_enpIH9ebo0fbGF-0.9252157715449092"><rect x="0" y="0" width="965.5937499999966" height="100"></rect></clipPath></defs><g transform="translate(0 0)"><g clip-path="url(#clip-htGuAc_enpIH9ebo0fbGF-0.9252157715449092)"><g><g><line data-testid="425862032-OX457036.1-7-0" x1="472.8" y1="5" y2="5" x2="497.0162907458864" stroke="#000000"></line><rect data-testid="box-425862032-OX457036.1-7-0-1" x="472.8" y="0" width="24.21629074588637" height="10" fill="#8080FF" stroke=""></rect><line x1="497.0162907458864" x2="504.0162907458864" y1="5" y2="5" stroke="#000000"></line><polygon points="500.5162907458864,2.5,500.5162907458864,7.5,504.0162907458864,5" stroke="#000000" fill="#000000"></polygon><text x="472.8" y="22" fill="#000000" font-size="12">g8</text></g><g><line data-testid="425862032-OX457036.1-8-0" x1="524.5" y1="5" y2="5" x2="547.6028980679146" stroke="#000000"></line><rect data-testid="box-425862032-OX457036.1-8-0-1" x="524.5" y="0" width="23.10289806791458" height="10" fill="#8080FF" stroke=""></rect><line x1="524.5" x2="517.5" y1="5" y2="5" stroke="#000000"></line><polygon points="521,2.5,521,7.5,517.5,5" stroke="#000000" fill="#000000"></polygon><text x="524.5" y="22" fill="#000000" font-size="12">g9</text></g></g></g></g></g><g><text x="0" y="5" fill="#000000" font-size="13" dominant-baseline="hanging">augustus.prothints.gff3</text></g></g></g></g></svg>