<svg width="965.59375" height="780" xmlns="http://www.w3.org/2000/svg" xmlns:xlink="http://www.w3.org/1999/xlink" viewBox="0,0,1065.59375,780"><rect width="1065.59375" height="780" fill="#ffffff"></rect><g transform="translate(50 0)"><g transform="translate(0)"><g id="header"><text x="0" y="0" dominant-baseline="hanging" font-size="13" fill="#000000">GCA_945859605.1 </text><g transform="translate(0 13)"><line x1="0" x2="965.5937499999966" y1="10" y2="10" stroke="#000000"></line><line x1="0" x2="0" y1="5" y2="15" stroke="#000000"></line><line x1="965.5937499999966" x2="965.5937499999966" y1="5" y2="15" stroke="#000000"></line><text x="482.7968749999983" y="13" text-anchor="middle" dominant-baseline="hanging" font-size="13" fill="#000000">20.8Kbp</text></g><g transform="translate(0 50)"><g><defs><clipPath id="clip-{GCA_945859605.1 }OX457036.1:2099745.36355979..2120558.4487055764-0"><rect x="0" y="0" width="965.5937499999966" height="100"></rect></clipPath></defs><g transform="translate(0 0)"><g clip-path="url(#clip-{GCA_945859605.1 }OX457036.1:2099745.36355979..2120558.4487055764-0)"><text x="4" y="13" font-size="13" fill="#000000">OX457036.1</text><g transform="translate(0 20)"><line x1="-25.30015809594856" x2="-25.30015809594856" y1="0" y2="4" stroke-width="1" stroke="#000000"></line><line x1="-6.7436134630854445" x2="-6.7436134630854445" y1="0" y2="4" stroke-width="1" stroke="#000000"></line><line x1="11.812931169777674" x2="11.812931169777674" y1="0" y2="6" stroke-width="1" stroke="#000000"></line><line x1="30.36947580264079" x2="30.36947580264079" y1="0" y2="4" stroke-width="1" stroke="#000000"></line><line x1="48.92602043550391" x2="48.92602043550391" y1="0" y2="4" stroke-width="1" stroke="#000000"></line><line x1="67.48256506836702" x2="67.48256506836702" y1="0" y2="4" stroke-width="1" stroke="#000000"></line><line x1="86.03910970123015" x2="86.03910970123015" y1="0" y2="4" stroke-width="1" stroke="#000000"></line><line x1="104.59565433409325" x2="104.59565433409325" y1="0" y2="4" stroke-width="1" stroke="#000000"></line><line x1="123.15219896695638" x2="123.15219896695638" y1="0" y2="4" stroke-width="1" stroke="#000000"></line><line x1="141.70874359981948" x2="141.70874359981948" y1="0" y2="4" stroke-width="1" stroke="#000000"></line><line x1="160.26528823268262" x2="160.26528823268262" y1="0" y2="4" stroke-width="1" stroke="#000000"></line><line x1="178.82183286554573" x2="178.82183286554573" y1="0" y2="4" stroke-width="1" stroke="#000000"></line><line x1="197.37837749840884" x2="197.37837749840884" y1="0" y2="6" stroke-width="1" stroke="#000000"></line><line x1="215.93492213127197" x2="215.93492213127197" y1="0" y2="4" stroke-width="1" stroke="#000000"></line><line x1="234.49146676413508" x2="234.49146676413508" y1="0" y2="4" stroke-width="1" stroke="#000000"></line><line x1="253.0480113969982" x2="253.0480113969982" y1="0" y2="4" stroke-width="1" stroke="#000000"></line><line x1="271.6045560298613" x2="271.6045560298613" y1="0" y2="4" stroke-width="1" stroke="#000000"></line><line x1="290.16110066272444" x2="290.16110066272444" y1="0" y2="4" stroke-width="1" stroke="#000000"></line><line x1="308.71764529558754" x2="308.71764529558754" y1="0" y2="4" stroke-width="1" stroke="#000000"></line><line x1="327.27418992845065" x2="327.27418992845065" y1="0" y2="4" stroke-width="1" stroke="#000000"></line><line x1="345.83073456131376" x2="345.83073456131376" y1="0" y2="4" stroke-width="1" stroke="#000000"></line><line x1="364.3872791941769" x2="364.3872791941769" y1="0" y2="4" stroke-width="1" stroke="#000000"></line><line x1="382.94382382704003" x2="382.94382382704003" y1="0" y2="6" stroke-width="1" stroke="#000000"></line><line x1="401.50036845990314" x2="401.50036845990314" y1="0" y2="4" stroke-width="1" stroke="#000000"></line><line x1="420.05691309276625" x2="420.05691309276625" y1="0" y2="4" stroke-width="1" stroke="#000000"></line><line x1="438.61345772562936" x2="438.61345772562936" y1="0" y2="4" stroke-width="1" stroke="#000000"></line><line x1="457.17000235849247" x2="457.17000235849247" y1="0" y2="4" stroke-width="1" stroke="#000000"></line><line x1="475.72654699135563" x2="475.72654699135563" y1="0" y2="4" stroke-width="1" stroke="#000000"></line><line x1="494.28309162421874" x2="494.28309162421874" y1="0" y2="4" stroke-width="1" stroke="#000000"></line><line x1="512.8396362570818" x2="512.8396362570818" y1="0" y2="4" stroke-width="1" stroke="#000000"></line><line x1="531.396180889945" x2="531.396180889945" y1="0" y2="4" stroke-width="1" stroke="#000000"></line><line x1="549.9527255228081" x2="549.9527255228081" y1="0" y2="4" stroke-width="1" stroke="#000000"></line><line x1="568.5092701556712" x2="568.5092701556712" y1="0" y2="6" stroke-width="1" stroke="#000000"></line><line x1="587.0658147885343" x2="587.0658147885343" y1="0" y2="4" stroke-width="1" stroke="#000000"></line><line x1="605.6223594213974" x2="605.6223594213974" y1="0" y2="4" stroke-width="1" stroke="#000000"></line><line x1="624.1789040542606" x2="624.1789040542606" y1="0" y2="4" stroke-width="1" stroke="#000000"></line><line x1="642.7354486871236" x2="642.7354486871236" y1="0" y2="4" stroke-width="1" stroke="#000000"></line><line x1="661.2919933199868" x2="661.2919933199868" y1="0" y2="4" stroke-width="1" stroke="#000000"></line><line x1="679.8485379528499" x2="679.8485379528499" y1="0" y2="4" stroke-width="1" stroke="#000000"></line><line x1="698.405082585713" x2="698.405082585713" y1="0" y2="4" stroke-width="1" stroke="#000000"></line><line x1="716.9616272185762" x2="716.9616272185762" y1="0" y2="4" stroke-width="1" stroke="#000000"></line><line x1="735.5181718514392" x2="735.5181718514392" y1="0" y2="4" stroke-width="1" stroke="#000000"></line><line x1="754.0747164843024" x2="754.0747164843024" y1="0" y2="6" stroke-width="1" stroke="#000000"></line><line x1="772.6312611171655" x2="772.6312611171655" y1="0" y2="4" stroke-width="1" stroke="#000000"></line><line x1="791.1878057500286" x2="791.1878057500286" y1="0" y2="4" stroke-width="1" stroke="#000000"></line><line x1="809.7443503828918" x2="809.7443503828918" y1="0" y2="4" stroke-width="1" stroke="#000000"></line><line x1="828.3008950157548" x2="828.3008950157548" y1="0" y2="4" stroke-width="1" stroke="#000000"></line><line x1="846.857439648618" x2="846.857439648618" y1="0" y2="4" stroke-width="1" stroke="#000000"></line><line x1="865.413984281481" x2="865.413984281481" y1="0" y2="4" stroke-width="1" stroke="#000000"></line><line x1="883.9705289143442" x2="883.9705289143442" y1="0" y2="4" stroke-width="1" stroke="#000000"></line><line x1="902.5270735472074" x2="902.5270735472074" y1="0" y2="4" stroke-width="1" stroke="#000000"></line><line x1="921.0836181800704" x2="921.0836181800704" y1="0" y2="4" stroke-width="1" stroke="#000000"></line><line x1="939.6401628129336" x2="939.6401628129336" y1="0" y2="6" stroke-width="1" stroke="#000000"></line><line x1="958.1967074457966" x2="958.1967074457966" y1="0" y2="4" stroke-width="1" stroke="#000000"></line><line x1="976.7532520786598" x2="976.7532520786598" y1="0" y2="4" stroke-width="1" stroke="#000000"></line><line x1="995.309796711523" x2="995.309796711523" y1="0" y2="4" stroke-width="1" stroke="#000000"></line><text x="8.812931169777674" y="18" font-size="11" fill="#000000">2,100,000</text><text x="194.37837749840884" y="18" font-size="11" fill="#000000">2,104,000</text><text x="379.94382382704003" y="18" font-size="11" fill="#000000">2,108,000</text><text x="565.5092701556712" y="18" font-size="11" fill="#000000">2,112,000</text><text x="751.0747164843024" y="18" font-size="11" fill="#000000">2,116,000</text><text x="936.6401628129336" y="18" font-size="11" fill="#000000">2,120,000</text></g></g></g></g></g></g></g><g transform="translate(0 100)"><g transform="translate(0 0)"><g transform="translate(0 18)"><defs><clipPath id="clip-3IDlZDj3Q0-ApaCKgeeNu-0.5732708173753978"><rect x="0" y="0" width="965.5937499999966" height="444"></rect></clipPath></defs><g transform="translate(0 0)"><g clip-path="url(#clip-3IDlZDj3Q0-ApaCKgeeNu-0.5732708173753978)"><g><g></g><g></g><g></g><g></g><g></g><g></g><g></g><g></g><g></g><g></g><g></g><g></g><g><line x1="292.4" x2="285.4" y1="5" y2="5" stroke="#000000"></line><polygon points="288.9,2.5,288.9,7.5,285.4,5" stroke="#000000" fill="#000000"></polygon><rect data-testid="box--1002833003-OX457036.1-33" x="292.4" y="0" width="2" height="10" fill="goldenrod" stroke=""></rect></g><g><line x1="292.4" x2="285.4" y1="20" y2="20" stroke="#000000"></line><polygon points="288.9,17.5,288.9,22.5,285.4,20" stroke="#000000" fill="#000000"></polygon><rect data-testid="box--1002833003-OX457036.1-31" x="292.4" y="15" width="16.283367915337386" height="10" fill="goldenrod" stroke=""></rect></g><g><line x1="292.4" x2="285.4" y1="35" y2="35" stroke="#000000"></line><polygon points="288.9,32.5,288.9,37.5,285.4,35" stroke="#000000" fill="#000000"></polygon><rect data-testid="box--1002833003-OX457036.1-32" x="292.4" y="30" width="16.283367915337386" height="10" fill="goldenrod" stroke=""></rect></g><g><line x1="292.4" x2="285.4" y1="50" y2="50" stroke="#000000"></line><polygon points="288.9,47.5,288.9,52.5,285.4,50" stroke="#000000" fill="#000000"></polygon><rect data-testid="box--1002833003-OX457036.1-34" x="292.4" y="45" width="16.283367915337386" height="10" fill="#8080FF" stroke=""></rect></g><g><line x1="308.5" x2="301.5" y1="5" y2="5" stroke="#000000"></line><polygon points="305,2.5,305,7.5,301.5,5" stroke="#000000" fill="#000000"></polygon><rect data-testid="box--1002833003-OX457036.1-35" x="308.5" y="0" width="2" height="10" fill="goldenrod" stroke=""></rect></g><g><line x1="316.1" x2="323.1" y1="5" y2="5" stroke="#000000"></line><polygon points="319.6,2.5,319.6,7.5,323.1,5" stroke="#000000" fill="#000000"></polygon><rect data-testid="box--1002833003-OX457036.1-38" x="315.1" y="0" width="2" height="10" fill="goldenrod" stroke=""></rect></g><g><line x1="334.16684961026687" x2="341.16684961026687" y1="20" y2="20" stroke="#000000"></line><polygon points="337.66684961026687,17.5,337.66684961026687,22.5,341.16684961026687,20" stroke="#000000" fill="#000000"></polygon><rect data-testid="box--1002833003-OX457036.1-36" x="315.1" y="15" width="19.066849610266853" height="10" fill="goldenrod" stroke=""></rect></g><g><line x1="334.16684961026687" x2="341.16684961026687" y1="35" y2="35" stroke="#000000"></line><polygon points="337.66684961026687,32.5,337.66684961026687,37.5,341.16684961026687,35" stroke="#000000" fill="#000000"></polygon><rect data-testid="box--1002833003-OX457036.1-37" x="315.1" y="30" width="19.066849610266853" height="10" fill="goldenrod" stroke=""></rect></g><g><line x1="334.16684961026687" x2="341.16684961026687" y1="50" y2="50" stroke="#000000"></line><polygon points="337.66684961026687,47.5,337.66684961026687,52.5,341.16684961026687,50" stroke="#000000" fill="#000000"></polygon><rect data-testid="box--1002833003-OX457036.1-39" x="315.1" y="45" width="19.066849610266853" height="10" fill="#FF8080" stroke=""></rect></g><g><line x1="335.1" x2="342.1" y1="5" y2="5" stroke="#000000"></line><polygon points="338.6,2.5,338.6,7.5,342.1,5" stroke="#000000" fill="#000000"></polygon><rect data-testid="box--1002833003-OX457036.1-40" x="334.1" y="0" width="2" height="10" fill="goldenrod" stroke=""></rect></g><g><line x1="358.4" x2="351.4" y1="5" y2="5" stroke="#000000"></line><polygon points="354.9,2.5,354.9,7.5,351.4,5" stroke="#000000" fill="#000000"></polygon><rect data-testid="box--1002833003-OX457036.1-43" x="358.4" y="0" width="2" height="10" fill="goldenrod" stroke=""></rect></g><g><line x1="358.4" x2="351.4" y1="20" y2="20" stroke="#000000"></line><polygon points="354.9,17.5,354.9,22.5,351.4,20" stroke="#000000" fill="#000000"></polygon><rect data-testid="box--1002833003-OX457036.1-41" x="358.4" y="15" width="47.18001472905448" height="10" fill="goldenrod" stroke=""></rect></g><g><line x1="358.4" x2="351.4" y1="35" y2="35" stroke="#000000"></line><polygon points="354.9,32.5,354.9,37.5,351.4,35" stroke="#000000" fill="#000000"></polygon><rect data-testid="box--1002833003-OX457036.1-42" x="358.4" y="30" width="47.18001472905448" height="10" fill="goldenrod" stroke=""></rect></g><g><line x1="358.4" x2="351.4" y1="50" y2="50" stroke="#000000"></line><polygon points="354.9,47.5,354.9,52.5,351.4,50" stroke="#000000" fill="#000000"></polygon><rect data-testid="box--1002833003-OX457036.1-44" x="358.4" y="45" width="47.18001472905448" height="10" fill="#FF8080" stroke=""></rect></g><g><line x1="405.5" x2="398.5" y1="5" y2="5" stroke="#000000"></line><polygon points="402,2.5,402,7.5,398.5,5" stroke="#000000" fill="#000000"></polygon><rect data-testid="box--1002833003-OX457036.1-45" x="405.5" y="0" width="2" height="10" fill="goldenrod" stroke=""></rect></g><g><line x1="421.9" x2="414.9" y1="5" y2="5" stroke="#000000"></line><polygon points="418.4,2.5,418.4,7.5,414.9,5" stroke="#000000" fill="#000000"></polygon><rect data-testid="box--1002833003-OX457036.1-48" x="421.9" y="0" width="2" height="10" fill="goldenrod" stroke=""></rect></g><g><line x1="421.9" x2="414.9" y1="20" y2="20" stroke="#000000"></line><polygon points="418.4,17.5,418.4,22.5,414.9,20" stroke="#000000" fill="#000000"></polygon><rect data-testid="box--1002833003-OX457036.1-53" x="421.9" y="15" width="44.442924395707166" height="10" fill="#80FF80" stroke=""></rect></g><g><line x1="421.9" x2="414.9" y1="35" y2="35" stroke="#000000"></line><polygon points="418.4,32.5,418.4,37.5,414.9,35" stroke="#000000" fill="#000000"></polygon><rect data-testid="box--1002833003-OX457036.1-46" x="421.9" y="30" width="213.53943736267232" height="10" fill="goldenrod" stroke=""></rect></g><g><line x1="421.9" x2="414.9" y1="50" y2="50" stroke="#000000"></line><polygon points="418.4,47.5,418.4,52.5,414.9,50" stroke="#000000" fill="#000000"></polygon><rect data-testid="box--1002833003-OX457036.1-47" x="421.9" y="45" width="213.53943736267232" height="10" fill="goldenrod" stroke=""></rect></g><g><line x1="466.4" x2="459.4" y1="5" y2="5" stroke="#000000"></line><polygon points="462.9,2.5,462.9,7.5,459.4,5" stroke="#000000" fill="#000000"></polygon><rect data-testid="box--1002833003-OX457036.1-49" x="466.4" y="0" width="99.60225331689279" height="10" fill="goldenrod" stroke=""></rect></g><g><line x1="566" x2="559" y1="20" y2="20" stroke="#000000"></line><polygon points="562.5,17.5,562.5,22.5,559,20" stroke="#000000" fill="#000000"></polygon><rect data-testid="box--1002833003-OX457036.1-54" x="566" y="15" width="6.030877005680513" height="10" fill="#FF8080" stroke=""></rect></g><g><line x1="572" x2="565" y1="5" y2="5" stroke="#000000"></line><polygon points="568.5,2.5,568.5,7.5,565,5" stroke="#000000" fill="#000000"></polygon><rect data-testid="box--1002833003-OX457036.1-50" x="572" y="0" width="2.505133525436521" height="10" fill="goldenrod" stroke=""></rect></g><g><line x1="574.5" x2="567.5" y1="65" y2="65" stroke="#000000"></line><polygon points="571,62.5,571,67.5,567.5,65" stroke="#000000" fill="#000000"></polygon><rect data-testid="box--1002833003-OX457036.1-55" x="574.5" y="60" width="8.953532785356455" height="10" fill="#FF8080" stroke=""></rect></g><g><line x1="583.5" x2="576.5" y1="5" y2="5" stroke="#000000"></line><polygon points="580,2.5,580,7.5,576.5,5" stroke="#000000" fill="#000000"></polygon><rect data-testid="box--1002833003-OX457036.1-51" x="583.5" y="0" width="16.84006425432328" height="10" fill="goldenrod" stroke=""></rect></g><g><line x1="600.3" x2="593.3" y1="20" y2="20" stroke="#000000"></line><polygon points="596.8,17.5,596.8,22.5,593.3,20" stroke="#000000" fill="#000000"></polygon><rect data-testid="box--1002833003-OX457036.1-56" x="600.3" y="15" width="7.56179193789172" height="10" fill="#FF8080" stroke=""></rect></g><g><line x1="607.9" x2="600.9" y1="5" y2="5" stroke="#000000"></line><polygon points="604.4,2.5,604.4,7.5,600.9,5" stroke="#000000" fill="#000000"></polygon><rect data-testid="box--1002833003-OX457036.1-52" x="607.9" y="0" width="2.31956807910789" height="10" fill="goldenrod" stroke=""></rect></g><g><line x1="610.2" x2="603.2" y1="65" y2="65" stroke="#000000"></line><polygon points="606.7,62.5,606.7,67.5,603.2,65" stroke="#000000" fill="#000000"></polygon><rect data-testid="box--1002833003-OX457036.1-57" x="610.2" y="60" width="25.283292062275997" height="10" fill="#8080FF" stroke=""></rect></g><g><line x1="635.3" x2="628.3" y1="5" y2="5" stroke="#000000"></line><polygon points="631.8,2.5,631.8,7.5,628.3,5" stroke="#000000" fill="#000000"></polygon><rect data-testid="box--1002833003-OX457036.1-58" x="635.3" y="0" width="2" height="10" fill="goldenrod" stroke=""></rect></g><g><line x1="1030.2" x2="1037.2" y1="5" y2="5" stroke="#000000"></line><polygon points="1033.7,2.5,1033.7,7.5,1037.2,5" stroke="#000000" fill="#000000"></polygon><rect data-testid="box--1002833003-OX457036.1-61" x="1029.2" y="0" width="2" height="10" fill="goldenrod" stroke=""></rect></g><g><line x1="1039.8700131638964" x2="1046.8700131638964" y1="20" y2="20" stroke="#000000"></line><polygon points="1043.3700131638964,17.5,1043.3700131638964,22.5,1046.8700131638964,20" stroke="#000000" fill="#000000"></polygon><rect data-testid="box--1002833003-OX457036.1-63" x="1029.2" y="15" width="10.670013163896293" height="10" fill="#8080FF" stroke=""></rect></g><g><line x1="1270.249514780892" x2="1277.249514780892" y1="35" y2="35" stroke="#000000"></line><polygon points="1273.749514780892,32.5,1273.749514780892,37.5,1277.249514780892,35" stroke="#000000" fill="#000000"></polygon><rect data-testid="box--1002833003-OX457036.1-59" x="1029.2" y="30" width="241.04951478089188" height="10" fill="goldenrod" stroke=""></rect></g><g><line x1="1270.249514780892" x2="1277.249514780892" y1="50" y2="50" stroke="#000000"></line><polygon points="1273.749514780892,47.5,1273.749514780892,52.5,1277.249514780892,50" stroke="#000000" fill="#000000"></polygon><rect data-testid="box--1002833003-OX457036.1-60" x="1029.2" y="45" width="241.04951478089188" height="10" fill="goldenrod" stroke=""></rect></g><g><line x1="1260.7692724926533" x2="1267.7692724926533" y1="5" y2="5" stroke="#000000"></line><polygon points="1264.2692724926533,2.5,1264.2692724926533,7.5,1267.7692724926533,5" stroke="#000000" fill="#000000"></polygon><rect data-testid="box--1002833003-OX457036.1-62" x="1039.9" y="0" width="220.86927249265327" height="10" fill="goldenrod" stroke=""></rect></g><g><line x1="1270.2102291243425" x2="1277.2102291243425" y1="20" y2="20" stroke="#000000"></line><polygon points="1273.7102291243425,17.5,1273.7102291243425,22.5,1277.2102291243425,20" stroke="#000000" fill="#000000"></polygon><rect data-testid="box--1002833003-OX457036.1-64" x="1260.7" y="15" width="9.510229124342347" height="10" fill="#8080FF" stroke=""></rect></g><g><line x1="1271.1" x2="1278.1" y1="5" y2="5" stroke="#000000"></line><polygon points="1274.6,2.5,1274.6,7.5,1278.1,5" stroke="#000000" fill="#000000"></polygon><rect data-testid="box--1002833003-OX457036.1-65" x="1270.1" y="0" width="2" height="10" fill="goldenrod" stroke=""></rect></g><g><line x1="1381.8" x2="1374.8" y1="5" y2="5" stroke="#000000"></line><polygon points="1378.3,2.5,1378.3,7.5,1374.8,5" stroke="#000000" fill="#000000"></polygon><rect data-testid="box--1002833003-OX457036.1-68" x="1381.8" y="0" width="2" height="10" fill="goldenrod" stroke=""></rect></g><g><line x1="1381.8" x2="1374.8" y1="20" y2="20" stroke="#000000"></line><polygon points="1378.3,17.5,1378.3,22.5,1374.8,20" stroke="#000000" fill="#000000"></polygon><rect data-testid="box--1002833003-OX457036.1-66" x="1381.8" y="15" width="11.690623118703764" height="10" fill="goldenrod" stroke=""></rect></g><g><line x1="1381.8" x2="1374.8" y1="35" y2="35" stroke="#000000"></line><polygon points="1378.3,32.5,1378.3,37.5,1374.8,35" stroke="#000000" fill="#000000"></polygon><rect data-testid="box--1002833003-OX457036.1-67" x="1381.8" y="30" width="11.690623118703764" height="10" fill="goldenrod" stroke=""></rect></g><g><line x1="1381.8" x2="1374.8" y1="50" y2="50" stroke="#000000"></line><polygon points="1378.3,47.5,1378.3,52.5,1374.8,50" stroke="#000000" fill="#000000"></polygon><rect data-testid="box--1002833003-OX457036.1-69" x="1381.8" y="45" width="11.690623118703764" height="10" fill="#FF8080" stroke=""></rect></g><g><line x1="1393.3" x2="1386.3" y1="5" y2="5" stroke="#000000"></line><polygon points="1389.8,2.5,1389.8,7.5,1386.3,5" stroke="#000000" fill="#000000"></polygon><rect data-testid="box--1002833003-OX457036.1-70" x="1393.3" y="0" width="2" height="10" fill="goldenrod" stroke=""></rect></g><g><line x1="1397.4" x2="1390.4" y1="20" y2="20" stroke="#000000"></line><polygon points="1393.9,17.5,1393.9,22.5,1390.4,20" stroke="#000000" fill="#000000"></polygon><rect data-testid="box--1002833003-OX457036.1-73" x="1397.4" y="15" width="2" height="10" fill="goldenrod" stroke=""></rect></g><g><line x1="1397.4" x2="1390.4" y1="35" y2="35" stroke="#000000"></line><polygon points="1393.9,32.5,1393.9,37.5,1390.4,35" stroke="#000000" fill="#000000"></polygon><rect data-testid="box--1002833003-OX457036.1-78" x="1397.4" y="30" width="9.324663678013717" height="10" fill="#FF8080" stroke=""></rect></g><g><line x1="1397.4" x2="1390.4" y1="50" y2="50" stroke="#000000"></line><polygon points="1393.9,47.5,1393.9,52.5,1390.4,50" stroke="#000000" fill="#000000"></polygon><rect data-testid="box--1002833003-OX457036.1-71" x="1397.4" y="45" width="694.2931174385735" height="10" fill="goldenrod" stroke=""></rect></g><g><line x1="1397.4" x2="1390.4" y1="65" y2="65" stroke="#000000"></line><polygon points="1393.9,62.5,1393.9,67.5,1390.4,65" stroke="#000000" fill="#000000"></polygon><rect data-testid="box--1002833003-OX457036.1-72" x="1397.4" y="60" width="694.2931174385735" height="10" fill="goldenrod" stroke=""></rect></g><g><line x1="1406.7" x2="1399.7" y1="5" y2="5" stroke="#000000"></line><polygon points="1403.2,2.5,1403.2,7.5,1399.7,5" stroke="#000000" fill="#000000"></polygon><rect data-testid="box--1002833003-OX457036.1-74" x="1406.7" y="0" width="378.367945064079" height="10" fill="goldenrod" stroke=""></rect></g></g></g></g></g><g><text x="0" y="5" fill="#000000" font-size="13" dominant-baseline="hanging">augustus.worm.lumter.2-3mb.gff</text></g></g><g transform="translate(0 462)"><g transform="translate(0 18)"><defs><clipPath id="clip-htGuAc_enpIH9ebo0fbGF-0.9536799356932617"><rect x="0" y="0" width="965.5937499999966" height="100"></rect></clipPath></defs><g transform="translate(0 0)"><g clip-path="url(#clip-htGuAc_enpIH9ebo0fbGF-0.9536799356932617)"><g><g><line data-testid="425862032-OX457036.1-4-0" x1="421.9" y1="5" y2="5" x2="629.7332998880669" stroke="#000000"></line><rect data-testid="box-425862032-OX457036.1-4-0-2" x="421.9" y="0" width="44.442924395707166" height="10" fill="#80FF80" stroke=""></rect><rect data-testid="box-425862032-OX457036.1-4-0-3" x="613.4963233343117" y="0" width="16.236976553755227" height="10" fill="#8080FF" stroke=""></rect><line x1="421.9" x2="414.9" y1="5" y2="5" stroke="#000000"></line><polygon points="418.4,2.5,418.4,7.5,414.9,5" stroke="#000000" fill="#000000"></polygon><text x="421.9" y="22" fill="#000000" font-size="12">g5</text></g></g></g></g></g><g><text x="0" y="5" fill="#000000" font-size="13" dominant-baseline="hanging">augustus.prothints.gff3</text></g></g></g></g></svg>