<svg width="965.59375" height="662" xmlns="http://www.w3.org/2000/svg" xmlns:xlink="http://www.w3.org/1999/xlink" viewBox="0,0,1065.59375,662"><rect width="1065.59375" height="662" fill="#ffffff"></rect><g transform="translate(50 0)"><g transform="translate(0)"><g id="header"><text x="0" y="0" dominant-baseline="hanging" font-size="13" fill="#000000">GCA_945859605.1 </text><g transform="translate(0 13)"><line x1="0" x2="965.5937499999966" y1="10" y2="10" stroke="#000000"></line><line x1="0" x2="0" y1="5" y2="15" stroke="#000000"></line><line x1="965.5937499999966" x2="965.5937499999966" y1="5" y2="15" stroke="#000000"></line><text x="482.7968749999983" y="13" text-anchor="middle" dominant-baseline="hanging" font-size="13" fill="#000000">5.2Kbp</text></g><g transform="translate(0 50)"><g><defs><clipPath id="clip-{GCA_945859605.1 }OX457036.1:2085367.6868274792..2090570.2081139258-0"><rect x="0" y="0" width="965.5937499999966" height="100"></rect></clipPath></defs><g transform="translate(0 0)"><g clip-path="url(#clip-{GCA_945859605.1 }OX457036.1:2085367.6868274792..2090570.2081139258-0)"><text x="4" y="13" font-size="13" fill="#000000">OX457036.1</text><g transform="translate(0 20)"><line x1="-31.116880984603092" x2="-31.116880984603092" y1="0" y2="4" stroke-width="1" stroke="#000000"></line><line x1="-12.560336351739974" x2="-12.560336351739974" y1="0" y2="4" stroke-width="1" stroke="#000000"></line><line x1="5.996208281123144" x2="5.996208281123144" y1="0" y2="4" stroke-width="1" stroke="#000000"></line><line x1="24.55275291398626" x2="24.55275291398626" y1="0" y2="4" stroke-width="1" stroke="#000000"></line><line x1="43.109297546849376" x2="43.109297546849376" y1="0" y2="4" stroke-width="1" stroke="#000000"></line><line x1="61.6658421797125" x2="61.6658421797125" y1="0" y2="4" stroke-width="1" stroke="#000000"></line><line x1="80.2223868125756" x2="80.2223868125756" y1="0" y2="4" stroke-width="1" stroke="#000000"></line><line x1="98.77893144543873" x2="98.77893144543873" y1="0" y2="4" stroke-width="1" stroke="#000000"></line><line x1="117.33547607830185" x2="117.33547607830185" y1="0" y2="6" stroke-width="1" stroke="#000000"></line><line x1="135.89202071116497" x2="135.89202071116497" y1="0" y2="4" stroke-width="1" stroke="#000000"></line><line x1="154.44856534402808" x2="154.44856534402808" y1="0" y2="4" stroke-width="1" stroke="#000000"></line><line x1="173.0051099768912" x2="173.0051099768912" y1="0" y2="4" stroke-width="1" stroke="#000000"></line><line x1="191.56165460975433" x2="191.56165460975433" y1="0" y2="4" stroke-width="1" stroke="#000000"></line><line x1="210.11819924261744" x2="210.11819924261744" y1="0" y2="4" stroke-width="1" stroke="#000000"></line><line x1="228.67474387548054" x2="228.67474387548054" y1="0" y2="4" stroke-width="1" stroke="#000000"></line><line x1="247.23128850834368" x2="247.23128850834368" y1="0" y2="4" stroke-width="1" stroke="#000000"></line><line x1="265.78783314120676" x2="265.78783314120676" y1="0" y2="4" stroke-width="1" stroke="#000000"></line><line x1="284.3443777740699" x2="284.3443777740699" y1="0" y2="4" stroke-width="1" stroke="#000000"></line><line x1="302.90092240693303" x2="302.90092240693303" y1="0" y2="6" stroke-width="1" stroke="#000000"></line><line x1="321.45746703979614" x2="321.45746703979614" y1="0" y2="4" stroke-width="1" stroke="#000000"></line><line x1="340.01401167265925" x2="340.01401167265925" y1="0" y2="4" stroke-width="1" stroke="#000000"></line><line x1="358.57055630552236" x2="358.57055630552236" y1="0" y2="4" stroke-width="1" stroke="#000000"></line><line x1="377.12710093838547" x2="377.12710093838547" y1="0" y2="4" stroke-width="1" stroke="#000000"></line><line x1="395.68364557124863" x2="395.68364557124863" y1="0" y2="4" stroke-width="1" stroke="#000000"></line><line x1="414.24019020411174" x2="414.24019020411174" y1="0" y2="4" stroke-width="1" stroke="#000000"></line><line x1="432.79673483697485" x2="432.79673483697485" y1="0" y2="4" stroke-width="1" stroke="#000000"></line><line x1="451.35327946983796" x2="451.35327946983796" y1="0" y2="4" stroke-width="1" stroke="#000000"></line><line x1="469.90982410270107" x2="469.90982410270107" y1="0" y2="4" stroke-width="1" stroke="#000000"></line><line x1="488.4663687355642" x2="488.4663687355642" y1="0" y2="6" stroke-width="1" stroke="#000000"></line><line x1="507.02291336842734" x2="507.02291336842734" y1="0" y2="4" stroke-width="1" stroke="#000000"></line><line x1="525.5794580012904" x2="525.5794580012904" y1="0" y2="4" stroke-width="1" stroke="#000000"></line><line x1="544.1360026341536" x2="544.1360026341536" y1="0" y2="4" stroke-width="1" stroke="#000000"></line><line x1="562.6925472670167" x2="562.6925472670167" y1="0" y2="4" stroke-width="1" stroke="#000000"></line><line x1="581.2490918998798" x2="581.2490918998798" y1="0" y2="4" stroke-width="1" stroke="#000000"></line><line x1="599.8056365327429" x2="599.8056365327429" y1="0" y2="4" stroke-width="1" stroke="#000000"></line><line x1="618.362181165606" x2="618.362181165606" y1="0" y2="4" stroke-width="1" stroke="#000000"></line><line x1="636.9187257984692" x2="636.9187257984692" y1="0" y2="4" stroke-width="1" stroke="#000000"></line><line x1="655.4752704313322" x2="655.4752704313322" y1="0" y2="4" stroke-width="1" stroke="#000000"></line><line x1="674.0318150641954" x2="674.0318150641954" y1="0" y2="6" stroke-width="1" stroke="#000000"></line><line x1="692.5883596970585" x2="692.5883596970585" y1="0" y2="4" stroke-width="1" stroke="#000000"></line><line x1="711.1449043299216" x2="711.1449043299216" y1="0" y2="4" stroke-width="1" stroke="#000000"></line><line x1="729.7014489627848" x2="729.7014489627848" y1="0" y2="4" stroke-width="1" stroke="#000000"></line><line x1="748.2579935956478" x2="748.2579935956478" y1="0" y2="4" stroke-width="1" stroke="#000000"></line><line x1="766.814538228511" x2="766.814538228511" y1="0" y2="4" stroke-width="1" stroke="#000000"></line><line x1="785.371082861374" x2="785.371082861374" y1="0" y2="4" stroke-width="1" stroke="#000000"></line><line x1="803.9276274942372" x2="803.9276274942372" y1="0" y2="4" stroke-width="1" stroke="#000000"></line><line x1="822.4841721271004" x2="822.4841721271004" y1="0" y2="4" stroke-width="1" stroke="#000000"></line><line x1="841.0407167599634" x2="841.0407167599634" y1="0" y2="4" stroke-width="1" stroke="#000000"></line><line x1="859.5972613928266" x2="859.5972613928266" y1="0" y2="6" stroke-width="1" stroke="#000000"></line><line x1="878.1538060256896" x2="878.1538060256896" y1="0" y2="4" stroke-width="1" stroke="#000000"></line><line x1="896.7103506585528" x2="896.7103506585528" y1="0" y2="4" stroke-width="1" stroke="#000000"></line><line x1="915.266895291416" x2="915.266895291416" y1="0" y2="4" stroke-width="1" stroke="#000000"></line><line x1="933.823439924279" x2="933.823439924279" y1="0" y2="4" stroke-width="1" stroke="#000000"></line><line x1="952.3799845571422" x2="952.3799845571422" y1="0" y2="4" stroke-width="1" stroke="#000000"></line><line x1="970.9365291900052" x2="970.9365291900052" y1="0" y2="4" stroke-width="1" stroke="#000000"></line><line x1="989.4930738228684" x2="989.4930738228684" y1="0" y2="4" stroke-width="1" stroke="#000000"></line><text x="114.33547607830185" y="18" font-size="11" fill="#000000">2,086,000</text><text x="299.90092240693303" y="18" font-size="11" fill="#000000">2,087,000</text><text x="485.4663687355642" y="18" font-size="11" fill="#000000">2,088,000</text><text x="671.0318150641954" y="18" font-size="11" fill="#000000">2,089,000</text><text x="856.5972613928266" y="18" font-size="11" fill="#000000">2,090,000</text></g></g></g></g></g></g></g><g transform="translate(0 100)"><g transform="translate(0 0)"><g transform="translate(0 18)"><defs><clipPath id="clip-3IDlZDj3Q0-ApaCKgeeNu-0.8043091525721549"><rect x="0" y="0" width="965.5937499999966" height="444"></rect></clipPath></defs><g transform="translate(0 0)"><g clip-path="url(#clip-3IDlZDj3Q0-ApaCKgeeNu-0.8043091525721549)"><g><g><line x1="306.7" x2="299.7" y1="5" y2="5" stroke="#000000"></line><polygon points="303.2,2.5,303.2,7.5,299.7,5" stroke="#000000" fill="#000000"></polygon><rect data-testid="box--1002833003-OX457036.1-19" x="306.7" y="0" width="2" height="10" fill="goldenrod" stroke=""></rect></g><g><line x1="306.7" x2="299.7" y1="20" y2="20" stroke="#000000"></line><polygon points="303.2,17.5,303.2,22.5,299.7,20" stroke="#000000" fill="#000000"></polygon><rect data-testid="box--1002833003-OX457036.1-22" x="306.7" y="15" width="65.31903710767817" height="10" fill="#FF8080" stroke=""></rect></g><g><line x1="306.7" x2="299.7" y1="35" y2="35" stroke="#000000"></line><polygon points="303.2,32.5,303.2,37.5,299.7,35" stroke="#000000" fill="#000000"></polygon><rect data-testid="box--1002833003-OX457036.1-17" x="306.7" y="30" width="601.0464806584364" height="10" fill="goldenrod" stroke=""></rect></g><g><line x1="306.7" x2="299.7" y1="50" y2="50" stroke="#000000"></line><polygon points="303.2,47.5,303.2,52.5,299.7,50" stroke="#000000" fill="#000000"></polygon><rect data-testid="box--1002833003-OX457036.1-18" x="306.7" y="45" width="601.0464806584364" height="10" fill="goldenrod" stroke=""></rect></g><g><line x1="372.1" x2="365.1" y1="5" y2="5" stroke="#000000"></line><polygon points="368.6,2.5,368.6,7.5,365.1,5" stroke="#000000" fill="#000000"></polygon><rect data-testid="box--1002833003-OX457036.1-20" x="372.1" y="0" width="390.8008299680973" height="10" fill="goldenrod" stroke=""></rect></g><g><line x1="762.9" x2="755.9" y1="20" y2="20" stroke="#000000"></line><polygon points="759.4,17.5,759.4,22.5,755.9,20" stroke="#000000" fill="#000000"></polygon><rect data-testid="box--1002833003-OX457036.1-23" x="762.9" y="15" width="68.84478058792216" height="10" fill="#FF8080" stroke=""></rect></g><g><line x1="831.7" x2="824.7" y1="5" y2="5" stroke="#000000"></line><polygon points="828.2,2.5,828.2,7.5,824.7,5" stroke="#000000" fill="#000000"></polygon><rect data-testid="box--1002833003-OX457036.1-21" x="831.7" y="0" width="66.0612988929927" height="10" fill="goldenrod" stroke=""></rect></g><g><line x1="897.8" x2="890.8" y1="20" y2="20" stroke="#000000"></line><polygon points="894.3,17.5,894.3,22.5,890.8,20" stroke="#000000" fill="#000000"></polygon><rect data-testid="box--1002833003-OX457036.1-24" x="897.8" y="15" width="10.020534101746083" height="10" fill="#8080FF" stroke=""></rect></g><g><line x1="907.2" x2="900.2" y1="5" y2="5" stroke="#000000"></line><polygon points="903.7,2.5,903.7,7.5,900.2,5" stroke="#000000" fill="#000000"></polygon><rect data-testid="box--1002833003-OX457036.1-25" x="907.2" y="0" width="2" height="10" fill="goldenrod" stroke=""></rect></g><g><line x1="994.5" x2="1001.5" y1="5" y2="5" stroke="#000000"></line><polygon points="998,2.5,998,7.5,1001.5,5" stroke="#000000" fill="#000000"></polygon><rect data-testid="box--1002833003-OX457036.1-28" x="993.5" y="0" width="2" height="10" fill="goldenrod" stroke=""></rect></g><g><line x1="1070.8807911190393" x2="1077.8807911190393" y1="20" y2="20" stroke="#000000"></line><polygon points="1074.3807911190393,17.5,1074.3807911190393,22.5,1077.8807911190393,20" stroke="#000000" fill="#000000"></polygon><rect data-testid="box--1002833003-OX457036.1-26" x="993.5" y="15" width="77.3807911190392" height="10" fill="goldenrod" stroke=""></rect></g><g><line x1="1070.8807911190393" x2="1077.8807911190393" y1="35" y2="35" stroke="#000000"></line><polygon points="1074.3807911190393,32.5,1074.3807911190393,37.5,1077.8807911190393,35" stroke="#000000" fill="#000000"></polygon><rect data-testid="box--1002833003-OX457036.1-27" x="993.5" y="30" width="77.3807911190392" height="10" fill="goldenrod" stroke=""></rect></g><g><line x1="1070.8807911190393" x2="1077.8807911190393" y1="50" y2="50" stroke="#000000"></line><polygon points="1074.3807911190393,47.5,1074.3807911190393,52.5,1077.8807911190393,50" stroke="#000000" fill="#000000"></polygon><rect data-testid="box--1002833003-OX457036.1-29" x="993.5" y="45" width="77.3807911190392" height="10" fill="#8080FF" stroke=""></rect></g><g><line x1="1071.3" x2="1078.3" y1="5" y2="5" stroke="#000000"></line><polygon points="1074.8,2.5,1074.8,7.5,1078.3,5" stroke="#000000" fill="#000000"></polygon><rect data-testid="box--1002833003-OX457036.1-30" x="1070.3" y="0" width="2" height="10" fill="goldenrod" stroke=""></rect></g></g></g></g></g><g><text x="0" y="5" fill="#000000" font-size="13" dominant-baseline="hanging">augustus.worm.lumter.2-3mb.gff</text></g></g></g></g></svg>