<svg width="965.59375" height="780" xmlns="http://www.w3.org/2000/svg" xmlns:xlink="http://www.w3.org/1999/xlink" viewBox="0,0,1065.59375,780"><rect width="1065.59375" height="780" fill="#ffffff"></rect><g transform="translate(50 0)"><g transform="translate(0)"><g id="header"><text x="0" y="0" dominant-baseline="hanging" font-size="13" fill="#000000">GCA_945859605.1 </text><g transform="translate(0 13)"><line x1="0" x2="965.5937499999966" y1="10" y2="10" stroke="#000000"></line><line x1="0" x2="0" y1="5" y2="15" stroke="#000000"></line><line x1="965.5937499999966" x2="965.5937499999966" y1="5" y2="15" stroke="#000000"></line><text x="482.7968749999983" y="13" text-anchor="middle" dominant-baseline="hanging" font-size="13" fill="#000000">20.8Kbp</text></g><g transform="translate(0 50)"><g><defs><clipPath id="clip-{GCA_945859605.1 }OX457036.1:2197910.1909045316..2218723.276050318-0"><rect x="0" y="0" width="965.5937499999966" height="100"></rect></clipPath></defs><g transform="translate(1.4551915228366852e-11 0)"><g clip-path="url(#clip-{GCA_945859605.1 }OX457036.1:2197910.1909045316..2218723.276050318-0)"><text x="4" y="13" font-size="13" fill="#000000">OX457036.1</text><g transform="translate(0 20)"><line x1="-32.946723044486454" x2="-32.946723044486454" y1="0" y2="4" stroke-width="1" stroke="#000000"></line><line x1="-14.390178411623339" x2="-14.390178411623339" y1="0" y2="4" stroke-width="1" stroke="#000000"></line><line x1="4.166366221239779" x2="4.166366221239779" y1="0" y2="4" stroke-width="1" stroke="#000000"></line><line x1="22.722910854102896" x2="22.722910854102896" y1="0" y2="4" stroke-width="1" stroke="#000000"></line><line x1="41.279455486966015" x2="41.279455486966015" y1="0" y2="4" stroke-width="1" stroke="#000000"></line><line x1="59.83600011982913" x2="59.83600011982913" y1="0" y2="4" stroke-width="1" stroke="#000000"></line><line x1="78.39254475269225" x2="78.39254475269225" y1="0" y2="4" stroke-width="1" stroke="#000000"></line><line x1="96.94908938555537" x2="96.94908938555537" y1="0" y2="6" stroke-width="1" stroke="#000000"></line><line x1="115.50563401841849" x2="115.50563401841849" y1="0" y2="4" stroke-width="1" stroke="#000000"></line><line x1="134.0621786512816" x2="134.0621786512816" y1="0" y2="4" stroke-width="1" stroke="#000000"></line><line x1="152.61872328414472" x2="152.61872328414472" y1="0" y2="4" stroke-width="1" stroke="#000000"></line><line x1="171.17526791700783" x2="171.17526791700783" y1="0" y2="4" stroke-width="1" stroke="#000000"></line><line x1="189.73181254987097" x2="189.73181254987097" y1="0" y2="4" stroke-width="1" stroke="#000000"></line><line x1="208.28835718273407" x2="208.28835718273407" y1="0" y2="4" stroke-width="1" stroke="#000000"></line><line x1="226.84490181559718" x2="226.84490181559718" y1="0" y2="4" stroke-width="1" stroke="#000000"></line><line x1="245.4014464484603" x2="245.4014464484603" y1="0" y2="4" stroke-width="1" stroke="#000000"></line><line x1="263.9579910813234" x2="263.9579910813234" y1="0" y2="4" stroke-width="1" stroke="#000000"></line><line x1="282.51453571418654" x2="282.51453571418654" y1="0" y2="6" stroke-width="1" stroke="#000000"></line><line x1="301.07108034704964" x2="301.07108034704964" y1="0" y2="4" stroke-width="1" stroke="#000000"></line><line x1="319.62762497991275" x2="319.62762497991275" y1="0" y2="4" stroke-width="1" stroke="#000000"></line><line x1="338.1841696127759" x2="338.1841696127759" y1="0" y2="4" stroke-width="1" stroke="#000000"></line><line x1="356.740714245639" x2="356.740714245639" y1="0" y2="4" stroke-width="1" stroke="#000000"></line><line x1="375.29725887850213" x2="375.29725887850213" y1="0" y2="4" stroke-width="1" stroke="#000000"></line><line x1="393.85380351136524" x2="393.85380351136524" y1="0" y2="4" stroke-width="1" stroke="#000000"></line><line x1="412.41034814422835" x2="412.41034814422835" y1="0" y2="4" stroke-width="1" stroke="#000000"></line><line x1="430.96689277709146" x2="430.96689277709146" y1="0" y2="4" stroke-width="1" stroke="#000000"></line><line x1="449.5234374099546" x2="449.5234374099546" y1="0" y2="4" stroke-width="1" stroke="#000000"></line><line x1="468.07998204281773" x2="468.07998204281773" y1="0" y2="6" stroke-width="1" stroke="#000000"></line><line x1="486.63652667568084" x2="486.63652667568084" y1="0" y2="4" stroke-width="1" stroke="#000000"></line><line x1="505.19307130854395" x2="505.19307130854395" y1="0" y2="4" stroke-width="1" stroke="#000000"></line><line x1="523.7496159414071" x2="523.7496159414071" y1="0" y2="4" stroke-width="1" stroke="#000000"></line><line x1="542.3061605742702" x2="542.3061605742702" y1="0" y2="4" stroke-width="1" stroke="#000000"></line><line x1="560.8627052071333" x2="560.8627052071333" y1="0" y2="4" stroke-width="1" stroke="#000000"></line><line x1="579.4192498399964" x2="579.4192498399964" y1="0" y2="4" stroke-width="1" stroke="#000000"></line><line x1="597.9757944728595" x2="597.9757944728595" y1="0" y2="4" stroke-width="1" stroke="#000000"></line><line x1="616.5323391057226" x2="616.5323391057226" y1="0" y2="4" stroke-width="1" stroke="#000000"></line><line x1="635.0888837385858" x2="635.0888837385858" y1="0" y2="4" stroke-width="1" stroke="#000000"></line><line x1="653.6454283714489" x2="653.6454283714489" y1="0" y2="6" stroke-width="1" stroke="#000000"></line><line x1="672.201973004312" x2="672.201973004312" y1="0" y2="4" stroke-width="1" stroke="#000000"></line><line x1="690.7585176371751" x2="690.7585176371751" y1="0" y2="4" stroke-width="1" stroke="#000000"></line><line x1="709.3150622700382" x2="709.3150622700382" y1="0" y2="4" stroke-width="1" stroke="#000000"></line><line x1="727.8716069029014" x2="727.8716069029014" y1="0" y2="4" stroke-width="1" stroke="#000000"></line><line x1="746.4281515357645" x2="746.4281515357645" y1="0" y2="4" stroke-width="1" stroke="#000000"></line><line x1="764.9846961686276" x2="764.9846961686276" y1="0" y2="4" stroke-width="1" stroke="#000000"></line><line x1="783.5412408014907" x2="783.5412408014907" y1="0" y2="4" stroke-width="1" stroke="#000000"></line><line x1="802.0977854343538" x2="802.0977854343538" y1="0" y2="4" stroke-width="1" stroke="#000000"></line><line x1="820.654330067217" x2="820.654330067217" y1="0" y2="4" stroke-width="1" stroke="#000000"></line><line x1="839.21087470008" x2="839.21087470008" y1="0" y2="6" stroke-width="1" stroke="#000000"></line><line x1="857.7674193329432" x2="857.7674193329432" y1="0" y2="4" stroke-width="1" stroke="#000000"></line><line x1="876.3239639658063" x2="876.3239639658063" y1="0" y2="4" stroke-width="1" stroke="#000000"></line><line x1="894.8805085986694" x2="894.8805085986694" y1="0" y2="4" stroke-width="1" stroke="#000000"></line><line x1="913.4370532315326" x2="913.4370532315326" y1="0" y2="4" stroke-width="1" stroke="#000000"></line><line x1="931.9935978643956" x2="931.9935978643956" y1="0" y2="4" stroke-width="1" stroke="#000000"></line><line x1="950.5501424972588" x2="950.5501424972588" y1="0" y2="4" stroke-width="1" stroke="#000000"></line><line x1="969.1066871301218" x2="969.1066871301218" y1="0" y2="4" stroke-width="1" stroke="#000000"></line><line x1="987.663231762985" x2="987.663231762985" y1="0" y2="4" stroke-width="1" stroke="#000000"></line><text x="93.94908938555537" y="18" font-size="11" fill="#000000">2,200,000</text><text x="279.51453571418654" y="18" font-size="11" fill="#000000">2,204,000</text><text x="465.07998204281773" y="18" font-size="11" fill="#000000">2,208,000</text><text x="650.6454283714489" y="18" font-size="11" fill="#000000">2,212,000</text><text x="836.21087470008" y="18" font-size="11" fill="#000000">2,216,000</text></g></g></g></g></g></g></g><g transform="translate(0 100)"><g transform="translate(0 0)"><g transform="translate(0 18)"><defs><clipPath id="clip-3IDlZDj3Q0-ApaCKgeeNu-0.05569794693122154"><rect x="0" y="0" width="965.5937499999966" height="444"></rect></clipPath></defs><g transform="translate(1.4551915228366852e-11 0)"><g clip-path="url(#clip-3IDlZDj3Q0-ApaCKgeeNu-0.05569794693122154)"><g><g><line x1="373.3" x2="366.3" y1="5" y2="5" stroke="#000000"></line><polygon points="369.8,2.5,369.8,7.5,366.3,5" stroke="#000000" fill="#000000"></polygon><rect data-testid="box--1002833003-OX457036.1-98" x="373.3" y="0" width="2" height="10" fill="goldenrod" stroke=""></rect></g><g><line x1="373.3" x2="366.3" y1="20" y2="20" stroke="#000000"></line><polygon points="369.8,17.5,369.8,22.5,366.3,20" stroke="#000000" fill="#000000"></polygon><rect data-testid="box--1002833003-OX457036.1-96" x="373.3" y="15" width="22.407027644182214" height="10" fill="goldenrod" stroke=""></rect></g><g><line x1="373.3" x2="366.3" y1="35" y2="35" stroke="#000000"></line><polygon points="369.8,32.5,369.8,37.5,366.3,35" stroke="#000000" fill="#000000"></polygon><rect data-testid="box--1002833003-OX457036.1-97" x="373.3" y="30" width="22.407027644182214" height="10" fill="goldenrod" stroke=""></rect></g><g><line x1="373.3" x2="366.3" y1="50" y2="50" stroke="#000000"></line><polygon points="369.8,47.5,369.8,52.5,366.3,50" stroke="#000000" fill="#000000"></polygon><rect data-testid="box--1002833003-OX457036.1-99" x="373.3" y="45" width="22.407027644182214" height="10" fill="#80FF80" stroke=""></rect></g><g><line x1="395.5" x2="388.5" y1="5" y2="5" stroke="#000000"></line><polygon points="392,2.5,392,7.5,388.5,5" stroke="#000000" fill="#000000"></polygon><rect data-testid="box--1002833003-OX457036.1-100" x="395.5" y="0" width="2" height="10" fill="goldenrod" stroke=""></rect></g><g><line x1="457.8" x2="464.8" y1="5" y2="5" stroke="#000000"></line><polygon points="461.3,2.5,461.3,7.5,464.8,5" stroke="#000000" fill="#000000"></polygon><rect data-testid="box--1002833003-OX457036.1-103" x="456.8" y="0" width="2" height="10" fill="goldenrod" stroke=""></rect></g><g><line x1="457.8" x2="464.8" y1="20" y2="20" stroke="#000000"></line><polygon points="461.3,17.5,461.3,22.5,464.8,20" stroke="#000000" fill="#000000"></polygon><rect data-testid="box--1002833003-OX457036.1-106" x="456.8" y="15" width="2" height="10" fill="#80FF80" stroke=""></rect></g><g><line x1="582.5205898876476" x2="589.5205898876476" y1="35" y2="35" stroke="#000000"></line><polygon points="586.0205898876476,32.5,586.0205898876476,37.5,589.5205898876476,35" stroke="#000000" fill="#000000"></polygon><rect data-testid="box--1002833003-OX457036.1-101" x="456.8" y="30" width="125.72058988764762" height="10" fill="goldenrod" stroke=""></rect></g><g><line x1="582.5205898876476" x2="589.5205898876476" y1="50" y2="50" stroke="#000000"></line><polygon points="586.0205898876476,47.5,586.0205898876476,52.5,589.5205898876476,50" stroke="#000000" fill="#000000"></polygon><rect data-testid="box--1002833003-OX457036.1-102" x="456.8" y="45" width="125.72058988764762" height="10" fill="goldenrod" stroke=""></rect></g><g><line x1="464.43705240681663" x2="471.43705240681663" y1="65" y2="65" stroke="#000000"></line><polygon points="467.93705240681663,62.5,467.93705240681663,67.5,471.43705240681663,65" stroke="#000000" fill="#000000"></polygon><rect data-testid="box--1002833003-OX457036.1-104" x="457.2" y="60" width="7.237052406816616" height="10" fill="goldenrod" stroke=""></rect></g><g><line x1="474.7060995480747" x2="481.7060995480747" y1="5" y2="5" stroke="#000000"></line><polygon points="478.2060995480747,2.5,478.2060995480747,7.5,481.7060995480747,5" stroke="#000000" fill="#000000"></polygon><rect data-testid="box--1002833003-OX457036.1-107" x="464.5" y="0" width="10.206099548074715" height="10" fill="#80FF80" stroke=""></rect></g><g><line x1="573.4208174468317" x2="580.4208174468317" y1="20" y2="20" stroke="#000000"></line><polygon points="576.9208174468317,17.5,576.9208174468317,22.5,580.4208174468317,20" stroke="#000000" fill="#000000"></polygon><rect data-testid="box--1002833003-OX457036.1-105" x="474.7" y="15" width="98.72081744683179" height="10" fill="goldenrod" stroke=""></rect></g><g><line x1="582.4927068701029" x2="589.4927068701029" y1="5" y2="5" stroke="#000000"></line><polygon points="585.9927068701029,2.5,585.9927068701029,7.5,589.4927068701029,5" stroke="#000000" fill="#000000"></polygon><rect data-testid="box--1002833003-OX457036.1-108" x="573.4" y="0" width="9.092706870102928" height="10" fill="#8080FF" stroke=""></rect></g><g><line x1="583.4" x2="590.4" y1="20" y2="20" stroke="#000000"></line><polygon points="586.9,17.5,586.9,22.5,590.4,20" stroke="#000000" fill="#000000"></polygon><rect data-testid="box--1002833003-OX457036.1-109" x="582.4" y="15" width="2" height="10" fill="goldenrod" stroke=""></rect></g><g><line x1="590.2" x2="597.2" y1="5" y2="5" stroke="#000000"></line><polygon points="593.7,2.5,593.7,7.5,597.2,5" stroke="#000000" fill="#000000"></polygon><rect data-testid="box--1002833003-OX457036.1-112" x="589.2" y="0" width="2" height="10" fill="goldenrod" stroke=""></rect></g><g><line x1="595.091702920934" x2="602.091702920934" y1="20" y2="20" stroke="#000000"></line><polygon points="598.591702920934,17.5,598.591702920934,22.5,602.091702920934,20" stroke="#000000" fill="#000000"></polygon><rect data-testid="box--1002833003-OX457036.1-116" x="589.2" y="15" width="5.89170292093404" height="10" fill="#8080FF" stroke=""></rect></g><g><line x1="694.3228253451696" x2="701.3228253451696" y1="35" y2="35" stroke="#000000"></line><polygon points="697.8228253451696,32.5,697.8228253451696,37.5,701.3228253451696,35" stroke="#000000" fill="#000000"></polygon><rect data-testid="box--1002833003-OX457036.1-110" x="589.2" y="30" width="105.12282534516956" height="10" fill="goldenrod" stroke=""></rect></g><g><line x1="694.3228253451696" x2="701.3228253451696" y1="50" y2="50" stroke="#000000"></line><polygon points="697.8228253451696,47.5,697.8228253451696,52.5,701.3228253451696,50" stroke="#000000" fill="#000000"></polygon><rect data-testid="box--1002833003-OX457036.1-111" x="589.2" y="45" width="105.12282534516956" height="10" fill="goldenrod" stroke=""></rect></g><g><line x1="600.3422238587839" x2="607.3422238587839" y1="5" y2="5" stroke="#000000"></line><polygon points="603.8422238587839,2.5,603.8422238587839,7.5,607.3422238587839,5" stroke="#000000" fill="#000000"></polygon><rect data-testid="box--1002833003-OX457036.1-113" x="595.1" y="0" width="5.242223858783831" height="10" fill="goldenrod" stroke=""></rect></g><g><line x1="603.547395310751" x2="610.547395310751" y1="20" y2="20" stroke="#000000"></line><polygon points="607.047395310751,17.5,607.047395310751,22.5,610.547395310751,20" stroke="#000000" fill="#000000"></polygon><rect data-testid="box--1002833003-OX457036.1-117" x="600.3" y="15" width="3.2473953107510454" height="10" fill="#80FF80" stroke=""></rect></g><g><line x1="611.1154005763096" x2="618.1154005763096" y1="65" y2="65" stroke="#000000"></line><polygon points="614.6154005763096,62.5,614.6154005763096,67.5,618.1154005763096,65" stroke="#000000" fill="#000000"></polygon><rect data-testid="box--1002833003-OX457036.1-114" x="603.6" y="60" width="7.515400576309562" height="10" fill="goldenrod" stroke=""></rect></g><g><line x1="615.7391361582158" x2="622.7391361582158" y1="5" y2="5" stroke="#000000"></line><polygon points="619.2391361582158,2.5,619.2391361582158,7.5,622.7391361582158,5" stroke="#000000" fill="#000000"></polygon><rect data-testid="box--1002833003-OX457036.1-118" x="611.1" y="0" width="4.63913615821578" height="10" fill="#80FF80" stroke=""></rect></g><g><line x1="674.2458983166832" x2="681.2458983166832" y1="20" y2="20" stroke="#000000"></line><polygon points="677.7458983166832,17.5,677.7458983166832,22.5,681.2458983166832,20" stroke="#000000" fill="#000000"></polygon><rect data-testid="box--1002833003-OX457036.1-115" x="615.7" y="15" width="58.545898316683136" height="10" fill="goldenrod" stroke=""></rect></g><g><line x1="694.3410682034921" x2="701.3410682034921" y1="5" y2="5" stroke="#000000"></line><polygon points="697.8410682034921,2.5,697.8410682034921,7.5,701.3410682034921,5" stroke="#000000" fill="#000000"></polygon><rect data-testid="box--1002833003-OX457036.1-119" x="674.3" y="0" width="20.041068203492166" height="10" fill="#FF8080" stroke=""></rect></g><g><line x1="695.2" x2="702.2" y1="20" y2="20" stroke="#000000"></line><polygon points="698.7,17.5,698.7,22.5,702.2,20" stroke="#000000" fill="#000000"></polygon><rect data-testid="box--1002833003-OX457036.1-120" x="694.2" y="15" width="2" height="10" fill="goldenrod" stroke=""></rect></g><g><line x1="736" x2="743" y1="5" y2="5" stroke="#000000"></line><polygon points="739.5,2.5,739.5,7.5,743,5" stroke="#000000" fill="#000000"></polygon><rect data-testid="box--1002833003-OX457036.1-123" x="735" y="0" width="2" height="10" fill="goldenrod" stroke=""></rect></g><g><line x1="740.891702920934" x2="747.891702920934" y1="20" y2="20" stroke="#000000"></line><polygon points="744.391702920934,17.5,744.391702920934,22.5,747.891702920934,20" stroke="#000000" fill="#000000"></polygon><rect data-testid="box--1002833003-OX457036.1-127" x="735" y="15" width="5.89170292093404" height="10" fill="#80FF80" stroke=""></rect></g><g><line x1="780.0460120962753" x2="787.0460120962753" y1="35" y2="35" stroke="#000000"></line><polygon points="783.5460120962753,32.5,783.5460120962753,37.5,787.0460120962753,35" stroke="#000000" fill="#000000"></polygon><rect data-testid="box--1002833003-OX457036.1-121" x="735" y="30" width="45.04601209627522" height="10" fill="goldenrod" stroke=""></rect></g><g><line x1="780.0460120962753" x2="787.0460120962753" y1="50" y2="50" stroke="#000000"></line><polygon points="783.5460120962753,47.5,783.5460120962753,52.5,787.0460120962753,50" stroke="#000000" fill="#000000"></polygon><rect data-testid="box--1002833003-OX457036.1-122" x="735" y="45" width="45.04601209627522" height="10" fill="goldenrod" stroke=""></rect></g><g><line x1="746.1422238587838" x2="753.1422238587838" y1="5" y2="5" stroke="#000000"></line><polygon points="749.6422238587838,2.5,749.6422238587838,7.5,753.1422238587838,5" stroke="#000000" fill="#000000"></polygon><rect data-testid="box--1002833003-OX457036.1-124" x="740.9" y="0" width="5.242223858783831" height="10" fill="goldenrod" stroke=""></rect></g><g><line x1="748.4659594406901" x2="755.4659594406901" y1="20" y2="20" stroke="#000000"></line><polygon points="751.9659594406901,17.5,751.9659594406901,22.5,755.4659594406901,20" stroke="#000000" fill="#000000"></polygon><rect data-testid="box--1002833003-OX457036.1-128" x="746.1" y="15" width="2.3659594406900473" height="10" fill="#FF8080" stroke=""></rect></g><g><line x1="756.5720969152954" x2="763.5720969152954" y1="65" y2="65" stroke="#000000"></line><polygon points="760.0720969152954,62.5,760.0720969152954,67.5,763.5720969152954,65" stroke="#000000" fill="#000000"></polygon><rect data-testid="box--1002833003-OX457036.1-125" x="748.5" y="60" width="8.072096915295456" height="10" fill="goldenrod" stroke=""></rect></g><g><line x1="761.5638756892909" x2="768.5638756892909" y1="5" y2="5" stroke="#000000"></line><polygon points="765.0638756892909,2.5,765.0638756892909,7.5,768.5638756892909,5" stroke="#000000" fill="#000000"></polygon><rect data-testid="box--1002833003-OX457036.1-129" x="756.6" y="0" width="4.963875689290884" height="10" fill="#FF8080" stroke=""></rect></g><g><line x1="778.6184124238163" x2="785.6184124238163" y1="20" y2="20" stroke="#000000"></line><polygon points="782.1184124238163,17.5,782.1184124238163,22.5,785.6184124238163,20" stroke="#000000" fill="#000000"></polygon><rect data-testid="box--1002833003-OX457036.1-126" x="761.5" y="15" width="17.118412423816224" height="10" fill="goldenrod" stroke=""></rect></g><g><line x1="779.9917408474647" x2="786.9917408474647" y1="5" y2="5" stroke="#000000"></line><polygon points="783.4917408474647,2.5,783.4917408474647,7.5,786.9917408474647,5" stroke="#000000" fill="#000000"></polygon><rect data-testid="box--1002833003-OX457036.1-130" x="778.6" y="0" width="2" height="10" fill="#FF8080" stroke=""></rect></g><g><line x1="780.9" x2="787.9" y1="65" y2="65" stroke="#000000"></line><polygon points="784.4,62.5,784.4,67.5,787.9,65" stroke="#000000" fill="#000000"></polygon><rect data-testid="box--1002833003-OX457036.1-131" x="779.9" y="60" width="2" height="10" fill="goldenrod" stroke=""></rect></g><g><line x1="924.7" x2="931.7" y1="5" y2="5" stroke="#000000"></line><polygon points="928.2,2.5,928.2,7.5,931.7,5" stroke="#000000" fill="#000000"></polygon><rect data-testid="box--1002833003-OX457036.1-134" x="923.7" y="0" width="2" height="10" fill="goldenrod" stroke=""></rect></g><g><line x1="944.9936349662105" x2="951.9936349662105" y1="20" y2="20" stroke="#000000"></line><polygon points="948.4936349662105,17.5,948.4936349662105,22.5,951.9936349662105,20" stroke="#000000" fill="#000000"></polygon><rect data-testid="box--1002833003-OX457036.1-132" x="923.7" y="15" width="21.293634966210426" height="10" fill="goldenrod" stroke=""></rect></g><g><line x1="944.9936349662105" x2="951.9936349662105" y1="35" y2="35" stroke="#000000"></line><polygon points="948.4936349662105,32.5,948.4936349662105,37.5,951.9936349662105,35" stroke="#000000" fill="#000000"></polygon><rect data-testid="box--1002833003-OX457036.1-133" x="923.7" y="30" width="21.293634966210426" height="10" fill="goldenrod" stroke=""></rect></g><g><line x1="944.9936349662105" x2="951.9936349662105" y1="50" y2="50" stroke="#000000"></line><polygon points="948.4936349662105,47.5,948.4936349662105,52.5,951.9936349662105,50" stroke="#000000" fill="#000000"></polygon><rect data-testid="box--1002833003-OX457036.1-135" x="923.7" y="45" width="21.293634966210426" height="10" fill="#FF8080" stroke=""></rect></g><g><line x1="945.8" x2="952.8" y1="5" y2="5" stroke="#000000"></line><polygon points="949.3,2.5,949.3,7.5,952.8,5" stroke="#000000" fill="#000000"></polygon><rect data-testid="box--1002833003-OX457036.1-136" x="944.8" y="0" width="2" height="10" fill="goldenrod" stroke=""></rect></g></g></g></g></g><g><text x="0" y="5" fill="#000000" font-size="13" dominant-baseline="hanging">augustus.worm.lumter.2-3mb.gff</text></g></g><g transform="translate(0 462)"><g transform="translate(0 18)"><defs><clipPath id="clip-htGuAc_enpIH9ebo0fbGF-0.6435495857801836"><rect x="0" y="0" width="965.5937499999966" height="100"></rect></clipPath></defs><g transform="translate(1.4551915228366852e-11 0)"><g clip-path="url(#clip-htGuAc_enpIH9ebo0fbGF-0.6435495857801836)"><g><g><line data-testid="425862032-OX457036.1-5-0" x1="373.3" y1="5" y2="5" x2="395.70702764418223" stroke="#000000"></line><rect data-testid="box-425862032-OX457036.1-5-0-1" x="373.3" y="0" width="22.407027644182214" height="10" fill="#80FF80" stroke=""></rect><line x1="373.3" x2="366.3" y1="5" y2="5" stroke="#000000"></line><polygon points="369.8,2.5,369.8,7.5,366.3,5" stroke="#000000" fill="#000000"></polygon><text x="373.3" y="22" fill="#000000" font-size="12">g6</text></g><g><line data-testid="425862032-OX457036.1-6-0" x1="684" y1="5" y2="5" x2="693.4638377627601" stroke="#000000"></line><rect data-testid="box-425862032-OX457036.1-6-0-1" x="684" y="0" width="9.463837762760189" height="10" fill="#80FF80" stroke=""></rect><line x1="693.4638377627601" x2="700.4638377627601" y1="5" y2="5" stroke="#000000"></line><polygon points="696.9638377627601,2.5,696.9638377627601,7.5,700.4638377627601,5" stroke="#000000" fill="#000000"></polygon><text x="684" y="22" fill="#000000" font-size="12">g7</text></g></g></g></g></g><g><text x="0" y="5" fill="#000000" font-size="13" dominant-baseline="hanging">augustus.prothints.gff3</text></g></g></g></g></svg>